<?xml version="1.0" encoding="UTF-8" standalone="no"?><svg xmlns="http://www.w3.org/2000/svg" xmlns:xlink="http://www.w3.org/1999/xlink" contentScriptType="application/ecmascript" contentStyleType="text/css" height="568.8px" preserveAspectRatio="none" style="width:626px;height:568px;background:#FFFFFF;" version="1.1" viewBox="0 0 626 568" width="626.4px" zoomAndPan="magnify"><defs><filter height="300%" id="fbbf0ymzaxsbk" width="300%" x="-1" y="-1"><feGaussianBlur result="blurOut" stdDeviation="3.6"/><feColorMatrix in="blurOut" result="blurOut2" type="matrix" values="0 0 0 0 0 0 0 0 0 0 0 0 0 0 0 0 0 0 .4 0"/><feOffset dx="7.2" dy="7.2" in="blurOut2" result="blurOut3"/><feBlend in="SourceGraphic" in2="blurOut3" mode="normal"/></filter></defs><g><!--MD5=[2b25c74531c39e7bc052d661516b47c4]
class sorting--><rect codeLine="5" fill="#FEFECE" filter="url(#fbbf0ymzaxsbk)" height="57.6" id="sorting" style="stroke:#A80036;stroke-width:2.7;" width="124.2" x="257.4" y="12.6"/><ellipse cx="284.4" cy="41.4" fill="#B4A7E5" rx="19.8" ry="19.8" style="stroke:#A80036;stroke-width:1.8;"/><path d="M286.2,36 L286.2,46.8 L289.8,46.8 L290.6719,46.8 L291.6,47.925 L291.6,48.6 L291.6,49.275 L290.6719,50.4 L289.8,50.4 L279,50.4 L278.1281,50.4 L277.2,49.275 L277.2,48.6 L277.2,47.925 L278.1281,46.8 L279,46.8 L282.6,46.8 L282.6,36 L279,36 L278.1281,36 L277.2,34.875 L277.2,34.2 L277.2,33.525 L278.1281,32.4 L279,32.4 L289.8,32.4 L290.6719,32.4 L291.6,33.525 L291.6,34.2 L291.6,34.875 L290.6719,36 L289.8,36 L286.2,36 Z " fill="#000000"/><text fill="#000000" font-family="sans-serif" font-size="21.6" font-style="italic" lengthAdjust="spacing" textLength="66.6" x="309.6" y="50.2383">sorting</text><!--MD5=[b7fdae1517bfb210dbb895153335cd24]
class operation--><rect codeLine="9" fill="#FEFECE" filter="url(#fbbf0ymzaxsbk)" height="161.4516" id="operation" style="stroke:#A80036;stroke-width:2.7;" width="151.2" x="243.9" y="178.2"/><ellipse cx="270.9" cy="214.3688" fill="#ADD1B2" rx="19.8" ry="19.8" style="stroke:#A80036;stroke-width:1.8;"/><path d="M274.5,208.0688 Q274.8656,207.1688 275.2875,206.7188 Q275.7094,206.2688 276.1875,206.2688 Q277.0313,206.2688 277.5656,206.775 Q278.1,207.2813 278.1,208.4625 L278.1,211.275 Q278.1,212.4563 277.5938,212.9625 Q277.0875,213.4688 276.3,213.4688 Q275.5969,213.4688 275.1469,213.1594 Q274.6969,212.85 274.5,212.0344 Q274.4156,211.4719 274.1063,211.1625 Q273.5438,210.5719 272.5313,210.2344 Q271.5188,209.8688 270.5063,209.8688 Q269.2406,209.8688 268.1719,210.375 Q267.1313,210.8813 266.3156,212.0063 Q265.5,213.1313 265.5,214.6781 L265.5,216.3375 Q265.5,218.1938 267.0188,219.4313 Q268.5375,220.6688 271.2375,220.6688 Q272.8406,220.6688 273.9656,220.3031 Q274.6125,220.1063 275.3438,219.4594 Q275.8219,219.0938 276.075,218.9813 Q276.3281,218.8688 276.6375,218.8688 Q277.2281,218.8688 277.65,219.3469 Q278.1,219.7969 278.1,220.4438 Q278.1,221.0625 277.4813,221.7938 Q276.5813,222.8625 275.1469,223.4531 Q273.2625,224.2688 270.9563,224.2688 Q268.2563,224.2688 266.0906,223.2 Q264.3469,222.3563 263.1094,220.5281 Q261.9,218.7 261.9,216.5344 L261.9,214.5656 Q261.9,212.3156 262.9688,210.3469 Q264.0656,208.3781 265.95,207.3375 Q267.8625,206.2688 270,206.2688 Q271.2938,206.2688 272.4188,206.7188 Q273.5438,207.1688 274.5,208.0688 Z " fill="#000000"/><text fill="#000000" font-family="sans-serif" font-size="21.6" font-style="italic" lengthAdjust="spacing" textLength="99" x="293.4" y="209.6227">«Facade»</text><text fill="#000000" font-family="sans-serif" font-size="21.6" lengthAdjust="spacing" textLength="93.6" x="296.1" y="236.7914">operation</text><line style="stroke:#A80036;stroke-width:2.7;" x1="245.7" x2="393.3" y1="250.5375" y2="250.5375"/><text fill="#000000" font-family="sans-serif" font-size="19.8" lengthAdjust="spacing" textLength="90" x="254.7" y="278.2916">compare()</text><text fill="#000000" font-family="sans-serif" font-size="19.8" lengthAdjust="spacing" textLength="64.8" x="254.7" y="303.1963">swap()</text><text fill="#000000" font-family="sans-serif" font-size="19.8" lengthAdjust="spacing" textLength="72" x="254.7" y="328.101">assign()</text><!--MD5=[5c35c4919802d06e0359645225c0c6b3]
class comparator--><rect codeLine="16" fill="#FEFECE" filter="url(#fbbf0ymzaxsbk)" height="96.9047" id="comparator" style="stroke:#A80036;stroke-width:2.7;" width="171" x="12.6" y="448.2"/><ellipse cx="39.6" cy="477" fill="#ADD1B2" rx="19.8" ry="19.8" style="stroke:#A80036;stroke-width:1.8;"/><path d="M43.2,470.7 Q43.5656,469.8 43.9875,469.35 Q44.4094,468.9 44.8875,468.9 Q45.7313,468.9 46.2656,469.4063 Q46.8,469.9125 46.8,471.0938 L46.8,473.9063 Q46.8,475.0875 46.2938,475.5938 Q45.7875,476.1 45,476.1 Q44.2969,476.1 43.8469,475.7906 Q43.3969,475.4813 43.2,474.6656 Q43.1156,474.1031 42.8063,473.7938 Q42.2438,473.2031 41.2313,472.8656 Q40.2188,472.5 39.2063,472.5 Q37.9406,472.5 36.8719,473.0063 Q35.8313,473.5125 35.0156,474.6375 Q34.2,475.7625 34.2,477.3094 L34.2,478.9688 Q34.2,480.825 35.7188,482.0625 Q37.2375,483.3 39.9375,483.3 Q41.5406,483.3 42.6656,482.9344 Q43.3125,482.7375 44.0438,482.0906 Q44.5219,481.725 44.775,481.6125 Q45.0281,481.5 45.3375,481.5 Q45.9281,481.5 46.35,481.9781 Q46.8,482.4281 46.8,483.075 Q46.8,483.6938 46.1813,484.425 Q45.2813,485.4938 43.8469,486.0844 Q41.9625,486.9 39.6563,486.9 Q36.9563,486.9 34.7906,485.8313 Q33.0469,484.9875 31.8094,483.1594 Q30.6,481.3313 30.6,479.1656 L30.6,477.1969 Q30.6,474.9469 31.6688,472.9781 Q32.7656,471.0094 34.65,469.9688 Q36.5625,468.9 38.7,468.9 Q39.9938,468.9 41.1188,469.35 Q42.2438,469.8 43.2,470.7 Z " fill="#000000"/><text fill="#000000" font-family="sans-serif" font-size="21.6" lengthAdjust="spacing" textLength="113.4" x="64.8" y="485.8383">comparator</text><line style="stroke:#A80036;stroke-width:2.7;" x1="14.4" x2="181.8" y1="505.8" y2="505.8"/><text fill="#000000" font-family="sans-serif" font-size="19.8" lengthAdjust="spacing" textLength="90" x="23.4" y="533.5541">compare()</text><!--MD5=[ad9b6268ce3093b287e8eaea7ef1643f]
class swapper--><rect codeLine="21" fill="#FEFECE" filter="url(#fbbf0ymzaxsbk)" height="96.9047" id="swapper" style="stroke:#A80036;stroke-width:2.7;" width="144" x="247.5" y="448.2"/><ellipse cx="274.5" cy="477" fill="#ADD1B2" rx="19.8" ry="19.8" style="stroke:#A80036;stroke-width:1.8;"/><path d="M278.1,470.7 Q278.4656,469.8 278.8875,469.35 Q279.3094,468.9 279.7875,468.9 Q280.6313,468.9 281.1656,469.4063 Q281.7,469.9125 281.7,471.0938 L281.7,473.9063 Q281.7,475.0875 281.1938,475.5938 Q280.6875,476.1 279.9,476.1 Q279.1969,476.1 278.7469,475.7906 Q278.2969,475.4813 278.1,474.6656 Q278.0156,474.1031 277.7063,473.7938 Q277.1438,473.2031 276.1313,472.8656 Q275.1188,472.5 274.1063,472.5 Q272.8406,472.5 271.7719,473.0063 Q270.7313,473.5125 269.9156,474.6375 Q269.1,475.7625 269.1,477.3094 L269.1,478.9688 Q269.1,480.825 270.6188,482.0625 Q272.1375,483.3 274.8375,483.3 Q276.4406,483.3 277.5656,482.9344 Q278.2125,482.7375 278.9438,482.0906 Q279.4219,481.725 279.675,481.6125 Q279.9281,481.5 280.2375,481.5 Q280.8281,481.5 281.25,481.9781 Q281.7,482.4281 281.7,483.075 Q281.7,483.6938 281.0813,484.425 Q280.1813,485.4938 278.7469,486.0844 Q276.8625,486.9 274.5563,486.9 Q271.8563,486.9 269.6906,485.8313 Q267.9469,484.9875 266.7094,483.1594 Q265.5,481.3313 265.5,479.1656 L265.5,477.1969 Q265.5,474.9469 266.5688,472.9781 Q267.6656,471.0094 269.55,469.9688 Q271.4625,468.9 273.6,468.9 Q274.8938,468.9 276.0188,469.35 Q277.1438,469.8 278.1,470.7 Z " fill="#000000"/><text fill="#000000" font-family="sans-serif" font-size="21.6" lengthAdjust="spacing" textLength="86.4" x="299.7" y="485.8383">swapper</text><line style="stroke:#A80036;stroke-width:2.7;" x1="249.3" x2="389.7" y1="505.8" y2="505.8"/><text fill="#000000" font-family="sans-serif" font-size="19.8" lengthAdjust="spacing" textLength="64.8" x="258.3" y="533.5541">swap()</text><!--MD5=[6a426cf3e34ff15b89f59f115799c568]
class assigner--><rect codeLine="26" fill="#FEFECE" filter="url(#fbbf0ymzaxsbk)" height="96.9047" id="assigner" style="stroke:#A80036;stroke-width:2.7;" width="145.8" x="455.4" y="448.2"/><ellipse cx="482.4" cy="477" fill="#ADD1B2" rx="19.8" ry="19.8" style="stroke:#A80036;stroke-width:1.8;"/><path d="M486,470.7 Q486.3656,469.8 486.7875,469.35 Q487.2094,468.9 487.6875,468.9 Q488.5313,468.9 489.0656,469.4063 Q489.6,469.9125 489.6,471.0938 L489.6,473.9063 Q489.6,475.0875 489.0938,475.5938 Q488.5875,476.1 487.8,476.1 Q487.0969,476.1 486.6469,475.7906 Q486.1969,475.4813 486,474.6656 Q485.9156,474.1031 485.6063,473.7938 Q485.0438,473.2031 484.0313,472.8656 Q483.0188,472.5 482.0063,472.5 Q480.7406,472.5 479.6719,473.0063 Q478.6313,473.5125 477.8156,474.6375 Q477,475.7625 477,477.3094 L477,478.9688 Q477,480.825 478.5188,482.0625 Q480.0375,483.3 482.7375,483.3 Q484.3406,483.3 485.4656,482.9344 Q486.1125,482.7375 486.8438,482.0906 Q487.3219,481.725 487.575,481.6125 Q487.8281,481.5 488.1375,481.5 Q488.7281,481.5 489.15,481.9781 Q489.6,482.4281 489.6,483.075 Q489.6,483.6938 488.9813,484.425 Q488.0813,485.4938 486.6469,486.0844 Q484.7625,486.9 482.4563,486.9 Q479.7563,486.9 477.5906,485.8313 Q475.8469,484.9875 474.6094,483.1594 Q473.4,481.3313 473.4,479.1656 L473.4,477.1969 Q473.4,474.9469 474.4688,472.9781 Q475.5656,471.0094 477.45,469.9688 Q479.3625,468.9 481.5,468.9 Q482.7938,468.9 483.9188,469.35 Q485.0438,469.8 486,470.7 Z " fill="#000000"/><text fill="#000000" font-family="sans-serif" font-size="21.6" lengthAdjust="spacing" textLength="88.2" x="507.6" y="485.8383">assigner</text><line style="stroke:#A80036;stroke-width:2.7;" x1="457.2" x2="599.4" y1="505.8" y2="505.8"/><text fill="#000000" font-family="sans-serif" font-size="19.8" lengthAdjust="spacing" textLength="72" x="466.2" y="533.5541">assign()</text><!--MD5=[c040af62e40658a6b0bac8696522bc11]
link sorting to operation--><path codeLine="30" d="M319.5,70.326 C319.5,97.344 319.5,140.148 319.5,177.984 " fill="none" id="sorting-operation" style="stroke:#A80036;stroke-width:1.8;"/><!--MD5=[3a2d2deea1b0392be9175952f2320cba]
reverse link operation to comparator--><path codeLine="31" d="M228.348,357.336 C198.756,388.602 167.238,421.92 142.614,447.948 " fill="none" id="operation-backto-comparator" style="stroke:#A80036;stroke-width:1.8;"/><polygon fill="#FFFFFF" points="244.548,340.218,231.8963,343.1188,229.7079,355.9129,242.3596,353.0122,244.548,340.218" style="stroke:#A80036;stroke-width:1.8;"/><!--MD5=[00f95100769494c2df9f15052dc6bc0a]
reverse link operation to swapper--><path codeLine="32" d="M319.5,364.302 C319.5,393.498 319.5,423.846 319.5,447.948 " fill="none" id="operation-backto-swapper" style="stroke:#A80036;stroke-width:1.8;"/><polygon fill="#FFFFFF" points="319.5,340.218,312.3,351.018,319.5,361.818,326.7,351.018,319.5,340.218" style="stroke:#A80036;stroke-width:1.8;"/><!--MD5=[1ecf172383f769767f649106253ba2ab]
reverse link operation to assigner--><path codeLine="33" d="M406.224,358.2 C433.908,389.232 463.302,422.172 486.306,447.948 " fill="none" id="operation-backto-assigner" style="stroke:#A80036;stroke-width:1.8;"/><polygon fill="#FFFFFF" points="390.186,340.218,392.0056,353.0698,404.5686,356.3332,402.7491,343.4814,390.186,340.218" style="stroke:#A80036;stroke-width:1.8;"/><!--MD5=[ae0bebe11377660b799554ae5bf839c8]
@startuml
'!include styles/card_style.puml

hide sorting fields
hide sorting methods
interface sorting {
}

hide operation fields
class operation <<Facade>> {
	compare()
	swap()
	assign()
}

hide comparator fields
class comparator {
	compare()
}

hide swapper fields
class swapper {
	swap()
}

hide assigner fields
class assigner {
	assign()
}

sorting - - operation
operation o- - comparator
operation o- - swapper
operation o- - assigner

@enduml

@startuml

hide sorting fields
hide sorting methods
interface sorting {
}

hide operation fields
class operation <<Facade>> {
	compare()
	swap()
	assign()
}

hide comparator fields
class comparator {
	compare()
}

hide swapper fields
class swapper {
	swap()
}

hide assigner fields
class assigner {
	assign()
}

sorting - - operation
operation o- - comparator
operation o- - swapper
operation o- - assigner

@enduml

PlantUML version 1.2021.11(Sat Oct 02 15:26:11 CEST 2021)
(GPL source distribution)
Java Runtime: OpenJDK Runtime Environment
JVM: OpenJDK 64-Bit Server VM
Default Encoding: Cp1250
Language: pl
Country: PL
--></g></svg>