<?xml version="1.0" encoding="UTF-8" standalone="no"?><svg xmlns="http://www.w3.org/2000/svg" xmlns:xlink="http://www.w3.org/1999/xlink" contentScriptType="application/ecmascript" contentStyleType="text/css" height="537.6px" preserveAspectRatio="none" style="width:1024px;height:537px;background:#FFFFFF;" version="1.1" viewBox="0 0 1024 537" width="1024px" zoomAndPan="magnify"><defs><filter height="300%" id="fjillh3x2gzv9" width="300%" x="-1" y="-1"><feGaussianBlur result="blurOut" stdDeviation="1.6000000000000003"/><feColorMatrix in="blurOut" result="blurOut2" type="matrix" values="0 0 0 0 0 0 0 0 0 0 0 0 0 0 0 0 0 0 .4 0"/><feOffset dx="3.2000000000000006" dy="3.2000000000000006" in="blurOut2" result="blurOut3"/><feBlend in="SourceGraphic" in2="blurOut3" mode="normal"/></filter></defs><g><!--MD5=[f313efb5f6f856cbd970c71dd44d8b7c]
class testing_engine--><rect codeLine="3" fill="#FEFECE" filter="url(#fjillh3x2gzv9)" height="60.5375" id="testing_engine" style="stroke:#A80036;stroke-width:1.2000000000000002;" width="92.8" x="320.4" y="5.6"/><ellipse cx="333.12" cy="18.4" fill="#ADD1B2" rx="8.8" ry="8.8" style="stroke:#A80036;stroke-width:0.8000000000000002;"/><path d="M334.72,15.6 Q334.8825,15.2 335.07,15 Q335.2575,14.8 335.47,14.8 Q335.845,14.8 336.0825,15.025 Q336.32,15.25 336.32,15.775 L336.32,17.025 Q336.32,17.55 336.095,17.775 Q335.87,18 335.52,18 Q335.2075,18 335.0075,17.8625 Q334.8075,17.725 334.72,17.3625 Q334.6825,17.1125 334.545,16.975 Q334.295,16.7125 333.845,16.5625 Q333.395,16.4 332.945,16.4 Q332.3825,16.4 331.9075,16.625 Q331.445,16.85 331.0825,17.35 Q330.72,17.85 330.72,18.5375 L330.72,19.275 Q330.72,20.1 331.395,20.65 Q332.07,21.2 333.27,21.2 Q333.9825,21.2 334.4825,21.0375 Q334.77,20.95 335.095,20.6625 Q335.3075,20.5 335.42,20.45 Q335.5325,20.4 335.67,20.4 Q335.9325,20.4 336.12,20.6125 Q336.32,20.8125 336.32,21.1 Q336.32,21.375 336.045,21.7 Q335.645,22.175 335.0075,22.4375 Q334.17,22.8 333.145,22.8 Q331.945,22.8 330.9825,22.325 Q330.2075,21.95 329.6575,21.1375 Q329.12,20.325 329.12,19.3625 L329.12,18.4875 Q329.12,17.4875 329.595,16.6125 Q330.0825,15.7375 330.92,15.275 Q331.77,14.8 332.72,14.8 Q333.295,14.8 333.795,15 Q334.295,15.2 334.72,15.6 Z " fill="#000000"/><text fill="#000000" font-family="sans-serif" font-size="9.6" lengthAdjust="spacing" textLength="65.6" x="344.48" y="22.3281">testing_engine</text><line style="stroke:#A80036;stroke-width:1.2000000000000002;" x1="321.2" x2="412.4" y1="31.2" y2="31.2"/><text fill="#000000" font-family="sans-serif" font-size="8.8" lengthAdjust="spacing" textLength="83.2" x="325.2" y="43.5352">List&lt;sorting&gt; sortings</text><line style="stroke:#A80036;stroke-width:1.2000000000000002;" x1="321.2" x2="412.4" y1="48.6688" y2="48.6688"/><text fill="#000000" font-family="sans-serif" font-size="8.8" lengthAdjust="spacing" textLength="20.8" x="325.2" y="61.0039">test()</text><!--MD5=[c018762a9e6a315243dd3cb25a9753cf]
class testing_averager--><rect codeLine="9" fill="#FEFECE" filter="url(#fjillh3x2gzv9)" height="43.0688" id="testing_averager" style="stroke:#A80036;stroke-width:1.2000000000000002;" width="99.2" x="441.2" y="14.4"/><ellipse cx="453.2" cy="27.2" fill="#ADD1B2" rx="8.8" ry="8.8" style="stroke:#A80036;stroke-width:0.8000000000000002;"/><path d="M454.8,24.4 Q454.9625,24 455.15,23.8 Q455.3375,23.6 455.55,23.6 Q455.925,23.6 456.1625,23.825 Q456.4,24.05 456.4,24.575 L456.4,25.825 Q456.4,26.35 456.175,26.575 Q455.95,26.8 455.6,26.8 Q455.2875,26.8 455.0875,26.6625 Q454.8875,26.525 454.8,26.1625 Q454.7625,25.9125 454.625,25.775 Q454.375,25.5125 453.925,25.3625 Q453.475,25.2 453.025,25.2 Q452.4625,25.2 451.9875,25.425 Q451.525,25.65 451.1625,26.15 Q450.8,26.65 450.8,27.3375 L450.8,28.075 Q450.8,28.9 451.475,29.45 Q452.15,30 453.35,30 Q454.0625,30 454.5625,29.8375 Q454.85,29.75 455.175,29.4625 Q455.3875,29.3 455.5,29.25 Q455.6125,29.2 455.75,29.2 Q456.0125,29.2 456.2,29.4125 Q456.4,29.6125 456.4,29.9 Q456.4,30.175 456.125,30.5 Q455.725,30.975 455.0875,31.2375 Q454.25,31.6 453.225,31.6 Q452.025,31.6 451.0625,31.125 Q450.2875,30.75 449.7375,29.9375 Q449.2,29.125 449.2,28.1625 L449.2,27.2875 Q449.2,26.2875 449.675,25.4125 Q450.1625,24.5375 451,24.075 Q451.85,23.6 452.8,23.6 Q453.375,23.6 453.875,23.8 Q454.375,24 454.8,24.4 Z " fill="#000000"/><text fill="#000000" font-family="sans-serif" font-size="9.6" lengthAdjust="spacing" textLength="73.6" x="464.4" y="31.1281">testing_averager</text><line style="stroke:#A80036;stroke-width:1.2000000000000002;" x1="442" x2="539.6" y1="40" y2="40"/><text fill="#000000" font-family="sans-serif" font-size="8.8" lengthAdjust="spacing" textLength="38.4" x="446" y="52.3352">average()</text><!--MD5=[2b25c74531c39e7bc052d661516b47c4]
class sorting--><rect codeLine="14" fill="#FEFECE" filter="url(#fjillh3x2gzv9)" height="43.0688" id="sorting" style="stroke:#A80036;stroke-width:1.2000000000000002;" width="55.2" x="339.2" y="114.4"/><ellipse cx="351.2" cy="127.2" fill="#B4A7E5" rx="8.8" ry="8.8" style="stroke:#A80036;stroke-width:0.8000000000000002;"/><path d="M352,124.8 L352,129.6 L353.6,129.6 L353.9875,129.6 L354.4,130.1 L354.4,130.4 L354.4,130.7 L353.9875,131.2 L353.6,131.2 L348.8,131.2 L348.4125,131.2 L348,130.7 L348,130.4 L348,130.1 L348.4125,129.6 L348.8,129.6 L350.4,129.6 L350.4,124.8 L348.8,124.8 L348.4125,124.8 L348,124.3 L348,124 L348,123.7 L348.4125,123.2 L348.8,123.2 L353.6,123.2 L353.9875,123.2 L354.4,123.7 L354.4,124 L354.4,124.3 L353.9875,124.8 L353.6,124.8 L352,124.8 Z " fill="#000000"/><text fill="#000000" font-family="sans-serif" font-size="9.6" font-style="italic" lengthAdjust="spacing" textLength="29.6" x="362.4" y="131.1281">sorting</text><line style="stroke:#A80036;stroke-width:1.2000000000000002;" x1="340" x2="393.6" y1="140" y2="140"/><text fill="#000000" font-family="sans-serif" font-size="8.8" lengthAdjust="spacing" textLength="21.6" x="344" y="152.3352">sort()</text><!--MD5=[a374dd668a24490351809ae1a67ffbfc]
class quick_sort--><rect codeLine="19" fill="#FEFECE" filter="url(#fjillh3x2gzv9)" height="43.0688" id="quick_sort" style="stroke:#A80036;stroke-width:1.2000000000000002;" width="71.2" x="5.6" y="216.8"/><ellipse cx="17.6" cy="229.6" fill="#ADD1B2" rx="8.8" ry="8.8" style="stroke:#A80036;stroke-width:0.8000000000000002;"/><path d="M19.2,226.8 Q19.3625,226.4 19.55,226.2 Q19.7375,226 19.95,226 Q20.325,226 20.5625,226.225 Q20.8,226.45 20.8,226.975 L20.8,228.225 Q20.8,228.75 20.575,228.975 Q20.35,229.2 20,229.2 Q19.6875,229.2 19.4875,229.0625 Q19.2875,228.925 19.2,228.5625 Q19.1625,228.3125 19.025,228.175 Q18.775,227.9125 18.325,227.7625 Q17.875,227.6 17.425,227.6 Q16.8625,227.6 16.3875,227.825 Q15.925,228.05 15.5625,228.55 Q15.2,229.05 15.2,229.7375 L15.2,230.475 Q15.2,231.3 15.875,231.85 Q16.55,232.4 17.75,232.4 Q18.4625,232.4 18.9625,232.2375 Q19.25,232.15 19.575,231.8625 Q19.7875,231.7 19.9,231.65 Q20.0125,231.6 20.15,231.6 Q20.4125,231.6 20.6,231.8125 Q20.8,232.0125 20.8,232.3 Q20.8,232.575 20.525,232.9 Q20.125,233.375 19.4875,233.6375 Q18.65,234 17.625,234 Q16.425,234 15.4625,233.525 Q14.6875,233.15 14.1375,232.3375 Q13.6,231.525 13.6,230.5625 L13.6,229.6875 Q13.6,228.6875 14.075,227.8125 Q14.5625,226.9375 15.4,226.475 Q16.25,226 17.2,226 Q17.775,226 18.275,226.2 Q18.775,226.4 19.2,226.8 Z " fill="#000000"/><text fill="#000000" font-family="sans-serif" font-size="9.6" lengthAdjust="spacing" textLength="45.6" x="28.8" y="233.5281">quick_sort</text><line style="stroke:#A80036;stroke-width:1.2000000000000002;" x1="6.4" x2="76" y1="242.4" y2="242.4"/><text fill="#000000" font-family="sans-serif" font-size="8.8" lengthAdjust="spacing" textLength="21.6" x="10.4" y="254.7352">sort()</text><!--MD5=[8d7cb87b8737d2a1f7f7e67315dc83e0]
class dual_pivot_quick_sort--><rect codeLine="24" fill="#FEFECE" filter="url(#fjillh3x2gzv9)" height="43.0688" id="dual_pivot_quick_sort" style="stroke:#A80036;stroke-width:1.2000000000000002;" width="121.6" x="105.2" y="216.8"/><ellipse cx="117.2" cy="229.6" fill="#ADD1B2" rx="8.8" ry="8.8" style="stroke:#A80036;stroke-width:0.8000000000000002;"/><path d="M118.8,226.8 Q118.9625,226.4 119.15,226.2 Q119.3375,226 119.55,226 Q119.925,226 120.1625,226.225 Q120.4,226.45 120.4,226.975 L120.4,228.225 Q120.4,228.75 120.175,228.975 Q119.95,229.2 119.6,229.2 Q119.2875,229.2 119.0875,229.0625 Q118.8875,228.925 118.8,228.5625 Q118.7625,228.3125 118.625,228.175 Q118.375,227.9125 117.925,227.7625 Q117.475,227.6 117.025,227.6 Q116.4625,227.6 115.9875,227.825 Q115.525,228.05 115.1625,228.55 Q114.8,229.05 114.8,229.7375 L114.8,230.475 Q114.8,231.3 115.475,231.85 Q116.15,232.4 117.35,232.4 Q118.0625,232.4 118.5625,232.2375 Q118.85,232.15 119.175,231.8625 Q119.3875,231.7 119.5,231.65 Q119.6125,231.6 119.75,231.6 Q120.0125,231.6 120.2,231.8125 Q120.4,232.0125 120.4,232.3 Q120.4,232.575 120.125,232.9 Q119.725,233.375 119.0875,233.6375 Q118.25,234 117.225,234 Q116.025,234 115.0625,233.525 Q114.2875,233.15 113.7375,232.3375 Q113.2,231.525 113.2,230.5625 L113.2,229.6875 Q113.2,228.6875 113.675,227.8125 Q114.1625,226.9375 115,226.475 Q115.85,226 116.8,226 Q117.375,226 117.875,226.2 Q118.375,226.4 118.8,226.8 Z " fill="#000000"/><text fill="#000000" font-family="sans-serif" font-size="9.6" lengthAdjust="spacing" textLength="96" x="128.4" y="233.5281">dual_pivot_quick_sort</text><line style="stroke:#A80036;stroke-width:1.2000000000000002;" x1="106" x2="226" y1="242.4" y2="242.4"/><text fill="#000000" font-family="sans-serif" font-size="8.8" lengthAdjust="spacing" textLength="21.6" x="110" y="254.7352">sort()</text><!--MD5=[d6b14b5de6ec22c753678eeb3efe31b1]
class quick_merge_sort--><rect codeLine="29" fill="#FEFECE" filter="url(#fjillh3x2gzv9)" height="43.0688" id="quick_merge_sort" style="stroke:#A80036;stroke-width:1.2000000000000002;" width="105.6" x="254.8" y="216.8"/><ellipse cx="266.8" cy="229.6" fill="#ADD1B2" rx="8.8" ry="8.8" style="stroke:#A80036;stroke-width:0.8000000000000002;"/><path d="M268.4,226.8 Q268.5625,226.4 268.75,226.2 Q268.9375,226 269.15,226 Q269.525,226 269.7625,226.225 Q270,226.45 270,226.975 L270,228.225 Q270,228.75 269.775,228.975 Q269.55,229.2 269.2,229.2 Q268.8875,229.2 268.6875,229.0625 Q268.4875,228.925 268.4,228.5625 Q268.3625,228.3125 268.225,228.175 Q267.975,227.9125 267.525,227.7625 Q267.075,227.6 266.625,227.6 Q266.0625,227.6 265.5875,227.825 Q265.125,228.05 264.7625,228.55 Q264.4,229.05 264.4,229.7375 L264.4,230.475 Q264.4,231.3 265.075,231.85 Q265.75,232.4 266.95,232.4 Q267.6625,232.4 268.1625,232.2375 Q268.45,232.15 268.775,231.8625 Q268.9875,231.7 269.1,231.65 Q269.2125,231.6 269.35,231.6 Q269.6125,231.6 269.8,231.8125 Q270,232.0125 270,232.3 Q270,232.575 269.725,232.9 Q269.325,233.375 268.6875,233.6375 Q267.85,234 266.825,234 Q265.625,234 264.6625,233.525 Q263.8875,233.15 263.3375,232.3375 Q262.8,231.525 262.8,230.5625 L262.8,229.6875 Q262.8,228.6875 263.275,227.8125 Q263.7625,226.9375 264.6,226.475 Q265.45,226 266.4,226 Q266.975,226 267.475,226.2 Q267.975,226.4 268.4,226.8 Z " fill="#000000"/><text fill="#000000" font-family="sans-serif" font-size="9.6" lengthAdjust="spacing" textLength="80" x="278" y="233.5281">quick_merge_sort</text><line style="stroke:#A80036;stroke-width:1.2000000000000002;" x1="255.6" x2="359.6" y1="242.4" y2="242.4"/><text fill="#000000" font-family="sans-serif" font-size="8.8" lengthAdjust="spacing" textLength="21.6" x="259.6" y="254.7352">sort()</text><!--MD5=[1ba5dfe1cb4c9cc2fe8e8b12e660a2c9]
class merge_sort--><rect codeLine="34" fill="#FEFECE" filter="url(#fjillh3x2gzv9)" height="43.0688" id="merge_sort" style="stroke:#A80036;stroke-width:1.2000000000000002;" width="76.8" x="388.4" y="216.8"/><ellipse cx="400.4" cy="229.6" fill="#ADD1B2" rx="8.8" ry="8.8" style="stroke:#A80036;stroke-width:0.8000000000000002;"/><path d="M402,226.8 Q402.1625,226.4 402.35,226.2 Q402.5375,226 402.75,226 Q403.125,226 403.3625,226.225 Q403.6,226.45 403.6,226.975 L403.6,228.225 Q403.6,228.75 403.375,228.975 Q403.15,229.2 402.8,229.2 Q402.4875,229.2 402.2875,229.0625 Q402.0875,228.925 402,228.5625 Q401.9625,228.3125 401.825,228.175 Q401.575,227.9125 401.125,227.7625 Q400.675,227.6 400.225,227.6 Q399.6625,227.6 399.1875,227.825 Q398.725,228.05 398.3625,228.55 Q398,229.05 398,229.7375 L398,230.475 Q398,231.3 398.675,231.85 Q399.35,232.4 400.55,232.4 Q401.2625,232.4 401.7625,232.2375 Q402.05,232.15 402.375,231.8625 Q402.5875,231.7 402.7,231.65 Q402.8125,231.6 402.95,231.6 Q403.2125,231.6 403.4,231.8125 Q403.6,232.0125 403.6,232.3 Q403.6,232.575 403.325,232.9 Q402.925,233.375 402.2875,233.6375 Q401.45,234 400.425,234 Q399.225,234 398.2625,233.525 Q397.4875,233.15 396.9375,232.3375 Q396.4,231.525 396.4,230.5625 L396.4,229.6875 Q396.4,228.6875 396.875,227.8125 Q397.3625,226.9375 398.2,226.475 Q399.05,226 400,226 Q400.575,226 401.075,226.2 Q401.575,226.4 402,226.8 Z " fill="#000000"/><text fill="#000000" font-family="sans-serif" font-size="9.6" lengthAdjust="spacing" textLength="51.2" x="411.6" y="233.5281">merge_sort</text><line style="stroke:#A80036;stroke-width:1.2000000000000002;" x1="389.2" x2="464.4" y1="242.4" y2="242.4"/><text fill="#000000" font-family="sans-serif" font-size="8.8" lengthAdjust="spacing" textLength="21.6" x="393.2" y="254.7352">sort()</text><!--MD5=[7ab68af58370f39ce982c1535268cc6b]
class inner_sort--><rect codeLine="39" fill="#FEFECE" filter="url(#fjillh3x2gzv9)" height="43.0688" id="inner_sort" style="stroke:#A80036;stroke-width:1.2000000000000002;" width="70.4" x="493.2" y="216.8"/><ellipse cx="505.2" cy="229.6" fill="#ADD1B2" rx="8.8" ry="8.8" style="stroke:#A80036;stroke-width:0.8000000000000002;"/><path d="M506.8,226.8 Q506.9625,226.4 507.15,226.2 Q507.3375,226 507.55,226 Q507.925,226 508.1625,226.225 Q508.4,226.45 508.4,226.975 L508.4,228.225 Q508.4,228.75 508.175,228.975 Q507.95,229.2 507.6,229.2 Q507.2875,229.2 507.0875,229.0625 Q506.8875,228.925 506.8,228.5625 Q506.7625,228.3125 506.625,228.175 Q506.375,227.9125 505.925,227.7625 Q505.475,227.6 505.025,227.6 Q504.4625,227.6 503.9875,227.825 Q503.525,228.05 503.1625,228.55 Q502.8,229.05 502.8,229.7375 L502.8,230.475 Q502.8,231.3 503.475,231.85 Q504.15,232.4 505.35,232.4 Q506.0625,232.4 506.5625,232.2375 Q506.85,232.15 507.175,231.8625 Q507.3875,231.7 507.5,231.65 Q507.6125,231.6 507.75,231.6 Q508.0125,231.6 508.2,231.8125 Q508.4,232.0125 508.4,232.3 Q508.4,232.575 508.125,232.9 Q507.725,233.375 507.0875,233.6375 Q506.25,234 505.225,234 Q504.025,234 503.0625,233.525 Q502.2875,233.15 501.7375,232.3375 Q501.2,231.525 501.2,230.5625 L501.2,229.6875 Q501.2,228.6875 501.675,227.8125 Q502.1625,226.9375 503,226.475 Q503.85,226 504.8,226 Q505.375,226 505.875,226.2 Q506.375,226.4 506.8,226.8 Z " fill="#000000"/><text fill="#000000" font-family="sans-serif" font-size="9.6" lengthAdjust="spacing" textLength="44.8" x="516.4" y="233.5281">inner_sort</text><line style="stroke:#A80036;stroke-width:1.2000000000000002;" x1="494" x2="562.8" y1="242.4" y2="242.4"/><text fill="#000000" font-family="sans-serif" font-size="8.8" lengthAdjust="spacing" textLength="21.6" x="498" y="254.7352">sort()</text><!--MD5=[7f1e06aab60842f190f53819fb9920ba]
class partitioning--><rect codeLine="44" fill="#FEFECE" filter="url(#fjillh3x2gzv9)" height="43.0688" id="partitioning" style="stroke:#A80036;stroke-width:1.2000000000000002;" width="74.4" x="128.8" y="392.8"/><ellipse cx="140.8" cy="405.6" fill="#B4A7E5" rx="8.8" ry="8.8" style="stroke:#A80036;stroke-width:0.8000000000000002;"/><path d="M141.6,403.2 L141.6,408 L143.2,408 L143.5875,408 L144,408.5 L144,408.8 L144,409.1 L143.5875,409.6 L143.2,409.6 L138.4,409.6 L138.0125,409.6 L137.6,409.1 L137.6,408.8 L137.6,408.5 L138.0125,408 L138.4,408 L140,408 L140,403.2 L138.4,403.2 L138.0125,403.2 L137.6,402.7 L137.6,402.4 L137.6,402.1 L138.0125,401.6 L138.4,401.6 L143.2,401.6 L143.5875,401.6 L144,402.1 L144,402.4 L144,402.7 L143.5875,403.2 L143.2,403.2 L141.6,403.2 Z " fill="#000000"/><text fill="#000000" font-family="sans-serif" font-size="9.6" font-style="italic" lengthAdjust="spacing" textLength="48.8" x="152" y="409.5281">partitioning</text><line style="stroke:#A80036;stroke-width:1.2000000000000002;" x1="129.6" x2="202.4" y1="418.4" y2="418.4"/><text fill="#000000" font-family="sans-serif" font-size="8.8" lengthAdjust="spacing" textLength="36.8" x="133.6" y="430.7352">partition()</text><!--MD5=[5d5b4561453126cb749388dee1007424]
class simple_partitioning--><rect codeLine="49" fill="#FEFECE" filter="url(#fjillh3x2gzv9)" height="43.0688" id="simple_partitioning" style="stroke:#A80036;stroke-width:1.2000000000000002;" width="110.4" x="30.8" y="484"/><ellipse cx="42.8" cy="496.8" fill="#ADD1B2" rx="8.8" ry="8.8" style="stroke:#A80036;stroke-width:0.8000000000000002;"/><path d="M44.4,494 Q44.5625,493.6 44.75,493.4 Q44.9375,493.2 45.15,493.2 Q45.525,493.2 45.7625,493.425 Q46,493.65 46,494.175 L46,495.425 Q46,495.95 45.775,496.175 Q45.55,496.4 45.2,496.4 Q44.8875,496.4 44.6875,496.2625 Q44.4875,496.125 44.4,495.7625 Q44.3625,495.5125 44.225,495.375 Q43.975,495.1125 43.525,494.9625 Q43.075,494.8 42.625,494.8 Q42.0625,494.8 41.5875,495.025 Q41.125,495.25 40.7625,495.75 Q40.4,496.25 40.4,496.9375 L40.4,497.675 Q40.4,498.5 41.075,499.05 Q41.75,499.6 42.95,499.6 Q43.6625,499.6 44.1625,499.4375 Q44.45,499.35 44.775,499.0625 Q44.9875,498.9 45.1,498.85 Q45.2125,498.8 45.35,498.8 Q45.6125,498.8 45.8,499.0125 Q46,499.2125 46,499.5 Q46,499.775 45.725,500.1 Q45.325,500.575 44.6875,500.8375 Q43.85,501.2 42.825,501.2 Q41.625,501.2 40.6625,500.725 Q39.8875,500.35 39.3375,499.5375 Q38.8,498.725 38.8,497.7625 L38.8,496.8875 Q38.8,495.8875 39.275,495.0125 Q39.7625,494.1375 40.6,493.675 Q41.45,493.2 42.4,493.2 Q42.975,493.2 43.475,493.4 Q43.975,493.6 44.4,494 Z " fill="#000000"/><text fill="#000000" font-family="sans-serif" font-size="9.6" lengthAdjust="spacing" textLength="84.8" x="54" y="500.7281">simple_partitioning</text><line style="stroke:#A80036;stroke-width:1.2000000000000002;" x1="31.6" x2="140.4" y1="509.6" y2="509.6"/><text fill="#000000" font-family="sans-serif" font-size="8.8" lengthAdjust="spacing" textLength="36.8" x="35.6" y="521.9352">partition()</text><!--MD5=[91c48839691f08743664d746b5c29abf]
class median_of_three_paritioning--><rect codeLine="54" fill="#FEFECE" filter="url(#fjillh3x2gzv9)" height="43.0688" id="median_of_three_paritioning" style="stroke:#A80036;stroke-width:1.2000000000000002;" width="152.8" x="169.6" y="484"/><ellipse cx="181.6" cy="496.8" fill="#ADD1B2" rx="8.8" ry="8.8" style="stroke:#A80036;stroke-width:0.8000000000000002;"/><path d="M183.2,494 Q183.3625,493.6 183.55,493.4 Q183.7375,493.2 183.95,493.2 Q184.325,493.2 184.5625,493.425 Q184.8,493.65 184.8,494.175 L184.8,495.425 Q184.8,495.95 184.575,496.175 Q184.35,496.4 184,496.4 Q183.6875,496.4 183.4875,496.2625 Q183.2875,496.125 183.2,495.7625 Q183.1625,495.5125 183.025,495.375 Q182.775,495.1125 182.325,494.9625 Q181.875,494.8 181.425,494.8 Q180.8625,494.8 180.3875,495.025 Q179.925,495.25 179.5625,495.75 Q179.2,496.25 179.2,496.9375 L179.2,497.675 Q179.2,498.5 179.875,499.05 Q180.55,499.6 181.75,499.6 Q182.4625,499.6 182.9625,499.4375 Q183.25,499.35 183.575,499.0625 Q183.7875,498.9 183.9,498.85 Q184.0125,498.8 184.15,498.8 Q184.4125,498.8 184.6,499.0125 Q184.8,499.2125 184.8,499.5 Q184.8,499.775 184.525,500.1 Q184.125,500.575 183.4875,500.8375 Q182.65,501.2 181.625,501.2 Q180.425,501.2 179.4625,500.725 Q178.6875,500.35 178.1375,499.5375 Q177.6,498.725 177.6,497.7625 L177.6,496.8875 Q177.6,495.8875 178.075,495.0125 Q178.5625,494.1375 179.4,493.675 Q180.25,493.2 181.2,493.2 Q181.775,493.2 182.275,493.4 Q182.775,493.6 183.2,494 Z " fill="#000000"/><text fill="#000000" font-family="sans-serif" font-size="9.6" lengthAdjust="spacing" textLength="127.2" x="192.8" y="500.7281">median_of_three_paritioning</text><line style="stroke:#A80036;stroke-width:1.2000000000000002;" x1="170.4" x2="321.6" y1="509.6" y2="509.6"/><text fill="#000000" font-family="sans-serif" font-size="8.8" lengthAdjust="spacing" textLength="36.8" x="174.4" y="521.9352">partition()</text><!--MD5=[b7fdae1517bfb210dbb895153335cd24]
class operation--><rect codeLine="59" fill="#FEFECE" filter="url(#fjillh3x2gzv9)" height="65.2063" id="operation" style="stroke:#A80036;stroke-width:1.2000000000000002;" width="67.2" x="591.6" y="205.6"/><ellipse cx="603.6" cy="218.4" fill="#ADD1B2" rx="8.8" ry="8.8" style="stroke:#A80036;stroke-width:0.8000000000000002;"/><path d="M605.2,215.6 Q605.3625,215.2 605.55,215 Q605.7375,214.8 605.95,214.8 Q606.325,214.8 606.5625,215.025 Q606.8,215.25 606.8,215.775 L606.8,217.025 Q606.8,217.55 606.575,217.775 Q606.35,218 606,218 Q605.6875,218 605.4875,217.8625 Q605.2875,217.725 605.2,217.3625 Q605.1625,217.1125 605.025,216.975 Q604.775,216.7125 604.325,216.5625 Q603.875,216.4 603.425,216.4 Q602.8625,216.4 602.3875,216.625 Q601.925,216.85 601.5625,217.35 Q601.2,217.85 601.2,218.5375 L601.2,219.275 Q601.2,220.1 601.875,220.65 Q602.55,221.2 603.75,221.2 Q604.4625,221.2 604.9625,221.0375 Q605.25,220.95 605.575,220.6625 Q605.7875,220.5 605.9,220.45 Q606.0125,220.4 606.15,220.4 Q606.4125,220.4 606.6,220.6125 Q606.8,220.8125 606.8,221.1 Q606.8,221.375 606.525,221.7 Q606.125,222.175 605.4875,222.4375 Q604.65,222.8 603.625,222.8 Q602.425,222.8 601.4625,222.325 Q600.6875,221.95 600.1375,221.1375 Q599.6,220.325 599.6,219.3625 L599.6,218.4875 Q599.6,217.4875 600.075,216.6125 Q600.5625,215.7375 601.4,215.275 Q602.25,214.8 603.2,214.8 Q603.775,214.8 604.275,215 Q604.775,215.2 605.2,215.6 Z " fill="#000000"/><text fill="#000000" font-family="sans-serif" font-size="9.6" lengthAdjust="spacing" textLength="41.6" x="614.8" y="222.3281">operation</text><line style="stroke:#A80036;stroke-width:1.2000000000000002;" x1="592.4" x2="658" y1="231.2" y2="231.2"/><text fill="#000000" font-family="sans-serif" font-size="8.8" lengthAdjust="spacing" textLength="44" x="596.4" y="243.5352">comparator</text><text fill="#000000" font-family="sans-serif" font-size="8.8" lengthAdjust="spacing" textLength="35.2" x="596.4" y="254.6039">swapper</text><text fill="#000000" font-family="sans-serif" font-size="8.8" lengthAdjust="spacing" textLength="33.6" x="596.4" y="265.6727">assigner</text><!--MD5=[5c35c4919802d06e0359645225c0c6b3]
class comparator--><rect codeLine="66" fill="#FEFECE" filter="url(#fjillh3x2gzv9)" height="25.6" id="comparator" style="stroke:#A80036;stroke-width:1.2000000000000002;" width="76" x="420.8" y="319.2"/><ellipse cx="432.8" cy="332" fill="#B4A7E5" rx="8.8" ry="8.8" style="stroke:#A80036;stroke-width:0.8000000000000002;"/><path d="M433.6,329.6 L433.6,334.4 L435.2,334.4 L435.5875,334.4 L436,334.9 L436,335.2 L436,335.5 L435.5875,336 L435.2,336 L430.4,336 L430.0125,336 L429.6,335.5 L429.6,335.2 L429.6,334.9 L430.0125,334.4 L430.4,334.4 L432,334.4 L432,329.6 L430.4,329.6 L430.0125,329.6 L429.6,329.1 L429.6,328.8 L429.6,328.5 L430.0125,328 L430.4,328 L435.2,328 L435.5875,328 L436,328.5 L436,328.8 L436,329.1 L435.5875,329.6 L435.2,329.6 L433.6,329.6 Z " fill="#000000"/><text fill="#000000" font-family="sans-serif" font-size="9.6" font-style="italic" lengthAdjust="spacing" textLength="50.4" x="444" y="335.9281">comparator</text><!--MD5=[01ff14c9840a7a6e953a5dede1e1306f]
class simple_comparator--><rect fill="#FEFECE" filter="url(#fjillh3x2gzv9)" height="25.6" id="simple_comparator" style="stroke:#A80036;stroke-width:1.2000000000000002;" width="112" x="266" y="401.6"/><ellipse cx="278" cy="414.4" fill="#ADD1B2" rx="8.8" ry="8.8" style="stroke:#A80036;stroke-width:0.8000000000000002;"/><path d="M279.6,411.6 Q279.7625,411.2 279.95,411 Q280.1375,410.8 280.35,410.8 Q280.725,410.8 280.9625,411.025 Q281.2,411.25 281.2,411.775 L281.2,413.025 Q281.2,413.55 280.975,413.775 Q280.75,414 280.4,414 Q280.0875,414 279.8875,413.8625 Q279.6875,413.725 279.6,413.3625 Q279.5625,413.1125 279.425,412.975 Q279.175,412.7125 278.725,412.5625 Q278.275,412.4 277.825,412.4 Q277.2625,412.4 276.7875,412.625 Q276.325,412.85 275.9625,413.35 Q275.6,413.85 275.6,414.5375 L275.6,415.275 Q275.6,416.1 276.275,416.65 Q276.95,417.2 278.15,417.2 Q278.8625,417.2 279.3625,417.0375 Q279.65,416.95 279.975,416.6625 Q280.1875,416.5 280.3,416.45 Q280.4125,416.4 280.55,416.4 Q280.8125,416.4 281,416.6125 Q281.2,416.8125 281.2,417.1 Q281.2,417.375 280.925,417.7 Q280.525,418.175 279.8875,418.4375 Q279.05,418.8 278.025,418.8 Q276.825,418.8 275.8625,418.325 Q275.0875,417.95 274.5375,417.1375 Q274,416.325 274,415.3625 L274,414.4875 Q274,413.4875 274.475,412.6125 Q274.9625,411.7375 275.8,411.275 Q276.65,410.8 277.6,410.8 Q278.175,410.8 278.675,411 Q279.175,411.2 279.6,411.6 Z " fill="#000000"/><text fill="#000000" font-family="sans-serif" font-size="9.6" lengthAdjust="spacing" textLength="86.4" x="289.2" y="418.3281">simple_comparator</text><!--MD5=[b233a2bc55cf6d2614604432e6c87c10]
class count_comparator--><rect fill="#FEFECE" filter="url(#fjillh3x2gzv9)" height="25.6" id="count_comparator" style="stroke:#A80036;stroke-width:1.2000000000000002;" width="105.6" x="406" y="401.6"/><ellipse cx="418" cy="414.4" fill="#ADD1B2" rx="8.8" ry="8.8" style="stroke:#A80036;stroke-width:0.8000000000000002;"/><path d="M419.6,411.6 Q419.7625,411.2 419.95,411 Q420.1375,410.8 420.35,410.8 Q420.725,410.8 420.9625,411.025 Q421.2,411.25 421.2,411.775 L421.2,413.025 Q421.2,413.55 420.975,413.775 Q420.75,414 420.4,414 Q420.0875,414 419.8875,413.8625 Q419.6875,413.725 419.6,413.3625 Q419.5625,413.1125 419.425,412.975 Q419.175,412.7125 418.725,412.5625 Q418.275,412.4 417.825,412.4 Q417.2625,412.4 416.7875,412.625 Q416.325,412.85 415.9625,413.35 Q415.6,413.85 415.6,414.5375 L415.6,415.275 Q415.6,416.1 416.275,416.65 Q416.95,417.2 418.15,417.2 Q418.8625,417.2 419.3625,417.0375 Q419.65,416.95 419.975,416.6625 Q420.1875,416.5 420.3,416.45 Q420.4125,416.4 420.55,416.4 Q420.8125,416.4 421,416.6125 Q421.2,416.8125 421.2,417.1 Q421.2,417.375 420.925,417.7 Q420.525,418.175 419.8875,418.4375 Q419.05,418.8 418.025,418.8 Q416.825,418.8 415.8625,418.325 Q415.0875,417.95 414.5375,417.1375 Q414,416.325 414,415.3625 L414,414.4875 Q414,413.4875 414.475,412.6125 Q414.9625,411.7375 415.8,411.275 Q416.65,410.8 417.6,410.8 Q418.175,410.8 418.675,411 Q419.175,411.2 419.6,411.6 Z " fill="#000000"/><text fill="#000000" font-family="sans-serif" font-size="9.6" lengthAdjust="spacing" textLength="80" x="429.2" y="418.3281">count_comparator</text><!--MD5=[ad9b6268ce3093b287e8eaea7ef1643f]
class swapper--><rect codeLine="71" fill="#FEFECE" filter="url(#fjillh3x2gzv9)" height="25.6" id="swapper" style="stroke:#A80036;stroke-width:1.2000000000000002;" width="62.4" x="594" y="319.2"/><ellipse cx="606" cy="332" fill="#B4A7E5" rx="8.8" ry="8.8" style="stroke:#A80036;stroke-width:0.8000000000000002;"/><path d="M606.8,329.6 L606.8,334.4 L608.4,334.4 L608.7875,334.4 L609.2,334.9 L609.2,335.2 L609.2,335.5 L608.7875,336 L608.4,336 L603.6,336 L603.2125,336 L602.8,335.5 L602.8,335.2 L602.8,334.9 L603.2125,334.4 L603.6,334.4 L605.2,334.4 L605.2,329.6 L603.6,329.6 L603.2125,329.6 L602.8,329.1 L602.8,328.8 L602.8,328.5 L603.2125,328 L603.6,328 L608.4,328 L608.7875,328 L609.2,328.5 L609.2,328.8 L609.2,329.1 L608.7875,329.6 L608.4,329.6 L606.8,329.6 Z " fill="#000000"/><text fill="#000000" font-family="sans-serif" font-size="9.6" font-style="italic" lengthAdjust="spacing" textLength="36.8" x="617.2" y="335.9281">swapper</text><!--MD5=[a3ba81e601e15fb5dcfec92b9c7ad95b]
class simple_swapper--><rect fill="#FEFECE" filter="url(#fjillh3x2gzv9)" height="25.6" id="simple_swapper" style="stroke:#A80036;stroke-width:1.2000000000000002;" width="100" x="540" y="401.6"/><ellipse cx="552" cy="414.4" fill="#ADD1B2" rx="8.8" ry="8.8" style="stroke:#A80036;stroke-width:0.8000000000000002;"/><path d="M553.6,411.6 Q553.7625,411.2 553.95,411 Q554.1375,410.8 554.35,410.8 Q554.725,410.8 554.9625,411.025 Q555.2,411.25 555.2,411.775 L555.2,413.025 Q555.2,413.55 554.975,413.775 Q554.75,414 554.4,414 Q554.0875,414 553.8875,413.8625 Q553.6875,413.725 553.6,413.3625 Q553.5625,413.1125 553.425,412.975 Q553.175,412.7125 552.725,412.5625 Q552.275,412.4 551.825,412.4 Q551.2625,412.4 550.7875,412.625 Q550.325,412.85 549.9625,413.35 Q549.6,413.85 549.6,414.5375 L549.6,415.275 Q549.6,416.1 550.275,416.65 Q550.95,417.2 552.15,417.2 Q552.8625,417.2 553.3625,417.0375 Q553.65,416.95 553.975,416.6625 Q554.1875,416.5 554.3,416.45 Q554.4125,416.4 554.55,416.4 Q554.8125,416.4 555,416.6125 Q555.2,416.8125 555.2,417.1 Q555.2,417.375 554.925,417.7 Q554.525,418.175 553.8875,418.4375 Q553.05,418.8 552.025,418.8 Q550.825,418.8 549.8625,418.325 Q549.0875,417.95 548.5375,417.1375 Q548,416.325 548,415.3625 L548,414.4875 Q548,413.4875 548.475,412.6125 Q548.9625,411.7375 549.8,411.275 Q550.65,410.8 551.6,410.8 Q552.175,410.8 552.675,411 Q553.175,411.2 553.6,411.6 Z " fill="#000000"/><text fill="#000000" font-family="sans-serif" font-size="9.6" lengthAdjust="spacing" textLength="74.4" x="563.2" y="418.3281">simple_swapper</text><!--MD5=[406d5afb16f5308fb4202a3596de5a99]
class count_swapper--><rect fill="#FEFECE" filter="url(#fjillh3x2gzv9)" height="25.6" id="count_swapper" style="stroke:#A80036;stroke-width:1.2000000000000002;" width="93.6" x="668" y="401.6"/><ellipse cx="680" cy="414.4" fill="#ADD1B2" rx="8.8" ry="8.8" style="stroke:#A80036;stroke-width:0.8000000000000002;"/><path d="M681.6,411.6 Q681.7625,411.2 681.95,411 Q682.1375,410.8 682.35,410.8 Q682.725,410.8 682.9625,411.025 Q683.2,411.25 683.2,411.775 L683.2,413.025 Q683.2,413.55 682.975,413.775 Q682.75,414 682.4,414 Q682.0875,414 681.8875,413.8625 Q681.6875,413.725 681.6,413.3625 Q681.5625,413.1125 681.425,412.975 Q681.175,412.7125 680.725,412.5625 Q680.275,412.4 679.825,412.4 Q679.2625,412.4 678.7875,412.625 Q678.325,412.85 677.9625,413.35 Q677.6,413.85 677.6,414.5375 L677.6,415.275 Q677.6,416.1 678.275,416.65 Q678.95,417.2 680.15,417.2 Q680.8625,417.2 681.3625,417.0375 Q681.65,416.95 681.975,416.6625 Q682.1875,416.5 682.3,416.45 Q682.4125,416.4 682.55,416.4 Q682.8125,416.4 683,416.6125 Q683.2,416.8125 683.2,417.1 Q683.2,417.375 682.925,417.7 Q682.525,418.175 681.8875,418.4375 Q681.05,418.8 680.025,418.8 Q678.825,418.8 677.8625,418.325 Q677.0875,417.95 676.5375,417.1375 Q676,416.325 676,415.3625 L676,414.4875 Q676,413.4875 676.475,412.6125 Q676.9625,411.7375 677.8,411.275 Q678.65,410.8 679.6,410.8 Q680.175,410.8 680.675,411 Q681.175,411.2 681.6,411.6 Z " fill="#000000"/><text fill="#000000" font-family="sans-serif" font-size="9.6" lengthAdjust="spacing" textLength="68" x="691.2" y="418.3281">count_swapper</text><!--MD5=[6a426cf3e34ff15b89f59f115799c568]
class assigner--><rect codeLine="76" fill="#FEFECE" filter="url(#fjillh3x2gzv9)" height="25.6" id="assigner" style="stroke:#A80036;stroke-width:1.2000000000000002;" width="63.2" x="808.8" y="319.2"/><ellipse cx="820.8" cy="332" fill="#B4A7E5" rx="8.8" ry="8.8" style="stroke:#A80036;stroke-width:0.8000000000000002;"/><path d="M821.6,329.6 L821.6,334.4 L823.2,334.4 L823.5875,334.4 L824,334.9 L824,335.2 L824,335.5 L823.5875,336 L823.2,336 L818.4,336 L818.0125,336 L817.6,335.5 L817.6,335.2 L817.6,334.9 L818.0125,334.4 L818.4,334.4 L820,334.4 L820,329.6 L818.4,329.6 L818.0125,329.6 L817.6,329.1 L817.6,328.8 L817.6,328.5 L818.0125,328 L818.4,328 L823.2,328 L823.5875,328 L824,328.5 L824,328.8 L824,329.1 L823.5875,329.6 L823.2,329.6 L821.6,329.6 Z " fill="#000000"/><text fill="#000000" font-family="sans-serif" font-size="9.6" font-style="italic" lengthAdjust="spacing" textLength="37.6" x="832" y="335.9281">assigner</text><!--MD5=[583f32441376f8217fe39ae2b452482d]
class simple_assigner--><rect fill="#FEFECE" filter="url(#fjillh3x2gzv9)" height="25.6" id="simple_assigner" style="stroke:#A80036;stroke-width:1.2000000000000002;" width="100.8" x="790" y="401.6"/><ellipse cx="802" cy="414.4" fill="#ADD1B2" rx="8.8" ry="8.8" style="stroke:#A80036;stroke-width:0.8000000000000002;"/><path d="M803.6,411.6 Q803.7625,411.2 803.95,411 Q804.1375,410.8 804.35,410.8 Q804.725,410.8 804.9625,411.025 Q805.2,411.25 805.2,411.775 L805.2,413.025 Q805.2,413.55 804.975,413.775 Q804.75,414 804.4,414 Q804.0875,414 803.8875,413.8625 Q803.6875,413.725 803.6,413.3625 Q803.5625,413.1125 803.425,412.975 Q803.175,412.7125 802.725,412.5625 Q802.275,412.4 801.825,412.4 Q801.2625,412.4 800.7875,412.625 Q800.325,412.85 799.9625,413.35 Q799.6,413.85 799.6,414.5375 L799.6,415.275 Q799.6,416.1 800.275,416.65 Q800.95,417.2 802.15,417.2 Q802.8625,417.2 803.3625,417.0375 Q803.65,416.95 803.975,416.6625 Q804.1875,416.5 804.3,416.45 Q804.4125,416.4 804.55,416.4 Q804.8125,416.4 805,416.6125 Q805.2,416.8125 805.2,417.1 Q805.2,417.375 804.925,417.7 Q804.525,418.175 803.8875,418.4375 Q803.05,418.8 802.025,418.8 Q800.825,418.8 799.8625,418.325 Q799.0875,417.95 798.5375,417.1375 Q798,416.325 798,415.3625 L798,414.4875 Q798,413.4875 798.475,412.6125 Q798.9625,411.7375 799.8,411.275 Q800.65,410.8 801.6,410.8 Q802.175,410.8 802.675,411 Q803.175,411.2 803.6,411.6 Z " fill="#000000"/><text fill="#000000" font-family="sans-serif" font-size="9.6" lengthAdjust="spacing" textLength="75.2" x="813.2" y="418.3281">simple_assigner</text><!--MD5=[b62d2c65e03453dde8a18fa206e628ab]
class count_assigner--><rect fill="#FEFECE" filter="url(#fjillh3x2gzv9)" height="25.6" id="count_assigner" style="stroke:#A80036;stroke-width:1.2000000000000002;" width="94.4" x="918.8" y="401.6"/><ellipse cx="930.8" cy="414.4" fill="#ADD1B2" rx="8.8" ry="8.8" style="stroke:#A80036;stroke-width:0.8000000000000002;"/><path d="M932.4,411.6 Q932.5625,411.2 932.75,411 Q932.9375,410.8 933.15,410.8 Q933.525,410.8 933.7625,411.025 Q934,411.25 934,411.775 L934,413.025 Q934,413.55 933.775,413.775 Q933.55,414 933.2,414 Q932.8875,414 932.6875,413.8625 Q932.4875,413.725 932.4,413.3625 Q932.3625,413.1125 932.225,412.975 Q931.975,412.7125 931.525,412.5625 Q931.075,412.4 930.625,412.4 Q930.0625,412.4 929.5875,412.625 Q929.125,412.85 928.7625,413.35 Q928.4,413.85 928.4,414.5375 L928.4,415.275 Q928.4,416.1 929.075,416.65 Q929.75,417.2 930.95,417.2 Q931.6625,417.2 932.1625,417.0375 Q932.45,416.95 932.775,416.6625 Q932.9875,416.5 933.1,416.45 Q933.2125,416.4 933.35,416.4 Q933.6125,416.4 933.8,416.6125 Q934,416.8125 934,417.1 Q934,417.375 933.725,417.7 Q933.325,418.175 932.6875,418.4375 Q931.85,418.8 930.825,418.8 Q929.625,418.8 928.6625,418.325 Q927.8875,417.95 927.3375,417.1375 Q926.8,416.325 926.8,415.3625 L926.8,414.4875 Q926.8,413.4875 927.275,412.6125 Q927.7625,411.7375 928.6,411.275 Q929.45,410.8 930.4,410.8 Q930.975,410.8 931.475,411 Q931.975,411.2 932.4,411.6 Z " fill="#000000"/><text fill="#000000" font-family="sans-serif" font-size="9.6" lengthAdjust="spacing" textLength="68.8" x="942" y="418.3281">count_assigner</text><!--MD5=[56b6cf8315d7bdfc315527e73c0dc7ec]
link testing_engine to sorting--><path codeLine="80" d="M366.8,66.592 C366.8,78.368 366.8,91.92 366.8,103.848 " fill="none" id="testing_engine-to-sorting" style="stroke:#A80036;stroke-width:0.8000000000000002;"/><polygon fill="#FFFFFF" points="366.8,114.248,370,109.448,366.8,104.648,363.6,109.448,366.8,114.248" style="stroke:#A80036;stroke-width:0.8000000000000002;"/><!--MD5=[066c66000ca55b68ff0788412a4f3f12]
link testing_engine to testing_averager--><path codeLine="81" d="M413.296,36 C419.104,36 424.904,36 430.704,36 " fill="none" id="testing_engine-to-testing_averager" style="stroke:#A80036;stroke-width:0.8000000000000002;"/><polygon fill="#FFFFFF" points="441.152,36,436.352,32.8,431.552,36,436.352,39.2,441.152,36" style="stroke:#A80036;stroke-width:0.8000000000000002;"/><!--MD5=[23dbf64eab46269be4efb120ef38cb68]
link sorting to quick_sort--><path codeLine="83" d="M339.2,140.608 C288.392,148.272 177.352,168.12 90.8,205.6 C88.624,206.544 86.44,207.576 84.264,208.672 " fill="none" id="sorting-to-quick_sort" style="stroke:#A80036;stroke-width:0.8000000000000002;stroke-dasharray:7.0,7.0;"/><polygon fill="none" points="86.888,213.616,70.208,216.648,81.36,203.88,86.888,213.616" style="stroke:#A80036;stroke-width:0.8000000000000002;"/><!--MD5=[f08fce9bfa6cc8935c6a520ba3a6ec88]
link sorting to dual_pivot_quick_sort--><path codeLine="84" d="M339.088,150.712 C309.08,165.776 260.384,190.224 222.28,209.352 " fill="none" id="sorting-to-dual_pivot_quick_sort" style="stroke:#A80036;stroke-width:0.8000000000000002;stroke-dasharray:7.0,7.0;"/><polygon fill="none" points="224.544,214.48,207.728,216.656,219.52,204.472,224.544,214.48" style="stroke:#A80036;stroke-width:0.8000000000000002;"/><!--MD5=[e9769205b7471bb5978afc4b669e69a3]
link sorting to quick_merge_sort--><path codeLine="85" d="M354.536,157.688 C346.872,170.728 336.824,187.84 327.992,202.888 " fill="none" id="sorting-to-quick_merge_sort" style="stroke:#A80036;stroke-width:0.8000000000000002;stroke-dasharray:7.0,7.0;"/><polygon fill="none" points="332.784,205.784,319.848,216.744,323.128,200.112,332.784,205.784" style="stroke:#A80036;stroke-width:0.8000000000000002;"/><!--MD5=[644769bbf8fb1d67894248188942f45a]
link sorting to merge_sort--><path codeLine="86" d="M379.232,157.688 C386.992,170.728 397.184,187.84 406.136,202.888 " fill="none" id="sorting-to-merge_sort" style="stroke:#A80036;stroke-width:0.8000000000000002;stroke-dasharray:7.0,7.0;"/><polygon fill="none" points="411.016,200.128,414.384,216.744,401.392,205.856,411.016,200.128" style="stroke:#A80036;stroke-width:0.8000000000000002;"/><!--MD5=[0ac22e9337c0740cc8875ba8c12b70ff]
link sorting to inner_sort--><path codeLine="87" d="M394.52,153.592 C417.248,167.424 450.216,187.608 478.8,205.6 C480.032,206.376 481.28,207.168 482.544,207.96 " fill="none" id="sorting-to-inner_sort" style="stroke:#A80036;stroke-width:0.8000000000000002;stroke-dasharray:7.0,7.0;"/><polygon fill="none" points="485.704,203.336,496.184,216.672,479.68,212.784,485.704,203.336" style="stroke:#A80036;stroke-width:0.8000000000000002;"/><!--MD5=[1a6a87196ed64b93ff644e846c82503a]
link quick_sort to partitioning--><path codeLine="89" d="M56.256,260.24 C80.304,293.848 127.128,359.272 151.088,392.76 " fill="none" id="quick_sort-partitioning" style="stroke:#A80036;stroke-width:0.8000000000000002;"/><!--MD5=[c5ca3fd2f6016ff2b142d9c2a6e47688]
link dual_pivot_quick_sort to partitioning--><path codeLine="90" d="M166,260.24 C166,293.848 166,359.272 166,392.76 " fill="none" id="dual_pivot_quick_sort-partitioning" style="stroke:#A80036;stroke-width:0.8000000000000002;"/><!--MD5=[3482028c065080c429232b95f23252f1]
link quick_merge_sort to partitioning--><path codeLine="91" d="M290.52,260.24 C263.232,293.848 210.112,359.272 182.92,392.76 " fill="none" id="quick_merge_sort-partitioning" style="stroke:#A80036;stroke-width:0.8000000000000002;"/><!--MD5=[20b1228bacce668797058fde34d4f622]
link partitioning to simple_partitioning--><path codeLine="93" d="M147.24,436.208 C137.816,446.768 126.168,459.808 115.568,471.68 " fill="none" id="partitioning-to-simple_partitioning" style="stroke:#A80036;stroke-width:0.8000000000000002;stroke-dasharray:7.0,7.0;"/><polygon fill="none" points="119.472,475.72,104.64,483.928,111.12,468.256,119.472,475.72" style="stroke:#A80036;stroke-width:0.8000000000000002;"/><!--MD5=[fa26388de3c98b7673d0e51eb123591b]
link partitioning to median_of_three_paritioning--><path codeLine="94" d="M184.76,436.208 C194.184,446.768 205.832,459.808 216.432,471.68 " fill="none" id="partitioning-to-median_of_three_paritioning" style="stroke:#A80036;stroke-width:0.8000000000000002;stroke-dasharray:7.0,7.0;"/><polygon fill="none" points="220.88,468.256,227.36,483.928,212.528,475.72,220.88,468.256" style="stroke:#A80036;stroke-width:0.8000000000000002;"/><!--MD5=[c040af62e40658a6b0bac8696522bc11]
link sorting to operation--><path codeLine="97" d="M394.624,143.32 C435.792,153.528 514.8,175.304 577.2,205.6 C578.92,206.432 580.64,207.32 582.368,208.248 " fill="none" id="sorting-to-operation" style="stroke:#A80036;stroke-width:0.8000000000000002;"/><polygon fill="#FFFFFF" points="591.528,213.52,588.9636,208.3524,583.2072,208.7321,585.7716,213.8997,591.528,213.52" style="stroke:#A80036;stroke-width:0.8000000000000002;"/><!--MD5=[6d7fb2453352f4b0bbdaba9910efd5e3]
link operation to comparator--><path codeLine="98" d="M591.432,262.432 C586.704,265.472 581.872,268.472 577.2,271.2 C550.04,287.064 518.176,303.064 494.352,314.552 " fill="none" id="operation-to-comparator" style="stroke:#A80036;stroke-width:0.8000000000000002;"/><polygon fill="#FFFFFF" points="484.672,319.184,490.3828,320.0008,493.3332,315.0435,487.6224,314.2267,484.672,319.184" style="stroke:#A80036;stroke-width:0.8000000000000002;"/><!--MD5=[78abfd975865e272b1df2fb05b0304e9]
link operation to swapper--><path codeLine="99" d="M625.2,271.376 C625.2,283.608 625.2,297.272 625.2,308.456 " fill="none" id="operation-to-swapper" style="stroke:#A80036;stroke-width:0.8000000000000002;"/><polygon fill="#FFFFFF" points="625.2,319.04,628.4,314.24,625.2,309.44,622,314.24,625.2,319.04" style="stroke:#A80036;stroke-width:0.8000000000000002;"/><!--MD5=[424b45663b8cfea2d30bb57659b6b239]
link operation to assigner--><path codeLine="100" d="M658.824,253.576 C697.728,270.208 761.64,297.528 802.336,314.928 " fill="none" id="operation-to-assigner" style="stroke:#A80036;stroke-width:0.8000000000000002;"/><polygon fill="#FFFFFF" points="812.152,319.128,808.9972,314.2982,803.3255,315.3527,806.4803,320.1825,812.152,319.128" style="stroke:#A80036;stroke-width:0.8000000000000002;"/><!--MD5=[324fbfeb6bb25a3ddacc56a99ecf54ab]
link comparator to simple_comparator--><path codeLine="102" d="M438.32,344.896 C416.696,357.664 382.24,378.016 356.432,393.264 " fill="none" id="comparator-to-simple_comparator" style="stroke:#A80036;stroke-width:0.8000000000000002;stroke-dasharray:7.0,7.0;"/><polygon fill="none" points="359.024,398.24,342.4,401.552,353.328,388.592,359.024,398.24" style="stroke:#A80036;stroke-width:0.8000000000000002;"/><!--MD5=[22f18c9c5d65fd79e1b28e1b6b566f56]
link comparator to count_comparator--><path codeLine="103" d="M458.8,345.072 C458.8,355.752 458.8,371.64 458.8,385.432 " fill="none" id="comparator-to-count_comparator" style="stroke:#A80036;stroke-width:0.8000000000000002;stroke-dasharray:7.0,7.0;"/><polygon fill="none" points="464.4,385.48,458.8,401.48,453.2,385.48,464.4,385.48" style="stroke:#A80036;stroke-width:0.8000000000000002;"/><!--MD5=[a7ac50f0bae4323d13de3c2517d5d258]
link swapper to simple_swapper--><path codeLine="104" d="M619.856,345.072 C615.048,356.112 607.816,372.712 601.672,386.808 " fill="none" id="swapper-to-simple_swapper" style="stroke:#A80036;stroke-width:0.8000000000000002;stroke-dasharray:7.0,7.0;"/><polygon fill="none" points="606.808,389.048,595.28,401.48,596.536,384.576,606.808,389.048" style="stroke:#A80036;stroke-width:0.8000000000000002;"/><!--MD5=[e9e7a7dc2e53b681581de553bc33a12e]
link swapper to count_swapper--><path codeLine="105" d="M638.808,345.072 C652.176,357.128 672.896,375.808 689.32,390.624 " fill="none" id="swapper-to-count_swapper" style="stroke:#A80036;stroke-width:0.8000000000000002;stroke-dasharray:7.0,7.0;"/><polygon fill="none" points="693.224,386.6,701.36,401.48,685.728,394.92,693.224,386.6" style="stroke:#A80036;stroke-width:0.8000000000000002;"/><!--MD5=[91579fd3f3b2d3051c338e0224270400]
link assigner to simple_assigner--><path codeLine="106" d="M840.4,345.072 C840.4,355.752 840.4,371.64 840.4,385.432 " fill="none" id="assigner-to-simple_assigner" style="stroke:#A80036;stroke-width:0.8000000000000002;stroke-dasharray:7.0,7.0;"/><polygon fill="none" points="846,385.48,840.4,401.48,834.8,385.48,846,385.48" style="stroke:#A80036;stroke-width:0.8000000000000002;"/><!--MD5=[4517f036ef44dfeb66741240dad05087]
link assigner to count_assigner--><path codeLine="107" d="M859.2,344.896 C878.872,357.544 910.104,377.64 933.72,392.832 " fill="none" id="assigner-to-count_assigner" style="stroke:#A80036;stroke-width:0.8000000000000002;stroke-dasharray:7.0,7.0;"/><polygon fill="none" points="936.848,388.184,947.272,401.552,930.784,397.608,936.848,388.184" style="stroke:#A80036;stroke-width:0.8000000000000002;"/><!--MD5=[42ccb7126aa9e537a66682a2766a1e94]
@startuml
'!include styles/card-style.puml

class testing_engine {
	List<sorting> sortings
	test()
}

hide testing_averager fields
class testing_averager {
	average()
}

hide sorting fields
interface sorting {
	sort()
}

hide quick_sort fields
class quick_sort {
	sort()
}

hide dual_pivot_quick_sort fields
class dual_pivot_quick_sort {
	sort()
}

hide quick_merge_sort fields
class quick_merge_sort {
	sort()
}

hide merge_sort fields
class merge_sort {
	sort()
}

hide inner_sort fields
class inner_sort {
	sort()
}

hide partitioning fields
interface partitioning {
	partition()
}

hide simple_partitioning fields
class simple_partitioning {
	partition()
}

hide median_of_three_paritioning fields
class median_of_three_paritioning {
	partition()
}

hide operation methods
class operation {
	comparator
	swapper
	assigner
}

hide comparator members
interface comparator
hide simple_comparator members
hide count_comparator members

hide swapper members
interface swapper
hide simple_swapper members
hide count_swapper members

hide assigner members
interface assigner
hide simple_assigner members
hide count_assigner members

testing_engine - -o sorting
testing_engine -o testing_averager

sorting ..|> quick_sort
sorting ..|> dual_pivot_quick_sort
sorting ..|> quick_merge_sort
sorting ..|> merge_sort
sorting ..|> inner_sort

quick_sort - - - partitioning
dual_pivot_quick_sort - - - partitioning
quick_merge_sort - - - partitioning

partitioning ..|> simple_partitioning
partitioning ..|> median_of_three_paritioning


sorting - -o operation
operation - -o comparator
operation - -o swapper
operation - -o assigner

comparator ..|> simple_comparator
comparator ..|> count_comparator
swapper ..|> simple_swapper
swapper ..|> count_swapper
assigner ..|> simple_assigner
assigner ..|> count_assigner

@enduml

@startuml

class testing_engine {
	List<sorting> sortings
	test()
}

hide testing_averager fields
class testing_averager {
	average()
}

hide sorting fields
interface sorting {
	sort()
}

hide quick_sort fields
class quick_sort {
	sort()
}

hide dual_pivot_quick_sort fields
class dual_pivot_quick_sort {
	sort()
}

hide quick_merge_sort fields
class quick_merge_sort {
	sort()
}

hide merge_sort fields
class merge_sort {
	sort()
}

hide inner_sort fields
class inner_sort {
	sort()
}

hide partitioning fields
interface partitioning {
	partition()
}

hide simple_partitioning fields
class simple_partitioning {
	partition()
}

hide median_of_three_paritioning fields
class median_of_three_paritioning {
	partition()
}

hide operation methods
class operation {
	comparator
	swapper
	assigner
}

hide comparator members
interface comparator
hide simple_comparator members
hide count_comparator members

hide swapper members
interface swapper
hide simple_swapper members
hide count_swapper members

hide assigner members
interface assigner
hide simple_assigner members
hide count_assigner members

testing_engine - -o sorting
testing_engine -o testing_averager

sorting ..|> quick_sort
sorting ..|> dual_pivot_quick_sort
sorting ..|> quick_merge_sort
sorting ..|> merge_sort
sorting ..|> inner_sort

quick_sort - - - partitioning
dual_pivot_quick_sort - - - partitioning
quick_merge_sort - - - partitioning

partitioning ..|> simple_partitioning
partitioning ..|> median_of_three_paritioning


sorting - -o operation
operation - -o comparator
operation - -o swapper
operation - -o assigner

comparator ..|> simple_comparator
comparator ..|> count_comparator
swapper ..|> simple_swapper
swapper ..|> count_swapper
assigner ..|> simple_assigner
assigner ..|> count_assigner

@enduml

PlantUML version 1.2021.11(Sat Oct 02 15:26:11 CEST 2021)
(GPL source distribution)
Java Runtime: OpenJDK Runtime Environment
JVM: OpenJDK 64-Bit Server VM
Default Encoding: Cp1250
Language: pl
Country: PL
--></g></svg>