<?xml version="1.0" encoding="UTF-8" standalone="no"?><svg xmlns="http://www.w3.org/2000/svg" xmlns:xlink="http://www.w3.org/1999/xlink" contentScriptType="application/ecmascript" contentStyleType="text/css" height="124px" preserveAspectRatio="none" style="width:135px;height:124px;background:#FFFFFF;" version="1.1" viewBox="0 0 135 124" width="135px" zoomAndPan="magnify"><defs><filter height="300%" id="fwflm3spnpo2f" width="300%" x="-1" y="-1"><feGaussianBlur result="blurOut" stdDeviation="2.0"/><feColorMatrix in="blurOut" result="blurOut2" type="matrix" values="0 0 0 0 0 0 0 0 0 0 0 0 0 0 0 0 0 0 .4 0"/><feOffset dx="4.0" dy="4.0" in="blurOut2" result="blurOut3"/><feBlend in="SourceGraphic" in2="blurOut3" mode="normal"/></filter></defs><g><!--MD5=[2059e8b01f1804bb6f4d99f39f7837d0]
class testing_results--><rect codeLine="4" fill="#FEFECE" filter="url(#fwflm3spnpo2f)" height="103.5313" id="testing_results" style="stroke:#A80036;stroke-width:1.5;" width="114" x="7" y="7"/><ellipse cx="22" cy="27.0938" fill="#ADD1B2" rx="11" ry="11" style="stroke:#A80036;stroke-width:1.0;"/><path d="M24,23.5938 Q24.2031,23.0938 24.4375,22.8438 Q24.6719,22.5938 24.9375,22.5938 Q25.4063,22.5938 25.7031,22.875 Q26,23.1563 26,23.8125 L26,25.375 Q26,26.0313 25.7188,26.3125 Q25.4375,26.5938 25,26.5938 Q24.6094,26.5938 24.3594,26.4219 Q24.1094,26.25 24,25.7969 Q23.9531,25.4844 23.7813,25.3125 Q23.4688,24.9844 22.9063,24.7969 Q22.3438,24.5938 21.7813,24.5938 Q21.0781,24.5938 20.4844,24.875 Q19.9063,25.1563 19.4531,25.7813 Q19,26.4063 19,27.2656 L19,28.1875 Q19,29.2188 19.8438,29.9063 Q20.6875,30.5938 22.1875,30.5938 Q23.0781,30.5938 23.7031,30.3906 Q24.0625,30.2813 24.4688,29.9219 Q24.7344,29.7188 24.875,29.6563 Q25.0156,29.5938 25.1875,29.5938 Q25.5156,29.5938 25.75,29.8594 Q26,30.1094 26,30.4688 Q26,30.8125 25.6563,31.2188 Q25.1563,31.8125 24.3594,32.1406 Q23.3125,32.5938 22.0313,32.5938 Q20.5313,32.5938 19.3281,32 Q18.3594,31.5313 17.6719,30.5156 Q17,29.5 17,28.2969 L17,27.2031 Q17,25.9531 17.5938,24.8594 Q18.2031,23.7656 19.25,23.1875 Q20.3125,22.5938 21.5,22.5938 Q22.2188,22.5938 22.8438,22.8438 Q23.4688,23.0938 24,23.5938 Z " fill="#000000"/><text fill="#000000" font-family="sans-serif" font-size="12" font-style="italic" lengthAdjust="spacing" textLength="86" x="34" y="24.457">«Value-Object»</text><text fill="#000000" font-family="sans-serif" font-size="12" lengthAdjust="spacing" textLength="82" x="36" y="39.5508">testing_results</text><line style="stroke:#A80036;stroke-width:1.5;" x1="8" x2="120" y1="47.1875" y2="47.1875"/><rect fill="none" height="6" style="stroke:#C82930;stroke-width:1.0;" width="6" x="15" y="55.1875"/><text fill="#000000" font-family="sans-serif" font-size="11" font-weight="bold" lengthAdjust="spacing" textLength="23" x="27" y="62.6064">final</text><text fill="#000000" font-family="sans-serif" font-size="11" lengthAdjust="spacing" textLength="62" x="53" y="62.6064">comparisons</text><rect fill="none" height="6" style="stroke:#C82930;stroke-width:1.0;" width="6" x="15" y="69.0234"/><text fill="#000000" font-family="sans-serif" font-size="11" font-weight="bold" lengthAdjust="spacing" textLength="23" x="27" y="76.4424">final</text><text fill="#000000" font-family="sans-serif" font-size="11" lengthAdjust="spacing" textLength="34" x="53" y="76.4424">swaps</text><rect fill="none" height="6" style="stroke:#C82930;stroke-width:1.0;" width="6" x="15" y="82.8594"/><text fill="#000000" font-family="sans-serif" font-size="11" font-weight="bold" lengthAdjust="spacing" textLength="23" x="27" y="90.2783">final</text><text fill="#000000" font-family="sans-serif" font-size="11" lengthAdjust="spacing" textLength="38" x="53" y="90.2783">assigns</text><rect fill="none" height="6" style="stroke:#C82930;stroke-width:1.0;" width="6" x="15" y="96.6953"/><text fill="#000000" font-family="sans-serif" font-size="11" font-weight="bold" lengthAdjust="spacing" textLength="23" x="27" y="104.1143">final</text><text fill="#000000" font-family="sans-serif" font-size="11" lengthAdjust="spacing" textLength="19" x="53" y="104.1143">time</text><!--MD5=[f7345956a728176b95626f0af535200c]
@startuml
'!include styles/card-style.puml

hide testing_results methods
class testing_results <<Value-Object>> {
	- **final** comparisons
	- **final** swaps
	- **final** assigns
	- **final** time
}

@enduml

@startuml

hide testing_results methods
class testing_results <<Value-Object>> {
	- **final** comparisons
	- **final** swaps
	- **final** assigns
	- **final** time
}

@enduml

PlantUML version 1.2021.11(Sat Oct 02 15:26:11 CEST 2021)
(GPL source distribution)
Java Runtime: OpenJDK Runtime Environment
JVM: OpenJDK 64-Bit Server VM
Default Encoding: Cp1250
Language: pl
Country: PL
--></g></svg>