<svg width="1152" height="686" viewBox="0 0 1152 686" fill="none" xmlns="http://www.w3.org/2000/svg">
<path d="M1129 368.044V600.544H867.447H585V568.044L867.447 440.5L1129 322.5V368.044Z" fill="white" stroke="black" stroke-width="3"/>
<path d="M1129 601.088H867L867.5 441.28L1129 323V601.088Z" fill="#C4C4C4"/>
<path d="M585 270.544V161.544C585 161.544 602.5 198.044 616.5 195.044C630.5 192.044 624 135.044 647.5 127.544C671 120.044 675 236.044 700.5 238.044C726 240.044 729.5 144.044 746.5 136.544C763.5 129.044 769 161.544 787.5 161.544C806 161.544 802 121.544 813 119.544C824 117.544 826 138.044 846.5 132.544C867 127.044 881.5 64.5438 921.5 64.0438C961.5 63.5438 962 95.0438 978 95.0438C994 95.0438 985.5 45.0438 1005.5 38.0438C1025.5 31.0438 1040 95.0438 1061.5 95.0438C1083 95.0438 1068.5 3.54383 1091 2.04383C1113.5 0.543829 1129 38.0438 1129 38.0438V270.544H585Z" fill="white" stroke="black" stroke-width="3"/>
<path d="M2 272.076V113.076C2 113.076 28 188.076 50 164.076C72 140.076 67 78.0763 83 67.0763C99 56.0763 128 131.076 148 122.076C168 113.076 150 52.0763 178 37.0763C206 22.0763 236 141.076 245 157.076C254 173.076 264 102.076 305 94.0763C346 86.0763 328 237.5 361 233.5C394 229.5 374 122.076 401 122.076C428 122.076 419 87.0763 429 81.0763C439 75.0763 442 106.076 471 105.076C500 104.076 488 9.07627 505 7.07627C522 5.07627 548 43.0763 548 43.0763V272.076H2Z" fill="white" stroke="black" stroke-width="3"/>
<path d="M1129 39.0877V271.588H867V112.228C880.142 92.1634 895.387 65.4141 921.5 65.0877C961.5 64.5877 962 96.0876 978 96.0876C994 96.0876 985.5 46.0877 1005.5 39.0877C1025.5 32.0877 1040 96.0876 1061.5 96.0876C1083 96.0876 1068.5 4.58765 1091 3.08765C1113.5 1.58765 1129 39.0877 1129 39.0877Z" fill="#C4C4C4"/>
<line x1="585" y1="112.544" x2="1129" y2="112.544" stroke="black" stroke-width="3" stroke-dasharray="6 6"/>
<path d="M867 111.228C880.142 91.1634 895.387 64.4141 921.5 64.0877C961.5 63.5877 962 95.0876 978 95.0876C994 95.0876 985.5 45.0877 1005.5 38.0877C1025.5 31.0877 1040 95.0876 1061.5 95.0876C1083 95.0876 1068.5 3.58765 1091 2.08765C1113.5 0.587653 1129 38.0877 1129 38.0877V270.588H867" stroke="black" stroke-width="3"/>
<path d="M548 368.044V600.544H286.447H4V568.044L286.447 440.5C299.488 420.517 314.683 394.367 340.5 394.044C380.5 393.544 381 425.044 397 425.044C413 425.044 404.5 375.044 424.5 368.044C444.5 361.044 459 425.044 480.5 425.044C502 425.044 487.5 333.544 510 332.044C532.5 330.544 548 368.044 548 368.044Z" fill="white" stroke="black" stroke-width="3"/>
<path d="M548 369.088V601.588H286V442.228C299.142 422.163 314.387 395.414 340.5 395.088C380.5 394.588 381 426.088 397 426.088C413 426.088 404.5 376.088 424.5 369.088C444.5 362.088 459 426.088 480.5 426.088C502 426.088 487.5 334.588 510 333.088C532.5 331.588 548 369.088 548 369.088Z" fill="#C4C4C4"/>
<line x1="4" y1="442.544" x2="548" y2="442.544" stroke="black" stroke-width="3" stroke-dasharray="6 6"/>
<path d="M286 441.228C299.142 421.163 314.387 394.414 340.5 394.088C380.5 393.588 381 425.088 397 425.088C413 425.088 404.5 375.088 424.5 368.088C444.5 361.088 459 425.088 480.5 425.088C502 425.088 487.5 333.588 510 332.088C532.5 330.588 548 368.088 548 368.088V600.588H286" stroke="black" stroke-width="3"/>
<line x1="585" y1="442.544" x2="1129" y2="442.544" stroke="black" stroke-width="3" stroke-dasharray="6 6"/>
<path d="M867 600.588H1129V322.5L867.5 440.78" stroke="black" stroke-width="3"/>
<path d="M474.656 575L474.969 573.156C475.052 572.74 475.333 572.292 475.812 571.812L491.469 558.094C497.406 552.885 500.375 547.938 500.375 543.25C500.375 541.125 499.771 539.406 498.562 538.094C497.375 536.76 495.656 536.094 493.406 536.094C492.26 536.094 491.125 536.281 490 536.656C488.896 537.01 488.073 537.333 487.531 537.625C487.01 537.917 486.625 538.177 486.375 538.406C488.333 538.969 489.312 540.219 489.312 542.156C489.312 543.656 488.771 544.927 487.688 545.969C486.625 547.01 485.396 547.531 484 547.531C483.062 547.531 482.156 547.229 481.281 546.625C480.406 546 479.969 545 479.969 543.625C479.969 540.854 481.417 538.406 484.312 536.281C487.208 534.156 490.854 533.094 495.25 533.094C499.396 533.094 502.76 534.021 505.344 535.875C507.927 537.729 509.219 540.271 509.219 543.5C509.219 545.167 508.906 546.729 508.281 548.188C507.656 549.646 506.677 551.01 505.344 552.281C504.031 553.552 502.885 554.552 501.906 555.281C500.927 556.01 499.542 556.948 497.75 558.094C493.792 560.698 489.521 563.667 484.938 567H494.219C498.24 567 500.458 566.875 500.875 566.625C501.688 566.104 502.542 564.156 503.438 560.781H506.469L502.094 575H474.656ZM513.844 570.656C513.844 569.24 514.406 567.948 515.531 566.781C516.656 565.615 517.99 565.031 519.531 565.031C520.719 565.031 521.74 565.438 522.594 566.25C523.448 567.042 523.875 568.083 523.875 569.375C523.875 570.833 523.312 572.135 522.188 573.281C521.062 574.427 519.75 575 518.25 575C516.979 575 515.927 574.583 515.094 573.75C514.26 572.917 513.844 571.885 513.844 570.656Z" fill="black"/>
<path d="M1056.47 567.188C1056.47 565.229 1057.03 563.729 1058.16 562.688C1059.3 561.646 1060.61 561.125 1062.09 561.125C1063.59 561.125 1064.7 561.552 1065.41 562.406C1066.11 563.26 1066.47 564.198 1066.47 565.219C1066.47 566.448 1066.05 567.625 1065.22 568.75C1064.39 569.854 1063.24 570.531 1061.78 570.781C1063.7 572.24 1066.24 572.958 1069.41 572.938C1072.53 572.938 1074.83 571.51 1076.31 568.656C1076.79 567.76 1077.19 566.562 1077.5 565.062C1077.81 563.542 1078.01 562.323 1078.09 561.406C1078.2 560.49 1078.25 559.854 1078.25 559.5C1078.25 555.75 1076.34 553.875 1072.53 553.875H1069.78C1068.59 553.875 1068 553.573 1068 552.969C1068 552.115 1068.26 551.646 1068.78 551.562C1068.86 551.562 1068.98 551.552 1069.12 551.531C1069.27 551.51 1069.58 551.49 1070.06 551.469C1070.56 551.448 1071.18 551.417 1071.91 551.375C1073.53 551.292 1074.96 550.75 1076.19 549.75C1077.44 548.75 1078.34 547.562 1078.91 546.188C1079.49 544.792 1079.92 543.531 1080.19 542.406C1080.46 541.26 1080.59 540.281 1080.59 539.469C1080.59 536.865 1079.08 535.562 1076.06 535.562C1073.29 535.562 1070.77 536.354 1068.5 537.938C1068.83 538.021 1069.2 538.156 1069.59 538.344C1069.99 538.51 1070.41 538.896 1070.84 539.5C1071.3 540.083 1071.53 540.802 1071.53 541.656C1071.53 543.031 1071.06 544.229 1070.12 545.25C1069.19 546.271 1067.95 546.781 1066.41 546.781C1065.26 546.781 1064.32 546.438 1063.59 545.75C1062.86 545.062 1062.5 544.146 1062.5 543C1062.5 540.604 1063.78 538.354 1066.34 536.25C1068.91 534.146 1072.29 533.094 1076.5 533.094C1080.52 533.094 1083.64 533.823 1085.84 535.281C1088.07 536.719 1089.19 538.615 1089.19 540.969C1089.19 543.302 1088.23 545.542 1086.31 547.688C1084.4 549.812 1081.77 551.427 1078.44 552.531C1081.38 553.219 1083.66 554.365 1085.28 555.969C1086.91 557.573 1087.72 559.583 1087.72 562C1087.72 563.5 1087.36 565.021 1086.66 566.562C1085.95 568.083 1084.9 569.552 1083.5 570.969C1082.12 572.385 1080.22 573.531 1077.78 574.406C1075.36 575.281 1072.64 575.719 1069.59 575.719C1065.84 575.719 1062.72 574.969 1060.22 573.469C1057.72 571.969 1056.47 569.875 1056.47 567.188ZM1094.84 570.656C1094.84 569.24 1095.41 567.948 1096.53 566.781C1097.66 565.615 1098.99 565.031 1100.53 565.031C1101.72 565.031 1102.74 565.438 1103.59 566.25C1104.45 567.042 1104.88 568.083 1104.88 569.375C1104.88 570.833 1104.31 572.135 1103.19 573.281C1102.06 574.427 1100.75 575 1099.25 575C1097.98 575 1096.93 574.583 1096.09 573.75C1095.26 572.917 1094.84 571.885 1094.84 570.656Z" fill="black"/>
<path d="M1058.16 245L1058.66 242H1067.56L1073 208.969C1070.27 209.781 1067.43 210.188 1064.47 210.188H1063.25L1063.72 207.188H1065C1070.81 207.188 1075.52 205.823 1079.12 203.094C1079.69 203.094 1080.09 203.104 1080.34 203.125C1080.61 203.146 1080.86 203.25 1081.09 203.438C1081.32 203.625 1081.44 203.906 1081.44 204.281C1081.44 204.323 1081.43 204.396 1081.41 204.5C1081.39 204.583 1081.36 204.688 1081.34 204.812C1081.32 204.938 1081.31 205.062 1081.31 205.188L1075.16 242H1084.12L1083.62 245C1081.75 244.875 1077.5 244.812 1070.88 244.812C1064.27 244.812 1060.03 244.875 1058.16 245ZM1094.84 240.656C1094.84 239.24 1095.41 237.948 1096.53 236.781C1097.66 235.615 1098.99 235.031 1100.53 235.031C1101.72 235.031 1102.74 235.438 1103.59 236.25C1104.45 237.042 1104.88 238.083 1104.88 239.375C1104.88 240.833 1104.31 242.135 1103.19 243.281C1102.06 244.427 1100.75 245 1099.25 245C1097.98 245 1096.93 244.583 1096.09 243.75C1095.26 242.917 1094.84 241.885 1094.84 240.656Z" fill="black"/>
<path d="M44.4414 678L44.6875 676.312H45.6367C47.0547 676.312 48.0625 676.189 48.6602 675.943L52.1406 654.99H48.2559L48.5371 653.303H56.5703C57.0977 653.303 57.4316 653.361 57.5723 653.479C57.7246 653.584 57.8594 653.848 57.9766 654.27L63.4434 673.254L75.291 654.164C75.5254 653.754 75.748 653.508 75.959 653.426C76.1816 653.344 76.5215 653.303 76.9785 653.303H84.9766L84.6953 654.99H80.793L77.2422 676.312H81.127L80.8281 678C79.9609 677.93 77.9219 677.895 74.7109 677.895C71.4766 677.895 69.4258 677.93 68.5586 678L68.8047 676.312H72.7422L76.2578 655.061L76.2227 655.025L62.4766 677.174C62.1602 677.725 61.75 678 61.2461 678C61.0117 678 60.8184 677.947 60.666 677.842C60.5254 677.736 60.4316 677.631 60.3848 677.525C60.3379 677.408 60.2793 677.221 60.209 676.963L54.0566 655.5H54.0215L50.5938 675.943C51.1914 676.178 52.1523 676.301 53.4766 676.312H54.4082L54.127 678C53.2129 677.93 51.6016 677.895 49.293 677.895C47.043 677.895 45.4258 677.93 44.4414 678ZM84.6426 671.268C84.6426 670.143 84.8594 669.029 85.293 667.928C85.7266 666.814 86.3477 665.795 87.1562 664.869C87.9766 663.932 89.0605 663.17 90.4082 662.584C91.7559 661.986 93.2559 661.688 94.9082 661.688C97.041 661.688 98.6934 662.174 99.8652 663.146C101.049 664.119 101.641 665.613 101.641 667.629C101.641 668.801 101.553 669.516 101.377 669.773C101.213 670.031 100.855 670.16 100.305 670.16H89.3535C89.166 671.309 89.0723 672.146 89.0723 672.674C89.0723 674.068 89.4355 675.088 90.1621 675.732C90.9355 676.424 91.9668 676.77 93.2559 676.77C93.5723 676.77 93.9004 676.746 94.2402 676.699C94.5918 676.652 95.0723 676.541 95.6816 676.365C96.291 676.178 96.8945 675.861 97.4922 675.416C98.1016 674.959 98.6055 674.379 99.0039 673.676C99.2734 673.312 99.5781 673.137 99.918 673.148C100.469 673.148 100.744 673.359 100.744 673.781C100.744 673.922 100.656 674.15 100.48 674.467C100.316 674.783 100.023 675.158 99.6016 675.592C99.1797 676.025 98.6816 676.436 98.1074 676.822C97.5332 677.197 96.7891 677.525 95.875 677.807C94.9609 678.076 93.9648 678.211 92.8867 678.211C90.3438 678.211 88.334 677.584 86.8574 676.33C85.3809 675.064 84.6426 673.377 84.6426 671.268ZM89.5469 668.965H98.1426C98.2598 667.887 98.3184 667.225 98.3184 666.979C98.3184 664.318 97.1934 662.988 94.9434 662.988C92.1191 662.988 90.3203 664.98 89.5469 668.965ZM102.59 678L102.836 676.312H105.35L107.23 664.975C107.277 664.74 107.301 664.582 107.301 664.5C107.301 664.16 107.137 663.955 106.809 663.885C106.492 663.814 105.865 663.779 104.928 663.779L105.209 662.092L111.256 661.793L110.658 665.607C112.029 663.064 113.793 661.793 115.949 661.793C116.887 661.793 117.695 662.021 118.375 662.479C119.055 662.936 119.395 663.586 119.395 664.43C119.395 665.168 119.143 665.771 118.639 666.24C118.135 666.709 117.561 666.943 116.916 666.943C116.436 666.943 115.99 666.797 115.58 666.504C115.17 666.199 114.965 665.725 114.965 665.08C114.965 664.283 115.264 663.621 115.861 663.094C115.088 663.117 114.373 663.346 113.717 663.779C113.061 664.213 112.539 664.717 112.152 665.291C111.777 665.865 111.443 666.492 111.15 667.172C110.869 667.84 110.664 668.385 110.535 668.807C110.418 669.229 110.348 669.557 110.324 669.791L109.252 676.312H112.381L112.047 678C111.109 677.93 109.469 677.895 107.125 677.895C106.258 677.895 104.746 677.93 102.59 678ZM118.955 681.059C118.955 680.121 119.324 679.354 120.062 678.756C120.812 678.158 121.656 677.76 122.594 677.561C121.902 676.822 121.551 675.914 121.539 674.836C121.539 673.418 122.131 672.094 123.314 670.863C122.471 670.02 122.049 669 122.049 667.805C122.049 666.246 122.746 664.857 124.141 663.639C125.535 662.408 127.504 661.793 130.047 661.793C132.086 661.793 133.645 662.191 134.723 662.988C135.965 662.074 137.295 661.617 138.713 661.617C139.486 661.617 140.02 661.822 140.312 662.232C140.617 662.643 140.77 663.053 140.77 663.463C140.77 663.943 140.611 664.365 140.295 664.729C139.99 665.08 139.562 665.256 139.012 665.256C138.625 665.256 138.297 665.145 138.027 664.922C137.77 664.688 137.641 664.354 137.641 663.92C137.641 663.533 137.723 663.223 137.887 662.988C137.148 663.059 136.369 663.311 135.549 663.744C136.17 664.541 136.48 665.443 136.48 666.451C136.48 667.986 135.795 669.375 134.424 670.617C133.064 671.848 131.078 672.463 128.465 672.463C126.684 672.463 125.266 672.146 124.211 671.514C123.777 672.018 123.561 672.574 123.561 673.184C123.561 674.402 124.316 675.012 125.828 675.012H128.201C129.021 675.012 129.643 675.018 130.064 675.029C130.486 675.041 131.072 675.076 131.822 675.135C132.584 675.193 133.176 675.281 133.598 675.398C134.031 675.504 134.523 675.674 135.074 675.908C135.637 676.131 136.059 676.412 136.34 676.752C136.633 677.08 136.885 677.502 137.096 678.018C137.318 678.533 137.43 679.113 137.43 679.758C137.43 680.789 137.125 681.674 136.516 682.412C135.918 683.162 135.115 683.736 134.107 684.135C133.1 684.533 132.051 684.814 130.961 684.979C129.871 685.154 128.711 685.242 127.48 685.242C124.48 685.242 122.307 684.832 120.959 684.012C119.623 683.191 118.955 682.207 118.955 681.059ZM122.049 681.094C122.049 681.938 122.512 682.623 123.438 683.15C124.363 683.678 125.723 683.941 127.516 683.941C129.801 683.941 131.494 683.549 132.596 682.764C133.697 681.99 134.248 681.182 134.248 680.338C134.248 679.096 132.666 678.475 129.502 678.475H125.318C124.604 678.475 124 678.586 123.508 678.809C123.016 679.043 122.676 679.33 122.488 679.67C122.312 680.021 122.195 680.303 122.137 680.514C122.078 680.736 122.049 680.93 122.049 681.094ZM125.898 668.895C125.898 669.129 125.916 669.346 125.951 669.545C125.986 669.732 126.08 669.973 126.232 670.266C126.396 670.547 126.666 670.77 127.041 670.934C127.428 671.086 127.926 671.162 128.535 671.162C129.273 671.162 129.93 671.004 130.504 670.688C131.078 670.359 131.5 669.955 131.77 669.475C131.98 669.064 132.156 668.514 132.297 667.822C132.449 667.119 132.543 666.562 132.578 666.152C132.613 665.742 132.631 665.479 132.631 665.361C132.631 663.85 131.758 663.094 130.012 663.094C128.547 663.094 127.475 663.621 126.795 664.676C126.525 665.133 126.309 665.836 126.145 666.785C125.98 667.734 125.898 668.438 125.898 668.895ZM141.35 671.268C141.35 670.143 141.566 669.029 142 667.928C142.434 666.814 143.055 665.795 143.863 664.869C144.684 663.932 145.768 663.17 147.115 662.584C148.463 661.986 149.963 661.688 151.615 661.688C153.748 661.688 155.4 662.174 156.572 663.146C157.756 664.119 158.348 665.613 158.348 667.629C158.348 668.801 158.26 669.516 158.084 669.773C157.92 670.031 157.562 670.16 157.012 670.16H146.061C145.873 671.309 145.779 672.146 145.779 672.674C145.779 674.068 146.143 675.088 146.869 675.732C147.643 676.424 148.674 676.77 149.963 676.77C150.279 676.77 150.607 676.746 150.947 676.699C151.299 676.652 151.779 676.541 152.389 676.365C152.998 676.178 153.602 675.861 154.199 675.416C154.809 674.959 155.312 674.379 155.711 673.676C155.98 673.312 156.285 673.137 156.625 673.148C157.176 673.148 157.451 673.359 157.451 673.781C157.451 673.922 157.363 674.15 157.188 674.467C157.023 674.783 156.73 675.158 156.309 675.592C155.887 676.025 155.389 676.436 154.814 676.822C154.24 677.197 153.496 677.525 152.582 677.807C151.668 678.076 150.672 678.211 149.594 678.211C147.051 678.211 145.041 677.584 143.564 676.33C142.088 675.064 141.35 673.377 141.35 671.268ZM146.254 668.965H154.85C154.967 667.887 155.025 667.225 155.025 666.979C155.025 664.318 153.9 662.988 151.65 662.988C148.826 662.988 147.027 664.98 146.254 668.965ZM174.08 677.895L175.275 670.582C175.322 670.219 175.398 669.996 175.504 669.914C175.609 669.832 175.832 669.791 176.172 669.791C176.746 669.791 177.033 669.973 177.033 670.336C177.033 670.359 177.016 670.482 176.98 670.705C176.945 670.916 176.928 671.197 176.928 671.549C176.928 672.65 177.203 673.576 177.754 674.326C178.305 675.076 179.025 675.609 179.916 675.926C180.807 676.23 181.592 676.436 182.271 676.541C182.951 676.646 183.643 676.699 184.346 676.699C185.377 676.699 186.273 676.523 187.035 676.172C187.809 675.809 188.383 675.357 188.758 674.818C189.145 674.279 189.426 673.746 189.602 673.219C189.789 672.691 189.883 672.199 189.883 671.742C189.883 671.098 189.76 670.541 189.514 670.072C189.279 669.592 188.939 669.229 188.494 668.982C188.049 668.725 187.715 668.555 187.492 668.473C187.27 668.391 186.965 668.303 186.578 668.209C185.336 667.939 184.316 667.711 183.52 667.523C182.605 667.336 181.926 667.184 181.48 667.066C181.035 666.938 180.543 666.727 180.004 666.434C179.465 666.129 178.967 665.736 178.51 665.256C177.455 664.131 176.928 662.766 176.928 661.16C176.928 660.293 177.104 659.396 177.455 658.471C177.818 657.545 178.352 656.66 179.055 655.816C179.77 654.961 180.742 654.264 181.973 653.725C183.215 653.186 184.615 652.916 186.174 652.916C188.576 652.916 190.545 653.584 192.08 654.92L194.031 653.232C194.266 653.021 194.494 652.916 194.717 652.916C195.139 652.916 195.35 653.08 195.35 653.408C195.35 653.467 195.326 653.625 195.279 653.883L194.172 660.686C194.125 660.955 194.055 661.148 193.961 661.266C193.879 661.383 193.797 661.453 193.715 661.477C193.633 661.5 193.475 661.512 193.24 661.512C192.947 661.512 192.748 661.482 192.643 661.424C192.537 661.365 192.473 661.283 192.449 661.178C192.426 661.061 192.414 660.861 192.414 660.58C192.344 656.502 190.252 654.463 186.139 654.463C184.311 654.463 182.957 654.943 182.078 655.904C181.211 656.854 180.777 657.85 180.777 658.893C180.777 659.713 181.053 660.393 181.604 660.932C182.154 661.459 182.863 661.822 183.73 662.021L188.582 663.094C190.211 663.457 191.477 664.242 192.379 665.449C193.281 666.645 193.732 667.986 193.732 669.475C193.732 670.412 193.551 671.373 193.188 672.357C192.836 673.33 192.303 674.285 191.588 675.223C190.885 676.16 189.895 676.928 188.617 677.525C187.352 678.111 185.904 678.404 184.275 678.404C181.275 678.404 178.955 677.742 177.314 676.418C176.904 676.805 176.271 677.355 175.416 678.07C175.146 678.281 174.906 678.393 174.695 678.404C174.285 678.404 174.08 678.234 174.08 677.895ZM197.037 671.584C197.037 669.064 197.986 666.785 199.885 664.746C201.783 662.707 204.396 661.688 207.725 661.688C210.104 661.688 212.02 662.279 213.473 663.463C214.926 664.635 215.652 666.346 215.652 668.596C215.652 671.162 214.709 673.406 212.822 675.328C210.936 677.25 208.328 678.211 205 678.211C202.527 678.211 200.582 677.625 199.164 676.453C197.746 675.27 197.037 673.646 197.037 671.584ZM201.467 673.061C201.467 673.424 201.49 673.752 201.537 674.045C201.584 674.326 201.707 674.707 201.906 675.188C202.117 675.668 202.504 676.055 203.066 676.348C203.629 676.629 204.355 676.77 205.246 676.77C206.23 676.77 207.145 676.535 207.988 676.066C208.844 675.598 209.465 674.924 209.852 674.045C210.285 673.131 210.637 671.859 210.906 670.23C211.188 668.59 211.328 667.389 211.328 666.627C211.328 666.357 211.322 666.123 211.311 665.924C211.299 665.713 211.223 665.414 211.082 665.027C210.941 664.629 210.748 664.301 210.502 664.043C210.268 663.773 209.893 663.533 209.377 663.322C208.861 663.1 208.24 662.988 207.514 662.988C205.252 662.988 203.67 663.961 202.768 665.906C202.451 666.574 202.152 667.717 201.871 669.334C201.602 670.951 201.467 672.193 201.467 673.061ZM216.742 678L216.988 676.312H219.502L221.383 664.975C221.43 664.74 221.453 664.582 221.453 664.5C221.453 664.16 221.289 663.955 220.961 663.885C220.645 663.814 220.018 663.779 219.08 663.779L219.361 662.092L225.408 661.793L224.811 665.607C226.182 663.064 227.945 661.793 230.102 661.793C231.039 661.793 231.848 662.021 232.527 662.479C233.207 662.936 233.547 663.586 233.547 664.43C233.547 665.168 233.295 665.771 232.791 666.24C232.287 666.709 231.713 666.943 231.068 666.943C230.588 666.943 230.143 666.797 229.732 666.504C229.322 666.199 229.117 665.725 229.117 665.08C229.117 664.283 229.416 663.621 230.014 663.094C229.24 663.117 228.525 663.346 227.869 663.779C227.213 664.213 226.691 664.717 226.305 665.291C225.93 665.865 225.596 666.492 225.303 667.172C225.021 667.84 224.816 668.385 224.688 668.807C224.57 669.229 224.5 669.557 224.477 669.791L223.404 676.312H226.533L226.199 678C225.262 677.93 223.621 677.895 221.277 677.895C220.41 677.895 218.898 677.93 216.742 678ZM235.551 663.709C235.551 663.709 235.586 663.504 235.656 663.094C235.727 662.684 235.762 662.455 235.762 662.408C237.52 662.361 238.973 661.605 240.121 660.141C241.281 658.676 242.025 657.012 242.354 655.148H244.059L242.898 662.021H248.154L247.873 663.709H242.617L240.947 673.816C240.877 674.227 240.842 674.59 240.842 674.906C240.842 676.148 241.381 676.77 242.459 676.77C243.42 676.77 244.188 676.172 244.762 674.977C244.973 674.52 245.225 673.406 245.518 671.637H247.223C246.988 673.219 246.795 674.25 246.643 674.73C246.502 675.211 246.203 675.75 245.746 676.348C244.738 677.59 243.455 678.211 241.896 678.211C238.486 678.211 236.781 676.963 236.781 674.467C236.781 674.197 236.816 673.863 236.887 673.465L238.504 663.709H235.551Z" fill="black"/>
<path d="M786.406 347L786.652 345.312H790.572L794.105 323.99H790.221L790.502 322.303H805.514C808.01 322.303 810.043 322.824 811.613 323.867C813.195 324.91 813.986 326.393 813.986 328.314C813.986 330.541 812.984 332.404 810.98 333.904C808.977 335.393 806.51 336.137 803.58 336.137H797.234L795.688 345.312H799.572L799.291 347C798.377 346.93 796.227 346.895 792.84 346.895C789.465 346.895 787.32 346.93 786.406 347ZM797.27 334.66H802.068C804.447 334.66 806.152 334.08 807.184 332.92C807.617 332.416 807.969 331.561 808.238 330.354C808.52 329.135 808.66 328.074 808.66 327.172C808.66 325.062 807.061 324.002 803.861 323.99H799.045L797.27 334.66ZM813.898 343.572C813.898 342.518 814.32 341.562 815.164 340.707C816.008 339.84 817.098 339.178 818.434 338.721C819.324 338.404 820.197 338.164 821.053 338C821.908 337.836 822.652 337.73 823.285 337.684C823.918 337.625 825.014 337.549 826.572 337.455C826.783 336.213 826.895 335.398 826.906 335.012C826.906 332.996 825.811 331.988 823.619 331.988C823.232 331.988 822.822 332.006 822.389 332.041C821.967 332.076 821.615 332.117 821.334 332.164C821.064 332.211 820.93 332.246 820.93 332.27C820.93 332.293 820.947 332.334 820.982 332.393C821.018 332.439 821.035 332.475 821.035 332.498C821.305 332.838 821.434 333.23 821.422 333.676C821.422 334.414 821.164 335.035 820.648 335.539C820.133 336.031 819.541 336.277 818.873 336.277C818.275 336.277 817.789 336.096 817.414 335.732C817.039 335.369 816.852 334.912 816.852 334.361C816.852 331.912 819.172 330.688 823.812 330.688C826.379 330.688 828.213 331.145 829.314 332.059C830.416 332.973 830.967 334.074 830.967 335.363C830.967 335.797 830.861 336.582 830.65 337.719C830.439 339.02 830.316 339.764 830.281 339.951C829.754 342.588 829.49 344.158 829.49 344.662C829.49 345.096 830.164 345.312 831.512 345.312C832.109 345.312 832.408 345.541 832.408 345.998C832.408 346.314 832.35 346.549 832.232 346.701C832.115 346.854 831.98 346.941 831.828 346.965C831.688 346.988 831.471 347 831.178 347H829.455C827.123 347 825.957 346.326 825.957 344.979C825.957 344.791 825.986 344.574 826.045 344.328C826.021 344.398 825.939 344.521 825.799 344.697C825.67 344.861 825.436 345.096 825.096 345.4C824.768 345.693 824.398 345.975 823.988 346.244C823.578 346.514 823.039 346.742 822.371 346.93C821.715 347.117 821.029 347.211 820.314 347.211C819.74 347.211 819.154 347.176 818.557 347.105C817.971 347.035 817.285 346.895 816.5 346.684C815.727 346.461 815.1 346.08 814.619 345.541C814.139 345.002 813.898 344.346 813.898 343.572ZM818.117 343.572C818.117 344.264 818.381 344.832 818.908 345.277C819.436 345.711 820.098 345.928 820.895 345.928C822.172 345.928 823.297 345.518 824.27 344.697C825.137 344.006 825.676 342.975 825.887 341.604C825.934 341.264 826.016 340.76 826.133 340.092C826.262 339.412 826.35 338.908 826.396 338.58C824.697 338.65 823.25 338.896 822.055 339.318C820.871 339.74 820.021 340.232 819.506 340.795C818.99 341.357 818.627 341.867 818.416 342.324C818.217 342.77 818.117 343.186 818.117 343.572ZM833.586 347L833.832 345.312H836.346L838.227 333.975C838.273 333.74 838.297 333.582 838.297 333.5C838.297 333.16 838.133 332.955 837.805 332.885C837.488 332.814 836.861 332.779 835.924 332.779L836.205 331.092L842.252 330.793L841.654 334.607C843.025 332.064 844.789 330.793 846.945 330.793C847.883 330.793 848.691 331.021 849.371 331.479C850.051 331.936 850.391 332.586 850.391 333.43C850.391 334.168 850.139 334.771 849.635 335.24C849.131 335.709 848.557 335.943 847.912 335.943C847.432 335.943 846.986 335.797 846.576 335.504C846.166 335.199 845.961 334.725 845.961 334.08C845.961 333.283 846.26 332.621 846.857 332.094C846.084 332.117 845.369 332.346 844.713 332.779C844.057 333.213 843.535 333.717 843.148 334.291C842.773 334.865 842.439 335.492 842.146 336.172C841.865 336.84 841.66 337.385 841.531 337.807C841.414 338.229 841.344 338.557 841.32 338.791L840.248 345.312H843.377L843.043 347C842.105 346.93 840.465 346.895 838.121 346.895C837.254 346.895 835.742 346.93 833.586 347ZM852.395 332.709C852.395 332.709 852.43 332.504 852.5 332.094C852.57 331.684 852.605 331.455 852.605 331.408C854.363 331.361 855.816 330.605 856.965 329.141C858.125 327.676 858.869 326.012 859.197 324.148H860.902L859.742 331.021H864.998L864.717 332.709H859.461L857.791 342.816C857.721 343.227 857.686 343.59 857.686 343.906C857.686 345.148 858.225 345.77 859.303 345.77C860.264 345.77 861.031 345.172 861.605 343.977C861.816 343.52 862.068 342.406 862.361 340.637H864.066C863.832 342.219 863.639 343.25 863.486 343.73C863.346 344.211 863.047 344.75 862.59 345.348C861.582 346.59 860.299 347.211 858.74 347.211C855.33 347.211 853.625 345.963 853.625 343.467C853.625 343.197 853.66 342.863 853.73 342.465L855.348 332.709H852.395ZM867.055 347L867.318 345.312H869.832L871.695 333.939C871.695 333.893 871.707 333.816 871.73 333.711C871.766 333.594 871.783 333.523 871.783 333.5C871.783 333.16 871.631 332.955 871.326 332.885C871.021 332.814 870.43 332.779 869.551 332.779L869.832 331.092L876.125 330.793L873.717 345.312H875.949L875.668 347C873.359 346.93 871.953 346.895 871.449 346.895C870.324 346.895 868.859 346.93 867.055 347ZM871.854 325.15C871.854 324.307 872.176 323.568 872.82 322.936C873.465 322.303 874.209 321.986 875.053 321.986C875.768 321.986 876.359 322.227 876.828 322.707C877.297 323.188 877.531 323.762 877.531 324.43C877.531 325.25 877.215 325.982 876.582 326.627C875.949 327.271 875.199 327.594 874.332 327.594C873.617 327.594 873.025 327.354 872.557 326.873C872.088 326.393 871.854 325.818 871.854 325.15ZM879.992 332.709C879.992 332.709 880.027 332.504 880.098 332.094C880.168 331.684 880.203 331.455 880.203 331.408C881.961 331.361 883.414 330.605 884.562 329.141C885.723 327.676 886.467 326.012 886.795 324.148H888.5L887.34 331.021H892.596L892.314 332.709H887.059L885.389 342.816C885.318 343.227 885.283 343.59 885.283 343.906C885.283 345.148 885.822 345.77 886.9 345.77C887.861 345.77 888.629 345.172 889.203 343.977C889.414 343.52 889.666 342.406 889.959 340.637H891.664C891.43 342.219 891.236 343.25 891.084 343.73C890.943 344.211 890.645 344.75 890.188 345.348C889.18 346.59 887.896 347.211 886.338 347.211C882.928 347.211 881.223 345.963 881.223 343.467C881.223 343.197 881.258 342.863 881.328 342.465L882.945 332.709H879.992ZM894.652 347L894.916 345.312H897.43L899.293 333.939C899.293 333.893 899.305 333.816 899.328 333.711C899.363 333.594 899.381 333.523 899.381 333.5C899.381 333.16 899.229 332.955 898.924 332.885C898.619 332.814 898.027 332.779 897.148 332.779L897.43 331.092L903.723 330.793L901.314 345.312H903.547L903.266 347C900.957 346.93 899.551 346.895 899.047 346.895C897.922 346.895 896.457 346.93 894.652 347ZM899.451 325.15C899.451 324.307 899.773 323.568 900.418 322.936C901.062 322.303 901.807 321.986 902.65 321.986C903.365 321.986 903.957 322.227 904.426 322.707C904.895 323.188 905.129 323.762 905.129 324.43C905.129 325.25 904.812 325.982 904.18 326.627C903.547 327.271 902.797 327.594 901.93 327.594C901.215 327.594 900.623 327.354 900.154 326.873C899.686 326.393 899.451 325.818 899.451 325.15ZM906.799 340.584C906.799 338.064 907.748 335.785 909.646 333.746C911.545 331.707 914.158 330.688 917.486 330.688C919.865 330.688 921.781 331.279 923.234 332.463C924.688 333.635 925.414 335.346 925.414 337.596C925.414 340.162 924.471 342.406 922.584 344.328C920.697 346.25 918.09 347.211 914.762 347.211C912.289 347.211 910.344 346.625 908.926 345.453C907.508 344.27 906.799 342.646 906.799 340.584ZM911.229 342.061C911.229 342.424 911.252 342.752 911.299 343.045C911.346 343.326 911.469 343.707 911.668 344.188C911.879 344.668 912.266 345.055 912.828 345.348C913.391 345.629 914.117 345.77 915.008 345.77C915.992 345.77 916.906 345.535 917.75 345.066C918.605 344.598 919.227 343.924 919.613 343.045C920.047 342.131 920.398 340.859 920.668 339.23C920.949 337.59 921.09 336.389 921.09 335.627C921.09 335.357 921.084 335.123 921.072 334.924C921.061 334.713 920.984 334.414 920.844 334.027C920.703 333.629 920.51 333.301 920.264 333.043C920.029 332.773 919.654 332.533 919.139 332.322C918.623 332.1 918.002 331.988 917.275 331.988C915.014 331.988 913.432 332.961 912.529 334.906C912.213 335.574 911.914 336.717 911.633 338.334C911.363 339.951 911.229 341.193 911.229 342.061ZM926.785 347L927.031 345.312H929.562L931.426 333.975C931.473 333.74 931.496 333.582 931.496 333.5C931.496 333.16 931.332 332.955 931.004 332.885C930.688 332.814 930.061 332.779 929.123 332.779L929.422 331.092L935.68 330.793L935.064 334.502H935.1C935.744 333.518 936.641 332.656 937.789 331.918C938.949 331.168 940.32 330.793 941.902 330.793C943.707 330.793 944.967 331.139 945.682 331.83C946.408 332.51 946.771 333.465 946.771 334.695C946.771 335.152 946.736 335.592 946.666 336.014L945.119 345.312H947.598L947.316 347C945.301 346.93 943.783 346.895 942.764 346.895C940.912 346.895 939.4 346.93 938.229 347L938.492 345.312H941.006L942.693 335.082C942.74 334.789 942.764 334.432 942.764 334.01C942.764 333.389 942.664 332.914 942.465 332.586C942.266 332.258 941.879 332.094 941.305 332.094C939.934 332.094 938.627 332.586 937.385 333.57C936.154 334.555 935.357 335.791 934.994 337.279C934.924 337.877 934.479 340.555 933.658 345.312H936.154L935.855 347C933.84 346.93 932.328 346.895 931.32 346.895C929.469 346.895 927.957 346.93 926.785 347Z" fill="black"/>
<path d="M846.148 668.244C846.148 666.346 846.488 664.5 847.168 662.707C847.848 660.902 848.82 659.262 850.086 657.785C851.363 656.309 853.01 655.131 855.025 654.252C857.041 653.361 859.262 652.916 861.688 652.916C865.191 652.916 867.957 653.83 869.984 655.658C872.012 657.475 873.025 660 873.025 663.234C873.025 666.258 872.176 669.117 870.477 671.812C868.777 674.496 866.398 676.354 863.34 677.385C863.68 678.029 864.049 678.516 864.447 678.844C864.846 679.172 865.15 679.359 865.361 679.406C865.584 679.453 865.883 679.477 866.258 679.477C868.203 679.477 869.334 678.996 869.65 678.035C869.791 677.578 870.02 677.35 870.336 677.35C870.5 677.35 870.646 677.414 870.775 677.543C870.916 677.66 870.986 677.824 870.986 678.035C870.986 678.352 870.869 678.85 870.635 679.529C870.412 680.209 870.084 680.977 869.65 681.832C869.217 682.688 868.584 683.426 867.752 684.047C866.932 684.668 866.018 684.979 865.01 684.979C864.436 684.979 863.938 684.908 863.516 684.768C863.094 684.627 862.742 684.375 862.461 684.012C862.191 683.648 861.969 683.303 861.793 682.975C861.629 682.658 861.488 682.172 861.371 681.516C861.254 680.871 861.172 680.338 861.125 679.916C861.09 679.506 861.037 678.891 860.967 678.07C859.818 678.281 858.658 678.393 857.486 678.404C854.123 678.404 851.393 677.549 849.295 675.838C847.197 674.115 846.148 671.584 846.148 668.244ZM851.246 669.65C851.246 672.861 852.33 675.047 854.498 676.207C854.451 675.973 854.428 675.803 854.428 675.697C854.428 674.807 854.814 674.039 855.588 673.395C856.373 672.75 857.293 672.428 858.348 672.428C859.039 672.428 859.666 672.604 860.229 672.955C860.791 673.295 861.213 673.652 861.494 674.027C861.775 674.391 862.08 674.889 862.408 675.521C863.439 674.877 864.33 673.957 865.08 672.762C865.842 671.555 866.398 670.395 866.75 669.281C867.102 668.156 867.371 666.949 867.559 665.66C867.746 664.359 867.852 663.463 867.875 662.971C867.91 662.479 867.928 662.074 867.928 661.758C867.928 660.363 867.729 659.156 867.33 658.137C866.932 657.117 866.393 656.344 865.713 655.816C865.045 655.289 864.365 654.914 863.674 654.691C862.982 654.457 862.25 654.34 861.477 654.34C858.617 654.34 856.227 655.629 854.305 658.207C853.203 659.742 852.418 661.688 851.949 664.043C851.48 666.387 851.246 668.256 851.246 669.65ZM855.746 675.697C855.746 676.541 856.396 676.963 857.697 676.963C858.729 676.963 859.76 676.77 860.791 676.383C860.65 675.445 860.387 674.766 860 674.344C859.613 673.922 859.068 673.711 858.365 673.711C857.674 673.711 857.064 673.91 856.537 674.309C856.01 674.707 855.746 675.17 855.746 675.697ZM877.033 663.779L877.332 662.092L883.994 661.793L881.867 674.572C881.82 674.865 881.797 675.182 881.797 675.521C881.797 675.732 881.814 675.902 881.85 676.031C881.885 676.148 881.967 676.283 882.096 676.436C882.225 676.588 882.477 676.711 882.852 676.805C883.227 676.887 883.701 676.928 884.275 676.928C885.717 676.928 886.918 676.441 887.879 675.469C888.84 674.496 889.414 673.395 889.602 672.164L890.797 664.975C890.797 664.904 890.803 664.84 890.814 664.781C890.826 664.711 890.838 664.652 890.85 664.605C890.861 664.559 890.867 664.523 890.867 664.5C890.867 664.16 890.703 663.955 890.375 663.885C890.047 663.814 889.42 663.779 888.494 663.779L888.775 662.092L895.438 661.793L893.24 675.082C893.24 675.152 893.234 675.229 893.223 675.311C893.211 675.381 893.199 675.434 893.188 675.469C893.176 675.504 893.17 675.533 893.17 675.557C893.17 675.92 893.316 676.137 893.609 676.207C893.914 676.277 894.547 676.312 895.508 676.312L895.227 678L888.811 678.211L889.25 675.592H889.215C887.902 677.338 886.08 678.211 883.748 678.211C883.736 678.211 883.719 678.211 883.695 678.211C882.852 678.211 882.119 678.164 881.498 678.07C880.877 677.977 880.268 677.807 879.67 677.561C879.072 677.303 878.615 676.916 878.299 676.4C877.982 675.885 877.824 675.24 877.824 674.467C877.824 674.197 877.859 673.863 877.93 673.465L879.336 664.975C879.336 664.904 879.342 664.84 879.354 664.781C879.365 664.711 879.377 664.652 879.389 664.605C879.4 664.559 879.406 664.523 879.406 664.5C879.406 664.16 879.242 663.955 878.914 663.885C878.598 663.814 877.971 663.779 877.033 663.779ZM897.723 678L897.986 676.312H900.5L902.363 664.939C902.363 664.893 902.375 664.816 902.398 664.711C902.434 664.594 902.451 664.523 902.451 664.5C902.451 664.16 902.299 663.955 901.994 663.885C901.689 663.814 901.098 663.779 900.219 663.779L900.5 662.092L906.793 661.793L904.385 676.312H906.617L906.336 678C904.027 677.93 902.621 677.895 902.117 677.895C900.992 677.895 899.527 677.93 897.723 678ZM902.521 656.15C902.521 655.307 902.844 654.568 903.488 653.936C904.133 653.303 904.877 652.986 905.721 652.986C906.436 652.986 907.027 653.227 907.496 653.707C907.965 654.188 908.199 654.762 908.199 655.43C908.199 656.25 907.883 656.982 907.25 657.627C906.617 658.271 905.867 658.594 905 658.594C904.285 658.594 903.693 658.354 903.225 657.873C902.756 657.393 902.521 656.818 902.521 656.15ZM910.115 671.408C910.115 670.283 910.326 669.164 910.748 668.051C911.17 666.926 911.785 665.889 912.594 664.939C913.414 663.979 914.521 663.199 915.916 662.602C917.311 661.992 918.881 661.688 920.627 661.688C924.518 661.688 926.463 662.66 926.463 664.605C926.463 665.449 926.193 666.105 925.654 666.574C925.115 667.043 924.535 667.277 923.914 667.277C923.316 667.277 922.83 667.096 922.455 666.732C922.08 666.369 921.893 665.912 921.893 665.361C921.893 664.494 922.227 663.809 922.895 663.305C922.18 663.188 921.453 663.129 920.715 663.129C918.559 663.129 916.994 664.078 916.021 665.977C915.635 666.75 915.324 667.693 915.09 668.807C914.855 669.92 914.709 670.746 914.65 671.285C914.604 671.824 914.58 672.205 914.58 672.428C914.58 673.916 914.955 675.012 915.705 675.715C916.467 676.418 917.451 676.77 918.658 676.77C919.689 676.77 920.645 676.518 921.523 676.014C922.414 675.51 923.1 674.83 923.58 673.975C923.768 673.635 923.908 673.436 924.002 673.377C924.107 673.318 924.307 673.289 924.6 673.289C925.15 673.289 925.426 673.453 925.426 673.781C925.426 673.875 925.35 674.068 925.197 674.361C925.057 674.654 924.799 675.023 924.424 675.469C924.061 675.914 923.609 676.342 923.07 676.752C922.531 677.15 921.799 677.496 920.873 677.789C919.947 678.07 918.945 678.211 917.867 678.211C915.664 678.211 913.818 677.648 912.33 676.523C910.854 675.398 910.115 673.693 910.115 671.408ZM926.094 678L926.34 676.312H928.854L932.141 656.537C932.211 656.15 932.246 655.887 932.246 655.746C932.246 655.477 932.188 655.301 932.07 655.219C931.953 655.137 931.725 655.072 931.385 655.025C931.115 655.002 930.623 654.99 929.908 654.99L930.189 653.303L936.641 653.021L933.898 669.439L941.211 664.395C941.422 664.23 941.527 664.119 941.527 664.061C941.527 663.803 941.188 663.674 940.508 663.674C940.473 663.674 940.443 663.674 940.42 663.674L940.701 662.021C942.506 662.092 943.877 662.127 944.814 662.127C946.139 662.127 947.088 662.092 947.662 662.021L947.363 663.709C945.711 663.709 944.598 663.914 944.023 664.324L938.732 667.998L943.584 675.627C943.701 675.791 943.783 675.902 943.83 675.961C943.889 676.02 943.977 676.084 944.094 676.154C944.211 676.213 944.363 676.254 944.551 676.277C944.82 676.301 945.354 676.312 946.15 676.312L945.887 678C944.609 677.93 943.373 677.895 942.178 677.895C940.373 677.895 938.896 677.93 937.748 678L938.047 676.312C938.844 676.312 939.236 676.189 939.225 675.943L939.154 675.838C939.131 675.791 939.102 675.738 939.066 675.68C939.031 675.621 939.014 675.58 939.014 675.557L935.586 670.16L933.318 671.742L932.562 676.312H935.059L934.76 678C932.1 677.93 930.664 677.895 930.453 677.895C929.926 677.895 928.473 677.93 926.094 678ZM948.031 678L948.277 676.312H949.227C950.645 676.312 951.652 676.189 952.25 675.943L955.73 654.99H951.846L952.127 653.303H960.16C960.688 653.303 961.021 653.361 961.162 653.479C961.314 653.584 961.449 653.848 961.566 654.27L967.033 673.254L978.881 654.164C979.115 653.754 979.338 653.508 979.549 653.426C979.771 653.344 980.111 653.303 980.568 653.303H988.566L988.285 654.99H984.383L980.832 676.312H984.717L984.418 678C983.551 677.93 981.512 677.895 978.301 677.895C975.066 677.895 973.016 677.93 972.148 678L972.395 676.312H976.332L979.848 655.061L979.812 655.025L966.066 677.174C965.75 677.725 965.34 678 964.836 678C964.602 678 964.408 677.947 964.256 677.842C964.115 677.736 964.021 677.631 963.975 677.525C963.928 677.408 963.869 677.221 963.799 676.963L957.646 655.5H957.611L954.184 675.943C954.781 676.178 955.742 676.301 957.066 676.312H957.998L957.717 678C956.803 677.93 955.191 677.895 952.883 677.895C950.633 677.895 949.016 677.93 948.031 678ZM988.232 671.268C988.232 670.143 988.449 669.029 988.883 667.928C989.316 666.814 989.938 665.795 990.746 664.869C991.566 663.932 992.65 663.17 993.998 662.584C995.346 661.986 996.846 661.688 998.498 661.688C1000.63 661.688 1002.28 662.174 1003.46 663.146C1004.64 664.119 1005.23 665.613 1005.23 667.629C1005.23 668.801 1005.14 669.516 1004.97 669.773C1004.8 670.031 1004.45 670.16 1003.89 670.16H992.943C992.756 671.309 992.662 672.146 992.662 672.674C992.662 674.068 993.025 675.088 993.752 675.732C994.525 676.424 995.557 676.77 996.846 676.77C997.162 676.77 997.49 676.746 997.83 676.699C998.182 676.652 998.662 676.541 999.271 676.365C999.881 676.178 1000.48 675.861 1001.08 675.416C1001.69 674.959 1002.2 674.379 1002.59 673.676C1002.86 673.312 1003.17 673.137 1003.51 673.148C1004.06 673.148 1004.33 673.359 1004.33 673.781C1004.33 673.922 1004.25 674.15 1004.07 674.467C1003.91 674.783 1003.61 675.158 1003.19 675.592C1002.77 676.025 1002.27 676.436 1001.7 676.822C1001.12 677.197 1000.38 677.525 999.465 677.807C998.551 678.076 997.555 678.211 996.477 678.211C993.934 678.211 991.924 677.584 990.447 676.33C988.971 675.064 988.232 673.377 988.232 671.268ZM993.137 668.965H1001.73C1001.85 667.887 1001.91 667.225 1001.91 666.979C1001.91 664.318 1000.78 662.988 998.533 662.988C995.709 662.988 993.91 664.98 993.137 668.965ZM1006.18 678L1006.43 676.312H1008.94L1010.82 664.975C1010.87 664.74 1010.89 664.582 1010.89 664.5C1010.89 664.16 1010.73 663.955 1010.4 663.885C1010.08 663.814 1009.46 663.779 1008.52 663.779L1008.8 662.092L1014.85 661.793L1014.25 665.607C1015.62 663.064 1017.38 661.793 1019.54 661.793C1020.48 661.793 1021.29 662.021 1021.96 662.479C1022.64 662.936 1022.98 663.586 1022.98 664.43C1022.98 665.168 1022.73 665.771 1022.23 666.24C1021.72 666.709 1021.15 666.943 1020.51 666.943C1020.03 666.943 1019.58 666.797 1019.17 666.504C1018.76 666.199 1018.55 665.725 1018.55 665.08C1018.55 664.283 1018.85 663.621 1019.45 663.094C1018.68 663.117 1017.96 663.346 1017.31 663.779C1016.65 664.213 1016.13 664.717 1015.74 665.291C1015.37 665.865 1015.03 666.492 1014.74 667.172C1014.46 667.84 1014.25 668.385 1014.12 668.807C1014.01 669.229 1013.94 669.557 1013.91 669.791L1012.84 676.312H1015.97L1015.64 678C1014.7 677.93 1013.06 677.895 1010.71 677.895C1009.85 677.895 1008.34 677.93 1006.18 678ZM1022.54 681.059C1022.54 680.121 1022.91 679.354 1023.65 678.756C1024.4 678.158 1025.25 677.76 1026.18 677.561C1025.49 676.822 1025.14 675.914 1025.13 674.836C1025.13 673.418 1025.72 672.094 1026.9 670.863C1026.06 670.02 1025.64 669 1025.64 667.805C1025.64 666.246 1026.34 664.857 1027.73 663.639C1029.12 662.408 1031.09 661.793 1033.64 661.793C1035.68 661.793 1037.23 662.191 1038.31 662.988C1039.55 662.074 1040.88 661.617 1042.3 661.617C1043.08 661.617 1043.61 661.822 1043.9 662.232C1044.21 662.643 1044.36 663.053 1044.36 663.463C1044.36 663.943 1044.2 664.365 1043.88 664.729C1043.58 665.08 1043.15 665.256 1042.6 665.256C1042.21 665.256 1041.89 665.145 1041.62 664.922C1041.36 664.688 1041.23 664.354 1041.23 663.92C1041.23 663.533 1041.31 663.223 1041.48 662.988C1040.74 663.059 1039.96 663.311 1039.14 663.744C1039.76 664.541 1040.07 665.443 1040.07 666.451C1040.07 667.986 1039.38 669.375 1038.01 670.617C1036.65 671.848 1034.67 672.463 1032.05 672.463C1030.27 672.463 1028.86 672.146 1027.8 671.514C1027.37 672.018 1027.15 672.574 1027.15 673.184C1027.15 674.402 1027.91 675.012 1029.42 675.012H1031.79C1032.61 675.012 1033.23 675.018 1033.65 675.029C1034.08 675.041 1034.66 675.076 1035.41 675.135C1036.17 675.193 1036.77 675.281 1037.19 675.398C1037.62 675.504 1038.11 675.674 1038.66 675.908C1039.23 676.131 1039.65 676.412 1039.93 676.752C1040.22 677.08 1040.47 677.502 1040.69 678.018C1040.91 678.533 1041.02 679.113 1041.02 679.758C1041.02 680.789 1040.71 681.674 1040.11 682.412C1039.51 683.162 1038.71 683.736 1037.7 684.135C1036.69 684.533 1035.64 684.814 1034.55 684.979C1033.46 685.154 1032.3 685.242 1031.07 685.242C1028.07 685.242 1025.9 684.832 1024.55 684.012C1023.21 683.191 1022.54 682.207 1022.54 681.059ZM1025.64 681.094C1025.64 681.938 1026.1 682.623 1027.03 683.15C1027.95 683.678 1029.31 683.941 1031.11 683.941C1033.39 683.941 1035.08 683.549 1036.19 682.764C1037.29 681.99 1037.84 681.182 1037.84 680.338C1037.84 679.096 1036.26 678.475 1033.09 678.475H1028.91C1028.19 678.475 1027.59 678.586 1027.1 678.809C1026.61 679.043 1026.27 679.33 1026.08 679.67C1025.9 680.021 1025.79 680.303 1025.73 680.514C1025.67 680.736 1025.64 680.93 1025.64 681.094ZM1029.49 668.895C1029.49 669.129 1029.51 669.346 1029.54 669.545C1029.58 669.732 1029.67 669.973 1029.82 670.266C1029.99 670.547 1030.26 670.77 1030.63 670.934C1031.02 671.086 1031.52 671.162 1032.12 671.162C1032.86 671.162 1033.52 671.004 1034.09 670.688C1034.67 670.359 1035.09 669.955 1035.36 669.475C1035.57 669.064 1035.75 668.514 1035.89 667.822C1036.04 667.119 1036.13 666.562 1036.17 666.152C1036.2 665.742 1036.22 665.479 1036.22 665.361C1036.22 663.85 1035.35 663.094 1033.6 663.094C1032.14 663.094 1031.06 663.621 1030.38 664.676C1030.12 665.133 1029.9 665.836 1029.73 666.785C1029.57 667.734 1029.49 668.438 1029.49 668.895ZM1044.94 671.268C1044.94 670.143 1045.16 669.029 1045.59 667.928C1046.02 666.814 1046.64 665.795 1047.45 664.869C1048.27 663.932 1049.36 663.17 1050.71 662.584C1052.05 661.986 1053.55 661.688 1055.21 661.688C1057.34 661.688 1058.99 662.174 1060.16 663.146C1061.35 664.119 1061.94 665.613 1061.94 667.629C1061.94 668.801 1061.85 669.516 1061.67 669.773C1061.51 670.031 1061.15 670.16 1060.6 670.16H1049.65C1049.46 671.309 1049.37 672.146 1049.37 672.674C1049.37 674.068 1049.73 675.088 1050.46 675.732C1051.23 676.424 1052.26 676.77 1053.55 676.77C1053.87 676.77 1054.2 676.746 1054.54 676.699C1054.89 676.652 1055.37 676.541 1055.98 676.365C1056.59 676.178 1057.19 675.861 1057.79 675.416C1058.4 674.959 1058.9 674.379 1059.3 673.676C1059.57 673.312 1059.88 673.137 1060.21 673.148C1060.77 673.148 1061.04 673.359 1061.04 673.781C1061.04 673.922 1060.95 674.15 1060.78 674.467C1060.61 674.783 1060.32 675.158 1059.9 675.592C1059.48 676.025 1058.98 676.436 1058.4 676.822C1057.83 677.197 1057.09 677.525 1056.17 677.807C1055.26 678.076 1054.26 678.211 1053.18 678.211C1050.64 678.211 1048.63 677.584 1047.15 676.33C1045.68 675.064 1044.94 673.377 1044.94 671.268ZM1049.84 668.965H1058.44C1058.56 667.887 1058.62 667.225 1058.62 666.979C1058.62 664.318 1057.49 662.988 1055.24 662.988C1052.42 662.988 1050.62 664.98 1049.84 668.965ZM1077.67 677.895L1078.87 670.582C1078.91 670.219 1078.99 669.996 1079.09 669.914C1079.2 669.832 1079.42 669.791 1079.76 669.791C1080.34 669.791 1080.62 669.973 1080.62 670.336C1080.62 670.359 1080.61 670.482 1080.57 670.705C1080.54 670.916 1080.52 671.197 1080.52 671.549C1080.52 672.65 1080.79 673.576 1081.34 674.326C1081.89 675.076 1082.62 675.609 1083.51 675.926C1084.4 676.23 1085.18 676.436 1085.86 676.541C1086.54 676.646 1087.23 676.699 1087.94 676.699C1088.97 676.699 1089.86 676.523 1090.62 676.172C1091.4 675.809 1091.97 675.357 1092.35 674.818C1092.73 674.279 1093.02 673.746 1093.19 673.219C1093.38 672.691 1093.47 672.199 1093.47 671.742C1093.47 671.098 1093.35 670.541 1093.1 670.072C1092.87 669.592 1092.53 669.229 1092.08 668.982C1091.64 668.725 1091.3 668.555 1091.08 668.473C1090.86 668.391 1090.55 668.303 1090.17 668.209C1088.93 667.939 1087.91 667.711 1087.11 667.523C1086.2 667.336 1085.52 667.184 1085.07 667.066C1084.62 666.938 1084.13 666.727 1083.59 666.434C1083.05 666.129 1082.56 665.736 1082.1 665.256C1081.04 664.131 1080.52 662.766 1080.52 661.16C1080.52 660.293 1080.69 659.396 1081.04 658.471C1081.41 657.545 1081.94 656.66 1082.64 655.816C1083.36 654.961 1084.33 654.264 1085.56 653.725C1086.8 653.186 1088.21 652.916 1089.76 652.916C1092.17 652.916 1094.13 653.584 1095.67 654.92L1097.62 653.232C1097.86 653.021 1098.08 652.916 1098.31 652.916C1098.73 652.916 1098.94 653.08 1098.94 653.408C1098.94 653.467 1098.92 653.625 1098.87 653.883L1097.76 660.686C1097.71 660.955 1097.64 661.148 1097.55 661.266C1097.47 661.383 1097.39 661.453 1097.3 661.477C1097.22 661.5 1097.06 661.512 1096.83 661.512C1096.54 661.512 1096.34 661.482 1096.23 661.424C1096.13 661.365 1096.06 661.283 1096.04 661.178C1096.02 661.061 1096 660.861 1096 660.58C1095.93 656.502 1093.84 654.463 1089.73 654.463C1087.9 654.463 1086.55 654.943 1085.67 655.904C1084.8 656.854 1084.37 657.85 1084.37 658.893C1084.37 659.713 1084.64 660.393 1085.19 660.932C1085.74 661.459 1086.45 661.822 1087.32 662.021L1092.17 663.094C1093.8 663.457 1095.07 664.242 1095.97 665.449C1096.87 666.645 1097.32 667.986 1097.32 669.475C1097.32 670.412 1097.14 671.373 1096.78 672.357C1096.43 673.33 1095.89 674.285 1095.18 675.223C1094.47 676.16 1093.48 676.928 1092.21 677.525C1090.94 678.111 1089.49 678.404 1087.87 678.404C1084.87 678.404 1082.54 677.742 1080.9 676.418C1080.49 676.805 1079.86 677.355 1079.01 678.07C1078.74 678.281 1078.5 678.393 1078.29 678.404C1077.88 678.404 1077.67 678.234 1077.67 677.895ZM1100.63 671.584C1100.63 669.064 1101.58 666.785 1103.47 664.746C1105.37 662.707 1107.99 661.688 1111.31 661.688C1113.69 661.688 1115.61 662.279 1117.06 663.463C1118.52 664.635 1119.24 666.346 1119.24 668.596C1119.24 671.162 1118.3 673.406 1116.41 675.328C1114.53 677.25 1111.92 678.211 1108.59 678.211C1106.12 678.211 1104.17 677.625 1102.75 676.453C1101.34 675.27 1100.63 673.646 1100.63 671.584ZM1105.06 673.061C1105.06 673.424 1105.08 673.752 1105.13 674.045C1105.17 674.326 1105.3 674.707 1105.5 675.188C1105.71 675.668 1106.09 676.055 1106.66 676.348C1107.22 676.629 1107.95 676.77 1108.84 676.77C1109.82 676.77 1110.73 676.535 1111.58 676.066C1112.43 675.598 1113.05 674.924 1113.44 674.045C1113.88 673.131 1114.23 671.859 1114.5 670.23C1114.78 668.59 1114.92 667.389 1114.92 666.627C1114.92 666.357 1114.91 666.123 1114.9 665.924C1114.89 665.713 1114.81 665.414 1114.67 665.027C1114.53 664.629 1114.34 664.301 1114.09 664.043C1113.86 663.773 1113.48 663.533 1112.97 663.322C1112.45 663.1 1111.83 662.988 1111.1 662.988C1108.84 662.988 1107.26 663.961 1106.36 665.906C1106.04 666.574 1105.74 667.717 1105.46 669.334C1105.19 670.951 1105.06 672.193 1105.06 673.061ZM1120.33 678L1120.58 676.312H1123.09L1124.97 664.975C1125.02 664.74 1125.04 664.582 1125.04 664.5C1125.04 664.16 1124.88 663.955 1124.55 663.885C1124.23 663.814 1123.61 663.779 1122.67 663.779L1122.95 662.092L1129 661.793L1128.4 665.607C1129.77 663.064 1131.54 661.793 1133.69 661.793C1134.63 661.793 1135.44 662.021 1136.12 662.479C1136.8 662.936 1137.14 663.586 1137.14 664.43C1137.14 665.168 1136.88 665.771 1136.38 666.24C1135.88 666.709 1135.3 666.943 1134.66 666.943C1134.18 666.943 1133.73 666.797 1133.32 666.504C1132.91 666.199 1132.71 665.725 1132.71 665.08C1132.71 664.283 1133.01 663.621 1133.6 663.094C1132.83 663.117 1132.12 663.346 1131.46 663.779C1130.8 664.213 1130.28 664.717 1129.89 665.291C1129.52 665.865 1129.19 666.492 1128.89 667.172C1128.61 667.84 1128.41 668.385 1128.28 668.807C1128.16 669.229 1128.09 669.557 1128.07 669.791L1126.99 676.312H1130.12L1129.79 678C1128.85 677.93 1127.21 677.895 1124.87 677.895C1124 677.895 1122.49 677.93 1120.33 678ZM1139.14 663.709C1139.14 663.709 1139.18 663.504 1139.25 663.094C1139.32 662.684 1139.35 662.455 1139.35 662.408C1141.11 662.361 1142.56 661.605 1143.71 660.141C1144.87 658.676 1145.62 657.012 1145.94 655.148H1147.65L1146.49 662.021H1151.74L1151.46 663.709H1146.21L1144.54 673.816C1144.47 674.227 1144.43 674.59 1144.43 674.906C1144.43 676.148 1144.97 676.77 1146.05 676.77C1147.01 676.77 1147.78 676.172 1148.35 674.977C1148.56 674.52 1148.81 673.406 1149.11 671.637H1150.81C1150.58 673.219 1150.38 674.25 1150.23 674.73C1150.09 675.211 1149.79 675.75 1149.34 676.348C1148.33 677.59 1147.04 678.211 1145.49 678.211C1142.08 678.211 1140.37 676.963 1140.37 674.467C1140.37 674.197 1140.41 673.863 1140.48 673.465L1142.09 663.709H1139.14Z" fill="black"/>
<path d="M5.00238 613C5.00238 613 4.50151 625.616 18.0252 628.86C31.5489 632.105 110.688 625.977 126.215 628.86C141.742 631.744 148.754 644 148.754 644C148.754 644 155.767 632.826 171.795 628.86C187.823 624.895 254.44 631.384 271.469 628.86C288.499 626.337 287.998 615.523 287.998 615.523" stroke="#B4B4B4" stroke-width="7"/>
<path d="M584.002 282C584.002 282 583.502 294.616 597.025 297.86C610.549 301.105 828.473 294.977 844 297.86C859.527 300.744 866.54 313 866.54 313C866.54 313 873.552 301.826 889.58 297.86C905.608 293.895 1098.94 297.86 1115.97 295.337C1133 292.814 1132.5 282 1132.5 282" stroke="#B4B4B4" stroke-width="7"/>
<path d="M867.002 613C867.002 613 866.502 625.616 880.025 628.86C893.549 632.105 963.473 625.977 979 628.86C994.527 631.744 1001.54 644 1001.54 644C1001.54 644 1008.55 632.826 1024.58 628.86C1040.61 624.895 1094.47 631.384 1111.5 628.86C1128.53 626.337 1128.03 615.523 1128.03 615.523" stroke="#B4B4B4" stroke-width="7"/>
</svg>
