<svg width="1131" height="603" viewBox="0 0 1131 603" fill="none" xmlns="http://www.w3.org/2000/svg">
<path d="M1129 368.044V600.544H867.447H585V568.044L867.447 440.5L1129 322.5V368.044Z" fill="white" stroke="black" stroke-width="3"/>
<path d="M1129 601.088H867L867.5 441.28L1129 323V601.088Z" fill="#C4C4C4"/>
<path d="M585 270.544V161.544C585 161.544 602.5 198.044 616.5 195.044C630.5 192.044 624 135.044 647.5 127.544C671 120.044 675 236.044 700.5 238.044C726 240.044 729.5 144.044 746.5 136.544C763.5 129.044 769 161.544 787.5 161.544C806 161.544 802 121.544 813 119.544C824 117.544 826 138.044 846.5 132.544C867 127.044 881.5 64.5438 921.5 64.0438C961.5 63.5438 962 95.0438 978 95.0438C994 95.0438 985.5 45.0438 1005.5 38.0438C1025.5 31.0438 1040 95.0438 1061.5 95.0438C1083 95.0438 1068.5 3.54383 1091 2.04383C1113.5 0.543829 1129 38.0438 1129 38.0438V270.544H585Z" fill="white" stroke="black" stroke-width="3"/>
<path d="M2 272.076V113.076C2 113.076 28 188.076 50 164.076C72 140.076 67 78.0763 83 67.0763C99 56.0763 128 131.076 148 122.076C168 113.076 150 52.0763 178 37.0763C206 22.0763 236 141.076 245 157.076C254 173.076 264 102.076 305 94.0763C346 86.0763 333 186.076 366 182.076C399 178.076 374 122.076 401 122.076C428 122.076 419 87.0763 429 81.0763C439 75.0763 442 106.076 471 105.076C500 104.076 488 9.07627 505 7.07627C522 5.07627 548 43.0763 548 43.0763V272.076H2Z" fill="white" stroke="black" stroke-width="3"/>
<path d="M1129 39.0877V271.588H867V112.228C880.142 92.1634 895.387 65.4141 921.5 65.0877C961.5 64.5877 962 96.0876 978 96.0876C994 96.0876 985.5 46.0877 1005.5 39.0877C1025.5 32.0877 1040 96.0876 1061.5 96.0876C1083 96.0876 1068.5 4.58765 1091 3.08765C1113.5 1.58765 1129 39.0877 1129 39.0877Z" fill="#C4C4C4"/>
<line x1="585" y1="112.544" x2="1129" y2="112.544" stroke="black" stroke-width="3" stroke-dasharray="6 6"/>
<path d="M867 111.228C880.142 91.1634 895.387 64.4141 921.5 64.0877C961.5 63.5877 962 95.0876 978 95.0876C994 95.0876 985.5 45.0877 1005.5 38.0877C1025.5 31.0877 1040 95.0876 1061.5 95.0876C1083 95.0876 1068.5 3.58765 1091 2.08765C1113.5 0.587653 1129 38.0877 1129 38.0877V270.588H867" stroke="black" stroke-width="3"/>
<path d="M548 368.044V600.544H286.447H4V568.044L286.447 440.5C299.488 420.517 314.683 394.367 340.5 394.044C380.5 393.544 381 425.044 397 425.044C413 425.044 404.5 375.044 424.5 368.044C444.5 361.044 459 425.044 480.5 425.044C502 425.044 487.5 333.544 510 332.044C532.5 330.544 548 368.044 548 368.044Z" fill="white" stroke="black" stroke-width="3"/>
<path d="M548 369.088V601.588H286V442.228C299.142 422.163 314.387 395.414 340.5 395.088C380.5 394.588 381 426.088 397 426.088C413 426.088 404.5 376.088 424.5 369.088C444.5 362.088 459 426.088 480.5 426.088C502 426.088 487.5 334.588 510 333.088C532.5 331.588 548 369.088 548 369.088Z" fill="#C4C4C4"/>
<line x1="4" y1="442.544" x2="548" y2="442.544" stroke="black" stroke-width="3" stroke-dasharray="6 6"/>
<path d="M286 441.228C299.142 421.163 314.387 394.414 340.5 394.088C380.5 393.588 381 425.088 397 425.088C413 425.088 404.5 375.088 424.5 368.088C444.5 361.088 459 425.088 480.5 425.088C502 425.088 487.5 333.588 510 332.088C532.5 330.588 548 368.088 548 368.088V600.588H286" stroke="black" stroke-width="3"/>
<line x1="585" y1="442.544" x2="1129" y2="442.544" stroke="black" stroke-width="3" stroke-dasharray="6 6"/>
<path d="M867 600.588H1129V322.5L867.5 440.78" stroke="black" stroke-width="3"/>
<path d="M477.156 245L477.656 242H486.562L492 208.969C489.271 209.781 486.427 210.188 483.469 210.188H482.25L482.719 207.188H484C489.812 207.188 494.521 205.823 498.125 203.094C498.688 203.094 499.094 203.104 499.344 203.125C499.615 203.146 499.865 203.25 500.094 203.438C500.323 203.625 500.438 203.906 500.438 204.281C500.438 204.323 500.427 204.396 500.406 204.5C500.385 204.583 500.365 204.688 500.344 204.812C500.323 204.938 500.312 205.062 500.312 205.188L494.156 242H503.125L502.625 245C500.75 244.875 496.5 244.812 489.875 244.812C483.271 244.812 479.031 244.875 477.156 245ZM513.844 240.656C513.844 239.24 514.406 237.948 515.531 236.781C516.656 235.615 517.99 235.031 519.531 235.031C520.719 235.031 521.74 235.438 522.594 236.25C523.448 237.042 523.875 238.083 523.875 239.375C523.875 240.833 523.312 242.135 522.188 243.281C521.062 244.427 519.75 245 518.25 245C516.979 245 515.927 244.583 515.094 243.75C514.26 242.917 513.844 241.885 513.844 240.656Z" fill="black"/>
<path d="M475.469 567.188C475.469 565.229 476.031 563.729 477.156 562.688C478.302 561.646 479.615 561.125 481.094 561.125C482.594 561.125 483.698 561.552 484.406 562.406C485.115 563.26 485.469 564.198 485.469 565.219C485.469 566.448 485.052 567.625 484.219 568.75C483.385 569.854 482.24 570.531 480.781 570.781C482.698 572.24 485.24 572.958 488.406 572.938C491.531 572.938 493.833 571.51 495.312 568.656C495.792 567.76 496.188 566.562 496.5 565.062C496.812 563.542 497.01 562.323 497.094 561.406C497.198 560.49 497.25 559.854 497.25 559.5C497.25 555.75 495.344 553.875 491.531 553.875H488.781C487.594 553.875 487 553.573 487 552.969C487 552.115 487.26 551.646 487.781 551.562C487.865 551.562 487.979 551.552 488.125 551.531C488.271 551.51 488.583 551.49 489.062 551.469C489.562 551.448 490.177 551.417 490.906 551.375C492.531 551.292 493.958 550.75 495.188 549.75C496.438 548.75 497.344 547.562 497.906 546.188C498.49 544.792 498.917 543.531 499.188 542.406C499.458 541.26 499.594 540.281 499.594 539.469C499.594 536.865 498.083 535.562 495.062 535.562C492.292 535.562 489.771 536.354 487.5 537.938C487.833 538.021 488.198 538.156 488.594 538.344C488.99 538.51 489.406 538.896 489.844 539.5C490.302 540.083 490.531 540.802 490.531 541.656C490.531 543.031 490.062 544.229 489.125 545.25C488.188 546.271 486.948 546.781 485.406 546.781C484.26 546.781 483.323 546.438 482.594 545.75C481.865 545.062 481.5 544.146 481.5 543C481.5 540.604 482.781 538.354 485.344 536.25C487.906 534.146 491.292 533.094 495.5 533.094C499.521 533.094 502.635 533.823 504.844 535.281C507.073 536.719 508.188 538.615 508.188 540.969C508.188 543.302 507.229 545.542 505.312 547.688C503.396 549.812 500.771 551.427 497.438 552.531C500.375 553.219 502.656 554.365 504.281 555.969C505.906 557.573 506.719 559.583 506.719 562C506.719 563.5 506.365 565.021 505.656 566.562C504.948 568.083 503.896 569.552 502.5 570.969C501.125 572.385 499.219 573.531 496.781 574.406C494.365 575.281 491.635 575.719 488.594 575.719C484.844 575.719 481.719 574.969 479.219 573.469C476.719 571.969 475.469 569.875 475.469 567.188ZM513.844 570.656C513.844 569.24 514.406 567.948 515.531 566.781C516.656 565.615 517.99 565.031 519.531 565.031C520.719 565.031 521.74 565.438 522.594 566.25C523.448 567.042 523.875 568.083 523.875 569.375C523.875 570.833 523.312 572.135 522.188 573.281C521.062 574.427 519.75 575 518.25 575C516.979 575 515.927 574.583 515.094 573.75C514.26 572.917 513.844 571.885 513.844 570.656Z" fill="black"/>
<path d="M1055.72 565.031L1056.22 561.938L1083.44 533.844C1083.77 533.469 1084.04 533.24 1084.25 533.156C1084.46 533.073 1084.89 533.031 1085.53 533.031C1086.68 533.031 1087.25 533.344 1087.25 533.969L1087.19 534.875L1082.66 562H1088.88L1088.34 565.031H1082.16L1081 572H1087.19L1086.69 575C1085.19 574.875 1081.73 574.812 1076.31 574.812C1070.6 574.812 1066.94 574.875 1065.31 575L1065.81 572H1073L1074.16 565.031H1055.72ZM1059.56 562H1075.38L1078.69 542.156L1059.56 562ZM1094.84 570.656C1094.84 569.24 1095.41 567.948 1096.53 566.781C1097.66 565.615 1098.99 565.031 1100.53 565.031C1101.72 565.031 1102.74 565.438 1103.59 566.25C1104.45 567.042 1104.88 568.083 1104.88 569.375C1104.88 570.833 1104.31 572.135 1103.19 573.281C1102.06 574.427 1100.75 575 1099.25 575C1097.98 575 1096.93 574.583 1096.09 573.75C1095.26 572.917 1094.84 571.885 1094.84 570.656Z" fill="black"/>
<path d="M1055.66 245L1055.97 243.156C1056.05 242.74 1056.33 242.292 1056.81 241.812L1072.47 228.094C1078.41 222.885 1081.38 217.938 1081.38 213.25C1081.38 211.125 1080.77 209.406 1079.56 208.094C1078.38 206.76 1076.66 206.094 1074.41 206.094C1073.26 206.094 1072.12 206.281 1071 206.656C1069.9 207.01 1069.07 207.333 1068.53 207.625C1068.01 207.917 1067.62 208.177 1067.38 208.406C1069.33 208.969 1070.31 210.219 1070.31 212.156C1070.31 213.656 1069.77 214.927 1068.69 215.969C1067.62 217.01 1066.4 217.531 1065 217.531C1064.06 217.531 1063.16 217.229 1062.28 216.625C1061.41 216 1060.97 215 1060.97 213.625C1060.97 210.854 1062.42 208.406 1065.31 206.281C1068.21 204.156 1071.85 203.094 1076.25 203.094C1080.4 203.094 1083.76 204.021 1086.34 205.875C1088.93 207.729 1090.22 210.271 1090.22 213.5C1090.22 215.167 1089.91 216.729 1089.28 218.188C1088.66 219.646 1087.68 221.01 1086.34 222.281C1085.03 223.552 1083.89 224.552 1082.91 225.281C1081.93 226.01 1080.54 226.948 1078.75 228.094C1074.79 230.698 1070.52 233.667 1065.94 237H1075.22C1079.24 237 1081.46 236.875 1081.88 236.625C1082.69 236.104 1083.54 234.156 1084.44 230.781H1087.47L1083.09 245H1055.66ZM1094.84 240.656C1094.84 239.24 1095.41 237.948 1096.53 236.781C1097.66 235.615 1098.99 235.031 1100.53 235.031C1101.72 235.031 1102.74 235.438 1103.59 236.25C1104.45 237.042 1104.88 238.083 1104.88 239.375C1104.88 240.833 1104.31 242.135 1103.19 243.281C1102.06 244.427 1100.75 245 1099.25 245C1097.98 245 1096.93 244.583 1096.09 243.75C1095.26 242.917 1094.84 241.885 1094.84 240.656Z" fill="black"/>
</svg>
