<?xml version="1.0" encoding="UTF-8" standalone="no"?><svg xmlns="http://www.w3.org/2000/svg" xmlns:xlink="http://www.w3.org/1999/xlink" contentScriptType="application/ecmascript" contentStyleType="text/css" height="316px" preserveAspectRatio="none" style="width:348px;height:316px;background:#FFFFFF;" version="1.1" viewBox="0 0 348 316" width="348px" zoomAndPan="magnify"><defs><filter height="300%" id="fbbf0ymzaxsbk" width="300%" x="-1" y="-1"><feGaussianBlur result="blurOut" stdDeviation="2.0"/><feColorMatrix in="blurOut" result="blurOut2" type="matrix" values="0 0 0 0 0 0 0 0 0 0 0 0 0 0 0 0 0 0 .4 0"/><feOffset dx="4.0" dy="4.0" in="blurOut2" result="blurOut3"/><feBlend in="SourceGraphic" in2="blurOut3" mode="normal"/></filter></defs><g><!--MD5=[2b25c74531c39e7bc052d661516b47c4]
class sorting--><rect codeLine="5" fill="#FEFECE" filter="url(#fbbf0ymzaxsbk)" height="32" id="sorting" style="stroke:#A80036;stroke-width:1.5;" width="69" x="143" y="7"/><ellipse cx="158" cy="23" fill="#B4A7E5" rx="11" ry="11" style="stroke:#A80036;stroke-width:1.0;"/><path d="M159,20 L159,26 L161,26 L161.4844,26 L162,26.625 L162,27 L162,27.375 L161.4844,28 L161,28 L155,28 L154.5156,28 L154,27.375 L154,27 L154,26.625 L154.5156,26 L155,26 L157,26 L157,20 L155,20 L154.5156,20 L154,19.375 L154,19 L154,18.625 L154.5156,18 L155,18 L161,18 L161.4844,18 L162,18.625 L162,19 L162,19.375 L161.4844,20 L161,20 L159,20 Z " fill="#000000"/><text fill="#000000" font-family="sans-serif" font-size="12" font-style="italic" lengthAdjust="spacing" textLength="37" x="172" y="27.9102">sorting</text><!--MD5=[b7fdae1517bfb210dbb895153335cd24]
class operation--><rect codeLine="9" fill="#FEFECE" filter="url(#fbbf0ymzaxsbk)" height="89.6953" id="operation" style="stroke:#A80036;stroke-width:1.5;" width="84" x="135.5" y="99"/><ellipse cx="150.5" cy="119.0938" fill="#ADD1B2" rx="11" ry="11" style="stroke:#A80036;stroke-width:1.0;"/><path d="M152.5,115.5938 Q152.7031,115.0938 152.9375,114.8438 Q153.1719,114.5938 153.4375,114.5938 Q153.9063,114.5938 154.2031,114.875 Q154.5,115.1563 154.5,115.8125 L154.5,117.375 Q154.5,118.0313 154.2188,118.3125 Q153.9375,118.5938 153.5,118.5938 Q153.1094,118.5938 152.8594,118.4219 Q152.6094,118.25 152.5,117.7969 Q152.4531,117.4844 152.2813,117.3125 Q151.9688,116.9844 151.4063,116.7969 Q150.8438,116.5938 150.2813,116.5938 Q149.5781,116.5938 148.9844,116.875 Q148.4063,117.1563 147.9531,117.7813 Q147.5,118.4063 147.5,119.2656 L147.5,120.1875 Q147.5,121.2188 148.3438,121.9063 Q149.1875,122.5938 150.6875,122.5938 Q151.5781,122.5938 152.2031,122.3906 Q152.5625,122.2813 152.9688,121.9219 Q153.2344,121.7188 153.375,121.6563 Q153.5156,121.5938 153.6875,121.5938 Q154.0156,121.5938 154.25,121.8594 Q154.5,122.1094 154.5,122.4688 Q154.5,122.8125 154.1563,123.2188 Q153.6563,123.8125 152.8594,124.1406 Q151.8125,124.5938 150.5313,124.5938 Q149.0313,124.5938 147.8281,124 Q146.8594,123.5313 146.1719,122.5156 Q145.5,121.5 145.5,120.2969 L145.5,119.2031 Q145.5,117.9531 146.0938,116.8594 Q146.7031,115.7656 147.75,115.1875 Q148.8125,114.5938 150,114.5938 Q150.7188,114.5938 151.3438,114.8438 Q151.9688,115.0938 152.5,115.5938 Z " fill="#000000"/><text fill="#000000" font-family="sans-serif" font-size="12" font-style="italic" lengthAdjust="spacing" textLength="55" x="163" y="116.457">«Facade»</text><text fill="#000000" font-family="sans-serif" font-size="12" lengthAdjust="spacing" textLength="52" x="164.5" y="131.5508">operation</text><line style="stroke:#A80036;stroke-width:1.5;" x1="136.5" x2="218.5" y1="139.1875" y2="139.1875"/><text fill="#000000" font-family="sans-serif" font-size="11" lengthAdjust="spacing" textLength="50" x="141.5" y="154.6064">compare()</text><text fill="#000000" font-family="sans-serif" font-size="11" lengthAdjust="spacing" textLength="36" x="141.5" y="168.4424">swap()</text><text fill="#000000" font-family="sans-serif" font-size="11" lengthAdjust="spacing" textLength="40" x="141.5" y="182.2783">assign()</text><!--MD5=[5c35c4919802d06e0359645225c0c6b3]
class comparator--><rect codeLine="16" fill="#FEFECE" filter="url(#fbbf0ymzaxsbk)" height="53.8359" id="comparator" style="stroke:#A80036;stroke-width:1.5;" width="95" x="7" y="249"/><ellipse cx="22" cy="265" fill="#ADD1B2" rx="11" ry="11" style="stroke:#A80036;stroke-width:1.0;"/><path d="M24,261.5 Q24.2031,261 24.4375,260.75 Q24.6719,260.5 24.9375,260.5 Q25.4063,260.5 25.7031,260.7813 Q26,261.0625 26,261.7188 L26,263.2813 Q26,263.9375 25.7188,264.2188 Q25.4375,264.5 25,264.5 Q24.6094,264.5 24.3594,264.3281 Q24.1094,264.1563 24,263.7031 Q23.9531,263.3906 23.7813,263.2188 Q23.4688,262.8906 22.9063,262.7031 Q22.3438,262.5 21.7813,262.5 Q21.0781,262.5 20.4844,262.7813 Q19.9063,263.0625 19.4531,263.6875 Q19,264.3125 19,265.1719 L19,266.0938 Q19,267.125 19.8438,267.8125 Q20.6875,268.5 22.1875,268.5 Q23.0781,268.5 23.7031,268.2969 Q24.0625,268.1875 24.4688,267.8281 Q24.7344,267.625 24.875,267.5625 Q25.0156,267.5 25.1875,267.5 Q25.5156,267.5 25.75,267.7656 Q26,268.0156 26,268.375 Q26,268.7188 25.6563,269.125 Q25.1563,269.7188 24.3594,270.0469 Q23.3125,270.5 22.0313,270.5 Q20.5313,270.5 19.3281,269.9063 Q18.3594,269.4375 17.6719,268.4219 Q17,267.4063 17,266.2031 L17,265.1094 Q17,263.8594 17.5938,262.7656 Q18.2031,261.6719 19.25,261.0938 Q20.3125,260.5 21.5,260.5 Q22.2188,260.5 22.8438,260.75 Q23.4688,261 24,261.5 Z " fill="#000000"/><text fill="#000000" font-family="sans-serif" font-size="12" lengthAdjust="spacing" textLength="63" x="36" y="269.9102">comparator</text><line style="stroke:#A80036;stroke-width:1.5;" x1="8" x2="101" y1="281" y2="281"/><text fill="#000000" font-family="sans-serif" font-size="11" lengthAdjust="spacing" textLength="50" x="13" y="296.4189">compare()</text><!--MD5=[ad9b6268ce3093b287e8eaea7ef1643f]
class swapper--><rect codeLine="21" fill="#FEFECE" filter="url(#fbbf0ymzaxsbk)" height="53.8359" id="swapper" style="stroke:#A80036;stroke-width:1.5;" width="80" x="137.5" y="249"/><ellipse cx="152.5" cy="265" fill="#ADD1B2" rx="11" ry="11" style="stroke:#A80036;stroke-width:1.0;"/><path d="M154.5,261.5 Q154.7031,261 154.9375,260.75 Q155.1719,260.5 155.4375,260.5 Q155.9063,260.5 156.2031,260.7813 Q156.5,261.0625 156.5,261.7188 L156.5,263.2813 Q156.5,263.9375 156.2188,264.2188 Q155.9375,264.5 155.5,264.5 Q155.1094,264.5 154.8594,264.3281 Q154.6094,264.1563 154.5,263.7031 Q154.4531,263.3906 154.2813,263.2188 Q153.9688,262.8906 153.4063,262.7031 Q152.8438,262.5 152.2813,262.5 Q151.5781,262.5 150.9844,262.7813 Q150.4063,263.0625 149.9531,263.6875 Q149.5,264.3125 149.5,265.1719 L149.5,266.0938 Q149.5,267.125 150.3438,267.8125 Q151.1875,268.5 152.6875,268.5 Q153.5781,268.5 154.2031,268.2969 Q154.5625,268.1875 154.9688,267.8281 Q155.2344,267.625 155.375,267.5625 Q155.5156,267.5 155.6875,267.5 Q156.0156,267.5 156.25,267.7656 Q156.5,268.0156 156.5,268.375 Q156.5,268.7188 156.1563,269.125 Q155.6563,269.7188 154.8594,270.0469 Q153.8125,270.5 152.5313,270.5 Q151.0313,270.5 149.8281,269.9063 Q148.8594,269.4375 148.1719,268.4219 Q147.5,267.4063 147.5,266.2031 L147.5,265.1094 Q147.5,263.8594 148.0938,262.7656 Q148.7031,261.6719 149.75,261.0938 Q150.8125,260.5 152,260.5 Q152.7188,260.5 153.3438,260.75 Q153.9688,261 154.5,261.5 Z " fill="#000000"/><text fill="#000000" font-family="sans-serif" font-size="12" lengthAdjust="spacing" textLength="48" x="166.5" y="269.9102">swapper</text><line style="stroke:#A80036;stroke-width:1.5;" x1="138.5" x2="216.5" y1="281" y2="281"/><text fill="#000000" font-family="sans-serif" font-size="11" lengthAdjust="spacing" textLength="36" x="143.5" y="296.4189">swap()</text><!--MD5=[6a426cf3e34ff15b89f59f115799c568]
class assigner--><rect codeLine="26" fill="#FEFECE" filter="url(#fbbf0ymzaxsbk)" height="53.8359" id="assigner" style="stroke:#A80036;stroke-width:1.5;" width="81" x="253" y="249"/><ellipse cx="268" cy="265" fill="#ADD1B2" rx="11" ry="11" style="stroke:#A80036;stroke-width:1.0;"/><path d="M270,261.5 Q270.2031,261 270.4375,260.75 Q270.6719,260.5 270.9375,260.5 Q271.4063,260.5 271.7031,260.7813 Q272,261.0625 272,261.7188 L272,263.2813 Q272,263.9375 271.7188,264.2188 Q271.4375,264.5 271,264.5 Q270.6094,264.5 270.3594,264.3281 Q270.1094,264.1563 270,263.7031 Q269.9531,263.3906 269.7813,263.2188 Q269.4688,262.8906 268.9063,262.7031 Q268.3438,262.5 267.7813,262.5 Q267.0781,262.5 266.4844,262.7813 Q265.9063,263.0625 265.4531,263.6875 Q265,264.3125 265,265.1719 L265,266.0938 Q265,267.125 265.8438,267.8125 Q266.6875,268.5 268.1875,268.5 Q269.0781,268.5 269.7031,268.2969 Q270.0625,268.1875 270.4688,267.8281 Q270.7344,267.625 270.875,267.5625 Q271.0156,267.5 271.1875,267.5 Q271.5156,267.5 271.75,267.7656 Q272,268.0156 272,268.375 Q272,268.7188 271.6563,269.125 Q271.1563,269.7188 270.3594,270.0469 Q269.3125,270.5 268.0313,270.5 Q266.5313,270.5 265.3281,269.9063 Q264.3594,269.4375 263.6719,268.4219 Q263,267.4063 263,266.2031 L263,265.1094 Q263,263.8594 263.5938,262.7656 Q264.2031,261.6719 265.25,261.0938 Q266.3125,260.5 267.5,260.5 Q268.2188,260.5 268.8438,260.75 Q269.4688,261 270,261.5 Z " fill="#000000"/><text fill="#000000" font-family="sans-serif" font-size="12" lengthAdjust="spacing" textLength="49" x="282" y="269.9102">assigner</text><line style="stroke:#A80036;stroke-width:1.5;" x1="254" x2="333" y1="281" y2="281"/><text fill="#000000" font-family="sans-serif" font-size="11" lengthAdjust="spacing" textLength="40" x="259" y="296.4189">assign()</text><!--MD5=[c040af62e40658a6b0bac8696522bc11]
link sorting to operation--><path codeLine="30" d="M177.5,39.07 C177.5,54.08 177.5,77.86 177.5,98.88 " fill="none" id="sorting-operation" style="stroke:#A80036;stroke-width:1.0;"/><!--MD5=[3a2d2deea1b0392be9175952f2320cba]
reverse link operation to comparator--><path codeLine="31" d="M126.86,198.52 C110.42,215.89 92.91,234.4 79.23,248.86 " fill="none" id="operation-backto-comparator" style="stroke:#A80036;stroke-width:1.0;"/><polygon fill="#FFFFFF" points="135.86,189.01,128.8313,190.6215,127.6155,197.7294,134.6442,196.1179,135.86,189.01" style="stroke:#A80036;stroke-width:1.0;"/><!--MD5=[00f95100769494c2df9f15052dc6bc0a]
reverse link operation to swapper--><path codeLine="32" d="M177.5,202.39 C177.5,218.61 177.5,235.47 177.5,248.86 " fill="none" id="operation-backto-swapper" style="stroke:#A80036;stroke-width:1.0;"/><polygon fill="#FFFFFF" points="177.5,189.01,173.5,195.01,177.5,201.01,181.5,195.01,177.5,189.01" style="stroke:#A80036;stroke-width:1.0;"/><!--MD5=[1ecf172383f769767f649106253ba2ab]
reverse link operation to assigner--><path codeLine="33" d="M225.68,199 C241.06,216.24 257.39,234.54 270.17,248.86 " fill="none" id="operation-backto-assigner" style="stroke:#A80036;stroke-width:1.0;"/><polygon fill="#FFFFFF" points="216.77,189.01,217.7809,196.1499,224.7604,197.9629,223.7495,190.823,216.77,189.01" style="stroke:#A80036;stroke-width:1.0;"/><!--MD5=[cdd5b33415e429336a06cbd0fa380e54]
@startuml
'!include styles/card-style.puml

hide sorting fields
hide sorting methods
interface sorting {
}

hide operation fields
class operation <<Facade>> {
	compare()
	swap()
	assign()
}

hide comparator fields
class comparator {
	compare()
}

hide swapper fields
class swapper {
	swap()
}

hide assigner fields
class assigner {
	assign()
}

sorting - - operation
operation o- - comparator
operation o- - swapper
operation o- - assigner

@enduml

@startuml

hide sorting fields
hide sorting methods
interface sorting {
}

hide operation fields
class operation <<Facade>> {
	compare()
	swap()
	assign()
}

hide comparator fields
class comparator {
	compare()
}

hide swapper fields
class swapper {
	swap()
}

hide assigner fields
class assigner {
	assign()
}

sorting - - operation
operation o- - comparator
operation o- - swapper
operation o- - assigner

@enduml

PlantUML version 1.2021.11(Sat Oct 02 15:26:11 CEST 2021)
(GPL source distribution)
Java Runtime: OpenJDK Runtime Environment
JVM: OpenJDK 64-Bit Server VM
Default Encoding: Cp1250
Language: pl
Country: PL
--></g></svg>