<?xml version="1.0" encoding="UTF-8" standalone="no"?><svg xmlns="http://www.w3.org/2000/svg" xmlns:xlink="http://www.w3.org/1999/xlink" contentScriptType="application/ecmascript" contentStyleType="text/css" height="601px" preserveAspectRatio="none" style="width:296px;height:601px;background:#FFFFFF;" version="1.1" viewBox="0 0 296 601" width="296px" zoomAndPan="magnify"><defs><filter height="300%" id="f251pvupzjnwd" width="300%" x="-1" y="-1"><feGaussianBlur result="blurOut" stdDeviation="2.0"/><feColorMatrix in="blurOut" result="blurOut2" type="matrix" values="0 0 0 0 0 0 0 0 0 0 0 0 0 0 0 0 0 0 .4 0"/><feOffset dx="4.0" dy="4.0" in="blurOut2" result="blurOut3"/><feBlend in="SourceGraphic" in2="blurOut3" mode="normal"/></filter></defs><g><ellipse cx="147" cy="20" fill="#000000" filter="url(#f251pvupzjnwd)" rx="10" ry="10" style="stroke:none;stroke-width:1.0;"/><rect fill="#FFFFFF" filter="url(#f251pvupzjnwd)" height="139.7969" style="stroke:#000000;stroke-width:2.0;" width="171" x="61.5" y="40"/><path d="M150.5,40 L150.5,50.6094 L140.5,60.6094 L61.5,60.6094 " fill="none" style="stroke:#000000;stroke-width:2.0;"/><text fill="#000000" font-family="sans-serif" font-size="14" lengthAdjust="spacing" textLength="79" x="64.5" y="55.5332">Konfiguracja</text><rect fill="#FEFECE" filter="url(#f251pvupzjnwd)" height="35.0938" rx="12.5" ry="12.5" style="stroke:#A80036;stroke-width:1.5;" width="151" x="71.5" y="77.6094"/><text fill="#000000" font-family="sans-serif" font-size="12" lengthAdjust="spacing" textLength="131" x="81.5" y="100.0664">parsowanie konfiguracji</text><rect fill="#FEFECE" filter="url(#f251pvupzjnwd)" height="35.0938" rx="12.5" ry="12.5" style="stroke:#A80036;stroke-width:1.5;" width="142" x="76" y="132.7031"/><text fill="#000000" font-family="sans-serif" font-size="12" lengthAdjust="spacing" textLength="122" x="86" y="155.1602">przygotowanie planszy</text><rect fill="#FFFFFF" filter="url(#f251pvupzjnwd)" height="163.6221" style="stroke:#000000;stroke-width:2.0;" width="222" x="36" y="246.7158"/><path d="M81,246.7158 L81,257.3252 L71,267.3252 L36,267.3252 " fill="none" style="stroke:#000000;stroke-width:2.0;"/><text fill="#000000" font-family="sans-serif" font-size="14" lengthAdjust="spacing" textLength="35" x="39" y="262.249">Testy</text><rect fill="#FEFECE" filter="url(#f251pvupzjnwd)" height="35.0938" rx="12.5" ry="12.5" style="stroke:#A80036;stroke-width:1.5;" width="165" x="64.5" y="341.2441"/><text fill="#000000" font-family="sans-serif" font-size="12" lengthAdjust="spacing" textLength="145" x="74.5" y="363.7012">wczytywanie wyników testu</text><polygon fill="#FEFECE" filter="url(#f251pvupzjnwd)" points="111,284.3252,183,284.3252,195,296.3252,183,308.3252,111,308.3252,99,296.3252,111,284.3252" style="stroke:#A80036;stroke-width:1.5;"/><text fill="#000000" font-family="sans-serif" font-size="11" lengthAdjust="spacing" textLength="14" x="151" y="319.7441">tak</text><text fill="#000000" font-family="sans-serif" font-size="11" lengthAdjust="spacing" textLength="72" x="111" y="300.8262">testy dostępne</text><text fill="#000000" font-family="sans-serif" font-size="11" lengthAdjust="spacing" textLength="14" x="85" y="293.9082">nie</text><rect fill="#FEFECE" filter="url(#f251pvupzjnwd)" height="35.0938" rx="12.5" ry="12.5" style="stroke:#A80036;stroke-width:1.5;" width="198" x="48" y="430.3379"/><text fill="#000000" font-family="sans-serif" font-size="12" lengthAdjust="spacing" textLength="178" x="58" y="452.7949">tworzenie pojedynczego wykresu</text><polygon fill="#FEFECE" filter="url(#f251pvupzjnwd)" points="101.5,199.7969,192.5,199.7969,204.5,211.7969,192.5,223.7969,101.5,223.7969,89.5,211.7969,101.5,199.7969" style="stroke:#A80036;stroke-width:1.5;"/><text fill="#000000" font-family="sans-serif" font-size="11" lengthAdjust="spacing" textLength="14" x="151" y="235.2158">tak</text><text fill="#000000" font-family="sans-serif" font-size="11" lengthAdjust="spacing" textLength="91" x="101.5" y="216.2979">wykresy dostępne</text><text fill="#000000" font-family="sans-serif" font-size="11" lengthAdjust="spacing" textLength="14" x="75.5" y="209.3799">nie</text><rect fill="#FEFECE" filter="url(#f251pvupzjnwd)" height="35.0938" rx="12.5" ry="12.5" style="stroke:#A80036;stroke-width:1.5;" width="131" x="81.5" y="507.4316"/><text fill="#000000" font-family="sans-serif" font-size="12" lengthAdjust="spacing" textLength="111" x="91.5" y="529.8887">zapisywanie planszy</text><ellipse cx="147" cy="573.5254" fill="#FFFFFF" filter="url(#f251pvupzjnwd)" rx="11" ry="11" style="stroke:#000000;stroke-width:1.0;"/><ellipse cx="147" cy="573.5254" fill="#000000" rx="6" ry="6" style="stroke:#7F7F7F;stroke-width:1.0;"/><line style="stroke:#A80036;stroke-width:1.5;" x1="147" x2="147" y1="112.7031" y2="132.7031"/><polygon fill="#A80036" points="143,122.7031,147,132.7031,151,122.7031,147,126.7031" style="stroke:#A80036;stroke-width:1.0;"/><line style="stroke:#A80036;stroke-width:1.5;" x1="147" x2="147" y1="30" y2="77.6094"/><polygon fill="#A80036" points="143,67.6094,147,77.6094,151,67.6094,147,71.6094" style="stroke:#A80036;stroke-width:1.0;"/><line style="stroke:#A80036;stroke-width:1.5;" x1="147" x2="147" y1="308.3252" y2="341.2441"/><polygon fill="#A80036" points="143,331.2441,147,341.2441,151,331.2441,147,335.2441" style="stroke:#A80036;stroke-width:1.0;"/><line style="stroke:#A80036;stroke-width:1.5;" x1="147" x2="147" y1="376.3379" y2="386.3379"/><line style="stroke:#A80036;stroke-width:1.5;" x1="147" x2="241.5" y1="386.3379" y2="386.3379"/><polygon fill="#A80036" points="237.5,349.873,241.5,339.873,245.5,349.873,241.5,345.873" style="stroke:#A80036;stroke-width:1.5;"/><line style="stroke:#A80036;stroke-width:1.5;" x1="241.5" x2="241.5" y1="296.3252" y2="386.3379"/><line style="stroke:#A80036;stroke-width:1.5;" x1="241.5" x2="195" y1="296.3252" y2="296.3252"/><polygon fill="#A80036" points="205,292.3252,195,296.3252,205,300.3252,201,296.3252" style="stroke:#A80036;stroke-width:1.0;"/><line style="stroke:#A80036;stroke-width:1.5;" x1="99" x2="52.5" y1="296.3252" y2="296.3252"/><polygon fill="#A80036" points="48.5,335.873,52.5,345.873,56.5,335.873,52.5,339.873" style="stroke:#A80036;stroke-width:1.5;"/><line style="stroke:#A80036;stroke-width:1.5;" x1="52.5" x2="52.5" y1="296.3252" y2="398.3379"/><line style="stroke:#A80036;stroke-width:1.5;" x1="52.5" x2="147" y1="398.3379" y2="398.3379"/><line style="stroke:#A80036;stroke-width:1.5;" x1="147" x2="147" y1="398.3379" y2="430.3379"/><polygon fill="#A80036" points="143,420.3379,147,430.3379,151,420.3379,147,424.3379" style="stroke:#A80036;stroke-width:1.0;"/><line style="stroke:#A80036;stroke-width:1.5;" x1="147" x2="147" y1="223.7969" y2="284.3252"/><polygon fill="#A80036" points="143,274.3252,147,284.3252,151,274.3252,147,278.3252" style="stroke:#A80036;stroke-width:1.0;"/><line style="stroke:#A80036;stroke-width:1.5;" x1="147" x2="147" y1="465.4316" y2="475.4316"/><line style="stroke:#A80036;stroke-width:1.5;" x1="147" x2="270" y1="475.4316" y2="475.4316"/><polygon fill="#A80036" points="266,357.1973,270,347.1973,274,357.1973,270,353.1973" style="stroke:#A80036;stroke-width:1.5;"/><line style="stroke:#A80036;stroke-width:1.5;" x1="270" x2="270" y1="211.7969" y2="475.4316"/><line style="stroke:#A80036;stroke-width:1.5;" x1="270" x2="204.5" y1="211.7969" y2="211.7969"/><polygon fill="#A80036" points="214.5,207.7969,204.5,211.7969,214.5,215.7969,210.5,211.7969" style="stroke:#A80036;stroke-width:1.0;"/><line style="stroke:#A80036;stroke-width:1.5;" x1="89.5" x2="24" y1="211.7969" y2="211.7969"/><polygon fill="#A80036" points="20,343.1973,24,353.1973,28,343.1973,24,347.1973" style="stroke:#A80036;stroke-width:1.5;"/><line style="stroke:#A80036;stroke-width:1.5;" x1="24" x2="24" y1="211.7969" y2="487.4316"/><line style="stroke:#A80036;stroke-width:1.5;" x1="24" x2="147" y1="487.4316" y2="487.4316"/><line style="stroke:#A80036;stroke-width:1.5;" x1="147" x2="147" y1="487.4316" y2="507.4316"/><polygon fill="#A80036" points="143,497.4316,147,507.4316,151,497.4316,147,501.4316" style="stroke:#A80036;stroke-width:1.0;"/><line style="stroke:#A80036;stroke-width:1.5;" x1="147" x2="147" y1="167.7969" y2="199.7969"/><polygon fill="#A80036" points="143,189.7969,147,199.7969,151,189.7969,147,193.7969" style="stroke:#A80036;stroke-width:1.0;"/><line style="stroke:#A80036;stroke-width:1.5;" x1="147" x2="147" y1="542.5254" y2="562.5254"/><polygon fill="#A80036" points="143,552.5254,147,562.5254,151,552.5254,147,556.5254" style="stroke:#A80036;stroke-width:1.0;"/><!--MD5=[2269ed7ba2b0ec76751cb7892e43a483]
@startuml
start
group Konfiguracja
	:parsowanie konfiguracji;
	:przygotowanie planszy;
end group

while (wykresy dostępne) is (tak)

	group Testy
	while (testy dostępne) is (tak)
		:wczytywanie wyników testu;
	end while(nie)
	end group
	:tworzenie pojedynczego wykresu;

end while (nie)

:zapisywanie planszy;
stop
@enduml

PlantUML version 1.2021.11(Sat Oct 02 15:26:11 CEST 2021)
(GPL source distribution)
Java Runtime: OpenJDK Runtime Environment
JVM: OpenJDK 64-Bit Server VM
Default Encoding: Cp1250
Language: pl
Country: PL
--></g></svg>