<?xml version="1.0" encoding="UTF-8" standalone="no"?><svg xmlns="http://www.w3.org/2000/svg" xmlns:xlink="http://www.w3.org/1999/xlink" contentScriptType="application/ecmascript" contentStyleType="text/css" height="454.5px" preserveAspectRatio="none" style="width:653px;height:454px;background:#FFFFFF;" version="1.1" viewBox="0 0 653 454" width="653px" zoomAndPan="magnify"><defs><filter height="300%" id="fax1774pyyo9e" width="300%" x="-1" y="-1"><feGaussianBlur result="blurOut" stdDeviation="1.0"/><feColorMatrix in="blurOut" result="blurOut2" type="matrix" values="0 0 0 0 0 0 0 0 0 0 0 0 0 0 0 0 0 0 .4 0"/><feOffset dx="2.0" dy="2.0" in="blurOut2" result="blurOut3"/><feBlend in="SourceGraphic" in2="blurOut3" mode="normal"/></filter></defs><g><!--MD5=[71453aad0c321cc4e5ffc62c5a278467]
class unit--><rect codeLine="4" fill="#FEFECE" filter="url(#fax1774pyyo9e)" height="40.7539" id="unit" style="stroke:#A80036;stroke-width:0.75;" width="28" x="278.75" y="78.5"/><ellipse cx="287.15" cy="86.5" fill="#ADD1B2" rx="5.5" ry="5.5" style="stroke:#A80036;stroke-width:0.5;"/><path d="M288.15,84.75 Q288.2516,84.5 288.3688,84.375 Q288.4859,84.25 288.6188,84.25 Q288.8531,84.25 289.0016,84.3906 Q289.15,84.5313 289.15,84.8594 L289.15,85.6406 Q289.15,85.9688 289.0094,86.1094 Q288.8688,86.25 288.65,86.25 Q288.4547,86.25 288.3297,86.1641 Q288.2047,86.0781 288.15,85.8516 Q288.1266,85.6953 288.0406,85.6094 Q287.8844,85.4453 287.6031,85.3516 Q287.3219,85.25 287.0406,85.25 Q286.6891,85.25 286.3922,85.3906 Q286.1031,85.5313 285.8766,85.8438 Q285.65,86.1563 285.65,86.5859 L285.65,87.0469 Q285.65,87.5625 286.0719,87.9063 Q286.4938,88.25 287.2438,88.25 Q287.6891,88.25 288.0016,88.1484 Q288.1813,88.0938 288.3844,87.9141 Q288.5172,87.8125 288.5875,87.7813 Q288.6578,87.75 288.7438,87.75 Q288.9078,87.75 289.025,87.8828 Q289.15,88.0078 289.15,88.1875 Q289.15,88.3594 288.9781,88.5625 Q288.7281,88.8594 288.3297,89.0234 Q287.8063,89.25 287.1656,89.25 Q286.4156,89.25 285.8141,88.9531 Q285.3297,88.7188 284.9859,88.2109 Q284.65,87.7031 284.65,87.1016 L284.65,86.5547 Q284.65,85.9297 284.9469,85.3828 Q285.2516,84.8359 285.775,84.5469 Q286.3063,84.25 286.9,84.25 Q287.2594,84.25 287.5719,84.375 Q287.8844,84.5 288.15,84.75 Z " fill="#000000"/><text fill="#000000" font-family="sans-serif" font-size="6" lengthAdjust="spacing" textLength="10" x="294.35" y="88.9551">unit</text><line style="stroke:#A80036;stroke-width:0.75;" x1="279.25" x2="306.25" y1="94.5" y2="94.5"/><text fill="#000000" font-family="sans-serif" font-size="5.5" lengthAdjust="spacing" textLength="21.5" x="281.75" y="102.2095">executor</text><text fill="#000000" font-family="sans-serif" font-size="5.5" lengthAdjust="spacing" textLength="16.5" x="281.75" y="109.1274">sorting</text><text fill="#000000" font-family="sans-serif" font-size="5.5" lengthAdjust="spacing" textLength="22" x="281.75" y="116.0454">averager</text><!--MD5=[6d7fd4309facb33f738399fe9734b47b]
class invariants--><rect codeLine="11" fill="#FEFECE" filter="url(#fax1774pyyo9e)" height="16" id="invariants" style="stroke:#A80036;stroke-width:0.75;" width="42.5" x="324.5" y="91"/><ellipse cx="332" cy="99" fill="#ADD1B2" rx="5.5" ry="5.5" style="stroke:#A80036;stroke-width:0.5;"/><path d="M333,97.25 Q333.1016,97 333.2188,96.875 Q333.3359,96.75 333.4688,96.75 Q333.7031,96.75 333.8516,96.8906 Q334,97.0313 334,97.3594 L334,98.1406 Q334,98.4688 333.8594,98.6094 Q333.7188,98.75 333.5,98.75 Q333.3047,98.75 333.1797,98.6641 Q333.0547,98.5781 333,98.3516 Q332.9766,98.1953 332.8906,98.1094 Q332.7344,97.9453 332.4531,97.8516 Q332.1719,97.75 331.8906,97.75 Q331.5391,97.75 331.2422,97.8906 Q330.9531,98.0313 330.7266,98.3438 Q330.5,98.6563 330.5,99.0859 L330.5,99.5469 Q330.5,100.0625 330.9219,100.4063 Q331.3438,100.75 332.0938,100.75 Q332.5391,100.75 332.8516,100.6484 Q333.0313,100.5938 333.2344,100.4141 Q333.3672,100.3125 333.4375,100.2813 Q333.5078,100.25 333.5938,100.25 Q333.7578,100.25 333.875,100.3828 Q334,100.5078 334,100.6875 Q334,100.8594 333.8281,101.0625 Q333.5781,101.3594 333.1797,101.5234 Q332.6563,101.75 332.0156,101.75 Q331.2656,101.75 330.6641,101.4531 Q330.1797,101.2188 329.8359,100.7109 Q329.5,100.2031 329.5,99.6016 L329.5,99.0547 Q329.5,98.4297 329.7969,97.8828 Q330.1016,97.3359 330.625,97.0469 Q331.1563,96.75 331.75,96.75 Q332.1094,96.75 332.4219,96.875 Q332.7344,97 333,97.25 Z " fill="#000000"/><text fill="#000000" font-family="sans-serif" font-size="6" lengthAdjust="spacing" textLength="26.5" x="339" y="101.4551">invariants</text><!--MD5=[664cc1e260bbfa7de9aceea3ddb26b22]
class engine--><rect codeLine="13" fill="#FEFECE" filter="url(#fax1774pyyo9e)" height="44.7539" id="engine" style="stroke:#A80036;stroke-width:0.75;" width="42" x="298.25" y="3.5"/><ellipse cx="308.9" cy="11.5" fill="#ADD1B2" rx="5.5" ry="5.5" style="stroke:#A80036;stroke-width:0.5;"/><path d="M309.9,9.75 Q310.0016,9.5 310.1188,9.375 Q310.2359,9.25 310.3688,9.25 Q310.6031,9.25 310.7516,9.3906 Q310.9,9.5313 310.9,9.8594 L310.9,10.6406 Q310.9,10.9688 310.7594,11.1094 Q310.6188,11.25 310.4,11.25 Q310.2047,11.25 310.0797,11.1641 Q309.9547,11.0781 309.9,10.8516 Q309.8766,10.6953 309.7906,10.6094 Q309.6344,10.4453 309.3531,10.3516 Q309.0719,10.25 308.7906,10.25 Q308.4391,10.25 308.1422,10.3906 Q307.8531,10.5313 307.6266,10.8438 Q307.4,11.1563 307.4,11.5859 L307.4,12.0469 Q307.4,12.5625 307.8219,12.9063 Q308.2438,13.25 308.9938,13.25 Q309.4391,13.25 309.7516,13.1484 Q309.9313,13.0938 310.1344,12.9141 Q310.2672,12.8125 310.3375,12.7813 Q310.4078,12.75 310.4938,12.75 Q310.6578,12.75 310.775,12.8828 Q310.9,13.0078 310.9,13.1875 Q310.9,13.3594 310.7281,13.5625 Q310.4781,13.8594 310.0797,14.0234 Q309.5563,14.25 308.9156,14.25 Q308.1656,14.25 307.5641,13.9531 Q307.0797,13.7188 306.7359,13.2109 Q306.4,12.7031 306.4,12.1016 L306.4,11.5547 Q306.4,10.9297 306.6969,10.3828 Q307.0016,9.8359 307.525,9.5469 Q308.0563,9.25 308.65,9.25 Q309.0094,9.25 309.3219,9.375 Q309.6344,9.5 309.9,9.75 Z " fill="#000000"/><text fill="#000000" font-family="sans-serif" font-size="6" lengthAdjust="spacing" textLength="19" x="316.6" y="13.9551">engine</text><line style="stroke:#A80036;stroke-width:0.75;" x1="298.75" x2="339.75" y1="19.5" y2="19.5"/><text fill="#000000" font-family="sans-serif" font-size="5.5" lengthAdjust="spacing" textLength="36" x="301.25" y="27.2095">List&lt;unit&gt; units</text><text fill="#000000" font-family="sans-serif" font-size="5.5" lengthAdjust="spacing" textLength="23.5" x="301.25" y="34.1274">invariants</text><line style="stroke:#A80036;stroke-width:0.75;" x1="298.75" x2="339.75" y1="37.3359" y2="37.3359"/><text fill="#000000" font-family="sans-serif" font-size="5.5" lengthAdjust="spacing" textLength="13" x="301.25" y="45.0454">test()</text><!--MD5=[2b25c74531c39e7bc052d661516b47c4]
class sorting--><rect codeLine="20" fill="#FEFECE" filter="url(#fax1774pyyo9e)" height="26.918" id="sorting" style="stroke:#A80036;stroke-width:0.75;" width="34.5" x="210.5" y="159.5"/><ellipse cx="218" cy="167.5" fill="#B4A7E5" rx="5.5" ry="5.5" style="stroke:#A80036;stroke-width:0.5;"/><path d="M218.5,166 L218.5,169 L219.5,169 L219.7422,169 L220,169.3125 L220,169.5 L220,169.6875 L219.7422,170 L219.5,170 L216.5,170 L216.2578,170 L216,169.6875 L216,169.5 L216,169.3125 L216.2578,169 L216.5,169 L217.5,169 L217.5,166 L216.5,166 L216.2578,166 L216,165.6875 L216,165.5 L216,165.3125 L216.2578,165 L216.5,165 L219.5,165 L219.7422,165 L220,165.3125 L220,165.5 L220,165.6875 L219.7422,166 L219.5,166 L218.5,166 Z " fill="#000000"/><text fill="#000000" font-family="sans-serif" font-size="6" font-style="italic" lengthAdjust="spacing" textLength="18.5" x="225" y="169.9551">sorting</text><line style="stroke:#A80036;stroke-width:0.75;" x1="211" x2="244.5" y1="175.5" y2="175.5"/><text fill="#000000" font-family="sans-serif" font-size="5.5" lengthAdjust="spacing" textLength="13.5" x="213.5" y="183.2095">sort()</text><polygon fill="none" points="223.8312,186.418,224.396,196.9977,217.6751,195.0408" style="stroke:#A80036;stroke-width:0.5;"/><line style="stroke:#A80036;stroke-width:0.5;" x1="221.0356" x2="220.75" y1="196.0193" y2="197"/><line style="stroke:#A80036;stroke-width:0.5;" x1="239.501" x2="248.245" y1="159.5" y2="149.485"/><line style="stroke:#A80036;stroke-width:0.5;" x1="245" x2="260.665" y1="184.2639" y2="194.53"/><!--MD5=[30394bc8b51c2c788e54ce8556951672]
class averager--><rect codeLine="25" fill="#FEFECE" filter="url(#fax1774pyyo9e)" height="26.918" id="averager" style="stroke:#A80036;stroke-width:0.75;" width="40" x="272.75" y="159.5"/><ellipse cx="280.25" cy="167.5" fill="#ADD1B2" rx="5.5" ry="5.5" style="stroke:#A80036;stroke-width:0.5;"/><path d="M281.25,165.75 Q281.3516,165.5 281.4688,165.375 Q281.5859,165.25 281.7188,165.25 Q281.9531,165.25 282.1016,165.3906 Q282.25,165.5313 282.25,165.8594 L282.25,166.6406 Q282.25,166.9688 282.1094,167.1094 Q281.9688,167.25 281.75,167.25 Q281.5547,167.25 281.4297,167.1641 Q281.3047,167.0781 281.25,166.8516 Q281.2266,166.6953 281.1406,166.6094 Q280.9844,166.4453 280.7031,166.3516 Q280.4219,166.25 280.1406,166.25 Q279.7891,166.25 279.4922,166.3906 Q279.2031,166.5313 278.9766,166.8438 Q278.75,167.1563 278.75,167.5859 L278.75,168.0469 Q278.75,168.5625 279.1719,168.9063 Q279.5938,169.25 280.3438,169.25 Q280.7891,169.25 281.1016,169.1484 Q281.2813,169.0938 281.4844,168.9141 Q281.6172,168.8125 281.6875,168.7813 Q281.7578,168.75 281.8438,168.75 Q282.0078,168.75 282.125,168.8828 Q282.25,169.0078 282.25,169.1875 Q282.25,169.3594 282.0781,169.5625 Q281.8281,169.8594 281.4297,170.0234 Q280.9063,170.25 280.2656,170.25 Q279.5156,170.25 278.9141,169.9531 Q278.4297,169.7188 278.0859,169.2109 Q277.75,168.7031 277.75,168.1016 L277.75,167.5547 Q277.75,166.9297 278.0469,166.3828 Q278.3516,165.8359 278.875,165.5469 Q279.4063,165.25 280,165.25 Q280.3594,165.25 280.6719,165.375 Q280.9844,165.5 281.25,165.75 Z " fill="#000000"/><text fill="#000000" font-family="sans-serif" font-size="6" lengthAdjust="spacing" textLength="24" x="287.25" y="169.9551">averager</text><line style="stroke:#A80036;stroke-width:0.75;" x1="273.25" x2="312.25" y1="175.5" y2="175.5"/><text fill="#000000" font-family="sans-serif" font-size="5.5" lengthAdjust="spacing" textLength="24" x="275.75" y="183.2095">average()</text><!--MD5=[a01b6a91462222df0d91258901fdd01a]
class executor--><rect codeLine="30" fill="#FEFECE" filter="url(#fax1774pyyo9e)" height="26.918" id="executor" style="stroke:#A80036;stroke-width:0.75;" width="39" x="330.25" y="159.5"/><ellipse cx="337.75" cy="167.5" fill="#ADD1B2" rx="5.5" ry="5.5" style="stroke:#A80036;stroke-width:0.5;"/><path d="M338.75,165.75 Q338.8516,165.5 338.9688,165.375 Q339.0859,165.25 339.2188,165.25 Q339.4531,165.25 339.6016,165.3906 Q339.75,165.5313 339.75,165.8594 L339.75,166.6406 Q339.75,166.9688 339.6094,167.1094 Q339.4688,167.25 339.25,167.25 Q339.0547,167.25 338.9297,167.1641 Q338.8047,167.0781 338.75,166.8516 Q338.7266,166.6953 338.6406,166.6094 Q338.4844,166.4453 338.2031,166.3516 Q337.9219,166.25 337.6406,166.25 Q337.2891,166.25 336.9922,166.3906 Q336.7031,166.5313 336.4766,166.8438 Q336.25,167.1563 336.25,167.5859 L336.25,168.0469 Q336.25,168.5625 336.6719,168.9063 Q337.0938,169.25 337.8438,169.25 Q338.2891,169.25 338.6016,169.1484 Q338.7813,169.0938 338.9844,168.9141 Q339.1172,168.8125 339.1875,168.7813 Q339.2578,168.75 339.3438,168.75 Q339.5078,168.75 339.625,168.8828 Q339.75,169.0078 339.75,169.1875 Q339.75,169.3594 339.5781,169.5625 Q339.3281,169.8594 338.9297,170.0234 Q338.4063,170.25 337.7656,170.25 Q337.0156,170.25 336.4141,169.9531 Q335.9297,169.7188 335.5859,169.2109 Q335.25,168.7031 335.25,168.1016 L335.25,167.5547 Q335.25,166.9297 335.5469,166.3828 Q335.8516,165.8359 336.375,165.5469 Q336.9063,165.25 337.5,165.25 Q337.8594,165.25 338.1719,165.375 Q338.4844,165.5 338.75,165.75 Z " fill="#000000"/><text fill="#000000" font-family="sans-serif" font-size="6" lengthAdjust="spacing" textLength="23" x="344.75" y="169.9551">executor</text><line style="stroke:#A80036;stroke-width:0.75;" x1="330.75" x2="368.75" y1="175.5" y2="175.5"/><text fill="#000000" font-family="sans-serif" font-size="5.5" lengthAdjust="spacing" textLength="23.5" x="333.25" y="183.2095">execute()</text><!--MD5=[a374dd668a24490351809ae1a67ffbfc]
class quick_sort--><rect codeLine="35" fill="#FEFECE" filter="url(#fax1774pyyo9e)" height="26.918" id="quick_sort" style="stroke:#A80036;stroke-width:0.75;" width="44.5" x="3.5" y="233.5"/><ellipse cx="11" cy="241.5" fill="#ADD1B2" rx="5.5" ry="5.5" style="stroke:#A80036;stroke-width:0.5;"/><path d="M12,239.75 Q12.1016,239.5 12.2188,239.375 Q12.3359,239.25 12.4688,239.25 Q12.7031,239.25 12.8516,239.3906 Q13,239.5313 13,239.8594 L13,240.6406 Q13,240.9688 12.8594,241.1094 Q12.7188,241.25 12.5,241.25 Q12.3047,241.25 12.1797,241.1641 Q12.0547,241.0781 12,240.8516 Q11.9766,240.6953 11.8906,240.6094 Q11.7344,240.4453 11.4531,240.3516 Q11.1719,240.25 10.8906,240.25 Q10.5391,240.25 10.2422,240.3906 Q9.9531,240.5313 9.7266,240.8438 Q9.5,241.1563 9.5,241.5859 L9.5,242.0469 Q9.5,242.5625 9.9219,242.9063 Q10.3438,243.25 11.0938,243.25 Q11.5391,243.25 11.8516,243.1484 Q12.0313,243.0938 12.2344,242.9141 Q12.3672,242.8125 12.4375,242.7813 Q12.5078,242.75 12.5938,242.75 Q12.7578,242.75 12.875,242.8828 Q13,243.0078 13,243.1875 Q13,243.3594 12.8281,243.5625 Q12.5781,243.8594 12.1797,244.0234 Q11.6563,244.25 11.0156,244.25 Q10.2656,244.25 9.6641,243.9531 Q9.1797,243.7188 8.8359,243.2109 Q8.5,242.7031 8.5,242.1016 L8.5,241.5547 Q8.5,240.9297 8.7969,240.3828 Q9.1016,239.8359 9.625,239.5469 Q10.1563,239.25 10.75,239.25 Q11.1094,239.25 11.4219,239.375 Q11.7344,239.5 12,239.75 Z " fill="#000000"/><text fill="#000000" font-family="sans-serif" font-size="6" lengthAdjust="spacing" textLength="28.5" x="18" y="243.9551">quick_sort</text><line style="stroke:#A80036;stroke-width:0.75;" x1="4" x2="47.5" y1="249.5" y2="249.5"/><text fill="#000000" font-family="sans-serif" font-size="5.5" lengthAdjust="spacing" textLength="13.5" x="6.5" y="257.2095">sort()</text><!--MD5=[8d7cb87b8737d2a1f7f7e67315dc83e0]
class dual_pivot_quick_sort--><rect codeLine="40" fill="#FEFECE" filter="url(#fax1774pyyo9e)" height="26.918" id="dual_pivot_quick_sort" style="stroke:#A80036;stroke-width:0.75;" width="76" x="65.75" y="233.5"/><ellipse cx="73.25" cy="241.5" fill="#ADD1B2" rx="5.5" ry="5.5" style="stroke:#A80036;stroke-width:0.5;"/><path d="M74.25,239.75 Q74.3516,239.5 74.4688,239.375 Q74.5859,239.25 74.7188,239.25 Q74.9531,239.25 75.1016,239.3906 Q75.25,239.5313 75.25,239.8594 L75.25,240.6406 Q75.25,240.9688 75.1094,241.1094 Q74.9688,241.25 74.75,241.25 Q74.5547,241.25 74.4297,241.1641 Q74.3047,241.0781 74.25,240.8516 Q74.2266,240.6953 74.1406,240.6094 Q73.9844,240.4453 73.7031,240.3516 Q73.4219,240.25 73.1406,240.25 Q72.7891,240.25 72.4922,240.3906 Q72.2031,240.5313 71.9766,240.8438 Q71.75,241.1563 71.75,241.5859 L71.75,242.0469 Q71.75,242.5625 72.1719,242.9063 Q72.5938,243.25 73.3438,243.25 Q73.7891,243.25 74.1016,243.1484 Q74.2813,243.0938 74.4844,242.9141 Q74.6172,242.8125 74.6875,242.7813 Q74.7578,242.75 74.8438,242.75 Q75.0078,242.75 75.125,242.8828 Q75.25,243.0078 75.25,243.1875 Q75.25,243.3594 75.0781,243.5625 Q74.8281,243.8594 74.4297,244.0234 Q73.9063,244.25 73.2656,244.25 Q72.5156,244.25 71.9141,243.9531 Q71.4297,243.7188 71.0859,243.2109 Q70.75,242.7031 70.75,242.1016 L70.75,241.5547 Q70.75,240.9297 71.0469,240.3828 Q71.3516,239.8359 71.875,239.5469 Q72.4063,239.25 73,239.25 Q73.3594,239.25 73.6719,239.375 Q73.9844,239.5 74.25,239.75 Z " fill="#000000"/><text fill="#000000" font-family="sans-serif" font-size="6" lengthAdjust="spacing" textLength="60" x="80.25" y="243.9551">dual_pivot_quick_sort</text><line style="stroke:#A80036;stroke-width:0.75;" x1="66.25" x2="141.25" y1="249.5" y2="249.5"/><text fill="#000000" font-family="sans-serif" font-size="5.5" lengthAdjust="spacing" textLength="13.5" x="68.75" y="257.2095">sort()</text><!--MD5=[d6b14b5de6ec22c753678eeb3efe31b1]
class quick_merge_sort--><rect codeLine="45" fill="#FEFECE" filter="url(#fax1774pyyo9e)" height="26.918" id="quick_merge_sort" style="stroke:#A80036;stroke-width:0.75;" width="66" x="159.25" y="233.5"/><ellipse cx="166.75" cy="241.5" fill="#ADD1B2" rx="5.5" ry="5.5" style="stroke:#A80036;stroke-width:0.5;"/><path d="M167.75,239.75 Q167.8516,239.5 167.9688,239.375 Q168.0859,239.25 168.2188,239.25 Q168.4531,239.25 168.6016,239.3906 Q168.75,239.5313 168.75,239.8594 L168.75,240.6406 Q168.75,240.9688 168.6094,241.1094 Q168.4688,241.25 168.25,241.25 Q168.0547,241.25 167.9297,241.1641 Q167.8047,241.0781 167.75,240.8516 Q167.7266,240.6953 167.6406,240.6094 Q167.4844,240.4453 167.2031,240.3516 Q166.9219,240.25 166.6406,240.25 Q166.2891,240.25 165.9922,240.3906 Q165.7031,240.5313 165.4766,240.8438 Q165.25,241.1563 165.25,241.5859 L165.25,242.0469 Q165.25,242.5625 165.6719,242.9063 Q166.0938,243.25 166.8438,243.25 Q167.2891,243.25 167.6016,243.1484 Q167.7813,243.0938 167.9844,242.9141 Q168.1172,242.8125 168.1875,242.7813 Q168.2578,242.75 168.3438,242.75 Q168.5078,242.75 168.625,242.8828 Q168.75,243.0078 168.75,243.1875 Q168.75,243.3594 168.5781,243.5625 Q168.3281,243.8594 167.9297,244.0234 Q167.4063,244.25 166.7656,244.25 Q166.0156,244.25 165.4141,243.9531 Q164.9297,243.7188 164.5859,243.2109 Q164.25,242.7031 164.25,242.1016 L164.25,241.5547 Q164.25,240.9297 164.5469,240.3828 Q164.8516,239.8359 165.375,239.5469 Q165.9063,239.25 166.5,239.25 Q166.8594,239.25 167.1719,239.375 Q167.4844,239.5 167.75,239.75 Z " fill="#000000"/><text fill="#000000" font-family="sans-serif" font-size="6" lengthAdjust="spacing" textLength="50" x="173.75" y="243.9551">quick_merge_sort</text><line style="stroke:#A80036;stroke-width:0.75;" x1="159.75" x2="224.75" y1="249.5" y2="249.5"/><text fill="#000000" font-family="sans-serif" font-size="5.5" lengthAdjust="spacing" textLength="13.5" x="162.25" y="257.2095">sort()</text><!--MD5=[04243791bb1d686b7c6816d592ed440c]
class intro_sort--><rect codeLine="50" fill="#FEFECE" filter="url(#fax1774pyyo9e)" height="26.918" id="intro_sort" style="stroke:#A80036;stroke-width:0.75;" width="42" x="242.75" y="233.5"/><ellipse cx="250.25" cy="241.5" fill="#ADD1B2" rx="5.5" ry="5.5" style="stroke:#A80036;stroke-width:0.5;"/><path d="M251.25,239.75 Q251.3516,239.5 251.4688,239.375 Q251.5859,239.25 251.7188,239.25 Q251.9531,239.25 252.1016,239.3906 Q252.25,239.5313 252.25,239.8594 L252.25,240.6406 Q252.25,240.9688 252.1094,241.1094 Q251.9688,241.25 251.75,241.25 Q251.5547,241.25 251.4297,241.1641 Q251.3047,241.0781 251.25,240.8516 Q251.2266,240.6953 251.1406,240.6094 Q250.9844,240.4453 250.7031,240.3516 Q250.4219,240.25 250.1406,240.25 Q249.7891,240.25 249.4922,240.3906 Q249.2031,240.5313 248.9766,240.8438 Q248.75,241.1563 248.75,241.5859 L248.75,242.0469 Q248.75,242.5625 249.1719,242.9063 Q249.5938,243.25 250.3438,243.25 Q250.7891,243.25 251.1016,243.1484 Q251.2813,243.0938 251.4844,242.9141 Q251.6172,242.8125 251.6875,242.7813 Q251.7578,242.75 251.8438,242.75 Q252.0078,242.75 252.125,242.8828 Q252.25,243.0078 252.25,243.1875 Q252.25,243.3594 252.0781,243.5625 Q251.8281,243.8594 251.4297,244.0234 Q250.9063,244.25 250.2656,244.25 Q249.5156,244.25 248.9141,243.9531 Q248.4297,243.7188 248.0859,243.2109 Q247.75,242.7031 247.75,242.1016 L247.75,241.5547 Q247.75,240.9297 248.0469,240.3828 Q248.3516,239.8359 248.875,239.5469 Q249.4063,239.25 250,239.25 Q250.3594,239.25 250.6719,239.375 Q250.9844,239.5 251.25,239.75 Z " fill="#000000"/><text fill="#000000" font-family="sans-serif" font-size="6" lengthAdjust="spacing" textLength="26" x="257.25" y="243.9551">intro_sort</text><line style="stroke:#A80036;stroke-width:0.75;" x1="243.25" x2="284.25" y1="249.5" y2="249.5"/><text fill="#000000" font-family="sans-serif" font-size="5.5" lengthAdjust="spacing" textLength="13.5" x="245.75" y="257.2095">sort()</text><!--MD5=[1ba5dfe1cb4c9cc2fe8e8b12e660a2c9]
class merge_sort--><rect codeLine="55" fill="#FEFECE" filter="url(#fax1774pyyo9e)" height="26.918" id="merge_sort" style="stroke:#A80036;stroke-width:0.75;" width="48" x="302.25" y="233.5"/><ellipse cx="309.75" cy="241.5" fill="#ADD1B2" rx="5.5" ry="5.5" style="stroke:#A80036;stroke-width:0.5;"/><path d="M310.75,239.75 Q310.8516,239.5 310.9688,239.375 Q311.0859,239.25 311.2188,239.25 Q311.4531,239.25 311.6016,239.3906 Q311.75,239.5313 311.75,239.8594 L311.75,240.6406 Q311.75,240.9688 311.6094,241.1094 Q311.4688,241.25 311.25,241.25 Q311.0547,241.25 310.9297,241.1641 Q310.8047,241.0781 310.75,240.8516 Q310.7266,240.6953 310.6406,240.6094 Q310.4844,240.4453 310.2031,240.3516 Q309.9219,240.25 309.6406,240.25 Q309.2891,240.25 308.9922,240.3906 Q308.7031,240.5313 308.4766,240.8438 Q308.25,241.1563 308.25,241.5859 L308.25,242.0469 Q308.25,242.5625 308.6719,242.9063 Q309.0938,243.25 309.8438,243.25 Q310.2891,243.25 310.6016,243.1484 Q310.7813,243.0938 310.9844,242.9141 Q311.1172,242.8125 311.1875,242.7813 Q311.2578,242.75 311.3438,242.75 Q311.5078,242.75 311.625,242.8828 Q311.75,243.0078 311.75,243.1875 Q311.75,243.3594 311.5781,243.5625 Q311.3281,243.8594 310.9297,244.0234 Q310.4063,244.25 309.7656,244.25 Q309.0156,244.25 308.4141,243.9531 Q307.9297,243.7188 307.5859,243.2109 Q307.25,242.7031 307.25,242.1016 L307.25,241.5547 Q307.25,240.9297 307.5469,240.3828 Q307.8516,239.8359 308.375,239.5469 Q308.9063,239.25 309.5,239.25 Q309.8594,239.25 310.1719,239.375 Q310.4844,239.5 310.75,239.75 Z " fill="#000000"/><text fill="#000000" font-family="sans-serif" font-size="6" lengthAdjust="spacing" textLength="32" x="316.75" y="243.9551">merge_sort</text><line style="stroke:#A80036;stroke-width:0.75;" x1="302.75" x2="349.75" y1="249.5" y2="249.5"/><text fill="#000000" font-family="sans-serif" font-size="5.5" lengthAdjust="spacing" textLength="13.5" x="305.25" y="257.2095">sort()</text><!--MD5=[e07f44cd4bc7474680fe4115be11d406]
class partition--><rect codeLine="60" fill="#FEFECE" filter="url(#fax1774pyyo9e)" height="26.918" id="partition" style="stroke:#A80036;stroke-width:0.75;" width="38" x="91.75" y="307.5"/><ellipse cx="99.25" cy="315.5" fill="#B4A7E5" rx="5.5" ry="5.5" style="stroke:#A80036;stroke-width:0.5;"/><path d="M99.75,314 L99.75,317 L100.75,317 L100.9922,317 L101.25,317.3125 L101.25,317.5 L101.25,317.6875 L100.9922,318 L100.75,318 L97.75,318 L97.5078,318 L97.25,317.6875 L97.25,317.5 L97.25,317.3125 L97.5078,317 L97.75,317 L98.75,317 L98.75,314 L97.75,314 L97.5078,314 L97.25,313.6875 L97.25,313.5 L97.25,313.3125 L97.5078,313 L97.75,313 L100.75,313 L100.9922,313 L101.25,313.3125 L101.25,313.5 L101.25,313.6875 L100.9922,314 L100.75,314 L99.75,314 Z " fill="#000000"/><text fill="#000000" font-family="sans-serif" font-size="6" font-style="italic" lengthAdjust="spacing" textLength="22" x="106.25" y="317.9551">partition</text><line style="stroke:#A80036;stroke-width:0.75;" x1="92.25" x2="129.25" y1="323.5" y2="323.5"/><text fill="#000000" font-family="sans-serif" font-size="5.5" lengthAdjust="spacing" textLength="23" x="94.75" y="331.2095">partition()</text><polygon fill="none" points="111.0299,334.418,114.7371,344.343,107.7386,344.4886" style="stroke:#A80036;stroke-width:0.5;"/><line style="stroke:#A80036;stroke-width:0.5;" x1="111.2379" x2="111.25" y1="344.4158" y2="345"/><line style="stroke:#A80036;stroke-width:0.5;" x1="95.3839" x2="83.83" y1="307.5" y2="297.38"/><line style="stroke:#A80036;stroke-width:0.5;" x1="109.4857" x2="108.535" y1="307.5" y2="297.38"/><line style="stroke:#A80036;stroke-width:0.5;" x1="125.4825" x2="136.56" y1="307.5" y2="297.38"/><line style="stroke:#A80036;stroke-width:0.5;" x1="129.75" x2="139.9" y1="312.4732" y2="307.94"/><!--MD5=[fdfb1fd232d23e619aab61d76172bbaf]
class lemuto_partition--><rect codeLine="65" fill="#FEFECE" filter="url(#fax1774pyyo9e)" height="26.918" id="lemuto_partition" style="stroke:#A80036;stroke-width:0.75;" width="60.5" x="4" y="374.5"/><ellipse cx="11.5" cy="382.5" fill="#ADD1B2" rx="5.5" ry="5.5" style="stroke:#A80036;stroke-width:0.5;"/><path d="M12.5,380.75 Q12.6016,380.5 12.7188,380.375 Q12.8359,380.25 12.9688,380.25 Q13.2031,380.25 13.3516,380.3906 Q13.5,380.5313 13.5,380.8594 L13.5,381.6406 Q13.5,381.9688 13.3594,382.1094 Q13.2188,382.25 13,382.25 Q12.8047,382.25 12.6797,382.1641 Q12.5547,382.0781 12.5,381.8516 Q12.4766,381.6953 12.3906,381.6094 Q12.2344,381.4453 11.9531,381.3516 Q11.6719,381.25 11.3906,381.25 Q11.0391,381.25 10.7422,381.3906 Q10.4531,381.5313 10.2266,381.8438 Q10,382.1563 10,382.5859 L10,383.0469 Q10,383.5625 10.4219,383.9063 Q10.8438,384.25 11.5938,384.25 Q12.0391,384.25 12.3516,384.1484 Q12.5313,384.0938 12.7344,383.9141 Q12.8672,383.8125 12.9375,383.7813 Q13.0078,383.75 13.0938,383.75 Q13.2578,383.75 13.375,383.8828 Q13.5,384.0078 13.5,384.1875 Q13.5,384.3594 13.3281,384.5625 Q13.0781,384.8594 12.6797,385.0234 Q12.1563,385.25 11.5156,385.25 Q10.7656,385.25 10.1641,384.9531 Q9.6797,384.7188 9.3359,384.2109 Q9,383.7031 9,383.1016 L9,382.5547 Q9,381.9297 9.2969,381.3828 Q9.6016,380.8359 10.125,380.5469 Q10.6563,380.25 11.25,380.25 Q11.6094,380.25 11.9219,380.375 Q12.2344,380.5 12.5,380.75 Z " fill="#000000"/><text fill="#000000" font-family="sans-serif" font-size="6" lengthAdjust="spacing" textLength="44.5" x="18.5" y="384.9551">lemuto_partition</text><line style="stroke:#A80036;stroke-width:0.75;" x1="4.5" x2="64" y1="390.5" y2="390.5"/><text fill="#000000" font-family="sans-serif" font-size="5.5" lengthAdjust="spacing" textLength="23" x="7" y="398.2095">partition()</text><!--MD5=[efb46afa10f5565d1c0b3911aeeb84f4]
class hoare_partition--><rect codeLine="70" fill="#FEFECE" filter="url(#fax1774pyyo9e)" height="26.918" id="hoare_partition" style="stroke:#A80036;stroke-width:0.75;" width="57.5" x="82" y="374.5"/><ellipse cx="89.5" cy="382.5" fill="#ADD1B2" rx="5.5" ry="5.5" style="stroke:#A80036;stroke-width:0.5;"/><path d="M90.5,380.75 Q90.6016,380.5 90.7188,380.375 Q90.8359,380.25 90.9688,380.25 Q91.2031,380.25 91.3516,380.3906 Q91.5,380.5313 91.5,380.8594 L91.5,381.6406 Q91.5,381.9688 91.3594,382.1094 Q91.2188,382.25 91,382.25 Q90.8047,382.25 90.6797,382.1641 Q90.5547,382.0781 90.5,381.8516 Q90.4766,381.6953 90.3906,381.6094 Q90.2344,381.4453 89.9531,381.3516 Q89.6719,381.25 89.3906,381.25 Q89.0391,381.25 88.7422,381.3906 Q88.4531,381.5313 88.2266,381.8438 Q88,382.1563 88,382.5859 L88,383.0469 Q88,383.5625 88.4219,383.9063 Q88.8438,384.25 89.5938,384.25 Q90.0391,384.25 90.3516,384.1484 Q90.5313,384.0938 90.7344,383.9141 Q90.8672,383.8125 90.9375,383.7813 Q91.0078,383.75 91.0938,383.75 Q91.2578,383.75 91.375,383.8828 Q91.5,384.0078 91.5,384.1875 Q91.5,384.3594 91.3281,384.5625 Q91.0781,384.8594 90.6797,385.0234 Q90.1563,385.25 89.5156,385.25 Q88.7656,385.25 88.1641,384.9531 Q87.6797,384.7188 87.3359,384.2109 Q87,383.7031 87,383.1016 L87,382.5547 Q87,381.9297 87.2969,381.3828 Q87.6016,380.8359 88.125,380.5469 Q88.6563,380.25 89.25,380.25 Q89.6094,380.25 89.9219,380.375 Q90.2344,380.5 90.5,380.75 Z " fill="#000000"/><text fill="#000000" font-family="sans-serif" font-size="6" lengthAdjust="spacing" textLength="41.5" x="96.5" y="384.9551">hoare_partition</text><line style="stroke:#A80036;stroke-width:0.75;" x1="82.5" x2="139" y1="390.5" y2="390.5"/><text fill="#000000" font-family="sans-serif" font-size="5.5" lengthAdjust="spacing" textLength="23" x="85" y="398.2095">partition()</text><!--MD5=[5f8097a017eb9e6a6eea64f74468db04]
class median_of_three_parition--><rect codeLine="75" fill="#FEFECE" filter="url(#fax1774pyyo9e)" height="26.918" id="median_of_three_parition" style="stroke:#A80036;stroke-width:0.75;" width="87" x="157.25" y="374.5"/><ellipse cx="164.75" cy="382.5" fill="#ADD1B2" rx="5.5" ry="5.5" style="stroke:#A80036;stroke-width:0.5;"/><path d="M165.75,380.75 Q165.8516,380.5 165.9688,380.375 Q166.0859,380.25 166.2188,380.25 Q166.4531,380.25 166.6016,380.3906 Q166.75,380.5313 166.75,380.8594 L166.75,381.6406 Q166.75,381.9688 166.6094,382.1094 Q166.4688,382.25 166.25,382.25 Q166.0547,382.25 165.9297,382.1641 Q165.8047,382.0781 165.75,381.8516 Q165.7266,381.6953 165.6406,381.6094 Q165.4844,381.4453 165.2031,381.3516 Q164.9219,381.25 164.6406,381.25 Q164.2891,381.25 163.9922,381.3906 Q163.7031,381.5313 163.4766,381.8438 Q163.25,382.1563 163.25,382.5859 L163.25,383.0469 Q163.25,383.5625 163.6719,383.9063 Q164.0938,384.25 164.8438,384.25 Q165.2891,384.25 165.6016,384.1484 Q165.7813,384.0938 165.9844,383.9141 Q166.1172,383.8125 166.1875,383.7813 Q166.2578,383.75 166.3438,383.75 Q166.5078,383.75 166.625,383.8828 Q166.75,384.0078 166.75,384.1875 Q166.75,384.3594 166.5781,384.5625 Q166.3281,384.8594 165.9297,385.0234 Q165.4063,385.25 164.7656,385.25 Q164.0156,385.25 163.4141,384.9531 Q162.9297,384.7188 162.5859,384.2109 Q162.25,383.7031 162.25,383.1016 L162.25,382.5547 Q162.25,381.9297 162.5469,381.3828 Q162.8516,380.8359 163.375,380.5469 Q163.9063,380.25 164.5,380.25 Q164.8594,380.25 165.1719,380.375 Q165.4844,380.5 165.75,380.75 Z " fill="#000000"/><text fill="#000000" font-family="sans-serif" font-size="6" lengthAdjust="spacing" textLength="71" x="171.75" y="384.9551">median_of_three_parition</text><line style="stroke:#A80036;stroke-width:0.75;" x1="157.75" x2="243.75" y1="390.5" y2="390.5"/><text fill="#000000" font-family="sans-serif" font-size="5.5" lengthAdjust="spacing" textLength="23" x="160.25" y="398.2095">partition()</text><!--MD5=[b7fdae1517bfb210dbb895153335cd24]
class operation--><rect codeLine="80" fill="#FEFECE" filter="url(#fax1774pyyo9e)" height="40.7539" id="operation" style="stroke:#A80036;stroke-width:0.75;" width="42" x="367.75" y="226.5"/><ellipse cx="375.25" cy="234.5" fill="#ADD1B2" rx="5.5" ry="5.5" style="stroke:#A80036;stroke-width:0.5;"/><path d="M376.25,232.75 Q376.3516,232.5 376.4688,232.375 Q376.5859,232.25 376.7188,232.25 Q376.9531,232.25 377.1016,232.3906 Q377.25,232.5313 377.25,232.8594 L377.25,233.6406 Q377.25,233.9688 377.1094,234.1094 Q376.9688,234.25 376.75,234.25 Q376.5547,234.25 376.4297,234.1641 Q376.3047,234.0781 376.25,233.8516 Q376.2266,233.6953 376.1406,233.6094 Q375.9844,233.4453 375.7031,233.3516 Q375.4219,233.25 375.1406,233.25 Q374.7891,233.25 374.4922,233.3906 Q374.2031,233.5313 373.9766,233.8438 Q373.75,234.1563 373.75,234.5859 L373.75,235.0469 Q373.75,235.5625 374.1719,235.9063 Q374.5938,236.25 375.3438,236.25 Q375.7891,236.25 376.1016,236.1484 Q376.2813,236.0938 376.4844,235.9141 Q376.6172,235.8125 376.6875,235.7813 Q376.7578,235.75 376.8438,235.75 Q377.0078,235.75 377.125,235.8828 Q377.25,236.0078 377.25,236.1875 Q377.25,236.3594 377.0781,236.5625 Q376.8281,236.8594 376.4297,237.0234 Q375.9063,237.25 375.2656,237.25 Q374.5156,237.25 373.9141,236.9531 Q373.4297,236.7188 373.0859,236.2109 Q372.75,235.7031 372.75,235.1016 L372.75,234.5547 Q372.75,233.9297 373.0469,233.3828 Q373.3516,232.8359 373.875,232.5469 Q374.4063,232.25 375,232.25 Q375.3594,232.25 375.6719,232.375 Q375.9844,232.5 376.25,232.75 Z " fill="#000000"/><text fill="#000000" font-family="sans-serif" font-size="6" lengthAdjust="spacing" textLength="26" x="382.25" y="236.9551">operation</text><line style="stroke:#A80036;stroke-width:0.75;" x1="368.25" x2="409.25" y1="242.5" y2="242.5"/><text fill="#000000" font-family="sans-serif" font-size="5.5" lengthAdjust="spacing" textLength="27.5" x="370.75" y="250.2095">comparator</text><text fill="#000000" font-family="sans-serif" font-size="5.5" lengthAdjust="spacing" textLength="22" x="370.75" y="257.1274">swapper</text><text fill="#000000" font-family="sans-serif" font-size="5.5" lengthAdjust="spacing" textLength="21" x="370.75" y="264.0454">assigner</text><!--MD5=[5c35c4919802d06e0359645225c0c6b3]
class comparator--><rect codeLine="87" fill="#FEFECE" filter="url(#fax1774pyyo9e)" height="16" id="comparator" style="stroke:#A80036;stroke-width:0.75;" width="47.5" x="276" y="380"/><ellipse cx="283.5" cy="388" fill="#B4A7E5" rx="5.5" ry="5.5" style="stroke:#A80036;stroke-width:0.5;"/><path d="M284,386.5 L284,389.5 L285,389.5 L285.2422,389.5 L285.5,389.8125 L285.5,390 L285.5,390.1875 L285.2422,390.5 L285,390.5 L282,390.5 L281.7578,390.5 L281.5,390.1875 L281.5,390 L281.5,389.8125 L281.7578,389.5 L282,389.5 L283,389.5 L283,386.5 L282,386.5 L281.7578,386.5 L281.5,386.1875 L281.5,386 L281.5,385.8125 L281.7578,385.5 L282,385.5 L285,385.5 L285.2422,385.5 L285.5,385.8125 L285.5,386 L285.5,386.1875 L285.2422,386.5 L285,386.5 L284,386.5 Z " fill="#000000"/><text fill="#000000" font-family="sans-serif" font-size="6" font-style="italic" lengthAdjust="spacing" textLength="31.5" x="290.5" y="390.4551">comparator</text><!--MD5=[01ff14c9840a7a6e953a5dede1e1306f]
class simple_comparator--><rect fill="#FEFECE" filter="url(#fax1774pyyo9e)" height="16" id="simple_comparator" style="stroke:#A80036;stroke-width:0.75;" width="70" x="179.25" y="431.5"/><ellipse cx="186.75" cy="439.5" fill="#ADD1B2" rx="5.5" ry="5.5" style="stroke:#A80036;stroke-width:0.5;"/><path d="M187.75,437.75 Q187.8516,437.5 187.9688,437.375 Q188.0859,437.25 188.2188,437.25 Q188.4531,437.25 188.6016,437.3906 Q188.75,437.5313 188.75,437.8594 L188.75,438.6406 Q188.75,438.9688 188.6094,439.1094 Q188.4688,439.25 188.25,439.25 Q188.0547,439.25 187.9297,439.1641 Q187.8047,439.0781 187.75,438.8516 Q187.7266,438.6953 187.6406,438.6094 Q187.4844,438.4453 187.2031,438.3516 Q186.9219,438.25 186.6406,438.25 Q186.2891,438.25 185.9922,438.3906 Q185.7031,438.5313 185.4766,438.8438 Q185.25,439.1563 185.25,439.5859 L185.25,440.0469 Q185.25,440.5625 185.6719,440.9063 Q186.0938,441.25 186.8438,441.25 Q187.2891,441.25 187.6016,441.1484 Q187.7813,441.0938 187.9844,440.9141 Q188.1172,440.8125 188.1875,440.7813 Q188.2578,440.75 188.3438,440.75 Q188.5078,440.75 188.625,440.8828 Q188.75,441.0078 188.75,441.1875 Q188.75,441.3594 188.5781,441.5625 Q188.3281,441.8594 187.9297,442.0234 Q187.4063,442.25 186.7656,442.25 Q186.0156,442.25 185.4141,441.9531 Q184.9297,441.7188 184.5859,441.2109 Q184.25,440.7031 184.25,440.1016 L184.25,439.5547 Q184.25,438.9297 184.5469,438.3828 Q184.8516,437.8359 185.375,437.5469 Q185.9063,437.25 186.5,437.25 Q186.8594,437.25 187.1719,437.375 Q187.4844,437.5 187.75,437.75 Z " fill="#000000"/><text fill="#000000" font-family="sans-serif" font-size="6" lengthAdjust="spacing" textLength="54" x="193.75" y="441.9551">simple_comparator</text><!--MD5=[b233a2bc55cf6d2614604432e6c87c10]
class count_comparator--><rect fill="#FEFECE" filter="url(#fax1774pyyo9e)" height="16" id="count_comparator" style="stroke:#A80036;stroke-width:0.75;" width="66" x="266.75" y="431.5"/><ellipse cx="274.25" cy="439.5" fill="#ADD1B2" rx="5.5" ry="5.5" style="stroke:#A80036;stroke-width:0.5;"/><path d="M275.25,437.75 Q275.3516,437.5 275.4688,437.375 Q275.5859,437.25 275.7188,437.25 Q275.9531,437.25 276.1016,437.3906 Q276.25,437.5313 276.25,437.8594 L276.25,438.6406 Q276.25,438.9688 276.1094,439.1094 Q275.9688,439.25 275.75,439.25 Q275.5547,439.25 275.4297,439.1641 Q275.3047,439.0781 275.25,438.8516 Q275.2266,438.6953 275.1406,438.6094 Q274.9844,438.4453 274.7031,438.3516 Q274.4219,438.25 274.1406,438.25 Q273.7891,438.25 273.4922,438.3906 Q273.2031,438.5313 272.9766,438.8438 Q272.75,439.1563 272.75,439.5859 L272.75,440.0469 Q272.75,440.5625 273.1719,440.9063 Q273.5938,441.25 274.3438,441.25 Q274.7891,441.25 275.1016,441.1484 Q275.2813,441.0938 275.4844,440.9141 Q275.6172,440.8125 275.6875,440.7813 Q275.7578,440.75 275.8438,440.75 Q276.0078,440.75 276.125,440.8828 Q276.25,441.0078 276.25,441.1875 Q276.25,441.3594 276.0781,441.5625 Q275.8281,441.8594 275.4297,442.0234 Q274.9063,442.25 274.2656,442.25 Q273.5156,442.25 272.9141,441.9531 Q272.4297,441.7188 272.0859,441.2109 Q271.75,440.7031 271.75,440.1016 L271.75,439.5547 Q271.75,438.9297 272.0469,438.3828 Q272.3516,437.8359 272.875,437.5469 Q273.4063,437.25 274,437.25 Q274.3594,437.25 274.6719,437.375 Q274.9844,437.5 275.25,437.75 Z " fill="#000000"/><text fill="#000000" font-family="sans-serif" font-size="6" lengthAdjust="spacing" textLength="50" x="281.25" y="441.9551">count_comparator</text><!--MD5=[ad9b6268ce3093b287e8eaea7ef1643f]
class swapper--><rect codeLine="92" fill="#FEFECE" filter="url(#fax1774pyyo9e)" height="16" id="swapper" style="stroke:#A80036;stroke-width:0.75;" width="39" x="369.25" y="380"/><ellipse cx="376.75" cy="388" fill="#B4A7E5" rx="5.5" ry="5.5" style="stroke:#A80036;stroke-width:0.5;"/><path d="M377.25,386.5 L377.25,389.5 L378.25,389.5 L378.4922,389.5 L378.75,389.8125 L378.75,390 L378.75,390.1875 L378.4922,390.5 L378.25,390.5 L375.25,390.5 L375.0078,390.5 L374.75,390.1875 L374.75,390 L374.75,389.8125 L375.0078,389.5 L375.25,389.5 L376.25,389.5 L376.25,386.5 L375.25,386.5 L375.0078,386.5 L374.75,386.1875 L374.75,386 L374.75,385.8125 L375.0078,385.5 L375.25,385.5 L378.25,385.5 L378.4922,385.5 L378.75,385.8125 L378.75,386 L378.75,386.1875 L378.4922,386.5 L378.25,386.5 L377.25,386.5 Z " fill="#000000"/><text fill="#000000" font-family="sans-serif" font-size="6" font-style="italic" lengthAdjust="spacing" textLength="23" x="383.75" y="390.4551">swapper</text><!--MD5=[a3ba81e601e15fb5dcfec92b9c7ad95b]
class simple_swapper--><rect fill="#FEFECE" filter="url(#fax1774pyyo9e)" height="16" id="simple_swapper" style="stroke:#A80036;stroke-width:0.75;" width="62.5" x="350.5" y="431.5"/><ellipse cx="358" cy="439.5" fill="#ADD1B2" rx="5.5" ry="5.5" style="stroke:#A80036;stroke-width:0.5;"/><path d="M359,437.75 Q359.1016,437.5 359.2188,437.375 Q359.3359,437.25 359.4688,437.25 Q359.7031,437.25 359.8516,437.3906 Q360,437.5313 360,437.8594 L360,438.6406 Q360,438.9688 359.8594,439.1094 Q359.7188,439.25 359.5,439.25 Q359.3047,439.25 359.1797,439.1641 Q359.0547,439.0781 359,438.8516 Q358.9766,438.6953 358.8906,438.6094 Q358.7344,438.4453 358.4531,438.3516 Q358.1719,438.25 357.8906,438.25 Q357.5391,438.25 357.2422,438.3906 Q356.9531,438.5313 356.7266,438.8438 Q356.5,439.1563 356.5,439.5859 L356.5,440.0469 Q356.5,440.5625 356.9219,440.9063 Q357.3438,441.25 358.0938,441.25 Q358.5391,441.25 358.8516,441.1484 Q359.0313,441.0938 359.2344,440.9141 Q359.3672,440.8125 359.4375,440.7813 Q359.5078,440.75 359.5938,440.75 Q359.7578,440.75 359.875,440.8828 Q360,441.0078 360,441.1875 Q360,441.3594 359.8281,441.5625 Q359.5781,441.8594 359.1797,442.0234 Q358.6563,442.25 358.0156,442.25 Q357.2656,442.25 356.6641,441.9531 Q356.1797,441.7188 355.8359,441.2109 Q355.5,440.7031 355.5,440.1016 L355.5,439.5547 Q355.5,438.9297 355.7969,438.3828 Q356.1016,437.8359 356.625,437.5469 Q357.1563,437.25 357.75,437.25 Q358.1094,437.25 358.4219,437.375 Q358.7344,437.5 359,437.75 Z " fill="#000000"/><text fill="#000000" font-family="sans-serif" font-size="6" lengthAdjust="spacing" textLength="46.5" x="365" y="441.9551">simple_swapper</text><!--MD5=[406d5afb16f5308fb4202a3596de5a99]
class count_swapper--><rect fill="#FEFECE" filter="url(#fax1774pyyo9e)" height="16" id="count_swapper" style="stroke:#A80036;stroke-width:0.75;" width="58.5" x="430.5" y="431.5"/><ellipse cx="438" cy="439.5" fill="#ADD1B2" rx="5.5" ry="5.5" style="stroke:#A80036;stroke-width:0.5;"/><path d="M439,437.75 Q439.1016,437.5 439.2188,437.375 Q439.3359,437.25 439.4688,437.25 Q439.7031,437.25 439.8516,437.3906 Q440,437.5313 440,437.8594 L440,438.6406 Q440,438.9688 439.8594,439.1094 Q439.7188,439.25 439.5,439.25 Q439.3047,439.25 439.1797,439.1641 Q439.0547,439.0781 439,438.8516 Q438.9766,438.6953 438.8906,438.6094 Q438.7344,438.4453 438.4531,438.3516 Q438.1719,438.25 437.8906,438.25 Q437.5391,438.25 437.2422,438.3906 Q436.9531,438.5313 436.7266,438.8438 Q436.5,439.1563 436.5,439.5859 L436.5,440.0469 Q436.5,440.5625 436.9219,440.9063 Q437.3438,441.25 438.0938,441.25 Q438.5391,441.25 438.8516,441.1484 Q439.0313,441.0938 439.2344,440.9141 Q439.3672,440.8125 439.4375,440.7813 Q439.5078,440.75 439.5938,440.75 Q439.7578,440.75 439.875,440.8828 Q440,441.0078 440,441.1875 Q440,441.3594 439.8281,441.5625 Q439.5781,441.8594 439.1797,442.0234 Q438.6563,442.25 438.0156,442.25 Q437.2656,442.25 436.6641,441.9531 Q436.1797,441.7188 435.8359,441.2109 Q435.5,440.7031 435.5,440.1016 L435.5,439.5547 Q435.5,438.9297 435.7969,438.3828 Q436.1016,437.8359 436.625,437.5469 Q437.1563,437.25 437.75,437.25 Q438.1094,437.25 438.4219,437.375 Q438.7344,437.5 439,437.75 Z " fill="#000000"/><text fill="#000000" font-family="sans-serif" font-size="6" lengthAdjust="spacing" textLength="42.5" x="445" y="441.9551">count_swapper</text><!--MD5=[6a426cf3e34ff15b89f59f115799c568]
class assigner--><rect codeLine="97" fill="#FEFECE" filter="url(#fax1774pyyo9e)" height="16" id="assigner" style="stroke:#A80036;stroke-width:0.75;" width="39.5" x="518.5" y="380"/><ellipse cx="526" cy="388" fill="#B4A7E5" rx="5.5" ry="5.5" style="stroke:#A80036;stroke-width:0.5;"/><path d="M526.5,386.5 L526.5,389.5 L527.5,389.5 L527.7422,389.5 L528,389.8125 L528,390 L528,390.1875 L527.7422,390.5 L527.5,390.5 L524.5,390.5 L524.2578,390.5 L524,390.1875 L524,390 L524,389.8125 L524.2578,389.5 L524.5,389.5 L525.5,389.5 L525.5,386.5 L524.5,386.5 L524.2578,386.5 L524,386.1875 L524,386 L524,385.8125 L524.2578,385.5 L524.5,385.5 L527.5,385.5 L527.7422,385.5 L528,385.8125 L528,386 L528,386.1875 L527.7422,386.5 L527.5,386.5 L526.5,386.5 Z " fill="#000000"/><text fill="#000000" font-family="sans-serif" font-size="6" font-style="italic" lengthAdjust="spacing" textLength="23.5" x="533" y="390.4551">assigner</text><!--MD5=[583f32441376f8217fe39ae2b452482d]
class simple_assigner--><rect fill="#FEFECE" filter="url(#fax1774pyyo9e)" height="16" id="simple_assigner" style="stroke:#A80036;stroke-width:0.75;" width="63" x="506.75" y="431.5"/><ellipse cx="514.25" cy="439.5" fill="#ADD1B2" rx="5.5" ry="5.5" style="stroke:#A80036;stroke-width:0.5;"/><path d="M515.25,437.75 Q515.3516,437.5 515.4688,437.375 Q515.5859,437.25 515.7188,437.25 Q515.9531,437.25 516.1016,437.3906 Q516.25,437.5313 516.25,437.8594 L516.25,438.6406 Q516.25,438.9688 516.1094,439.1094 Q515.9688,439.25 515.75,439.25 Q515.5547,439.25 515.4297,439.1641 Q515.3047,439.0781 515.25,438.8516 Q515.2266,438.6953 515.1406,438.6094 Q514.9844,438.4453 514.7031,438.3516 Q514.4219,438.25 514.1406,438.25 Q513.7891,438.25 513.4922,438.3906 Q513.2031,438.5313 512.9766,438.8438 Q512.75,439.1563 512.75,439.5859 L512.75,440.0469 Q512.75,440.5625 513.1719,440.9063 Q513.5938,441.25 514.3438,441.25 Q514.7891,441.25 515.1016,441.1484 Q515.2813,441.0938 515.4844,440.9141 Q515.6172,440.8125 515.6875,440.7813 Q515.7578,440.75 515.8438,440.75 Q516.0078,440.75 516.125,440.8828 Q516.25,441.0078 516.25,441.1875 Q516.25,441.3594 516.0781,441.5625 Q515.8281,441.8594 515.4297,442.0234 Q514.9063,442.25 514.2656,442.25 Q513.5156,442.25 512.9141,441.9531 Q512.4297,441.7188 512.0859,441.2109 Q511.75,440.7031 511.75,440.1016 L511.75,439.5547 Q511.75,438.9297 512.0469,438.3828 Q512.3516,437.8359 512.875,437.5469 Q513.4063,437.25 514,437.25 Q514.3594,437.25 514.6719,437.375 Q514.9844,437.5 515.25,437.75 Z " fill="#000000"/><text fill="#000000" font-family="sans-serif" font-size="6" lengthAdjust="spacing" textLength="47" x="521.25" y="441.9551">simple_assigner</text><!--MD5=[b62d2c65e03453dde8a18fa206e628ab]
class count_assigner--><rect fill="#FEFECE" filter="url(#fax1774pyyo9e)" height="16" id="count_assigner" style="stroke:#A80036;stroke-width:0.75;" width="59" x="587.25" y="431.5"/><ellipse cx="594.75" cy="439.5" fill="#ADD1B2" rx="5.5" ry="5.5" style="stroke:#A80036;stroke-width:0.5;"/><path d="M595.75,437.75 Q595.8516,437.5 595.9688,437.375 Q596.0859,437.25 596.2188,437.25 Q596.4531,437.25 596.6016,437.3906 Q596.75,437.5313 596.75,437.8594 L596.75,438.6406 Q596.75,438.9688 596.6094,439.1094 Q596.4688,439.25 596.25,439.25 Q596.0547,439.25 595.9297,439.1641 Q595.8047,439.0781 595.75,438.8516 Q595.7266,438.6953 595.6406,438.6094 Q595.4844,438.4453 595.2031,438.3516 Q594.9219,438.25 594.6406,438.25 Q594.2891,438.25 593.9922,438.3906 Q593.7031,438.5313 593.4766,438.8438 Q593.25,439.1563 593.25,439.5859 L593.25,440.0469 Q593.25,440.5625 593.6719,440.9063 Q594.0938,441.25 594.8438,441.25 Q595.2891,441.25 595.6016,441.1484 Q595.7813,441.0938 595.9844,440.9141 Q596.1172,440.8125 596.1875,440.7813 Q596.2578,440.75 596.3438,440.75 Q596.5078,440.75 596.625,440.8828 Q596.75,441.0078 596.75,441.1875 Q596.75,441.3594 596.5781,441.5625 Q596.3281,441.8594 595.9297,442.0234 Q595.4063,442.25 594.7656,442.25 Q594.0156,442.25 593.4141,441.9531 Q592.9297,441.7188 592.5859,441.2109 Q592.25,440.7031 592.25,440.1016 L592.25,439.5547 Q592.25,438.9297 592.5469,438.3828 Q592.8516,437.8359 593.375,437.5469 Q593.9063,437.25 594.5,437.25 Q594.8594,437.25 595.1719,437.375 Q595.4844,437.5 595.75,437.75 Z " fill="#000000"/><text fill="#000000" font-family="sans-serif" font-size="6" lengthAdjust="spacing" textLength="43" x="601.75" y="441.9551">count_assigner</text><!--MD5=[2a38fecd9ee8bf218a9bba8e35859ea0]
reverse link engine to unit--><path codeLine="101" d="M308.805,54.875 C305.905,62.76 302.81,71.16 300.125,78.465 " fill="none" id="engine-backto-unit" style="stroke:#A80036;stroke-width:0.5;"/><polygon fill="#FFFFFF" points="311.085,48.69,308.1726,50.8155,309.0144,54.3214,311.9269,52.1959,311.085,48.69" style="stroke:#A80036;stroke-width:0.5;"/><!--MD5=[53ba4a7a3d61ee95579427f733878396]
reverse link engine to invariants--><path codeLine="102" d="M329.715,54.93 C334.5,67.93 339.79,82.31 342.94,90.87 " fill="none" id="engine-backto-invariants" style="stroke:#A80036;stroke-width:0.5;"/><polygon fill="#FFFFFF" points="327.415,48.69,326.5731,52.1959,329.4856,54.3214,330.3274,50.8155,327.415,48.69" style="stroke:#A80036;stroke-width:0.5;"/><!--MD5=[2c298c29dd02b5a60a3f7ebd11e2d366]
reverse link unit to averager--><path codeLine="104" d="M292.75,126.26 C292.75,137.53 292.75,150.13 292.75,159.33 " fill="none" id="unit-backto-averager" style="stroke:#A80036;stroke-width:0.5;"/><polygon fill="#A80036" points="292.75,119.64,290.75,122.64,292.75,125.64,294.75,122.64,292.75,119.64" style="stroke:#A80036;stroke-width:0.5;"/><!--MD5=[156807881e34b15de829e70d63b2e82c]
reverse link unit to executor--><path codeLine="105" d="M310.915,122.765 C320.395,134.905 331.635,149.3 339.58,159.475 " fill="none" id="unit-backto-executor" style="stroke:#A80036;stroke-width:0.5;"/><polygon fill="#A80036" points="306.84,117.545,307.108,121.1406,310.53,122.2761,310.2621,118.6806,306.84,117.545" style="stroke:#A80036;stroke-width:0.5;"/><!--MD5=[84f1a72db9d90b321e4206103b93197e]
reverse link unit to sorting--><path codeLine="106" d="M274.295,120.225 C266.17,129.35 256.59,140.11 248.245,149.485 " fill="none" id="unit-backto-sorting" style="stroke:#A80036;stroke-width:0.5;"/><polygon fill="#A80036" points="278.645,115.34,275.1567,116.2519,274.6568,119.8226,278.1451,118.9107,278.645,115.34" style="stroke:#A80036;stroke-width:0.5;"/><!--MD5=[ecb66277e64221d8f3488b795f17102b]
reverse link sorting to quick_sort--><path codeLine="111" d="M220.75,197 C220.75,197 56.75,226.5 56.75,226.5 C56.75,226.5 51.83,229.675 45.91,233.495 " fill="none" id="sorting-backto-quick_sort" style="stroke:#A80036;stroke-width:0.5;"/><!--MD5=[38875d4a474cd8b7912d590cf1dedf2d]
reverse link sorting to dual_pivot_quick_sort--><path codeLine="112" d="M220.75,197 C220.75,197 150.25,226.5 150.25,226.5 C150.25,226.5 142.87,229.675 133.985,233.495 " fill="none" id="sorting-backto-dual_pivot_quick_sort" style="stroke:#A80036;stroke-width:0.5;"/><!--MD5=[0994713fd4b900e49a430f6deeb78c88]
reverse link sorting to quick_merge_sort--><path codeLine="113" d="M220.75,197 C220.75,197 208.18,218.83 199.74,233.495 " fill="none" id="sorting-backto-quick_merge_sort" style="stroke:#A80036;stroke-width:0.5;"/><!--MD5=[eac7a90925a17bd16818bf3e564cc4d3]
reverse link sorting to intro_sort--><path codeLine="114" d="M220.75,197 C220.75,197 239.71,218.83 252.45,233.495 " fill="none" id="sorting-backto-intro_sort" style="stroke:#A80036;stroke-width:0.5;"/><!--MD5=[2d45d0f7d4b41f58bf51f6f022278773]
reverse link sorting to merge_sort--><path codeLine="115" d="M220.75,197 C220.75,197 293.25,226.5 293.25,226.5 C293.25,226.5 298.49,229.675 304.79,233.495 " fill="none" id="sorting-backto-merge_sort" style="stroke:#A80036;stroke-width:0.5;"/><!--MD5=[53626af8a9d92fd70921a57dc43a1bbd]
reverse link quick_sort to partition--><path codeLine="117" d="M45.93,264.83 C57.26,274.56 71.55,286.835 83.83,297.38 " fill="none" id="quick_sort-backto-partition" style="stroke:#A80036;stroke-width:0.5;"/><polygon fill="#FFFFFF" points="40.945,260.55,41.9166,264.0222,45.4954,264.4607,44.5238,260.9886,40.945,260.55" style="stroke:#A80036;stroke-width:0.5;"/><!--MD5=[571db55d4975e3821ef4e65ed28a3c7c]
reverse link dual_pivot_quick_sort to partition--><path codeLine="118" d="M105.63,267.11 C106.525,276.43 107.6,287.645 108.535,297.38 " fill="none" id="dual_pivot_quick_sort-backto-partition" style="stroke:#A80036;stroke-width:0.5;"/><polygon fill="#FFFFFF" points="105,260.55,103.2959,263.7274,105.5735,266.5225,107.2776,263.3451,105,260.55" style="stroke:#A80036;stroke-width:0.5;"/><!--MD5=[5df7674ae420264175e22f5018368eef]
reverse link quick_merge_sort to partition--><path codeLine="119" d="M172.755,264.96 C161.915,274.675 148.28,286.885 136.56,297.38 " fill="none" id="quick_merge_sort-backto-partition" style="stroke:#A80036;stroke-width:0.5;"/><polygon fill="#FFFFFF" points="177.68,260.55,174.1112,261.0636,173.2127,264.5554,176.7815,264.0418,177.68,260.55" style="stroke:#A80036;stroke-width:0.5;"/><!--MD5=[ab38684108c75bb2023b2b155c3d5387]
reverse link intro_sort to partition--><path codeLine="120" d="M238.83,264.115 C235.8,266.135 233.75,267.5 233.75,267.5 C233.75,267.5 176.27,292.265 139.9,307.94 " fill="none" id="intro_sort-backto-partition" style="stroke:#A80036;stroke-width:0.5;"/><polygon fill="#FFFFFF" points="244.245,260.505,240.6394,260.5061,239.2537,263.8347,242.8593,263.8336,244.245,260.505" style="stroke:#A80036;stroke-width:0.5;"/><!--MD5=[c6d8a3b6d45ea66e69756df1463bda1a]
reverse link partition to lemuto_partition--><path codeLine="122" d="M111.25,345 C111.25,345 80.605,361.915 57.98,374.4 " fill="none" id="partition-backto-lemuto_partition" style="stroke:#A80036;stroke-width:0.5;"/><!--MD5=[c82b6fd2248cd4cf82d87dad6b496945]
reverse link partition to hoare_partition--><path codeLine="123" d="M111.25,345 C111.25,345 111.05,361.81 110.905,374.285 " fill="none" id="partition-backto-hoare_partition" style="stroke:#A80036;stroke-width:0.5;"/><!--MD5=[ad23157edef8d69fc6225db2d8e7cdd5]
reverse link partition to median_of_three_parition--><path codeLine="124" d="M111.25,345 C111.25,345 146.87,361.915 173.165,374.4 " fill="none" id="partition-backto-median_of_three_parition" style="stroke:#A80036;stroke-width:0.5;"/><!--MD5=[fb4c5716c51417f1184d9baa2f41622a]
reverse link sorting to operation--><path codeLine="127" d="M260.665,194.53 C262.58,195.755 263.75,196.5 263.75,196.5 C263.75,196.5 358.75,226.5 358.75,226.5 C358.75,226.5 362.625,229.085 367.59,232.39 " fill="none" id="sorting-backto-operation" style="stroke:#A80036;stroke-width:0.5;"/><polygon fill="#A80036" points="255.035,190.93,256.4864,194.2305,260.0913,194.1602,258.6399,190.8597,255.035,190.93" style="stroke:#A80036;stroke-width:0.5;"/><!--MD5=[3a2d2deea1b0392be9175952f2320cba]
reverse link operation to comparator--><path codeLine="128" d="M372.43,273.175 C351.735,305.73 317.225,360.015 304.58,379.9 " fill="none" id="operation-backto-comparator" style="stroke:#A80036;stroke-width:0.5;"/><polygon fill="#A80036" points="376,267.56,372.703,269.0195,372.7822,272.6241,376.0791,271.1647,376,267.56" style="stroke:#A80036;stroke-width:0.5;"/><!--MD5=[00f95100769494c2df9f15052dc6bc0a]
reverse link operation to swapper--><path codeLine="129" d="M388.75,274.195 C388.75,306.85 388.75,360.22 388.75,379.9 " fill="none" id="operation-backto-swapper" style="stroke:#A80036;stroke-width:0.5;"/><polygon fill="#A80036" points="388.75,267.56,386.75,270.56,388.75,273.56,390.75,270.56,388.75,267.56" style="stroke:#A80036;stroke-width:0.5;"/><!--MD5=[1ecf172383f769767f649106253ba2ab]
reverse link operation to assigner--><path codeLine="130" d="M414.765,271.865 C449.33,304.23 508.54,359.675 530.095,379.865 " fill="none" id="operation-backto-assigner" style="stroke:#A80036;stroke-width:0.5;"/><polygon fill="#A80036" points="409.855,267.26,410.6771,270.7706,414.2339,271.3619,413.4117,267.8513,409.855,267.26" style="stroke:#A80036;stroke-width:0.5;"/><!--MD5=[b71303bbc47bd808e266a0ab12cc7133]
reverse link comparator to simple_comparator--><path codeLine="132" d="M278.17,401.245 C262.025,410.785 240.49,423.5 227,431.47 " fill="none" id="comparator-backto-simple_comparator" style="stroke:#A80036;stroke-width:0.5;stroke-dasharray:7.0,7.0;"/><polygon fill="none" points="276.56,398.13,286.95,396.06,280.12,404.16,276.56,398.13" style="stroke:#A80036;stroke-width:0.5;"/><!--MD5=[f18a9ff7b9125f75e9d0408684f5dfd3]
reverse link comparator to count_comparator--><path codeLine="133" d="M299.75,406.23 C299.75,414.86 299.75,424.78 299.75,431.425 " fill="none" id="comparator-backto-count_comparator" style="stroke:#A80036;stroke-width:0.5;stroke-dasharray:7.0,7.0;"/><polygon fill="none" points="296.25,406.17,299.75,396.17,303.25,406.17,296.25,406.17" style="stroke:#A80036;stroke-width:0.5;"/><!--MD5=[1c0e2d6f9e5d546a4c94a2b7a3c362bb]
reverse link swapper to simple_swapper--><path codeLine="134" d="M386.315,406.085 C385.11,414.745 383.725,424.74 382.8,431.425 " fill="none" id="swapper-backto-simple_swapper" style="stroke:#A80036;stroke-width:0.5;stroke-dasharray:7.0,7.0;"/><polygon fill="none" points="382.845,405.595,387.685,396.17,389.78,406.555,382.845,405.595" style="stroke:#A80036;stroke-width:0.5;"/><!--MD5=[611b8d4560018aba4a4a0640c7ea4000]
reverse link swapper to count_swapper--><path codeLine="135" d="M407.595,401.9 C420.84,411.325 438.09,423.595 449.05,431.39 " fill="none" id="swapper-backto-count_swapper" style="stroke:#A80036;stroke-width:0.5;stroke-dasharray:7.0,7.0;"/><polygon fill="none" points="405.5,404.71,399.38,396.06,409.555,399.005,405.5,404.71" style="stroke:#A80036;stroke-width:0.5;"/><!--MD5=[66216308ddf6a9e8514a2ba56d1eedf4]
reverse link assigner to simple_assigner--><path codeLine="136" d="M538.25,406.23 C538.25,414.86 538.25,424.78 538.25,431.425 " fill="none" id="assigner-backto-simple_assigner" style="stroke:#A80036;stroke-width:0.5;stroke-dasharray:7.0,7.0;"/><polygon fill="none" points="534.75,406.17,538.25,396.17,541.75,406.17,534.75,406.17" style="stroke:#A80036;stroke-width:0.5;"/><!--MD5=[647334cf68506b483d3b34736c20a485]
reverse link assigner to count_assigner--><path codeLine="137" d="M558.48,401.515 C573.255,411.02 592.775,423.575 605.045,431.47 " fill="none" id="assigner-backto-count_assigner" style="stroke:#A80036;stroke-width:0.5;stroke-dasharray:7.0,7.0;"/><polygon fill="none" points="556.52,404.415,550,396.06,560.305,398.525,556.52,404.415" style="stroke:#A80036;stroke-width:0.5;"/><!--MD5=[f0298ebf308ab7b205500f006aefa983]
@startuml
'!include styles/card-style.puml

hide unit methods
class unit {
	executor
	sorting
	averager
}

hide invariants members
class invariants

class engine {
	List<unit> units
	invariants
	test()
}

hide sorting fields
interface sorting {
	sort()
}

hide averager fields
class averager {
	average()
}

hide executor fields
class executor {
	execute()
}

hide quick_sort fields
class quick_sort {
	sort()
}

hide dual_pivot_quick_sort fields
class dual_pivot_quick_sort {
	sort()
}

hide quick_merge_sort fields
class quick_merge_sort {
	sort()
}

hide intro_sort fields
class intro_sort {
	sort()
}

hide merge_sort fields
class merge_sort {
	sort()
}

hide partition fields
interface partition {
	partition()
}

hide lemuto_partition fields
class lemuto_partition {
	partition()
}

hide hoare_partition fields
class hoare_partition {
	partition()
}

hide median_of_three_parition fields
class median_of_three_parition {
	partition()
}

hide operation methods
class operation {
	comparator
	swapper
	assigner
}

hide comparator members
interface comparator
hide simple_comparator members
hide count_comparator members

hide swapper members
interface swapper
hide simple_swapper members
hide count_swapper members

hide assigner members
interface assigner
hide simple_assigner members
hide count_assigner members

engine o- - unit
engine o- - invariants

unit *- - averager
unit *- - executor
unit *- - sorting

skinparam groupInheritance 3
skinparam linetype polyline

sorting <|.. quick_sort
sorting <|.. dual_pivot_quick_sort
sorting <|.. quick_merge_sort
sorting <|.. intro_sort
sorting <|.. merge_sort

quick_sort o- - partition
dual_pivot_quick_sort o- - partition
quick_merge_sort o- - partition
intro_sort o- - partition

partition <|.. lemuto_partition
partition <|.. hoare_partition
partition <|.. median_of_three_parition


sorting *- - operation
operation *- - - comparator
operation *- - - swapper
operation *- - - assigner

comparator <|.. simple_comparator
comparator <|.. count_comparator
swapper <|.. simple_swapper
swapper <|.. count_swapper
assigner <|.. simple_assigner
assigner <|.. count_assigner

@enduml

@startuml

hide unit methods
class unit {
	executor
	sorting
	averager
}

hide invariants members
class invariants

class engine {
	List<unit> units
	invariants
	test()
}

hide sorting fields
interface sorting {
	sort()
}

hide averager fields
class averager {
	average()
}

hide executor fields
class executor {
	execute()
}

hide quick_sort fields
class quick_sort {
	sort()
}

hide dual_pivot_quick_sort fields
class dual_pivot_quick_sort {
	sort()
}

hide quick_merge_sort fields
class quick_merge_sort {
	sort()
}

hide intro_sort fields
class intro_sort {
	sort()
}

hide merge_sort fields
class merge_sort {
	sort()
}

hide partition fields
interface partition {
	partition()
}

hide lemuto_partition fields
class lemuto_partition {
	partition()
}

hide hoare_partition fields
class hoare_partition {
	partition()
}

hide median_of_three_parition fields
class median_of_three_parition {
	partition()
}

hide operation methods
class operation {
	comparator
	swapper
	assigner
}

hide comparator members
interface comparator
hide simple_comparator members
hide count_comparator members

hide swapper members
interface swapper
hide simple_swapper members
hide count_swapper members

hide assigner members
interface assigner
hide simple_assigner members
hide count_assigner members

engine o- - unit
engine o- - invariants

unit *- - averager
unit *- - executor
unit *- - sorting

skinparam groupInheritance 3
skinparam linetype polyline

sorting <|.. quick_sort
sorting <|.. dual_pivot_quick_sort
sorting <|.. quick_merge_sort
sorting <|.. intro_sort
sorting <|.. merge_sort

quick_sort o- - partition
dual_pivot_quick_sort o- - partition
quick_merge_sort o- - partition
intro_sort o- - partition

partition <|.. lemuto_partition
partition <|.. hoare_partition
partition <|.. median_of_three_parition


sorting *- - operation
operation *- - - comparator
operation *- - - swapper
operation *- - - assigner

comparator <|.. simple_comparator
comparator <|.. count_comparator
swapper <|.. simple_swapper
swapper <|.. count_swapper
assigner <|.. simple_assigner
assigner <|.. count_assigner

@enduml

PlantUML version 1.2021.11(Sat Oct 02 15:26:11 CEST 2021)
(GPL source distribution)
Java Runtime: OpenJDK Runtime Environment
JVM: OpenJDK 64-Bit Server VM
Default Encoding: Cp1250
Language: pl
Country: PL
--></g></svg>