<?xml version="1.0" encoding="UTF-8" standalone="no"?><svg xmlns="http://www.w3.org/2000/svg" xmlns:xlink="http://www.w3.org/1999/xlink" contentScriptType="application/ecmascript" contentStyleType="text/css" height="695.2px" preserveAspectRatio="none" style="width:948px;height:695px;background:#FFFFFF;" version="1.1" viewBox="0 0 948 695" width="948px" zoomAndPan="magnify"><defs><filter height="300%" id="fj2ro3ideu2o7" width="300%" x="-1" y="-1"><feGaussianBlur result="blurOut" stdDeviation="1.6000000000000003"/><feColorMatrix in="blurOut" result="blurOut2" type="matrix" values="0 0 0 0 0 0 0 0 0 0 0 0 0 0 0 0 0 0 .4 0"/><feOffset dx="3.2000000000000006" dy="3.2000000000000006" in="blurOut2" result="blurOut3"/><feBlend in="SourceGraphic" in2="blurOut3" mode="normal"/></filter></defs><g><!--MD5=[71453aad0c321cc4e5ffc62c5a278467]
class unit--><rect codeLine="4" fill="#FEFECE" filter="url(#fj2ro3ideu2o7)" height="65.2063" id="unit" style="stroke:#A80036;stroke-width:1.2000000000000002;" width="47.2" x="446.4" y="125.6"/><ellipse cx="460.92" cy="138.4" fill="#ADD1B2" rx="8.8" ry="8.8" style="stroke:#A80036;stroke-width:0.8000000000000002;"/><path d="M462.52,135.6 Q462.6825,135.2 462.87,135 Q463.0575,134.8 463.27,134.8 Q463.645,134.8 463.8825,135.025 Q464.12,135.25 464.12,135.775 L464.12,137.025 Q464.12,137.55 463.895,137.775 Q463.67,138 463.32,138 Q463.0075,138 462.8075,137.8625 Q462.6075,137.725 462.52,137.3625 Q462.4825,137.1125 462.345,136.975 Q462.095,136.7125 461.645,136.5625 Q461.195,136.4 460.745,136.4 Q460.1825,136.4 459.7075,136.625 Q459.245,136.85 458.8825,137.35 Q458.52,137.85 458.52,138.5375 L458.52,139.275 Q458.52,140.1 459.195,140.65 Q459.87,141.2 461.07,141.2 Q461.7825,141.2 462.2825,141.0375 Q462.57,140.95 462.895,140.6625 Q463.1075,140.5 463.22,140.45 Q463.3325,140.4 463.47,140.4 Q463.7325,140.4 463.92,140.6125 Q464.12,140.8125 464.12,141.1 Q464.12,141.375 463.845,141.7 Q463.445,142.175 462.8075,142.4375 Q461.97,142.8 460.945,142.8 Q459.745,142.8 458.7825,142.325 Q458.0075,141.95 457.4575,141.1375 Q456.92,140.325 456.92,139.3625 L456.92,138.4875 Q456.92,137.4875 457.395,136.6125 Q457.8825,135.7375 458.72,135.275 Q459.57,134.8 460.52,134.8 Q461.095,134.8 461.595,135 Q462.095,135.2 462.52,135.6 Z " fill="#000000"/><text fill="#000000" font-family="sans-serif" font-size="9.6" lengthAdjust="spacing" textLength="16" x="472.68" y="142.3281">unit</text><line style="stroke:#A80036;stroke-width:1.2000000000000002;" x1="447.2" x2="492.8" y1="151.2" y2="151.2"/><text fill="#000000" font-family="sans-serif" font-size="8.8" lengthAdjust="spacing" textLength="34.4" x="451.2" y="163.5352">executor</text><text fill="#000000" font-family="sans-serif" font-size="8.8" lengthAdjust="spacing" textLength="26.4" x="451.2" y="174.6039">sorting</text><text fill="#000000" font-family="sans-serif" font-size="8.8" lengthAdjust="spacing" textLength="37.6" x="451.2" y="185.6727">generator</text><!--MD5=[6d7fd4309facb33f738399fe9734b47b]
class invariants--><rect codeLine="11" fill="#FEFECE" filter="url(#fj2ro3ideu2o7)" height="25.6" id="invariants" style="stroke:#A80036;stroke-width:1.2000000000000002;" width="68" x="521.6" y="145.6"/><ellipse cx="533.6" cy="158.4" fill="#ADD1B2" rx="8.8" ry="8.8" style="stroke:#A80036;stroke-width:0.8000000000000002;"/><path d="M535.2,155.6 Q535.3625,155.2 535.55,155 Q535.7375,154.8 535.95,154.8 Q536.325,154.8 536.5625,155.025 Q536.8,155.25 536.8,155.775 L536.8,157.025 Q536.8,157.55 536.575,157.775 Q536.35,158 536,158 Q535.6875,158 535.4875,157.8625 Q535.2875,157.725 535.2,157.3625 Q535.1625,157.1125 535.025,156.975 Q534.775,156.7125 534.325,156.5625 Q533.875,156.4 533.425,156.4 Q532.8625,156.4 532.3875,156.625 Q531.925,156.85 531.5625,157.35 Q531.2,157.85 531.2,158.5375 L531.2,159.275 Q531.2,160.1 531.875,160.65 Q532.55,161.2 533.75,161.2 Q534.4625,161.2 534.9625,161.0375 Q535.25,160.95 535.575,160.6625 Q535.7875,160.5 535.9,160.45 Q536.0125,160.4 536.15,160.4 Q536.4125,160.4 536.6,160.6125 Q536.8,160.8125 536.8,161.1 Q536.8,161.375 536.525,161.7 Q536.125,162.175 535.4875,162.4375 Q534.65,162.8 533.625,162.8 Q532.425,162.8 531.4625,162.325 Q530.6875,161.95 530.1375,161.1375 Q529.6,160.325 529.6,159.3625 L529.6,158.4875 Q529.6,157.4875 530.075,156.6125 Q530.5625,155.7375 531.4,155.275 Q532.25,154.8 533.2,154.8 Q533.775,154.8 534.275,155 Q534.775,155.2 535.2,155.6 Z " fill="#000000"/><text fill="#000000" font-family="sans-serif" font-size="9.6" lengthAdjust="spacing" textLength="42.4" x="544.8" y="162.3281">invariants</text><!--MD5=[664cc1e260bbfa7de9aceea3ddb26b22]
class engine--><rect codeLine="13" fill="#FEFECE" filter="url(#fj2ro3ideu2o7)" height="71.6063" id="engine" style="stroke:#A80036;stroke-width:1.2000000000000002;" width="67.2" x="478.8" y="5.6"/><ellipse cx="495.84" cy="18.4" fill="#ADD1B2" rx="8.8" ry="8.8" style="stroke:#A80036;stroke-width:0.8000000000000002;"/><path d="M497.44,15.6 Q497.6025,15.2 497.79,15 Q497.9775,14.8 498.19,14.8 Q498.565,14.8 498.8025,15.025 Q499.04,15.25 499.04,15.775 L499.04,17.025 Q499.04,17.55 498.815,17.775 Q498.59,18 498.24,18 Q497.9275,18 497.7275,17.8625 Q497.5275,17.725 497.44,17.3625 Q497.4025,17.1125 497.265,16.975 Q497.015,16.7125 496.565,16.5625 Q496.115,16.4 495.665,16.4 Q495.1025,16.4 494.6275,16.625 Q494.165,16.85 493.8025,17.35 Q493.44,17.85 493.44,18.5375 L493.44,19.275 Q493.44,20.1 494.115,20.65 Q494.79,21.2 495.99,21.2 Q496.7025,21.2 497.2025,21.0375 Q497.49,20.95 497.815,20.6625 Q498.0275,20.5 498.14,20.45 Q498.2525,20.4 498.39,20.4 Q498.6525,20.4 498.84,20.6125 Q499.04,20.8125 499.04,21.1 Q499.04,21.375 498.765,21.7 Q498.365,22.175 497.7275,22.4375 Q496.89,22.8 495.865,22.8 Q494.665,22.8 493.7025,22.325 Q492.9275,21.95 492.3775,21.1375 Q491.84,20.325 491.84,19.3625 L491.84,18.4875 Q491.84,17.4875 492.315,16.6125 Q492.8025,15.7375 493.64,15.275 Q494.49,14.8 495.44,14.8 Q496.015,14.8 496.515,15 Q497.015,15.2 497.44,15.6 Z " fill="#000000"/><text fill="#000000" font-family="sans-serif" font-size="9.6" lengthAdjust="spacing" textLength="30.4" x="508.16" y="22.3281">engine</text><line style="stroke:#A80036;stroke-width:1.2000000000000002;" x1="479.6" x2="545.2" y1="31.2" y2="31.2"/><text fill="#000000" font-family="sans-serif" font-size="8.8" lengthAdjust="spacing" textLength="57.6" x="483.6" y="43.5352">List&lt;unit&gt; units</text><text fill="#000000" font-family="sans-serif" font-size="8.8" lengthAdjust="spacing" textLength="37.6" x="483.6" y="54.6039">invariants</text><line style="stroke:#A80036;stroke-width:1.2000000000000002;" x1="479.6" x2="545.2" y1="59.7375" y2="59.7375"/><text fill="#000000" font-family="sans-serif" font-size="8.8" lengthAdjust="spacing" textLength="20.8" x="483.6" y="72.0727">test()</text><!--MD5=[2b25c74531c39e7bc052d661516b47c4]
class sorting--><rect codeLine="20" fill="#FEFECE" filter="url(#fj2ro3ideu2o7)" height="43.0688" id="sorting" style="stroke:#A80036;stroke-width:1.2000000000000002;" width="55.2" x="336.8" y="255.2"/><ellipse cx="348.8" cy="268" fill="#B4A7E5" rx="8.8" ry="8.8" style="stroke:#A80036;stroke-width:0.8000000000000002;"/><path d="M349.6,265.6 L349.6,270.4 L351.2,270.4 L351.5875,270.4 L352,270.9 L352,271.2 L352,271.5 L351.5875,272 L351.2,272 L346.4,272 L346.0125,272 L345.6,271.5 L345.6,271.2 L345.6,270.9 L346.0125,270.4 L346.4,270.4 L348,270.4 L348,265.6 L346.4,265.6 L346.0125,265.6 L345.6,265.1 L345.6,264.8 L345.6,264.5 L346.0125,264 L346.4,264 L351.2,264 L351.5875,264 L352,264.5 L352,264.8 L352,265.1 L351.5875,265.6 L351.2,265.6 L349.6,265.6 Z " fill="#000000"/><text fill="#000000" font-family="sans-serif" font-size="9.6" font-style="italic" lengthAdjust="spacing" textLength="29.6" x="360" y="271.9281">sorting</text><line style="stroke:#A80036;stroke-width:1.2000000000000002;" x1="337.6" x2="391.2" y1="280.8" y2="280.8"/><text fill="#000000" font-family="sans-serif" font-size="8.8" lengthAdjust="spacing" textLength="21.6" x="341.6" y="293.1352">sort()</text><polygon fill="none" points="358.1299,298.2688,359.0336,315.1963,348.2802,312.0653" style="stroke:#A80036;stroke-width:0.8000000000000002;"/><line style="stroke:#A80036;stroke-width:0.8000000000000002;" x1="353.6569" x2="353.2" y1="313.6308" y2="315.2"/><line style="stroke:#A80036;stroke-width:0.8000000000000002;" x1="383.4912" x2="397.832" y1="255.2" y2="239.024"/><line style="stroke:#A80036;stroke-width:0.8000000000000002;" x1="392" x2="417.064" y1="294.8222" y2="311.248"/><!--MD5=[dd71179583cce17ecb14726d47c32e81]
class generator--><rect codeLine="25" fill="#FEFECE" filter="url(#fj2ro3ideu2o7)" height="43.0688" id="generator" style="stroke:#A80036;stroke-width:1.2000000000000002;" width="68" x="436" y="255.2"/><ellipse cx="448" cy="268" fill="#ADD1B2" rx="8.8" ry="8.8" style="stroke:#A80036;stroke-width:0.8000000000000002;"/><path d="M449.6,265.2 Q449.7625,264.8 449.95,264.6 Q450.1375,264.4 450.35,264.4 Q450.725,264.4 450.9625,264.625 Q451.2,264.85 451.2,265.375 L451.2,266.625 Q451.2,267.15 450.975,267.375 Q450.75,267.6 450.4,267.6 Q450.0875,267.6 449.8875,267.4625 Q449.6875,267.325 449.6,266.9625 Q449.5625,266.7125 449.425,266.575 Q449.175,266.3125 448.725,266.1625 Q448.275,266 447.825,266 Q447.2625,266 446.7875,266.225 Q446.325,266.45 445.9625,266.95 Q445.6,267.45 445.6,268.1375 L445.6,268.875 Q445.6,269.7 446.275,270.25 Q446.95,270.8 448.15,270.8 Q448.8625,270.8 449.3625,270.6375 Q449.65,270.55 449.975,270.2625 Q450.1875,270.1 450.3,270.05 Q450.4125,270 450.55,270 Q450.8125,270 451,270.2125 Q451.2,270.4125 451.2,270.7 Q451.2,270.975 450.925,271.3 Q450.525,271.775 449.8875,272.0375 Q449.05,272.4 448.025,272.4 Q446.825,272.4 445.8625,271.925 Q445.0875,271.55 444.5375,270.7375 Q444,269.925 444,268.9625 L444,268.0875 Q444,267.0875 444.475,266.2125 Q444.9625,265.3375 445.8,264.875 Q446.65,264.4 447.6,264.4 Q448.175,264.4 448.675,264.6 Q449.175,264.8 449.6,265.2 Z " fill="#000000"/><text fill="#000000" font-family="sans-serif" font-size="9.6" lengthAdjust="spacing" textLength="42.4" x="459.2" y="271.9281">generator</text><line style="stroke:#A80036;stroke-width:1.2000000000000002;" x1="436.8" x2="503.2" y1="280.8" y2="280.8"/><text fill="#000000" font-family="sans-serif" font-size="8.8" lengthAdjust="spacing" textLength="40.8" x="440.8" y="293.1352">generate()</text><!--MD5=[a01b6a91462222df0d91258901fdd01a]
class executor--><rect codeLine="30" fill="#FEFECE" filter="url(#fj2ro3ideu2o7)" height="43.0688" id="executor" style="stroke:#A80036;stroke-width:1.2000000000000002;" width="62.4" x="532.4" y="255.2"/><ellipse cx="544.4" cy="268" fill="#ADD1B2" rx="8.8" ry="8.8" style="stroke:#A80036;stroke-width:0.8000000000000002;"/><path d="M546,265.2 Q546.1625,264.8 546.35,264.6 Q546.5375,264.4 546.75,264.4 Q547.125,264.4 547.3625,264.625 Q547.6,264.85 547.6,265.375 L547.6,266.625 Q547.6,267.15 547.375,267.375 Q547.15,267.6 546.8,267.6 Q546.4875,267.6 546.2875,267.4625 Q546.0875,267.325 546,266.9625 Q545.9625,266.7125 545.825,266.575 Q545.575,266.3125 545.125,266.1625 Q544.675,266 544.225,266 Q543.6625,266 543.1875,266.225 Q542.725,266.45 542.3625,266.95 Q542,267.45 542,268.1375 L542,268.875 Q542,269.7 542.675,270.25 Q543.35,270.8 544.55,270.8 Q545.2625,270.8 545.7625,270.6375 Q546.05,270.55 546.375,270.2625 Q546.5875,270.1 546.7,270.05 Q546.8125,270 546.95,270 Q547.2125,270 547.4,270.2125 Q547.6,270.4125 547.6,270.7 Q547.6,270.975 547.325,271.3 Q546.925,271.775 546.2875,272.0375 Q545.45,272.4 544.425,272.4 Q543.225,272.4 542.2625,271.925 Q541.4875,271.55 540.9375,270.7375 Q540.4,269.925 540.4,268.9625 L540.4,268.0875 Q540.4,267.0875 540.875,266.2125 Q541.3625,265.3375 542.2,264.875 Q543.05,264.4 544,264.4 Q544.575,264.4 545.075,264.6 Q545.575,264.8 546,265.2 Z " fill="#000000"/><text fill="#000000" font-family="sans-serif" font-size="9.6" lengthAdjust="spacing" textLength="36.8" x="555.6" y="271.9281">executor</text><line style="stroke:#A80036;stroke-width:1.2000000000000002;" x1="533.2" x2="594" y1="280.8" y2="280.8"/><text fill="#000000" font-family="sans-serif" font-size="8.8" lengthAdjust="spacing" textLength="37.6" x="537.2" y="293.1352">execute()</text><!--MD5=[a374dd668a24490351809ae1a67ffbfc]
class quick_sort--><rect codeLine="35" fill="#FEFECE" filter="url(#fj2ro3ideu2o7)" height="43.0688" id="quick_sort" style="stroke:#A80036;stroke-width:1.2000000000000002;" width="71.2" x="5.6" y="373.6"/><ellipse cx="17.6" cy="386.4" fill="#ADD1B2" rx="8.8" ry="8.8" style="stroke:#A80036;stroke-width:0.8000000000000002;"/><path d="M19.2,383.6 Q19.3625,383.2 19.55,383 Q19.7375,382.8 19.95,382.8 Q20.325,382.8 20.5625,383.025 Q20.8,383.25 20.8,383.775 L20.8,385.025 Q20.8,385.55 20.575,385.775 Q20.35,386 20,386 Q19.6875,386 19.4875,385.8625 Q19.2875,385.725 19.2,385.3625 Q19.1625,385.1125 19.025,384.975 Q18.775,384.7125 18.325,384.5625 Q17.875,384.4 17.425,384.4 Q16.8625,384.4 16.3875,384.625 Q15.925,384.85 15.5625,385.35 Q15.2,385.85 15.2,386.5375 L15.2,387.275 Q15.2,388.1 15.875,388.65 Q16.55,389.2 17.75,389.2 Q18.4625,389.2 18.9625,389.0375 Q19.25,388.95 19.575,388.6625 Q19.7875,388.5 19.9,388.45 Q20.0125,388.4 20.15,388.4 Q20.4125,388.4 20.6,388.6125 Q20.8,388.8125 20.8,389.1 Q20.8,389.375 20.525,389.7 Q20.125,390.175 19.4875,390.4375 Q18.65,390.8 17.625,390.8 Q16.425,390.8 15.4625,390.325 Q14.6875,389.95 14.1375,389.1375 Q13.6,388.325 13.6,387.3625 L13.6,386.4875 Q13.6,385.4875 14.075,384.6125 Q14.5625,383.7375 15.4,383.275 Q16.25,382.8 17.2,382.8 Q17.775,382.8 18.275,383 Q18.775,383.2 19.2,383.6 Z " fill="#000000"/><text fill="#000000" font-family="sans-serif" font-size="9.6" lengthAdjust="spacing" textLength="45.6" x="28.8" y="390.3281">quick_sort</text><line style="stroke:#A80036;stroke-width:1.2000000000000002;" x1="6.4" x2="76" y1="399.2" y2="399.2"/><text fill="#000000" font-family="sans-serif" font-size="8.8" lengthAdjust="spacing" textLength="21.6" x="10.4" y="411.5352">sort()</text><!--MD5=[8d7cb87b8737d2a1f7f7e67315dc83e0]
class dual_pivot_quick_sort--><rect codeLine="40" fill="#FEFECE" filter="url(#fj2ro3ideu2o7)" height="43.0688" id="dual_pivot_quick_sort" style="stroke:#A80036;stroke-width:1.2000000000000002;" width="121.6" x="105.2" y="373.6"/><ellipse cx="117.2" cy="386.4" fill="#ADD1B2" rx="8.8" ry="8.8" style="stroke:#A80036;stroke-width:0.8000000000000002;"/><path d="M118.8,383.6 Q118.9625,383.2 119.15,383 Q119.3375,382.8 119.55,382.8 Q119.925,382.8 120.1625,383.025 Q120.4,383.25 120.4,383.775 L120.4,385.025 Q120.4,385.55 120.175,385.775 Q119.95,386 119.6,386 Q119.2875,386 119.0875,385.8625 Q118.8875,385.725 118.8,385.3625 Q118.7625,385.1125 118.625,384.975 Q118.375,384.7125 117.925,384.5625 Q117.475,384.4 117.025,384.4 Q116.4625,384.4 115.9875,384.625 Q115.525,384.85 115.1625,385.35 Q114.8,385.85 114.8,386.5375 L114.8,387.275 Q114.8,388.1 115.475,388.65 Q116.15,389.2 117.35,389.2 Q118.0625,389.2 118.5625,389.0375 Q118.85,388.95 119.175,388.6625 Q119.3875,388.5 119.5,388.45 Q119.6125,388.4 119.75,388.4 Q120.0125,388.4 120.2,388.6125 Q120.4,388.8125 120.4,389.1 Q120.4,389.375 120.125,389.7 Q119.725,390.175 119.0875,390.4375 Q118.25,390.8 117.225,390.8 Q116.025,390.8 115.0625,390.325 Q114.2875,389.95 113.7375,389.1375 Q113.2,388.325 113.2,387.3625 L113.2,386.4875 Q113.2,385.4875 113.675,384.6125 Q114.1625,383.7375 115,383.275 Q115.85,382.8 116.8,382.8 Q117.375,382.8 117.875,383 Q118.375,383.2 118.8,383.6 Z " fill="#000000"/><text fill="#000000" font-family="sans-serif" font-size="9.6" lengthAdjust="spacing" textLength="96" x="128.4" y="390.3281">dual_pivot_quick_sort</text><line style="stroke:#A80036;stroke-width:1.2000000000000002;" x1="106" x2="226" y1="399.2" y2="399.2"/><text fill="#000000" font-family="sans-serif" font-size="8.8" lengthAdjust="spacing" textLength="21.6" x="110" y="411.5352">sort()</text><!--MD5=[d6b14b5de6ec22c753678eeb3efe31b1]
class quick_merge_sort--><rect codeLine="45" fill="#FEFECE" filter="url(#fj2ro3ideu2o7)" height="43.0688" id="quick_merge_sort" style="stroke:#A80036;stroke-width:1.2000000000000002;" width="105.6" x="254.8" y="373.6"/><ellipse cx="266.8" cy="386.4" fill="#ADD1B2" rx="8.8" ry="8.8" style="stroke:#A80036;stroke-width:0.8000000000000002;"/><path d="M268.4,383.6 Q268.5625,383.2 268.75,383 Q268.9375,382.8 269.15,382.8 Q269.525,382.8 269.7625,383.025 Q270,383.25 270,383.775 L270,385.025 Q270,385.55 269.775,385.775 Q269.55,386 269.2,386 Q268.8875,386 268.6875,385.8625 Q268.4875,385.725 268.4,385.3625 Q268.3625,385.1125 268.225,384.975 Q267.975,384.7125 267.525,384.5625 Q267.075,384.4 266.625,384.4 Q266.0625,384.4 265.5875,384.625 Q265.125,384.85 264.7625,385.35 Q264.4,385.85 264.4,386.5375 L264.4,387.275 Q264.4,388.1 265.075,388.65 Q265.75,389.2 266.95,389.2 Q267.6625,389.2 268.1625,389.0375 Q268.45,388.95 268.775,388.6625 Q268.9875,388.5 269.1,388.45 Q269.2125,388.4 269.35,388.4 Q269.6125,388.4 269.8,388.6125 Q270,388.8125 270,389.1 Q270,389.375 269.725,389.7 Q269.325,390.175 268.6875,390.4375 Q267.85,390.8 266.825,390.8 Q265.625,390.8 264.6625,390.325 Q263.8875,389.95 263.3375,389.1375 Q262.8,388.325 262.8,387.3625 L262.8,386.4875 Q262.8,385.4875 263.275,384.6125 Q263.7625,383.7375 264.6,383.275 Q265.45,382.8 266.4,382.8 Q266.975,382.8 267.475,383 Q267.975,383.2 268.4,383.6 Z " fill="#000000"/><text fill="#000000" font-family="sans-serif" font-size="9.6" lengthAdjust="spacing" textLength="80" x="278" y="390.3281">quick_merge_sort</text><line style="stroke:#A80036;stroke-width:1.2000000000000002;" x1="255.6" x2="359.6" y1="399.2" y2="399.2"/><text fill="#000000" font-family="sans-serif" font-size="8.8" lengthAdjust="spacing" textLength="21.6" x="259.6" y="411.5352">sort()</text><!--MD5=[04243791bb1d686b7c6816d592ed440c]
class intro_sort--><rect codeLine="50" fill="#FEFECE" filter="url(#fj2ro3ideu2o7)" height="43.0688" id="intro_sort" style="stroke:#A80036;stroke-width:1.2000000000000002;" width="67.2" x="388.4" y="373.6"/><ellipse cx="400.4" cy="386.4" fill="#ADD1B2" rx="8.8" ry="8.8" style="stroke:#A80036;stroke-width:0.8000000000000002;"/><path d="M402,383.6 Q402.1625,383.2 402.35,383 Q402.5375,382.8 402.75,382.8 Q403.125,382.8 403.3625,383.025 Q403.6,383.25 403.6,383.775 L403.6,385.025 Q403.6,385.55 403.375,385.775 Q403.15,386 402.8,386 Q402.4875,386 402.2875,385.8625 Q402.0875,385.725 402,385.3625 Q401.9625,385.1125 401.825,384.975 Q401.575,384.7125 401.125,384.5625 Q400.675,384.4 400.225,384.4 Q399.6625,384.4 399.1875,384.625 Q398.725,384.85 398.3625,385.35 Q398,385.85 398,386.5375 L398,387.275 Q398,388.1 398.675,388.65 Q399.35,389.2 400.55,389.2 Q401.2625,389.2 401.7625,389.0375 Q402.05,388.95 402.375,388.6625 Q402.5875,388.5 402.7,388.45 Q402.8125,388.4 402.95,388.4 Q403.2125,388.4 403.4,388.6125 Q403.6,388.8125 403.6,389.1 Q403.6,389.375 403.325,389.7 Q402.925,390.175 402.2875,390.4375 Q401.45,390.8 400.425,390.8 Q399.225,390.8 398.2625,390.325 Q397.4875,389.95 396.9375,389.1375 Q396.4,388.325 396.4,387.3625 L396.4,386.4875 Q396.4,385.4875 396.875,384.6125 Q397.3625,383.7375 398.2,383.275 Q399.05,382.8 400,382.8 Q400.575,382.8 401.075,383 Q401.575,383.2 402,383.6 Z " fill="#000000"/><text fill="#000000" font-family="sans-serif" font-size="9.6" lengthAdjust="spacing" textLength="41.6" x="411.6" y="390.3281">intro_sort</text><line style="stroke:#A80036;stroke-width:1.2000000000000002;" x1="389.2" x2="454.8" y1="399.2" y2="399.2"/><text fill="#000000" font-family="sans-serif" font-size="8.8" lengthAdjust="spacing" textLength="21.6" x="393.2" y="411.5352">sort()</text><!--MD5=[1ba5dfe1cb4c9cc2fe8e8b12e660a2c9]
class merge_sort--><rect codeLine="55" fill="#FEFECE" filter="url(#fj2ro3ideu2o7)" height="43.0688" id="merge_sort" style="stroke:#A80036;stroke-width:1.2000000000000002;" width="76.8" x="483.6" y="373.6"/><ellipse cx="495.6" cy="386.4" fill="#ADD1B2" rx="8.8" ry="8.8" style="stroke:#A80036;stroke-width:0.8000000000000002;"/><path d="M497.2,383.6 Q497.3625,383.2 497.55,383 Q497.7375,382.8 497.95,382.8 Q498.325,382.8 498.5625,383.025 Q498.8,383.25 498.8,383.775 L498.8,385.025 Q498.8,385.55 498.575,385.775 Q498.35,386 498,386 Q497.6875,386 497.4875,385.8625 Q497.2875,385.725 497.2,385.3625 Q497.1625,385.1125 497.025,384.975 Q496.775,384.7125 496.325,384.5625 Q495.875,384.4 495.425,384.4 Q494.8625,384.4 494.3875,384.625 Q493.925,384.85 493.5625,385.35 Q493.2,385.85 493.2,386.5375 L493.2,387.275 Q493.2,388.1 493.875,388.65 Q494.55,389.2 495.75,389.2 Q496.4625,389.2 496.9625,389.0375 Q497.25,388.95 497.575,388.6625 Q497.7875,388.5 497.9,388.45 Q498.0125,388.4 498.15,388.4 Q498.4125,388.4 498.6,388.6125 Q498.8,388.8125 498.8,389.1 Q498.8,389.375 498.525,389.7 Q498.125,390.175 497.4875,390.4375 Q496.65,390.8 495.625,390.8 Q494.425,390.8 493.4625,390.325 Q492.6875,389.95 492.1375,389.1375 Q491.6,388.325 491.6,387.3625 L491.6,386.4875 Q491.6,385.4875 492.075,384.6125 Q492.5625,383.7375 493.4,383.275 Q494.25,382.8 495.2,382.8 Q495.775,382.8 496.275,383 Q496.775,383.2 497.2,383.6 Z " fill="#000000"/><text fill="#000000" font-family="sans-serif" font-size="9.6" lengthAdjust="spacing" textLength="51.2" x="506.8" y="390.3281">merge_sort</text><line style="stroke:#A80036;stroke-width:1.2000000000000002;" x1="484.4" x2="559.6" y1="399.2" y2="399.2"/><text fill="#000000" font-family="sans-serif" font-size="8.8" lengthAdjust="spacing" textLength="21.6" x="488.4" y="411.5352">sort()</text><!--MD5=[e07f44cd4bc7474680fe4115be11d406]
class partition--><rect codeLine="60" fill="#FEFECE" filter="url(#fj2ro3ideu2o7)" height="43.0688" id="partition" style="stroke:#A80036;stroke-width:1.2000000000000002;" width="60.8" x="162" y="476"/><ellipse cx="174" cy="488.8" fill="#B4A7E5" rx="8.8" ry="8.8" style="stroke:#A80036;stroke-width:0.8000000000000002;"/><path d="M174.8,486.4 L174.8,491.2 L176.4,491.2 L176.7875,491.2 L177.2,491.7 L177.2,492 L177.2,492.3 L176.7875,492.8 L176.4,492.8 L171.6,492.8 L171.2125,492.8 L170.8,492.3 L170.8,492 L170.8,491.7 L171.2125,491.2 L171.6,491.2 L173.2,491.2 L173.2,486.4 L171.6,486.4 L171.2125,486.4 L170.8,485.9 L170.8,485.6 L170.8,485.3 L171.2125,484.8 L171.6,484.8 L176.4,484.8 L176.7875,484.8 L177.2,485.3 L177.2,485.6 L177.2,485.9 L176.7875,486.4 L176.4,486.4 L174.8,486.4 Z " fill="#000000"/><text fill="#000000" font-family="sans-serif" font-size="9.6" font-style="italic" lengthAdjust="spacing" textLength="35.2" x="185.2" y="492.7281">partition</text><line style="stroke:#A80036;stroke-width:1.2000000000000002;" x1="162.8" x2="222" y1="501.6" y2="501.6"/><text fill="#000000" font-family="sans-serif" font-size="8.8" lengthAdjust="spacing" textLength="36.8" x="166.8" y="513.9352">partition()</text><!--MD5=[ca20d556de9b13caf848163a3b6cfd47]
class lomuto_partition--><rect codeLine="65" fill="#FEFECE" filter="url(#fj2ro3ideu2o7)" height="43.0688" id="lomuto_partition" style="stroke:#A80036;stroke-width:1.2000000000000002;" width="96.8" x="48" y="567.2"/><ellipse cx="60" cy="580" fill="#ADD1B2" rx="8.8" ry="8.8" style="stroke:#A80036;stroke-width:0.8000000000000002;"/><path d="M61.6,577.2 Q61.7625,576.8 61.95,576.6 Q62.1375,576.4 62.35,576.4 Q62.725,576.4 62.9625,576.625 Q63.2,576.85 63.2,577.375 L63.2,578.625 Q63.2,579.15 62.975,579.375 Q62.75,579.6 62.4,579.6 Q62.0875,579.6 61.8875,579.4625 Q61.6875,579.325 61.6,578.9625 Q61.5625,578.7125 61.425,578.575 Q61.175,578.3125 60.725,578.1625 Q60.275,578 59.825,578 Q59.2625,578 58.7875,578.225 Q58.325,578.45 57.9625,578.95 Q57.6,579.45 57.6,580.1375 L57.6,580.875 Q57.6,581.7 58.275,582.25 Q58.95,582.8 60.15,582.8 Q60.8625,582.8 61.3625,582.6375 Q61.65,582.55 61.975,582.2625 Q62.1875,582.1 62.3,582.05 Q62.4125,582 62.55,582 Q62.8125,582 63,582.2125 Q63.2,582.4125 63.2,582.7 Q63.2,582.975 62.925,583.3 Q62.525,583.775 61.8875,584.0375 Q61.05,584.4 60.025,584.4 Q58.825,584.4 57.8625,583.925 Q57.0875,583.55 56.5375,582.7375 Q56,581.925 56,580.9625 L56,580.0875 Q56,579.0875 56.475,578.2125 Q56.9625,577.3375 57.8,576.875 Q58.65,576.4 59.6,576.4 Q60.175,576.4 60.675,576.6 Q61.175,576.8 61.6,577.2 Z " fill="#000000"/><text fill="#000000" font-family="sans-serif" font-size="9.6" lengthAdjust="spacing" textLength="71.2" x="71.2" y="583.9281">lomuto_partition</text><line style="stroke:#A80036;stroke-width:1.2000000000000002;" x1="48.8" x2="144" y1="592.8" y2="592.8"/><text fill="#000000" font-family="sans-serif" font-size="8.8" lengthAdjust="spacing" textLength="36.8" x="52.8" y="605.1352">partition()</text><!--MD5=[efb46afa10f5565d1c0b3911aeeb84f4]
class hoare_partition--><rect codeLine="70" fill="#FEFECE" filter="url(#fj2ro3ideu2o7)" height="43.0688" id="hoare_partition" style="stroke:#A80036;stroke-width:1.2000000000000002;" width="92" x="172.8" y="567.2"/><ellipse cx="184.8" cy="580" fill="#ADD1B2" rx="8.8" ry="8.8" style="stroke:#A80036;stroke-width:0.8000000000000002;"/><path d="M186.4,577.2 Q186.5625,576.8 186.75,576.6 Q186.9375,576.4 187.15,576.4 Q187.525,576.4 187.7625,576.625 Q188,576.85 188,577.375 L188,578.625 Q188,579.15 187.775,579.375 Q187.55,579.6 187.2,579.6 Q186.8875,579.6 186.6875,579.4625 Q186.4875,579.325 186.4,578.9625 Q186.3625,578.7125 186.225,578.575 Q185.975,578.3125 185.525,578.1625 Q185.075,578 184.625,578 Q184.0625,578 183.5875,578.225 Q183.125,578.45 182.7625,578.95 Q182.4,579.45 182.4,580.1375 L182.4,580.875 Q182.4,581.7 183.075,582.25 Q183.75,582.8 184.95,582.8 Q185.6625,582.8 186.1625,582.6375 Q186.45,582.55 186.775,582.2625 Q186.9875,582.1 187.1,582.05 Q187.2125,582 187.35,582 Q187.6125,582 187.8,582.2125 Q188,582.4125 188,582.7 Q188,582.975 187.725,583.3 Q187.325,583.775 186.6875,584.0375 Q185.85,584.4 184.825,584.4 Q183.625,584.4 182.6625,583.925 Q181.8875,583.55 181.3375,582.7375 Q180.8,581.925 180.8,580.9625 L180.8,580.0875 Q180.8,579.0875 181.275,578.2125 Q181.7625,577.3375 182.6,576.875 Q183.45,576.4 184.4,576.4 Q184.975,576.4 185.475,576.6 Q185.975,576.8 186.4,577.2 Z " fill="#000000"/><text fill="#000000" font-family="sans-serif" font-size="9.6" lengthAdjust="spacing" textLength="66.4" x="196" y="583.9281">hoare_partition</text><line style="stroke:#A80036;stroke-width:1.2000000000000002;" x1="173.6" x2="264" y1="592.8" y2="592.8"/><text fill="#000000" font-family="sans-serif" font-size="8.8" lengthAdjust="spacing" textLength="36.8" x="177.6" y="605.1352">partition()</text><!--MD5=[b7fdae1517bfb210dbb895153335cd24]
class operation--><rect codeLine="75" fill="#FEFECE" filter="url(#fj2ro3ideu2o7)" height="65.2063" id="operation" style="stroke:#A80036;stroke-width:1.2000000000000002;" width="67.2" x="588.4" y="362.4"/><ellipse cx="600.4" cy="375.2" fill="#ADD1B2" rx="8.8" ry="8.8" style="stroke:#A80036;stroke-width:0.8000000000000002;"/><path d="M602,372.4 Q602.1625,372 602.35,371.8 Q602.5375,371.6 602.75,371.6 Q603.125,371.6 603.3625,371.825 Q603.6,372.05 603.6,372.575 L603.6,373.825 Q603.6,374.35 603.375,374.575 Q603.15,374.8 602.8,374.8 Q602.4875,374.8 602.2875,374.6625 Q602.0875,374.525 602,374.1625 Q601.9625,373.9125 601.825,373.775 Q601.575,373.5125 601.125,373.3625 Q600.675,373.2 600.225,373.2 Q599.6625,373.2 599.1875,373.425 Q598.725,373.65 598.3625,374.15 Q598,374.65 598,375.3375 L598,376.075 Q598,376.9 598.675,377.45 Q599.35,378 600.55,378 Q601.2625,378 601.7625,377.8375 Q602.05,377.75 602.375,377.4625 Q602.5875,377.3 602.7,377.25 Q602.8125,377.2 602.95,377.2 Q603.2125,377.2 603.4,377.4125 Q603.6,377.6125 603.6,377.9 Q603.6,378.175 603.325,378.5 Q602.925,378.975 602.2875,379.2375 Q601.45,379.6 600.425,379.6 Q599.225,379.6 598.2625,379.125 Q597.4875,378.75 596.9375,377.9375 Q596.4,377.125 596.4,376.1625 L596.4,375.2875 Q596.4,374.2875 596.875,373.4125 Q597.3625,372.5375 598.2,372.075 Q599.05,371.6 600,371.6 Q600.575,371.6 601.075,371.8 Q601.575,372 602,372.4 Z " fill="#000000"/><text fill="#000000" font-family="sans-serif" font-size="9.6" lengthAdjust="spacing" textLength="41.6" x="611.6" y="379.1281">operation</text><line style="stroke:#A80036;stroke-width:1.2000000000000002;" x1="589.2" x2="654.8" y1="388" y2="388"/><text fill="#000000" font-family="sans-serif" font-size="8.8" lengthAdjust="spacing" textLength="44" x="593.2" y="400.3352">comparator</text><text fill="#000000" font-family="sans-serif" font-size="8.8" lengthAdjust="spacing" textLength="35.2" x="593.2" y="411.4039">swapper</text><text fill="#000000" font-family="sans-serif" font-size="8.8" lengthAdjust="spacing" textLength="33.6" x="593.2" y="422.4727">assigner</text><!--MD5=[5c35c4919802d06e0359645225c0c6b3]
class comparator--><rect codeLine="82" fill="#FEFECE" filter="url(#fj2ro3ideu2o7)" height="25.6" id="comparator" style="stroke:#A80036;stroke-width:1.2000000000000002;" width="76" x="344.8" y="576"/><ellipse cx="356.8" cy="588.8" fill="#B4A7E5" rx="8.8" ry="8.8" style="stroke:#A80036;stroke-width:0.8000000000000002;"/><path d="M357.6,586.4 L357.6,591.2 L359.2,591.2 L359.5875,591.2 L360,591.7 L360,592 L360,592.3 L359.5875,592.8 L359.2,592.8 L354.4,592.8 L354.0125,592.8 L353.6,592.3 L353.6,592 L353.6,591.7 L354.0125,591.2 L354.4,591.2 L356,591.2 L356,586.4 L354.4,586.4 L354.0125,586.4 L353.6,585.9 L353.6,585.6 L353.6,585.3 L354.0125,584.8 L354.4,584.8 L359.2,584.8 L359.5875,584.8 L360,585.3 L360,585.6 L360,585.9 L359.5875,586.4 L359.2,586.4 L357.6,586.4 Z " fill="#000000"/><text fill="#000000" font-family="sans-serif" font-size="9.6" font-style="italic" lengthAdjust="spacing" textLength="50.4" x="368" y="592.7281">comparator</text><!--MD5=[01ff14c9840a7a6e953a5dede1e1306f]
class simple_comparator--><rect fill="#FEFECE" filter="url(#fj2ro3ideu2o7)" height="25.6" id="simple_comparator" style="stroke:#A80036;stroke-width:1.2000000000000002;" width="112" x="190" y="658.4"/><ellipse cx="202" cy="671.2" fill="#ADD1B2" rx="8.8" ry="8.8" style="stroke:#A80036;stroke-width:0.8000000000000002;"/><path d="M203.6,668.4 Q203.7625,668 203.95,667.8 Q204.1375,667.6 204.35,667.6 Q204.725,667.6 204.9625,667.825 Q205.2,668.05 205.2,668.575 L205.2,669.825 Q205.2,670.35 204.975,670.575 Q204.75,670.8 204.4,670.8 Q204.0875,670.8 203.8875,670.6625 Q203.6875,670.525 203.6,670.1625 Q203.5625,669.9125 203.425,669.775 Q203.175,669.5125 202.725,669.3625 Q202.275,669.2 201.825,669.2 Q201.2625,669.2 200.7875,669.425 Q200.325,669.65 199.9625,670.15 Q199.6,670.65 199.6,671.3375 L199.6,672.075 Q199.6,672.9 200.275,673.45 Q200.95,674 202.15,674 Q202.8625,674 203.3625,673.8375 Q203.65,673.75 203.975,673.4625 Q204.1875,673.3 204.3,673.25 Q204.4125,673.2 204.55,673.2 Q204.8125,673.2 205,673.4125 Q205.2,673.6125 205.2,673.9 Q205.2,674.175 204.925,674.5 Q204.525,674.975 203.8875,675.2375 Q203.05,675.6 202.025,675.6 Q200.825,675.6 199.8625,675.125 Q199.0875,674.75 198.5375,673.9375 Q198,673.125 198,672.1625 L198,671.2875 Q198,670.2875 198.475,669.4125 Q198.9625,668.5375 199.8,668.075 Q200.65,667.6 201.6,667.6 Q202.175,667.6 202.675,667.8 Q203.175,668 203.6,668.4 Z " fill="#000000"/><text fill="#000000" font-family="sans-serif" font-size="9.6" lengthAdjust="spacing" textLength="86.4" x="213.2" y="675.1281">simple_comparator</text><!--MD5=[b233a2bc55cf6d2614604432e6c87c10]
class count_comparator--><rect fill="#FEFECE" filter="url(#fj2ro3ideu2o7)" height="25.6" id="count_comparator" style="stroke:#A80036;stroke-width:1.2000000000000002;" width="105.6" x="330" y="658.4"/><ellipse cx="342" cy="671.2" fill="#ADD1B2" rx="8.8" ry="8.8" style="stroke:#A80036;stroke-width:0.8000000000000002;"/><path d="M343.6,668.4 Q343.7625,668 343.95,667.8 Q344.1375,667.6 344.35,667.6 Q344.725,667.6 344.9625,667.825 Q345.2,668.05 345.2,668.575 L345.2,669.825 Q345.2,670.35 344.975,670.575 Q344.75,670.8 344.4,670.8 Q344.0875,670.8 343.8875,670.6625 Q343.6875,670.525 343.6,670.1625 Q343.5625,669.9125 343.425,669.775 Q343.175,669.5125 342.725,669.3625 Q342.275,669.2 341.825,669.2 Q341.2625,669.2 340.7875,669.425 Q340.325,669.65 339.9625,670.15 Q339.6,670.65 339.6,671.3375 L339.6,672.075 Q339.6,672.9 340.275,673.45 Q340.95,674 342.15,674 Q342.8625,674 343.3625,673.8375 Q343.65,673.75 343.975,673.4625 Q344.1875,673.3 344.3,673.25 Q344.4125,673.2 344.55,673.2 Q344.8125,673.2 345,673.4125 Q345.2,673.6125 345.2,673.9 Q345.2,674.175 344.925,674.5 Q344.525,674.975 343.8875,675.2375 Q343.05,675.6 342.025,675.6 Q340.825,675.6 339.8625,675.125 Q339.0875,674.75 338.5375,673.9375 Q338,673.125 338,672.1625 L338,671.2875 Q338,670.2875 338.475,669.4125 Q338.9625,668.5375 339.8,668.075 Q340.65,667.6 341.6,667.6 Q342.175,667.6 342.675,667.8 Q343.175,668 343.6,668.4 Z " fill="#000000"/><text fill="#000000" font-family="sans-serif" font-size="9.6" lengthAdjust="spacing" textLength="80" x="353.2" y="675.1281">count_comparator</text><!--MD5=[ad9b6268ce3093b287e8eaea7ef1643f]
class swapper--><rect codeLine="87" fill="#FEFECE" filter="url(#fj2ro3ideu2o7)" height="25.6" id="swapper" style="stroke:#A80036;stroke-width:1.2000000000000002;" width="62.4" x="590.8" y="576"/><ellipse cx="602.8" cy="588.8" fill="#B4A7E5" rx="8.8" ry="8.8" style="stroke:#A80036;stroke-width:0.8000000000000002;"/><path d="M603.6,586.4 L603.6,591.2 L605.2,591.2 L605.5875,591.2 L606,591.7 L606,592 L606,592.3 L605.5875,592.8 L605.2,592.8 L600.4,592.8 L600.0125,592.8 L599.6,592.3 L599.6,592 L599.6,591.7 L600.0125,591.2 L600.4,591.2 L602,591.2 L602,586.4 L600.4,586.4 L600.0125,586.4 L599.6,585.9 L599.6,585.6 L599.6,585.3 L600.0125,584.8 L600.4,584.8 L605.2,584.8 L605.5875,584.8 L606,585.3 L606,585.6 L606,585.9 L605.5875,586.4 L605.2,586.4 L603.6,586.4 Z " fill="#000000"/><text fill="#000000" font-family="sans-serif" font-size="9.6" font-style="italic" lengthAdjust="spacing" textLength="36.8" x="614" y="592.7281">swapper</text><!--MD5=[a3ba81e601e15fb5dcfec92b9c7ad95b]
class simple_swapper--><rect fill="#FEFECE" filter="url(#fj2ro3ideu2o7)" height="25.6" id="simple_swapper" style="stroke:#A80036;stroke-width:1.2000000000000002;" width="100" x="464" y="658.4"/><ellipse cx="476" cy="671.2" fill="#ADD1B2" rx="8.8" ry="8.8" style="stroke:#A80036;stroke-width:0.8000000000000002;"/><path d="M477.6,668.4 Q477.7625,668 477.95,667.8 Q478.1375,667.6 478.35,667.6 Q478.725,667.6 478.9625,667.825 Q479.2,668.05 479.2,668.575 L479.2,669.825 Q479.2,670.35 478.975,670.575 Q478.75,670.8 478.4,670.8 Q478.0875,670.8 477.8875,670.6625 Q477.6875,670.525 477.6,670.1625 Q477.5625,669.9125 477.425,669.775 Q477.175,669.5125 476.725,669.3625 Q476.275,669.2 475.825,669.2 Q475.2625,669.2 474.7875,669.425 Q474.325,669.65 473.9625,670.15 Q473.6,670.65 473.6,671.3375 L473.6,672.075 Q473.6,672.9 474.275,673.45 Q474.95,674 476.15,674 Q476.8625,674 477.3625,673.8375 Q477.65,673.75 477.975,673.4625 Q478.1875,673.3 478.3,673.25 Q478.4125,673.2 478.55,673.2 Q478.8125,673.2 479,673.4125 Q479.2,673.6125 479.2,673.9 Q479.2,674.175 478.925,674.5 Q478.525,674.975 477.8875,675.2375 Q477.05,675.6 476.025,675.6 Q474.825,675.6 473.8625,675.125 Q473.0875,674.75 472.5375,673.9375 Q472,673.125 472,672.1625 L472,671.2875 Q472,670.2875 472.475,669.4125 Q472.9625,668.5375 473.8,668.075 Q474.65,667.6 475.6,667.6 Q476.175,667.6 476.675,667.8 Q477.175,668 477.6,668.4 Z " fill="#000000"/><text fill="#000000" font-family="sans-serif" font-size="9.6" lengthAdjust="spacing" textLength="74.4" x="487.2" y="675.1281">simple_swapper</text><!--MD5=[406d5afb16f5308fb4202a3596de5a99]
class count_swapper--><rect fill="#FEFECE" filter="url(#fj2ro3ideu2o7)" height="25.6" id="count_swapper" style="stroke:#A80036;stroke-width:1.2000000000000002;" width="93.6" x="592" y="658.4"/><ellipse cx="604" cy="671.2" fill="#ADD1B2" rx="8.8" ry="8.8" style="stroke:#A80036;stroke-width:0.8000000000000002;"/><path d="M605.6,668.4 Q605.7625,668 605.95,667.8 Q606.1375,667.6 606.35,667.6 Q606.725,667.6 606.9625,667.825 Q607.2,668.05 607.2,668.575 L607.2,669.825 Q607.2,670.35 606.975,670.575 Q606.75,670.8 606.4,670.8 Q606.0875,670.8 605.8875,670.6625 Q605.6875,670.525 605.6,670.1625 Q605.5625,669.9125 605.425,669.775 Q605.175,669.5125 604.725,669.3625 Q604.275,669.2 603.825,669.2 Q603.2625,669.2 602.7875,669.425 Q602.325,669.65 601.9625,670.15 Q601.6,670.65 601.6,671.3375 L601.6,672.075 Q601.6,672.9 602.275,673.45 Q602.95,674 604.15,674 Q604.8625,674 605.3625,673.8375 Q605.65,673.75 605.975,673.4625 Q606.1875,673.3 606.3,673.25 Q606.4125,673.2 606.55,673.2 Q606.8125,673.2 607,673.4125 Q607.2,673.6125 607.2,673.9 Q607.2,674.175 606.925,674.5 Q606.525,674.975 605.8875,675.2375 Q605.05,675.6 604.025,675.6 Q602.825,675.6 601.8625,675.125 Q601.0875,674.75 600.5375,673.9375 Q600,673.125 600,672.1625 L600,671.2875 Q600,670.2875 600.475,669.4125 Q600.9625,668.5375 601.8,668.075 Q602.65,667.6 603.6,667.6 Q604.175,667.6 604.675,667.8 Q605.175,668 605.6,668.4 Z " fill="#000000"/><text fill="#000000" font-family="sans-serif" font-size="9.6" lengthAdjust="spacing" textLength="68" x="615.2" y="675.1281">count_swapper</text><!--MD5=[6a426cf3e34ff15b89f59f115799c568]
class assigner--><rect codeLine="92" fill="#FEFECE" filter="url(#fj2ro3ideu2o7)" height="25.6" id="assigner" style="stroke:#A80036;stroke-width:1.2000000000000002;" width="63.2" x="732.8" y="576"/><ellipse cx="744.8" cy="588.8" fill="#B4A7E5" rx="8.8" ry="8.8" style="stroke:#A80036;stroke-width:0.8000000000000002;"/><path d="M745.6,586.4 L745.6,591.2 L747.2,591.2 L747.5875,591.2 L748,591.7 L748,592 L748,592.3 L747.5875,592.8 L747.2,592.8 L742.4,592.8 L742.0125,592.8 L741.6,592.3 L741.6,592 L741.6,591.7 L742.0125,591.2 L742.4,591.2 L744,591.2 L744,586.4 L742.4,586.4 L742.0125,586.4 L741.6,585.9 L741.6,585.6 L741.6,585.3 L742.0125,584.8 L742.4,584.8 L747.2,584.8 L747.5875,584.8 L748,585.3 L748,585.6 L748,585.9 L747.5875,586.4 L747.2,586.4 L745.6,586.4 Z " fill="#000000"/><text fill="#000000" font-family="sans-serif" font-size="9.6" font-style="italic" lengthAdjust="spacing" textLength="37.6" x="756" y="592.7281">assigner</text><!--MD5=[583f32441376f8217fe39ae2b452482d]
class simple_assigner--><rect fill="#FEFECE" filter="url(#fj2ro3ideu2o7)" height="25.6" id="simple_assigner" style="stroke:#A80036;stroke-width:1.2000000000000002;" width="100.8" x="714" y="658.4"/><ellipse cx="726" cy="671.2" fill="#ADD1B2" rx="8.8" ry="8.8" style="stroke:#A80036;stroke-width:0.8000000000000002;"/><path d="M727.6,668.4 Q727.7625,668 727.95,667.8 Q728.1375,667.6 728.35,667.6 Q728.725,667.6 728.9625,667.825 Q729.2,668.05 729.2,668.575 L729.2,669.825 Q729.2,670.35 728.975,670.575 Q728.75,670.8 728.4,670.8 Q728.0875,670.8 727.8875,670.6625 Q727.6875,670.525 727.6,670.1625 Q727.5625,669.9125 727.425,669.775 Q727.175,669.5125 726.725,669.3625 Q726.275,669.2 725.825,669.2 Q725.2625,669.2 724.7875,669.425 Q724.325,669.65 723.9625,670.15 Q723.6,670.65 723.6,671.3375 L723.6,672.075 Q723.6,672.9 724.275,673.45 Q724.95,674 726.15,674 Q726.8625,674 727.3625,673.8375 Q727.65,673.75 727.975,673.4625 Q728.1875,673.3 728.3,673.25 Q728.4125,673.2 728.55,673.2 Q728.8125,673.2 729,673.4125 Q729.2,673.6125 729.2,673.9 Q729.2,674.175 728.925,674.5 Q728.525,674.975 727.8875,675.2375 Q727.05,675.6 726.025,675.6 Q724.825,675.6 723.8625,675.125 Q723.0875,674.75 722.5375,673.9375 Q722,673.125 722,672.1625 L722,671.2875 Q722,670.2875 722.475,669.4125 Q722.9625,668.5375 723.8,668.075 Q724.65,667.6 725.6,667.6 Q726.175,667.6 726.675,667.8 Q727.175,668 727.6,668.4 Z " fill="#000000"/><text fill="#000000" font-family="sans-serif" font-size="9.6" lengthAdjust="spacing" textLength="75.2" x="737.2" y="675.1281">simple_assigner</text><!--MD5=[b62d2c65e03453dde8a18fa206e628ab]
class count_assigner--><rect fill="#FEFECE" filter="url(#fj2ro3ideu2o7)" height="25.6" id="count_assigner" style="stroke:#A80036;stroke-width:1.2000000000000002;" width="94.4" x="842.8" y="658.4"/><ellipse cx="854.8" cy="671.2" fill="#ADD1B2" rx="8.8" ry="8.8" style="stroke:#A80036;stroke-width:0.8000000000000002;"/><path d="M856.4,668.4 Q856.5625,668 856.75,667.8 Q856.9375,667.6 857.15,667.6 Q857.525,667.6 857.7625,667.825 Q858,668.05 858,668.575 L858,669.825 Q858,670.35 857.775,670.575 Q857.55,670.8 857.2,670.8 Q856.8875,670.8 856.6875,670.6625 Q856.4875,670.525 856.4,670.1625 Q856.3625,669.9125 856.225,669.775 Q855.975,669.5125 855.525,669.3625 Q855.075,669.2 854.625,669.2 Q854.0625,669.2 853.5875,669.425 Q853.125,669.65 852.7625,670.15 Q852.4,670.65 852.4,671.3375 L852.4,672.075 Q852.4,672.9 853.075,673.45 Q853.75,674 854.95,674 Q855.6625,674 856.1625,673.8375 Q856.45,673.75 856.775,673.4625 Q856.9875,673.3 857.1,673.25 Q857.2125,673.2 857.35,673.2 Q857.6125,673.2 857.8,673.4125 Q858,673.6125 858,673.9 Q858,674.175 857.725,674.5 Q857.325,674.975 856.6875,675.2375 Q855.85,675.6 854.825,675.6 Q853.625,675.6 852.6625,675.125 Q851.8875,674.75 851.3375,673.9375 Q850.8,673.125 850.8,672.1625 L850.8,671.2875 Q850.8,670.2875 851.275,669.4125 Q851.7625,668.5375 852.6,668.075 Q853.45,667.6 854.4,667.6 Q854.975,667.6 855.475,667.8 Q855.975,668 856.4,668.4 Z " fill="#000000"/><text fill="#000000" font-family="sans-serif" font-size="9.6" lengthAdjust="spacing" textLength="68.8" x="866" y="675.1281">count_assigner</text><!--MD5=[2a38fecd9ee8bf218a9bba8e35859ea0]
reverse link engine to unit--><path codeLine="96" d="M495.688,87.8 C491.048,100.416 486.096,113.856 481.8,125.544 " fill="none" id="engine-backto-unit" style="stroke:#A80036;stroke-width:0.8000000000000002;"/><polygon fill="#FFFFFF" points="499.336,77.904,494.6761,81.3048,496.0231,86.9143,500.683,83.5134,499.336,77.904" style="stroke:#A80036;stroke-width:0.8000000000000002;"/><!--MD5=[53ba4a7a3d61ee95579427f733878396]
reverse link engine to invariants--><path codeLine="97" d="M529.456,87.888 C537.256,108.688 545.888,131.696 551.024,145.392 " fill="none" id="engine-backto-invariants" style="stroke:#A80036;stroke-width:0.8000000000000002;"/><polygon fill="#FFFFFF" points="525.712,77.904,524.404,83.5226,529.0874,86.891,530.3954,81.2724,525.712,77.904" style="stroke:#A80036;stroke-width:0.8000000000000002;"/><!--MD5=[d1c2a178b05d6158c66889620973e94a]
reverse link unit to generator--><path codeLine="99" d="M470,202.016 C470,220.048 470,240.208 470,254.928 " fill="none" id="unit-backto-generator" style="stroke:#A80036;stroke-width:0.8000000000000002;"/><polygon fill="#A80036" points="470,191.424,466.8,196.224,470,201.024,473.2,196.224,470,191.424" style="stroke:#A80036;stroke-width:0.8000000000000002;"/><!--MD5=[156807881e34b15de829e70d63b2e82c]
reverse link unit to executor--><path codeLine="100" d="M500.264,196.96 C515.688,216.208 533.864,238.888 546.776,255.008 " fill="none" id="unit-backto-executor" style="stroke:#A80036;stroke-width:0.8000000000000002;"/><polygon fill="#A80036" points="493.616,188.672,494.1207,194.4188,499.6195,196.1632,499.1148,190.4164,493.616,188.672" style="stroke:#A80036;stroke-width:0.8000000000000002;"/><!--MD5=[84f1a72db9d90b321e4206103b93197e]
reverse link unit to sorting--><path codeLine="101" d="M439.328,193.128 C426.32,207.512 411.12,224.32 397.832,239.024 " fill="none" id="unit-backto-sorting" style="stroke:#A80036;stroke-width:0.8000000000000002;"/><polygon fill="#A80036" points="446.304,185.416,440.7115,186.8317,439.8674,192.5385,445.4599,191.1228,446.304,185.416" style="stroke:#A80036;stroke-width:0.8000000000000002;"/><!--MD5=[ecb66277e64221d8f3488b795f17102b]
reverse link sorting to quick_sort--><path codeLine="106" d="M353.2,315.2 C353.2,315.2 90.8,362.4 90.8,362.4 C90.8,362.4 82.928,367.48 73.456,373.592 " fill="none" id="sorting-backto-quick_sort" style="stroke:#A80036;stroke-width:0.8000000000000002;"/><!--MD5=[38875d4a474cd8b7912d590cf1dedf2d]
reverse link sorting to dual_pivot_quick_sort--><path codeLine="107" d="M353.2,315.2 C353.2,315.2 240.4,362.4 240.4,362.4 C240.4,362.4 228.592,367.48 214.376,373.592 " fill="none" id="sorting-backto-dual_pivot_quick_sort" style="stroke:#A80036;stroke-width:0.8000000000000002;"/><!--MD5=[0994713fd4b900e49a430f6deeb78c88]
reverse link sorting to quick_merge_sort--><path codeLine="108" d="M353.2,315.2 C353.2,315.2 333.088,350.128 319.584,373.592 " fill="none" id="sorting-backto-quick_merge_sort" style="stroke:#A80036;stroke-width:0.8000000000000002;"/><!--MD5=[eac7a90925a17bd16818bf3e564cc4d3]
reverse link sorting to intro_sort--><path codeLine="109" d="M353.2,315.2 C353.2,315.2 383.536,350.128 403.92,373.592 " fill="none" id="sorting-backto-intro_sort" style="stroke:#A80036;stroke-width:0.8000000000000002;"/><!--MD5=[2d45d0f7d4b41f58bf51f6f022278773]
reverse link sorting to merge_sort--><path codeLine="110" d="M353.2,315.2 C353.2,315.2 469.2,362.4 469.2,362.4 C469.2,362.4 477.584,367.48 487.664,373.592 " fill="none" id="sorting-backto-merge_sort" style="stroke:#A80036;stroke-width:0.8000000000000002;"/><!--MD5=[53626af8a9d92fd70921a57dc43a1bbd]
reverse link quick_sort to partition--><path codeLine="112" d="M81.496,422.864 C106.736,439.688 138.752,461.032 161.888,476.456 " fill="none" id="quick_sort-backto-partition" style="stroke:#A80036;stroke-width:0.8000000000000002;"/><polygon fill="#FFFFFF" points="72.528,416.888,74.7452,422.2138,80.5141,422.2156,78.2969,416.8898,72.528,416.888" style="stroke:#A80036;stroke-width:0.8000000000000002;"/><!--MD5=[571db55d4975e3821ef4e65ed28a3c7c]
reverse link dual_pivot_quick_sort to partition--><path codeLine="113" d="M174.136,427.048 C178.288,442.928 183.24,461.824 186.936,475.944 " fill="none" id="dual_pivot_quick_sort-backto-partition" style="stroke:#A80036;stroke-width:0.8000000000000002;"/><polygon fill="#FFFFFF" points="171.472,416.888,169.5956,422.3432,173.9094,426.1734,175.7859,420.7182,171.472,416.888" style="stroke:#A80036;stroke-width:0.8000000000000002;"/><!--MD5=[5df7674ae420264175e22f5018368eef]
reverse link quick_merge_sort to partition--><path codeLine="114" d="M275.712,423.904 C256.888,440.376 233.456,460.88 216.24,475.944 " fill="none" id="quick_merge_sort-backto-partition" style="stroke:#A80036;stroke-width:0.8000000000000002;"/><polygon fill="#FFFFFF" points="283.728,416.888,278.0088,417.6435,276.5065,423.2134,282.2257,422.4578,283.728,416.888" style="stroke:#A80036;stroke-width:0.8000000000000002;"/><!--MD5=[ab38684108c75bb2023b2b155c3d5387]
reverse link intro_sort to partition--><path codeLine="115" d="M382.128,422.584 C377.28,425.816 374,428 374,428 C374,428 274.752,465.6 223,485.208 " fill="none" id="intro_sort-backto-partition" style="stroke:#A80036;stroke-width:0.8000000000000002;"/><polygon fill="#FFFFFF" points="390.792,416.808,385.0231,416.8098,382.8059,422.1356,388.5748,422.1338,390.792,416.808" style="stroke:#A80036;stroke-width:0.8000000000000002;"/><!--MD5=[7885b60ff1bcbd860e6297ece956aadd]
reverse link partition to lomuto_partition--><path codeLine="117" d="M158.176,530.344 C145.072,542.568 130.48,556.192 118.768,567.128 " fill="none" id="partition-backto-lomuto_partition" style="stroke:#A80036;stroke-width:0.8000000000000002;stroke-dasharray:7.0,7.0;"/><polygon fill="none" points="154.376,526.232,169.896,519.408,162.016,534.416,154.376,526.232" style="stroke:#A80036;stroke-width:0.8000000000000002;"/><!--MD5=[c82b6fd2248cd4cf82d87dad6b496945]
reverse link partition to hoare_partition--><path codeLine="118" d="M203.216,535.112 C206.432,546.024 209.84,557.592 212.648,567.128 " fill="none" id="partition-backto-hoare_partition" style="stroke:#A80036;stroke-width:0.8000000000000002;stroke-dasharray:7.0,7.0;"/><polygon fill="none" points="197.744,536.336,198.592,519.408,208.48,533.176,197.744,536.336" style="stroke:#A80036;stroke-width:0.8000000000000002;"/><!--MD5=[fb4c5716c51417f1184d9baa2f41622a]
reverse link sorting to operation--><path codeLine="121" d="M417.064,311.248 C420.128,313.208 422,314.4 422,314.4 C422,314.4 574,362.4 574,362.4 C574,362.4 580.2,366.536 588.144,371.824 " fill="none" id="sorting-backto-operation" style="stroke:#A80036;stroke-width:0.8000000000000002;"/><polygon fill="#A80036" points="408.056,305.488,410.3782,310.7688,416.146,310.6563,413.8238,305.3755,408.056,305.488" style="stroke:#A80036;stroke-width:0.8000000000000002;"/><!--MD5=[3a2d2deea1b0392be9175952f2320cba]
reverse link operation to comparator--><path codeLine="122" d="M579.864,429.824 C525.608,473.376 434.024,546.888 398,575.8 " fill="none" id="operation-backto-comparator" style="stroke:#A80036;stroke-width:0.8000000000000002;"/><polygon fill="#A80036" points="588.232,423.104,582.4856,423.6126,580.7449,429.1127,586.4914,428.604,588.232,423.104" style="stroke:#A80036;stroke-width:0.8000000000000002;"/><!--MD5=[00f95100769494c2df9f15052dc6bc0a]
reverse link operation to swapper--><path codeLine="123" d="M622,438.56 C622,482.656 622,548.832 622,575.856 " fill="none" id="operation-backto-swapper" style="stroke:#A80036;stroke-width:0.8000000000000002;"/><polygon fill="#A80036" points="622,428.136,618.8,432.936,622,437.736,625.2,432.936,622,428.136" style="stroke:#A80036;stroke-width:0.8000000000000002;"/><!--MD5=[1ecf172383f769767f649106253ba2ab]
reverse link operation to assigner--><path codeLine="124" d="M652.12,436.616 C684.808,480.688 735.056,548.432 755.392,575.856 " fill="none" id="operation-backto-assigner" style="stroke:#A80036;stroke-width:0.8000000000000002;"/><polygon fill="#A80036" points="645.832,428.136,646.1203,433.8977,651.5497,435.8475,651.2614,430.0859,645.832,428.136" style="stroke:#A80036;stroke-width:0.8000000000000002;"/><!--MD5=[b71303bbc47bd808e266a0ab12cc7133]
reverse link comparator to simple_comparator--><path codeLine="126" d="M348.272,609.992 C322.44,625.256 287.984,645.6 266.4,658.352 " fill="none" id="comparator-backto-simple_comparator" style="stroke:#A80036;stroke-width:0.8000000000000002;stroke-dasharray:7.0,7.0;"/><polygon fill="none" points="345.696,605.008,362.32,601.696,351.392,614.656,345.696,605.008" style="stroke:#A80036;stroke-width:0.8000000000000002;"/><!--MD5=[f18a9ff7b9125f75e9d0408684f5dfd3]
reverse link comparator to count_comparator--><path codeLine="127" d="M382.8,617.968 C382.8,631.776 382.8,647.648 382.8,658.28 " fill="none" id="comparator-backto-count_comparator" style="stroke:#A80036;stroke-width:0.8000000000000002;stroke-dasharray:7.0,7.0;"/><polygon fill="none" points="377.2,617.872,382.8,601.872,388.4,617.872,377.2,617.872" style="stroke:#A80036;stroke-width:0.8000000000000002;"/><!--MD5=[1c0e2d6f9e5d546a4c94a2b7a3c362bb]
reverse link swapper to simple_swapper--><path codeLine="128" d="M592.76,611.48 C572.68,626.496 546.784,645.872 530.28,658.224 " fill="none" id="swapper-backto-simple_swapper" style="stroke:#A80036;stroke-width:0.8000000000000002;stroke-dasharray:7.0,7.0;"/><polygon fill="none" points="589.664,606.8,605.832,601.696,596.376,615.768,589.664,606.8" style="stroke:#A80036;stroke-width:0.8000000000000002;"/><!--MD5=[611b8d4560018aba4a4a0640c7ea4000]
reverse link swapper to count_swapper--><path codeLine="129" d="M627.848,617.736 C630.728,631.592 634.056,647.584 636.28,658.28 " fill="none" id="swapper-backto-count_swapper" style="stroke:#A80036;stroke-width:0.8000000000000002;stroke-dasharray:7.0,7.0;"/><polygon fill="none" points="622.328,618.68,624.552,601.872,633.288,616.4,622.328,618.68" style="stroke:#A80036;stroke-width:0.8000000000000002;"/><!--MD5=[66216308ddf6a9e8514a2ba56d1eedf4]
reverse link assigner to simple_assigner--><path codeLine="130" d="M764.4,617.968 C764.4,631.776 764.4,647.648 764.4,658.28 " fill="none" id="assigner-backto-simple_assigner" style="stroke:#A80036;stroke-width:0.8000000000000002;stroke-dasharray:7.0,7.0;"/><polygon fill="none" points="758.8,617.872,764.4,601.872,770,617.872,758.8,617.872" style="stroke:#A80036;stroke-width:0.8000000000000002;"/><!--MD5=[647334cf68506b483d3b34736c20a485]
reverse link assigner to count_assigner--><path codeLine="131" d="M796.768,610.424 C820.408,625.632 851.64,645.72 871.272,658.352 " fill="none" id="assigner-backto-count_assigner" style="stroke:#A80036;stroke-width:0.8000000000000002;stroke-dasharray:7.0,7.0;"/><polygon fill="none" points="793.632,615.064,783.2,601.696,799.688,605.64,793.632,615.064" style="stroke:#A80036;stroke-width:0.8000000000000002;"/><!--MD5=[af74c11af33cb659f2a1b27a52947709]
@startuml
'!include styles/card-style.puml

hide unit methods
class unit {
	executor
	sorting
	generator
}

hide invariants members
class invariants

class engine {
	List<unit> units
	invariants
	test()
}

hide sorting fields
interface sorting {
	sort()
}

hide generator fields
class generator {
	generate()
}

hide executor fields
class executor {
	execute()
}

hide quick_sort fields
class quick_sort {
	sort()
}

hide dual_pivot_quick_sort fields
class dual_pivot_quick_sort {
	sort()
}

hide quick_merge_sort fields
class quick_merge_sort {
	sort()
}

hide intro_sort fields
class intro_sort {
	sort()
}

hide merge_sort fields
class merge_sort {
	sort()
}

hide partition fields
interface partition {
	partition()
}

hide lomuto_partition fields
class lomuto_partition {
	partition()
}

hide hoare_partition fields
class hoare_partition {
	partition()
}

hide operation methods
class operation {
	comparator
	swapper
	assigner
}

hide comparator members
interface comparator
hide simple_comparator members
hide count_comparator members

hide swapper members
interface swapper
hide simple_swapper members
hide count_swapper members

hide assigner members
interface assigner
hide simple_assigner members
hide count_assigner members

engine o- - unit
engine o- - invariants

unit *- - generator
unit *- - executor
unit *- - sorting

skinparam groupInheritance 3
skinparam linetype polyline

sorting <|.. quick_sort
sorting <|.. dual_pivot_quick_sort
sorting <|.. quick_merge_sort
sorting <|.. intro_sort
sorting <|.. merge_sort

quick_sort o- - partition
dual_pivot_quick_sort o- - partition
quick_merge_sort o- - partition
intro_sort o- - partition

partition <|.. lomuto_partition
partition <|.. hoare_partition


sorting *- - operation
operation *- - - comparator
operation *- - - swapper
operation *- - - assigner

comparator <|.. simple_comparator
comparator <|.. count_comparator
swapper <|.. simple_swapper
swapper <|.. count_swapper
assigner <|.. simple_assigner
assigner <|.. count_assigner

@enduml

@startuml

hide unit methods
class unit {
	executor
	sorting
	generator
}

hide invariants members
class invariants

class engine {
	List<unit> units
	invariants
	test()
}

hide sorting fields
interface sorting {
	sort()
}

hide generator fields
class generator {
	generate()
}

hide executor fields
class executor {
	execute()
}

hide quick_sort fields
class quick_sort {
	sort()
}

hide dual_pivot_quick_sort fields
class dual_pivot_quick_sort {
	sort()
}

hide quick_merge_sort fields
class quick_merge_sort {
	sort()
}

hide intro_sort fields
class intro_sort {
	sort()
}

hide merge_sort fields
class merge_sort {
	sort()
}

hide partition fields
interface partition {
	partition()
}

hide lomuto_partition fields
class lomuto_partition {
	partition()
}

hide hoare_partition fields
class hoare_partition {
	partition()
}

hide operation methods
class operation {
	comparator
	swapper
	assigner
}

hide comparator members
interface comparator
hide simple_comparator members
hide count_comparator members

hide swapper members
interface swapper
hide simple_swapper members
hide count_swapper members

hide assigner members
interface assigner
hide simple_assigner members
hide count_assigner members

engine o- - unit
engine o- - invariants

unit *- - generator
unit *- - executor
unit *- - sorting

skinparam groupInheritance 3
skinparam linetype polyline

sorting <|.. quick_sort
sorting <|.. dual_pivot_quick_sort
sorting <|.. quick_merge_sort
sorting <|.. intro_sort
sorting <|.. merge_sort

quick_sort o- - partition
dual_pivot_quick_sort o- - partition
quick_merge_sort o- - partition
intro_sort o- - partition

partition <|.. lomuto_partition
partition <|.. hoare_partition


sorting *- - operation
operation *- - - comparator
operation *- - - swapper
operation *- - - assigner

comparator <|.. simple_comparator
comparator <|.. count_comparator
swapper <|.. simple_swapper
swapper <|.. count_swapper
assigner <|.. simple_assigner
assigner <|.. count_assigner

@enduml

PlantUML version 1.2021.11(Sat Oct 02 15:26:11 CEST 2021)
(GPL source distribution)
Java Runtime: OpenJDK Runtime Environment
JVM: OpenJDK 64-Bit Server VM
Default Encoding: Cp1250
Language: pl
Country: PL
--></g></svg>