<?xml version="1.0" encoding="UTF-8" standalone="no"?><svg xmlns="http://www.w3.org/2000/svg" xmlns:xlink="http://www.w3.org/1999/xlink" contentScriptType="application/ecmascript" contentStyleType="text/css" height="608.3px" preserveAspectRatio="none" style="width:829px;height:608px;background:#FFFFFF;" version="1.1" viewBox="0 0 829 608" width="829.5px" zoomAndPan="magnify"><defs><filter height="300%" id="fazr2z5stk531" width="300%" x="-1" y="-1"><feGaussianBlur result="blurOut" stdDeviation="1.3999999999999997"/><feColorMatrix in="blurOut" result="blurOut2" type="matrix" values="0 0 0 0 0 0 0 0 0 0 0 0 0 0 0 0 0 0 .4 0"/><feOffset dx="2.7999999999999994" dy="2.7999999999999994" in="blurOut2" result="blurOut3"/><feBlend in="SourceGraphic" in2="blurOut3" mode="normal"/></filter></defs><g><!--MD5=[71453aad0c321cc4e5ffc62c5a278467]
class unit--><rect codeLine="4" fill="#FEFECE" filter="url(#fazr2z5stk531)" height="57.0555" id="unit" style="stroke:#A80036;stroke-width:1.0499999999999998;" width="39.2" x="390.25" y="109.9"/><ellipse cx="402.01" cy="121.1" fill="#ADD1B2" rx="7.7" ry="7.7" style="stroke:#A80036;stroke-width:0.6999999999999998;"/><path d="M403.41,118.65 Q403.5522,118.3 403.7162,118.125 Q403.8803,117.95 404.0662,117.95 Q404.3944,117.95 404.6022,118.1469 Q404.81,118.3437 404.81,118.8031 L404.81,119.8969 Q404.81,120.3562 404.6131,120.5531 Q404.4162,120.75 404.11,120.75 Q403.8366,120.75 403.6616,120.6297 Q403.4866,120.5094 403.41,120.1922 Q403.3772,119.9734 403.2569,119.8531 Q403.0381,119.6234 402.6444,119.4922 Q402.2506,119.35 401.8569,119.35 Q401.3647,119.35 400.9491,119.5469 Q400.5444,119.7437 400.2272,120.1812 Q399.91,120.6187 399.91,121.2203 L399.91,121.8656 Q399.91,122.5875 400.5006,123.0687 Q401.0912,123.55 402.1412,123.55 Q402.7647,123.55 403.2022,123.4078 Q403.4537,123.3312 403.7381,123.0797 Q403.9241,122.9375 404.0225,122.8937 Q404.1209,122.85 404.2412,122.85 Q404.4709,122.85 404.635,123.0359 Q404.81,123.2109 404.81,123.4625 Q404.81,123.7031 404.5694,123.9875 Q404.2194,124.4031 403.6616,124.6328 Q402.9287,124.95 402.0319,124.95 Q400.9819,124.95 400.1397,124.5344 Q399.4616,124.2062 398.9803,123.4953 Q398.51,122.7844 398.51,121.9422 L398.51,121.1766 Q398.51,120.3016 398.9256,119.5359 Q399.3522,118.7703 400.085,118.3656 Q400.8287,117.95 401.66,117.95 Q402.1631,117.95 402.6006,118.125 Q403.0381,118.3 403.41,118.65 Z " fill="#000000"/><text fill="#000000" font-family="sans-serif" font-size="8.4" lengthAdjust="spacing" textLength="14" x="412.09" y="124.5371">unit</text><line style="stroke:#A80036;stroke-width:1.0499999999999998;" x1="390.95" x2="428.75" y1="132.3" y2="132.3"/><text fill="#000000" font-family="sans-serif" font-size="7.7" lengthAdjust="spacing" textLength="30.1" x="394.45" y="143.0933">executor</text><text fill="#000000" font-family="sans-serif" font-size="7.7" lengthAdjust="spacing" textLength="23.1" x="394.45" y="152.7784">sorting</text><text fill="#000000" font-family="sans-serif" font-size="7.7" lengthAdjust="spacing" textLength="30.8" x="394.45" y="162.4636">averager</text><!--MD5=[6d7fd4309facb33f738399fe9734b47b]
class invariants--><rect codeLine="11" fill="#FEFECE" filter="url(#fazr2z5stk531)" height="22.4" id="invariants" style="stroke:#A80036;stroke-width:1.0499999999999998;" width="59.5" x="454.3" y="127.4"/><ellipse cx="464.8" cy="138.6" fill="#ADD1B2" rx="7.7" ry="7.7" style="stroke:#A80036;stroke-width:0.6999999999999998;"/><path d="M466.2,136.15 Q466.3422,135.8 466.5062,135.625 Q466.6703,135.45 466.8562,135.45 Q467.1844,135.45 467.3922,135.6469 Q467.6,135.8437 467.6,136.3031 L467.6,137.3969 Q467.6,137.8562 467.4031,138.0531 Q467.2062,138.25 466.9,138.25 Q466.6266,138.25 466.4516,138.1297 Q466.2766,138.0094 466.2,137.6922 Q466.1672,137.4734 466.0469,137.3531 Q465.8281,137.1234 465.4344,136.9922 Q465.0406,136.85 464.6469,136.85 Q464.1547,136.85 463.7391,137.0469 Q463.3344,137.2437 463.0172,137.6812 Q462.7,138.1187 462.7,138.7203 L462.7,139.3656 Q462.7,140.0875 463.2906,140.5687 Q463.8812,141.05 464.9312,141.05 Q465.5547,141.05 465.9922,140.9078 Q466.2437,140.8312 466.5281,140.5797 Q466.7141,140.4375 466.8125,140.3937 Q466.9109,140.35 467.0312,140.35 Q467.2609,140.35 467.425,140.5359 Q467.6,140.7109 467.6,140.9625 Q467.6,141.2031 467.3594,141.4875 Q467.0094,141.9031 466.4516,142.1328 Q465.7187,142.45 464.8219,142.45 Q463.7719,142.45 462.9297,142.0344 Q462.2516,141.7062 461.7703,140.9953 Q461.3,140.2844 461.3,139.4422 L461.3,138.6766 Q461.3,137.8016 461.7156,137.0359 Q462.1422,136.2703 462.875,135.8656 Q463.6187,135.45 464.45,135.45 Q464.9531,135.45 465.3906,135.625 Q465.8281,135.8 466.2,136.15 Z " fill="#000000"/><text fill="#000000" font-family="sans-serif" font-size="8.4" lengthAdjust="spacing" textLength="37.1" x="474.6" y="142.0371">invariants</text><!--MD5=[664cc1e260bbfa7de9aceea3ddb26b22]
class engine--><rect codeLine="13" fill="#FEFECE" filter="url(#fazr2z5stk531)" height="62.6555" id="engine" style="stroke:#A80036;stroke-width:1.0499999999999998;" width="58.8" x="417.55" y="4.9"/><ellipse cx="432.46" cy="16.1" fill="#ADD1B2" rx="7.7" ry="7.7" style="stroke:#A80036;stroke-width:0.6999999999999998;"/><path d="M433.86,13.65 Q434.0022,13.3 434.1662,13.125 Q434.3303,12.95 434.5162,12.95 Q434.8444,12.95 435.0522,13.1469 Q435.26,13.3437 435.26,13.8031 L435.26,14.8969 Q435.26,15.3562 435.0631,15.5531 Q434.8662,15.75 434.56,15.75 Q434.2866,15.75 434.1116,15.6297 Q433.9366,15.5094 433.86,15.1922 Q433.8272,14.9734 433.7069,14.8531 Q433.4881,14.6234 433.0944,14.4922 Q432.7006,14.35 432.3069,14.35 Q431.8147,14.35 431.3991,14.5469 Q430.9944,14.7437 430.6772,15.1812 Q430.36,15.6187 430.36,16.2203 L430.36,16.8656 Q430.36,17.5875 430.9506,18.0687 Q431.5412,18.55 432.5912,18.55 Q433.2147,18.55 433.6522,18.4078 Q433.9037,18.3312 434.1881,18.0797 Q434.3741,17.9375 434.4725,17.8937 Q434.5709,17.85 434.6912,17.85 Q434.9209,17.85 435.085,18.0359 Q435.26,18.2109 435.26,18.4625 Q435.26,18.7031 435.0194,18.9875 Q434.6694,19.4031 434.1116,19.6328 Q433.3787,19.95 432.4819,19.95 Q431.4319,19.95 430.5897,19.5344 Q429.9116,19.2062 429.4303,18.4953 Q428.96,17.7844 428.96,16.9422 L428.96,16.1766 Q428.96,15.3016 429.3756,14.5359 Q429.8022,13.7703 430.535,13.3656 Q431.2787,12.95 432.11,12.95 Q432.6131,12.95 433.0506,13.125 Q433.4881,13.3 433.86,13.65 Z " fill="#000000"/><text fill="#000000" font-family="sans-serif" font-size="8.4" lengthAdjust="spacing" textLength="26.6" x="443.24" y="19.5371">engine</text><line style="stroke:#A80036;stroke-width:1.0499999999999998;" x1="418.25" x2="475.65" y1="27.3" y2="27.3"/><text fill="#000000" font-family="sans-serif" font-size="7.7" lengthAdjust="spacing" textLength="50.4" x="421.75" y="38.0933">List&lt;unit&gt; units</text><text fill="#000000" font-family="sans-serif" font-size="7.7" lengthAdjust="spacing" textLength="32.9" x="421.75" y="47.7784">invariants</text><line style="stroke:#A80036;stroke-width:1.0499999999999998;" x1="418.25" x2="475.65" y1="52.2703" y2="52.2703"/><text fill="#000000" font-family="sans-serif" font-size="7.7" lengthAdjust="spacing" textLength="18.2" x="421.75" y="63.0636">test()</text><!--MD5=[2b25c74531c39e7bc052d661516b47c4]
class sorting--><rect codeLine="20" fill="#FEFECE" filter="url(#fazr2z5stk531)" height="37.6852" id="sorting" style="stroke:#A80036;stroke-width:1.0499999999999998;" width="48.3" x="294.7" y="223.3"/><ellipse cx="305.2" cy="234.5" fill="#B4A7E5" rx="7.7" ry="7.7" style="stroke:#A80036;stroke-width:0.6999999999999998;"/><path d="M305.9,232.4 L305.9,236.6 L307.3,236.6 L307.6391,236.6 L308,237.0375 L308,237.3 L308,237.5625 L307.6391,238 L307.3,238 L303.1,238 L302.7609,238 L302.4,237.5625 L302.4,237.3 L302.4,237.0375 L302.7609,236.6 L303.1,236.6 L304.5,236.6 L304.5,232.4 L303.1,232.4 L302.7609,232.4 L302.4,231.9625 L302.4,231.7 L302.4,231.4375 L302.7609,231 L303.1,231 L307.3,231 L307.6391,231 L308,231.4375 L308,231.7 L308,231.9625 L307.6391,232.4 L307.3,232.4 L305.9,232.4 Z " fill="#000000"/><text fill="#000000" font-family="sans-serif" font-size="8.4" font-style="italic" lengthAdjust="spacing" textLength="25.9" x="315" y="237.9371">sorting</text><line style="stroke:#A80036;stroke-width:1.0499999999999998;" x1="295.4" x2="342.3" y1="245.7" y2="245.7"/><text fill="#000000" font-family="sans-serif" font-size="7.7" lengthAdjust="spacing" textLength="18.9" x="298.9" y="256.4933">sort()</text><polygon fill="none" points="313.3636,260.9852,314.1544,275.7968,304.7452,273.0571" style="stroke:#A80036;stroke-width:0.6999999999999998;"/><line style="stroke:#A80036;stroke-width:0.6999999999999998;" x1="309.4498" x2="309.05" y1="274.427" y2="275.8"/><line style="stroke:#A80036;stroke-width:0.6999999999999998;" x1="335.3013" x2="347.543" y1="223.3" y2="209.279"/><line style="stroke:#A80036;stroke-width:0.6999999999999998;" x1="343" x2="364.931" y1="257.9694" y2="272.342"/><!--MD5=[30394bc8b51c2c788e54ce8556951672]
class averager--><rect codeLine="25" fill="#FEFECE" filter="url(#fazr2z5stk531)" height="37.6852" id="averager" style="stroke:#A80036;stroke-width:1.0499999999999998;" width="56" x="381.85" y="223.3"/><ellipse cx="392.35" cy="234.5" fill="#ADD1B2" rx="7.7" ry="7.7" style="stroke:#A80036;stroke-width:0.6999999999999998;"/><path d="M393.75,232.05 Q393.8922,231.7 394.0562,231.525 Q394.2203,231.35 394.4062,231.35 Q394.7344,231.35 394.9422,231.5469 Q395.15,231.7437 395.15,232.2031 L395.15,233.2969 Q395.15,233.7562 394.9531,233.9531 Q394.7562,234.15 394.45,234.15 Q394.1766,234.15 394.0016,234.0297 Q393.8266,233.9094 393.75,233.5922 Q393.7172,233.3734 393.5969,233.2531 Q393.3781,233.0234 392.9844,232.8922 Q392.5906,232.75 392.1969,232.75 Q391.7047,232.75 391.2891,232.9469 Q390.8844,233.1437 390.5672,233.5812 Q390.25,234.0187 390.25,234.6203 L390.25,235.2656 Q390.25,235.9875 390.8406,236.4687 Q391.4312,236.95 392.4812,236.95 Q393.1047,236.95 393.5422,236.8078 Q393.7937,236.7312 394.0781,236.4797 Q394.2641,236.3375 394.3625,236.2937 Q394.4609,236.25 394.5812,236.25 Q394.8109,236.25 394.975,236.4359 Q395.15,236.6109 395.15,236.8625 Q395.15,237.1031 394.9094,237.3875 Q394.5594,237.8031 394.0016,238.0328 Q393.2687,238.35 392.3719,238.35 Q391.3219,238.35 390.4797,237.9344 Q389.8016,237.6062 389.3203,236.8953 Q388.85,236.1844 388.85,235.3422 L388.85,234.5766 Q388.85,233.7016 389.2656,232.9359 Q389.6922,232.1703 390.425,231.7656 Q391.1687,231.35 392,231.35 Q392.5031,231.35 392.9406,231.525 Q393.3781,231.7 393.75,232.05 Z " fill="#000000"/><text fill="#000000" font-family="sans-serif" font-size="8.4" lengthAdjust="spacing" textLength="33.6" x="402.15" y="237.9371">averager</text><line style="stroke:#A80036;stroke-width:1.0499999999999998;" x1="382.55" x2="437.15" y1="245.7" y2="245.7"/><text fill="#000000" font-family="sans-serif" font-size="7.7" lengthAdjust="spacing" textLength="33.6" x="386.05" y="256.4933">average()</text><!--MD5=[a01b6a91462222df0d91258901fdd01a]
class executor--><rect codeLine="30" fill="#FEFECE" filter="url(#fazr2z5stk531)" height="37.6852" id="executor" style="stroke:#A80036;stroke-width:1.0499999999999998;" width="54.6" x="462.35" y="223.3"/><ellipse cx="472.85" cy="234.5" fill="#ADD1B2" rx="7.7" ry="7.7" style="stroke:#A80036;stroke-width:0.6999999999999998;"/><path d="M474.25,232.05 Q474.3922,231.7 474.5562,231.525 Q474.7203,231.35 474.9062,231.35 Q475.2344,231.35 475.4422,231.5469 Q475.65,231.7437 475.65,232.2031 L475.65,233.2969 Q475.65,233.7562 475.4531,233.9531 Q475.2562,234.15 474.95,234.15 Q474.6766,234.15 474.5016,234.0297 Q474.3266,233.9094 474.25,233.5922 Q474.2172,233.3734 474.0969,233.2531 Q473.8781,233.0234 473.4844,232.8922 Q473.0906,232.75 472.6969,232.75 Q472.2047,232.75 471.7891,232.9469 Q471.3844,233.1437 471.0672,233.5812 Q470.75,234.0187 470.75,234.6203 L470.75,235.2656 Q470.75,235.9875 471.3406,236.4687 Q471.9312,236.95 472.9812,236.95 Q473.6047,236.95 474.0422,236.8078 Q474.2937,236.7312 474.5781,236.4797 Q474.7641,236.3375 474.8625,236.2937 Q474.9609,236.25 475.0812,236.25 Q475.3109,236.25 475.475,236.4359 Q475.65,236.6109 475.65,236.8625 Q475.65,237.1031 475.4094,237.3875 Q475.0594,237.8031 474.5016,238.0328 Q473.7687,238.35 472.8719,238.35 Q471.8219,238.35 470.9797,237.9344 Q470.3016,237.6062 469.8203,236.8953 Q469.35,236.1844 469.35,235.3422 L469.35,234.5766 Q469.35,233.7016 469.7656,232.9359 Q470.1922,232.1703 470.925,231.7656 Q471.6687,231.35 472.5,231.35 Q473.0031,231.35 473.4406,231.525 Q473.8781,231.7 474.25,232.05 Z " fill="#000000"/><text fill="#000000" font-family="sans-serif" font-size="8.4" lengthAdjust="spacing" textLength="32.2" x="482.65" y="237.9371">executor</text><line style="stroke:#A80036;stroke-width:1.0499999999999998;" x1="463.05" x2="516.25" y1="245.7" y2="245.7"/><text fill="#000000" font-family="sans-serif" font-size="7.7" lengthAdjust="spacing" textLength="32.9" x="466.55" y="256.4933">execute()</text><!--MD5=[a374dd668a24490351809ae1a67ffbfc]
class quick_sort--><rect codeLine="35" fill="#FEFECE" filter="url(#fazr2z5stk531)" height="37.6852" id="quick_sort" style="stroke:#A80036;stroke-width:1.0499999999999998;" width="62.3" x="4.9" y="326.9"/><ellipse cx="15.4" cy="338.1" fill="#ADD1B2" rx="7.7" ry="7.7" style="stroke:#A80036;stroke-width:0.6999999999999998;"/><path d="M16.8,335.65 Q16.9422,335.3 17.1062,335.125 Q17.2703,334.95 17.4562,334.95 Q17.7844,334.95 17.9922,335.1469 Q18.2,335.3437 18.2,335.8031 L18.2,336.8969 Q18.2,337.3562 18.0031,337.5531 Q17.8062,337.75 17.5,337.75 Q17.2266,337.75 17.0516,337.6297 Q16.8766,337.5094 16.8,337.1922 Q16.7672,336.9734 16.6469,336.8531 Q16.4281,336.6234 16.0344,336.4922 Q15.6406,336.35 15.2469,336.35 Q14.7547,336.35 14.3391,336.5469 Q13.9344,336.7437 13.6172,337.1812 Q13.3,337.6187 13.3,338.2203 L13.3,338.8656 Q13.3,339.5875 13.8906,340.0687 Q14.4812,340.55 15.5312,340.55 Q16.1547,340.55 16.5922,340.4078 Q16.8437,340.3312 17.1281,340.0797 Q17.3141,339.9375 17.4125,339.8937 Q17.5109,339.85 17.6312,339.85 Q17.8609,339.85 18.025,340.0359 Q18.2,340.2109 18.2,340.4625 Q18.2,340.7031 17.9594,340.9875 Q17.6094,341.4031 17.0516,341.6328 Q16.3187,341.95 15.4219,341.95 Q14.3719,341.95 13.5297,341.5344 Q12.8516,341.2062 12.3703,340.4953 Q11.9,339.7844 11.9,338.9422 L11.9,338.1766 Q11.9,337.3016 12.3156,336.5359 Q12.7422,335.7703 13.475,335.3656 Q14.2187,334.95 15.05,334.95 Q15.5531,334.95 15.9906,335.125 Q16.4281,335.3 16.8,335.65 Z " fill="#000000"/><text fill="#000000" font-family="sans-serif" font-size="8.4" lengthAdjust="spacing" textLength="39.9" x="25.2" y="341.5371">quick_sort</text><line style="stroke:#A80036;stroke-width:1.0499999999999998;" x1="5.6" x2="66.5" y1="349.3" y2="349.3"/><text fill="#000000" font-family="sans-serif" font-size="7.7" lengthAdjust="spacing" textLength="18.9" x="9.1" y="360.0933">sort()</text><!--MD5=[8d7cb87b8737d2a1f7f7e67315dc83e0]
class dual_pivot_quick_sort--><rect codeLine="40" fill="#FEFECE" filter="url(#fazr2z5stk531)" height="37.6852" id="dual_pivot_quick_sort" style="stroke:#A80036;stroke-width:1.0499999999999998;" width="106.4" x="92.05" y="326.9"/><ellipse cx="102.55" cy="338.1" fill="#ADD1B2" rx="7.7" ry="7.7" style="stroke:#A80036;stroke-width:0.6999999999999998;"/><path d="M103.95,335.65 Q104.0922,335.3 104.2562,335.125 Q104.4203,334.95 104.6062,334.95 Q104.9344,334.95 105.1422,335.1469 Q105.35,335.3437 105.35,335.8031 L105.35,336.8969 Q105.35,337.3562 105.1531,337.5531 Q104.9562,337.75 104.65,337.75 Q104.3766,337.75 104.2016,337.6297 Q104.0266,337.5094 103.95,337.1922 Q103.9172,336.9734 103.7969,336.8531 Q103.5781,336.6234 103.1844,336.4922 Q102.7906,336.35 102.3969,336.35 Q101.9047,336.35 101.4891,336.5469 Q101.0844,336.7437 100.7672,337.1812 Q100.45,337.6187 100.45,338.2203 L100.45,338.8656 Q100.45,339.5875 101.0406,340.0687 Q101.6312,340.55 102.6812,340.55 Q103.3047,340.55 103.7422,340.4078 Q103.9937,340.3312 104.2781,340.0797 Q104.4641,339.9375 104.5625,339.8937 Q104.6609,339.85 104.7812,339.85 Q105.0109,339.85 105.175,340.0359 Q105.35,340.2109 105.35,340.4625 Q105.35,340.7031 105.1094,340.9875 Q104.7594,341.4031 104.2016,341.6328 Q103.4687,341.95 102.5719,341.95 Q101.5219,341.95 100.6797,341.5344 Q100.0016,341.2062 99.5203,340.4953 Q99.05,339.7844 99.05,338.9422 L99.05,338.1766 Q99.05,337.3016 99.4656,336.5359 Q99.8922,335.7703 100.625,335.3656 Q101.3687,334.95 102.2,334.95 Q102.7031,334.95 103.1406,335.125 Q103.5781,335.3 103.95,335.65 Z " fill="#000000"/><text fill="#000000" font-family="sans-serif" font-size="8.4" lengthAdjust="spacing" textLength="84" x="112.35" y="341.5371">dual_pivot_quick_sort</text><line style="stroke:#A80036;stroke-width:1.0499999999999998;" x1="92.75" x2="197.75" y1="349.3" y2="349.3"/><text fill="#000000" font-family="sans-serif" font-size="7.7" lengthAdjust="spacing" textLength="18.9" x="96.25" y="360.0933">sort()</text><!--MD5=[d6b14b5de6ec22c753678eeb3efe31b1]
class quick_merge_sort--><rect codeLine="45" fill="#FEFECE" filter="url(#fazr2z5stk531)" height="37.6852" id="quick_merge_sort" style="stroke:#A80036;stroke-width:1.0499999999999998;" width="92.4" x="222.95" y="326.9"/><ellipse cx="233.45" cy="338.1" fill="#ADD1B2" rx="7.7" ry="7.7" style="stroke:#A80036;stroke-width:0.6999999999999998;"/><path d="M234.85,335.65 Q234.9922,335.3 235.1562,335.125 Q235.3203,334.95 235.5062,334.95 Q235.8344,334.95 236.0422,335.1469 Q236.25,335.3437 236.25,335.8031 L236.25,336.8969 Q236.25,337.3562 236.0531,337.5531 Q235.8562,337.75 235.55,337.75 Q235.2766,337.75 235.1016,337.6297 Q234.9266,337.5094 234.85,337.1922 Q234.8172,336.9734 234.6969,336.8531 Q234.4781,336.6234 234.0844,336.4922 Q233.6906,336.35 233.2969,336.35 Q232.8047,336.35 232.3891,336.5469 Q231.9844,336.7437 231.6672,337.1812 Q231.35,337.6187 231.35,338.2203 L231.35,338.8656 Q231.35,339.5875 231.9406,340.0687 Q232.5312,340.55 233.5812,340.55 Q234.2047,340.55 234.6422,340.4078 Q234.8937,340.3312 235.1781,340.0797 Q235.3641,339.9375 235.4625,339.8937 Q235.5609,339.85 235.6812,339.85 Q235.9109,339.85 236.075,340.0359 Q236.25,340.2109 236.25,340.4625 Q236.25,340.7031 236.0094,340.9875 Q235.6594,341.4031 235.1016,341.6328 Q234.3687,341.95 233.4719,341.95 Q232.4219,341.95 231.5797,341.5344 Q230.9016,341.2062 230.4203,340.4953 Q229.95,339.7844 229.95,338.9422 L229.95,338.1766 Q229.95,337.3016 230.3656,336.5359 Q230.7922,335.7703 231.525,335.3656 Q232.2687,334.95 233.1,334.95 Q233.6031,334.95 234.0406,335.125 Q234.4781,335.3 234.85,335.65 Z " fill="#000000"/><text fill="#000000" font-family="sans-serif" font-size="8.4" lengthAdjust="spacing" textLength="70" x="243.25" y="341.5371">quick_merge_sort</text><line style="stroke:#A80036;stroke-width:1.0499999999999998;" x1="223.65" x2="314.65" y1="349.3" y2="349.3"/><text fill="#000000" font-family="sans-serif" font-size="7.7" lengthAdjust="spacing" textLength="18.9" x="227.15" y="360.0933">sort()</text><!--MD5=[04243791bb1d686b7c6816d592ed440c]
class intro_sort--><rect codeLine="50" fill="#FEFECE" filter="url(#fazr2z5stk531)" height="37.6852" id="intro_sort" style="stroke:#A80036;stroke-width:1.0499999999999998;" width="58.8" x="339.85" y="326.9"/><ellipse cx="350.35" cy="338.1" fill="#ADD1B2" rx="7.7" ry="7.7" style="stroke:#A80036;stroke-width:0.6999999999999998;"/><path d="M351.75,335.65 Q351.8922,335.3 352.0562,335.125 Q352.2203,334.95 352.4062,334.95 Q352.7344,334.95 352.9422,335.1469 Q353.15,335.3437 353.15,335.8031 L353.15,336.8969 Q353.15,337.3562 352.9531,337.5531 Q352.7562,337.75 352.45,337.75 Q352.1766,337.75 352.0016,337.6297 Q351.8266,337.5094 351.75,337.1922 Q351.7172,336.9734 351.5969,336.8531 Q351.3781,336.6234 350.9844,336.4922 Q350.5906,336.35 350.1969,336.35 Q349.7047,336.35 349.2891,336.5469 Q348.8844,336.7437 348.5672,337.1812 Q348.25,337.6187 348.25,338.2203 L348.25,338.8656 Q348.25,339.5875 348.8406,340.0687 Q349.4312,340.55 350.4812,340.55 Q351.1047,340.55 351.5422,340.4078 Q351.7937,340.3312 352.0781,340.0797 Q352.2641,339.9375 352.3625,339.8937 Q352.4609,339.85 352.5812,339.85 Q352.8109,339.85 352.975,340.0359 Q353.15,340.2109 353.15,340.4625 Q353.15,340.7031 352.9094,340.9875 Q352.5594,341.4031 352.0016,341.6328 Q351.2687,341.95 350.3719,341.95 Q349.3219,341.95 348.4797,341.5344 Q347.8016,341.2062 347.3203,340.4953 Q346.85,339.7844 346.85,338.9422 L346.85,338.1766 Q346.85,337.3016 347.2656,336.5359 Q347.6922,335.7703 348.425,335.3656 Q349.1687,334.95 350,334.95 Q350.5031,334.95 350.9406,335.125 Q351.3781,335.3 351.75,335.65 Z " fill="#000000"/><text fill="#000000" font-family="sans-serif" font-size="8.4" lengthAdjust="spacing" textLength="36.4" x="360.15" y="341.5371">intro_sort</text><line style="stroke:#A80036;stroke-width:1.0499999999999998;" x1="340.55" x2="397.95" y1="349.3" y2="349.3"/><text fill="#000000" font-family="sans-serif" font-size="7.7" lengthAdjust="spacing" textLength="18.9" x="344.05" y="360.0933">sort()</text><!--MD5=[1ba5dfe1cb4c9cc2fe8e8b12e660a2c9]
class merge_sort--><rect codeLine="55" fill="#FEFECE" filter="url(#fazr2z5stk531)" height="37.6852" id="merge_sort" style="stroke:#A80036;stroke-width:1.0499999999999998;" width="67.2" x="423.15" y="326.9"/><ellipse cx="433.65" cy="338.1" fill="#ADD1B2" rx="7.7" ry="7.7" style="stroke:#A80036;stroke-width:0.6999999999999998;"/><path d="M435.05,335.65 Q435.1922,335.3 435.3562,335.125 Q435.5203,334.95 435.7062,334.95 Q436.0344,334.95 436.2422,335.1469 Q436.45,335.3437 436.45,335.8031 L436.45,336.8969 Q436.45,337.3562 436.2531,337.5531 Q436.0562,337.75 435.75,337.75 Q435.4766,337.75 435.3016,337.6297 Q435.1266,337.5094 435.05,337.1922 Q435.0172,336.9734 434.8969,336.8531 Q434.6781,336.6234 434.2844,336.4922 Q433.8906,336.35 433.4969,336.35 Q433.0047,336.35 432.5891,336.5469 Q432.1844,336.7437 431.8672,337.1812 Q431.55,337.6187 431.55,338.2203 L431.55,338.8656 Q431.55,339.5875 432.1406,340.0687 Q432.7312,340.55 433.7812,340.55 Q434.4047,340.55 434.8422,340.4078 Q435.0937,340.3312 435.3781,340.0797 Q435.5641,339.9375 435.6625,339.8937 Q435.7609,339.85 435.8812,339.85 Q436.1109,339.85 436.275,340.0359 Q436.45,340.2109 436.45,340.4625 Q436.45,340.7031 436.2094,340.9875 Q435.8594,341.4031 435.3016,341.6328 Q434.5687,341.95 433.6719,341.95 Q432.6219,341.95 431.7797,341.5344 Q431.1016,341.2062 430.6203,340.4953 Q430.15,339.7844 430.15,338.9422 L430.15,338.1766 Q430.15,337.3016 430.5656,336.5359 Q430.9922,335.7703 431.725,335.3656 Q432.4687,334.95 433.3,334.95 Q433.8031,334.95 434.2406,335.125 Q434.6781,335.3 435.05,335.65 Z " fill="#000000"/><text fill="#000000" font-family="sans-serif" font-size="8.4" lengthAdjust="spacing" textLength="44.8" x="443.45" y="341.5371">merge_sort</text><line style="stroke:#A80036;stroke-width:1.0499999999999998;" x1="423.85" x2="489.65" y1="349.3" y2="349.3"/><text fill="#000000" font-family="sans-serif" font-size="7.7" lengthAdjust="spacing" textLength="18.9" x="427.35" y="360.0933">sort()</text><!--MD5=[e07f44cd4bc7474680fe4115be11d406]
class partition--><rect codeLine="60" fill="#FEFECE" filter="url(#fazr2z5stk531)" height="37.6852" id="partition" style="stroke:#A80036;stroke-width:1.0499999999999998;" width="53.2" x="141.75" y="416.5"/><ellipse cx="152.25" cy="427.7" fill="#B4A7E5" rx="7.7" ry="7.7" style="stroke:#A80036;stroke-width:0.6999999999999998;"/><path d="M152.95,425.6 L152.95,429.8 L154.35,429.8 L154.6891,429.8 L155.05,430.2375 L155.05,430.5 L155.05,430.7625 L154.6891,431.2 L154.35,431.2 L150.15,431.2 L149.8109,431.2 L149.45,430.7625 L149.45,430.5 L149.45,430.2375 L149.8109,429.8 L150.15,429.8 L151.55,429.8 L151.55,425.6 L150.15,425.6 L149.8109,425.6 L149.45,425.1625 L149.45,424.9 L149.45,424.6375 L149.8109,424.2 L150.15,424.2 L154.35,424.2 L154.6891,424.2 L155.05,424.6375 L155.05,424.9 L155.05,425.1625 L154.6891,425.6 L154.35,425.6 L152.95,425.6 Z " fill="#000000"/><text fill="#000000" font-family="sans-serif" font-size="8.4" font-style="italic" lengthAdjust="spacing" textLength="30.8" x="162.05" y="431.1371">partition</text><line style="stroke:#A80036;stroke-width:1.0499999999999998;" x1="142.45" x2="194.25" y1="438.9" y2="438.9"/><text fill="#000000" font-family="sans-serif" font-size="7.7" lengthAdjust="spacing" textLength="32.2" x="145.95" y="449.6933">partition()</text><!--MD5=[ca20d556de9b13caf848163a3b6cfd47]
class lomuto_partition--><rect codeLine="65" fill="#FEFECE" filter="url(#fazr2z5stk531)" height="37.6852" id="lomuto_partition" style="stroke:#A80036;stroke-width:1.0499999999999998;" width="84.7" x="42" y="496.3"/><ellipse cx="52.5" cy="507.5" fill="#ADD1B2" rx="7.7" ry="7.7" style="stroke:#A80036;stroke-width:0.6999999999999998;"/><path d="M53.9,505.05 Q54.0422,504.7 54.2062,504.525 Q54.3703,504.35 54.5562,504.35 Q54.8844,504.35 55.0922,504.5469 Q55.3,504.7437 55.3,505.2031 L55.3,506.2969 Q55.3,506.7562 55.1031,506.9531 Q54.9062,507.15 54.6,507.15 Q54.3266,507.15 54.1516,507.0297 Q53.9766,506.9094 53.9,506.5922 Q53.8672,506.3734 53.7469,506.2531 Q53.5281,506.0234 53.1344,505.8922 Q52.7406,505.75 52.3469,505.75 Q51.8547,505.75 51.4391,505.9469 Q51.0344,506.1437 50.7172,506.5812 Q50.4,507.0187 50.4,507.6203 L50.4,508.2656 Q50.4,508.9875 50.9906,509.4687 Q51.5812,509.95 52.6312,509.95 Q53.2547,509.95 53.6922,509.8078 Q53.9437,509.7312 54.2281,509.4797 Q54.4141,509.3375 54.5125,509.2937 Q54.6109,509.25 54.7312,509.25 Q54.9609,509.25 55.125,509.4359 Q55.3,509.6109 55.3,509.8625 Q55.3,510.1031 55.0594,510.3875 Q54.7094,510.8031 54.1516,511.0328 Q53.4187,511.35 52.5219,511.35 Q51.4719,511.35 50.6297,510.9344 Q49.9516,510.6062 49.4703,509.8953 Q49,509.1844 49,508.3422 L49,507.5766 Q49,506.7016 49.4156,505.9359 Q49.8422,505.1703 50.575,504.7656 Q51.3187,504.35 52.15,504.35 Q52.6531,504.35 53.0906,504.525 Q53.5281,504.7 53.9,505.05 Z " fill="#000000"/><text fill="#000000" font-family="sans-serif" font-size="8.4" lengthAdjust="spacing" textLength="62.3" x="62.3" y="510.9371">lomuto_partition</text><line style="stroke:#A80036;stroke-width:1.0499999999999998;" x1="42.7" x2="126" y1="518.7" y2="518.7"/><text fill="#000000" font-family="sans-serif" font-size="7.7" lengthAdjust="spacing" textLength="32.2" x="46.2" y="529.4933">partition()</text><!--MD5=[efb46afa10f5565d1c0b3911aeeb84f4]
class hoare_partition--><rect codeLine="70" fill="#FEFECE" filter="url(#fazr2z5stk531)" height="37.6852" id="hoare_partition" style="stroke:#A80036;stroke-width:1.0499999999999998;" width="80.5" x="151.2" y="496.3"/><ellipse cx="161.7" cy="507.5" fill="#ADD1B2" rx="7.7" ry="7.7" style="stroke:#A80036;stroke-width:0.6999999999999998;"/><path d="M163.1,505.05 Q163.2422,504.7 163.4062,504.525 Q163.5703,504.35 163.7562,504.35 Q164.0844,504.35 164.2922,504.5469 Q164.5,504.7437 164.5,505.2031 L164.5,506.2969 Q164.5,506.7562 164.3031,506.9531 Q164.1062,507.15 163.8,507.15 Q163.5266,507.15 163.3516,507.0297 Q163.1766,506.9094 163.1,506.5922 Q163.0672,506.3734 162.9469,506.2531 Q162.7281,506.0234 162.3344,505.8922 Q161.9406,505.75 161.5469,505.75 Q161.0547,505.75 160.6391,505.9469 Q160.2344,506.1437 159.9172,506.5812 Q159.6,507.0187 159.6,507.6203 L159.6,508.2656 Q159.6,508.9875 160.1906,509.4687 Q160.7812,509.95 161.8312,509.95 Q162.4547,509.95 162.8922,509.8078 Q163.1437,509.7312 163.4281,509.4797 Q163.6141,509.3375 163.7125,509.2937 Q163.8109,509.25 163.9312,509.25 Q164.1609,509.25 164.325,509.4359 Q164.5,509.6109 164.5,509.8625 Q164.5,510.1031 164.2594,510.3875 Q163.9094,510.8031 163.3516,511.0328 Q162.6187,511.35 161.7219,511.35 Q160.6719,511.35 159.8297,510.9344 Q159.1516,510.6062 158.6703,509.8953 Q158.2,509.1844 158.2,508.3422 L158.2,507.5766 Q158.2,506.7016 158.6156,505.9359 Q159.0422,505.1703 159.775,504.7656 Q160.5187,504.35 161.35,504.35 Q161.8531,504.35 162.2906,504.525 Q162.7281,504.7 163.1,505.05 Z " fill="#000000"/><text fill="#000000" font-family="sans-serif" font-size="8.4" lengthAdjust="spacing" textLength="58.1" x="171.5" y="510.9371">hoare_partition</text><line style="stroke:#A80036;stroke-width:1.0499999999999998;" x1="151.9" x2="231" y1="518.7" y2="518.7"/><text fill="#000000" font-family="sans-serif" font-size="7.7" lengthAdjust="spacing" textLength="32.2" x="155.4" y="529.4933">partition()</text><!--MD5=[b7fdae1517bfb210dbb895153335cd24]
class operation--><rect codeLine="75" fill="#FEFECE" filter="url(#fazr2z5stk531)" height="57.0555" id="operation" style="stroke:#A80036;stroke-width:1.0499999999999998;" width="58.8" x="514.85" y="317.1"/><ellipse cx="525.35" cy="328.3" fill="#ADD1B2" rx="7.7" ry="7.7" style="stroke:#A80036;stroke-width:0.6999999999999998;"/><path d="M526.75,325.85 Q526.8922,325.5 527.0562,325.325 Q527.2203,325.15 527.4062,325.15 Q527.7344,325.15 527.9422,325.3469 Q528.15,325.5437 528.15,326.0031 L528.15,327.0969 Q528.15,327.5562 527.9531,327.7531 Q527.7562,327.95 527.45,327.95 Q527.1766,327.95 527.0016,327.8297 Q526.8266,327.7094 526.75,327.3922 Q526.7172,327.1734 526.5969,327.0531 Q526.3781,326.8234 525.9844,326.6922 Q525.5906,326.55 525.1969,326.55 Q524.7047,326.55 524.2891,326.7469 Q523.8844,326.9437 523.5672,327.3812 Q523.25,327.8187 523.25,328.4203 L523.25,329.0656 Q523.25,329.7875 523.8406,330.2687 Q524.4312,330.75 525.4812,330.75 Q526.1047,330.75 526.5422,330.6078 Q526.7937,330.5312 527.0781,330.2797 Q527.2641,330.1375 527.3625,330.0937 Q527.4609,330.05 527.5812,330.05 Q527.8109,330.05 527.975,330.2359 Q528.15,330.4109 528.15,330.6625 Q528.15,330.9031 527.9094,331.1875 Q527.5594,331.6031 527.0016,331.8328 Q526.2687,332.15 525.3719,332.15 Q524.3219,332.15 523.4797,331.7344 Q522.8016,331.4062 522.3203,330.6953 Q521.85,329.9844 521.85,329.1422 L521.85,328.3766 Q521.85,327.5016 522.2656,326.7359 Q522.6922,325.9703 523.425,325.5656 Q524.1687,325.15 525,325.15 Q525.5031,325.15 525.9406,325.325 Q526.3781,325.5 526.75,325.85 Z " fill="#000000"/><text fill="#000000" font-family="sans-serif" font-size="8.4" lengthAdjust="spacing" textLength="36.4" x="535.15" y="331.7371">operation</text><line style="stroke:#A80036;stroke-width:1.0499999999999998;" x1="515.55" x2="572.95" y1="339.5" y2="339.5"/><text fill="#000000" font-family="sans-serif" font-size="7.7" lengthAdjust="spacing" textLength="38.5" x="519.05" y="350.2933">comparator</text><text fill="#000000" font-family="sans-serif" font-size="7.7" lengthAdjust="spacing" textLength="30.8" x="519.05" y="359.9784">swapper</text><text fill="#000000" font-family="sans-serif" font-size="7.7" lengthAdjust="spacing" textLength="29.4" x="519.05" y="369.6636">assigner</text><!--MD5=[5c35c4919802d06e0359645225c0c6b3]
class comparator--><rect codeLine="82" fill="#FEFECE" filter="url(#fazr2z5stk531)" height="22.4" id="comparator" style="stroke:#A80036;stroke-width:1.0499999999999998;" width="66.5" x="301.7" y="504"/><ellipse cx="312.2" cy="515.2" fill="#B4A7E5" rx="7.7" ry="7.7" style="stroke:#A80036;stroke-width:0.6999999999999998;"/><path d="M312.9,513.1 L312.9,517.3 L314.3,517.3 L314.6391,517.3 L315,517.7375 L315,518 L315,518.2625 L314.6391,518.7 L314.3,518.7 L310.1,518.7 L309.7609,518.7 L309.4,518.2625 L309.4,518 L309.4,517.7375 L309.7609,517.3 L310.1,517.3 L311.5,517.3 L311.5,513.1 L310.1,513.1 L309.7609,513.1 L309.4,512.6625 L309.4,512.4 L309.4,512.1375 L309.7609,511.7 L310.1,511.7 L314.3,511.7 L314.6391,511.7 L315,512.1375 L315,512.4 L315,512.6625 L314.6391,513.1 L314.3,513.1 L312.9,513.1 Z " fill="#000000"/><text fill="#000000" font-family="sans-serif" font-size="8.4" font-style="italic" lengthAdjust="spacing" textLength="44.1" x="322" y="518.6371">comparator</text><!--MD5=[01ff14c9840a7a6e953a5dede1e1306f]
class simple_comparator--><rect fill="#FEFECE" filter="url(#fazr2z5stk531)" height="22.4" id="simple_comparator" style="stroke:#A80036;stroke-width:1.0499999999999998;" width="98" x="166.25" y="576.1"/><ellipse cx="176.75" cy="587.3" fill="#ADD1B2" rx="7.7" ry="7.7" style="stroke:#A80036;stroke-width:0.6999999999999998;"/><path d="M178.15,584.85 Q178.2922,584.5 178.4562,584.325 Q178.6203,584.15 178.8062,584.15 Q179.1344,584.15 179.3422,584.3469 Q179.55,584.5437 179.55,585.0031 L179.55,586.0969 Q179.55,586.5562 179.3531,586.7531 Q179.1562,586.95 178.85,586.95 Q178.5766,586.95 178.4016,586.8297 Q178.2266,586.7094 178.15,586.3922 Q178.1172,586.1734 177.9969,586.0531 Q177.7781,585.8234 177.3844,585.6922 Q176.9906,585.55 176.5969,585.55 Q176.1047,585.55 175.6891,585.7469 Q175.2844,585.9437 174.9672,586.3812 Q174.65,586.8187 174.65,587.4203 L174.65,588.0656 Q174.65,588.7875 175.2406,589.2687 Q175.8312,589.75 176.8812,589.75 Q177.5047,589.75 177.9422,589.6078 Q178.1937,589.5312 178.4781,589.2797 Q178.6641,589.1375 178.7625,589.0937 Q178.8609,589.05 178.9812,589.05 Q179.2109,589.05 179.375,589.2359 Q179.55,589.4109 179.55,589.6625 Q179.55,589.9031 179.3094,590.1875 Q178.9594,590.6031 178.4016,590.8328 Q177.6687,591.15 176.7719,591.15 Q175.7219,591.15 174.8797,590.7344 Q174.2016,590.4062 173.7203,589.6953 Q173.25,588.9844 173.25,588.1422 L173.25,587.3766 Q173.25,586.5016 173.6656,585.7359 Q174.0922,584.9703 174.825,584.5656 Q175.5687,584.15 176.4,584.15 Q176.9031,584.15 177.3406,584.325 Q177.7781,584.5 178.15,584.85 Z " fill="#000000"/><text fill="#000000" font-family="sans-serif" font-size="8.4" lengthAdjust="spacing" textLength="75.6" x="186.55" y="590.7371">simple_comparator</text><!--MD5=[b233a2bc55cf6d2614604432e6c87c10]
class count_comparator--><rect fill="#FEFECE" filter="url(#fazr2z5stk531)" height="22.4" id="count_comparator" style="stroke:#A80036;stroke-width:1.0499999999999998;" width="92.4" x="288.75" y="576.1"/><ellipse cx="299.25" cy="587.3" fill="#ADD1B2" rx="7.7" ry="7.7" style="stroke:#A80036;stroke-width:0.6999999999999998;"/><path d="M300.65,584.85 Q300.7922,584.5 300.9562,584.325 Q301.1203,584.15 301.3062,584.15 Q301.6344,584.15 301.8422,584.3469 Q302.05,584.5437 302.05,585.0031 L302.05,586.0969 Q302.05,586.5562 301.8531,586.7531 Q301.6562,586.95 301.35,586.95 Q301.0766,586.95 300.9016,586.8297 Q300.7266,586.7094 300.65,586.3922 Q300.6172,586.1734 300.4969,586.0531 Q300.2781,585.8234 299.8844,585.6922 Q299.4906,585.55 299.0969,585.55 Q298.6047,585.55 298.1891,585.7469 Q297.7844,585.9437 297.4672,586.3812 Q297.15,586.8187 297.15,587.4203 L297.15,588.0656 Q297.15,588.7875 297.7406,589.2687 Q298.3312,589.75 299.3812,589.75 Q300.0047,589.75 300.4422,589.6078 Q300.6937,589.5312 300.9781,589.2797 Q301.1641,589.1375 301.2625,589.0937 Q301.3609,589.05 301.4812,589.05 Q301.7109,589.05 301.875,589.2359 Q302.05,589.4109 302.05,589.6625 Q302.05,589.9031 301.8094,590.1875 Q301.4594,590.6031 300.9016,590.8328 Q300.1687,591.15 299.2719,591.15 Q298.2219,591.15 297.3797,590.7344 Q296.7016,590.4062 296.2203,589.6953 Q295.75,588.9844 295.75,588.1422 L295.75,587.3766 Q295.75,586.5016 296.1656,585.7359 Q296.5922,584.9703 297.325,584.5656 Q298.0687,584.15 298.9,584.15 Q299.4031,584.15 299.8406,584.325 Q300.2781,584.5 300.65,584.85 Z " fill="#000000"/><text fill="#000000" font-family="sans-serif" font-size="8.4" lengthAdjust="spacing" textLength="70" x="309.05" y="590.7371">count_comparator</text><!--MD5=[ad9b6268ce3093b287e8eaea7ef1643f]
class swapper--><rect codeLine="87" fill="#FEFECE" filter="url(#fazr2z5stk531)" height="22.4" id="swapper" style="stroke:#A80036;stroke-width:1.0499999999999998;" width="54.6" x="516.95" y="504"/><ellipse cx="527.45" cy="515.2" fill="#B4A7E5" rx="7.7" ry="7.7" style="stroke:#A80036;stroke-width:0.6999999999999998;"/><path d="M528.15,513.1 L528.15,517.3 L529.55,517.3 L529.8891,517.3 L530.25,517.7375 L530.25,518 L530.25,518.2625 L529.8891,518.7 L529.55,518.7 L525.35,518.7 L525.0109,518.7 L524.65,518.2625 L524.65,518 L524.65,517.7375 L525.0109,517.3 L525.35,517.3 L526.75,517.3 L526.75,513.1 L525.35,513.1 L525.0109,513.1 L524.65,512.6625 L524.65,512.4 L524.65,512.1375 L525.0109,511.7 L525.35,511.7 L529.55,511.7 L529.8891,511.7 L530.25,512.1375 L530.25,512.4 L530.25,512.6625 L529.8891,513.1 L529.55,513.1 L528.15,513.1 Z " fill="#000000"/><text fill="#000000" font-family="sans-serif" font-size="8.4" font-style="italic" lengthAdjust="spacing" textLength="32.2" x="537.25" y="518.6371">swapper</text><!--MD5=[a3ba81e601e15fb5dcfec92b9c7ad95b]
class simple_swapper--><rect fill="#FEFECE" filter="url(#fazr2z5stk531)" height="22.4" id="simple_swapper" style="stroke:#A80036;stroke-width:1.0499999999999998;" width="87.5" x="406" y="576.1"/><ellipse cx="416.5" cy="587.3" fill="#ADD1B2" rx="7.7" ry="7.7" style="stroke:#A80036;stroke-width:0.6999999999999998;"/><path d="M417.9,584.85 Q418.0422,584.5 418.2062,584.325 Q418.3703,584.15 418.5562,584.15 Q418.8844,584.15 419.0922,584.3469 Q419.3,584.5437 419.3,585.0031 L419.3,586.0969 Q419.3,586.5562 419.1031,586.7531 Q418.9062,586.95 418.6,586.95 Q418.3266,586.95 418.1516,586.8297 Q417.9766,586.7094 417.9,586.3922 Q417.8672,586.1734 417.7469,586.0531 Q417.5281,585.8234 417.1344,585.6922 Q416.7406,585.55 416.3469,585.55 Q415.8547,585.55 415.4391,585.7469 Q415.0344,585.9437 414.7172,586.3812 Q414.4,586.8187 414.4,587.4203 L414.4,588.0656 Q414.4,588.7875 414.9906,589.2687 Q415.5812,589.75 416.6312,589.75 Q417.2547,589.75 417.6922,589.6078 Q417.9437,589.5312 418.2281,589.2797 Q418.4141,589.1375 418.5125,589.0937 Q418.6109,589.05 418.7312,589.05 Q418.9609,589.05 419.125,589.2359 Q419.3,589.4109 419.3,589.6625 Q419.3,589.9031 419.0594,590.1875 Q418.7094,590.6031 418.1516,590.8328 Q417.4187,591.15 416.5219,591.15 Q415.4719,591.15 414.6297,590.7344 Q413.9516,590.4062 413.4703,589.6953 Q413,588.9844 413,588.1422 L413,587.3766 Q413,586.5016 413.4156,585.7359 Q413.8422,584.9703 414.575,584.5656 Q415.3187,584.15 416.15,584.15 Q416.6531,584.15 417.0906,584.325 Q417.5281,584.5 417.9,584.85 Z " fill="#000000"/><text fill="#000000" font-family="sans-serif" font-size="8.4" lengthAdjust="spacing" textLength="65.1" x="426.3" y="590.7371">simple_swapper</text><!--MD5=[406d5afb16f5308fb4202a3596de5a99]
class count_swapper--><rect fill="#FEFECE" filter="url(#fazr2z5stk531)" height="22.4" id="count_swapper" style="stroke:#A80036;stroke-width:1.0499999999999998;" width="81.9" x="518" y="576.1"/><ellipse cx="528.5" cy="587.3" fill="#ADD1B2" rx="7.7" ry="7.7" style="stroke:#A80036;stroke-width:0.6999999999999998;"/><path d="M529.9,584.85 Q530.0422,584.5 530.2062,584.325 Q530.3703,584.15 530.5562,584.15 Q530.8844,584.15 531.0922,584.3469 Q531.3,584.5437 531.3,585.0031 L531.3,586.0969 Q531.3,586.5562 531.1031,586.7531 Q530.9062,586.95 530.6,586.95 Q530.3266,586.95 530.1516,586.8297 Q529.9766,586.7094 529.9,586.3922 Q529.8672,586.1734 529.7469,586.0531 Q529.5281,585.8234 529.1344,585.6922 Q528.7406,585.55 528.3469,585.55 Q527.8547,585.55 527.4391,585.7469 Q527.0344,585.9437 526.7172,586.3812 Q526.4,586.8187 526.4,587.4203 L526.4,588.0656 Q526.4,588.7875 526.9906,589.2687 Q527.5812,589.75 528.6312,589.75 Q529.2547,589.75 529.6922,589.6078 Q529.9437,589.5312 530.2281,589.2797 Q530.4141,589.1375 530.5125,589.0937 Q530.6109,589.05 530.7312,589.05 Q530.9609,589.05 531.125,589.2359 Q531.3,589.4109 531.3,589.6625 Q531.3,589.9031 531.0594,590.1875 Q530.7094,590.6031 530.1516,590.8328 Q529.4187,591.15 528.5219,591.15 Q527.4719,591.15 526.6297,590.7344 Q525.9516,590.4062 525.4703,589.6953 Q525,588.9844 525,588.1422 L525,587.3766 Q525,586.5016 525.4156,585.7359 Q525.8422,584.9703 526.575,584.5656 Q527.3187,584.15 528.15,584.15 Q528.6531,584.15 529.0906,584.325 Q529.5281,584.5 529.9,584.85 Z " fill="#000000"/><text fill="#000000" font-family="sans-serif" font-size="8.4" lengthAdjust="spacing" textLength="59.5" x="538.3" y="590.7371">count_swapper</text><!--MD5=[6a426cf3e34ff15b89f59f115799c568]
class assigner--><rect codeLine="92" fill="#FEFECE" filter="url(#fazr2z5stk531)" height="22.4" id="assigner" style="stroke:#A80036;stroke-width:1.0499999999999998;" width="55.3" x="641.2" y="504"/><ellipse cx="651.7" cy="515.2" fill="#B4A7E5" rx="7.7" ry="7.7" style="stroke:#A80036;stroke-width:0.6999999999999998;"/><path d="M652.4,513.1 L652.4,517.3 L653.8,517.3 L654.1391,517.3 L654.5,517.7375 L654.5,518 L654.5,518.2625 L654.1391,518.7 L653.8,518.7 L649.6,518.7 L649.2609,518.7 L648.9,518.2625 L648.9,518 L648.9,517.7375 L649.2609,517.3 L649.6,517.3 L651,517.3 L651,513.1 L649.6,513.1 L649.2609,513.1 L648.9,512.6625 L648.9,512.4 L648.9,512.1375 L649.2609,511.7 L649.6,511.7 L653.8,511.7 L654.1391,511.7 L654.5,512.1375 L654.5,512.4 L654.5,512.6625 L654.1391,513.1 L653.8,513.1 L652.4,513.1 Z " fill="#000000"/><text fill="#000000" font-family="sans-serif" font-size="8.4" font-style="italic" lengthAdjust="spacing" textLength="32.9" x="661.5" y="518.6371">assigner</text><!--MD5=[583f32441376f8217fe39ae2b452482d]
class simple_assigner--><rect fill="#FEFECE" filter="url(#fazr2z5stk531)" height="22.4" id="simple_assigner" style="stroke:#A80036;stroke-width:1.0499999999999998;" width="88.2" x="624.75" y="576.1"/><ellipse cx="635.25" cy="587.3" fill="#ADD1B2" rx="7.7" ry="7.7" style="stroke:#A80036;stroke-width:0.6999999999999998;"/><path d="M636.65,584.85 Q636.7922,584.5 636.9562,584.325 Q637.1203,584.15 637.3062,584.15 Q637.6344,584.15 637.8422,584.3469 Q638.05,584.5437 638.05,585.0031 L638.05,586.0969 Q638.05,586.5562 637.8531,586.7531 Q637.6562,586.95 637.35,586.95 Q637.0766,586.95 636.9016,586.8297 Q636.7266,586.7094 636.65,586.3922 Q636.6172,586.1734 636.4969,586.0531 Q636.2781,585.8234 635.8844,585.6922 Q635.4906,585.55 635.0969,585.55 Q634.6047,585.55 634.1891,585.7469 Q633.7844,585.9437 633.4672,586.3812 Q633.15,586.8187 633.15,587.4203 L633.15,588.0656 Q633.15,588.7875 633.7406,589.2687 Q634.3312,589.75 635.3812,589.75 Q636.0047,589.75 636.4422,589.6078 Q636.6937,589.5312 636.9781,589.2797 Q637.1641,589.1375 637.2625,589.0937 Q637.3609,589.05 637.4812,589.05 Q637.7109,589.05 637.875,589.2359 Q638.05,589.4109 638.05,589.6625 Q638.05,589.9031 637.8094,590.1875 Q637.4594,590.6031 636.9016,590.8328 Q636.1687,591.15 635.2719,591.15 Q634.2219,591.15 633.3797,590.7344 Q632.7016,590.4062 632.2203,589.6953 Q631.75,588.9844 631.75,588.1422 L631.75,587.3766 Q631.75,586.5016 632.1656,585.7359 Q632.5922,584.9703 633.325,584.5656 Q634.0687,584.15 634.9,584.15 Q635.4031,584.15 635.8406,584.325 Q636.2781,584.5 636.65,584.85 Z " fill="#000000"/><text fill="#000000" font-family="sans-serif" font-size="8.4" lengthAdjust="spacing" textLength="65.8" x="645.05" y="590.7371">simple_assigner</text><!--MD5=[b62d2c65e03453dde8a18fa206e628ab]
class count_assigner--><rect fill="#FEFECE" filter="url(#fazr2z5stk531)" height="22.4" id="count_assigner" style="stroke:#A80036;stroke-width:1.0499999999999998;" width="82.6" x="737.45" y="576.1"/><ellipse cx="747.95" cy="587.3" fill="#ADD1B2" rx="7.7" ry="7.7" style="stroke:#A80036;stroke-width:0.6999999999999998;"/><path d="M749.35,584.85 Q749.4922,584.5 749.6562,584.325 Q749.8203,584.15 750.0062,584.15 Q750.3344,584.15 750.5422,584.3469 Q750.75,584.5437 750.75,585.0031 L750.75,586.0969 Q750.75,586.5562 750.5531,586.7531 Q750.3562,586.95 750.05,586.95 Q749.7766,586.95 749.6016,586.8297 Q749.4266,586.7094 749.35,586.3922 Q749.3172,586.1734 749.1969,586.0531 Q748.9781,585.8234 748.5844,585.6922 Q748.1906,585.55 747.7969,585.55 Q747.3047,585.55 746.8891,585.7469 Q746.4844,585.9437 746.1672,586.3812 Q745.85,586.8187 745.85,587.4203 L745.85,588.0656 Q745.85,588.7875 746.4406,589.2687 Q747.0312,589.75 748.0812,589.75 Q748.7047,589.75 749.1422,589.6078 Q749.3937,589.5312 749.6781,589.2797 Q749.8641,589.1375 749.9625,589.0937 Q750.0609,589.05 750.1812,589.05 Q750.4109,589.05 750.575,589.2359 Q750.75,589.4109 750.75,589.6625 Q750.75,589.9031 750.5094,590.1875 Q750.1594,590.6031 749.6016,590.8328 Q748.8687,591.15 747.9719,591.15 Q746.9219,591.15 746.0797,590.7344 Q745.4016,590.4062 744.9203,589.6953 Q744.45,588.9844 744.45,588.1422 L744.45,587.3766 Q744.45,586.5016 744.8656,585.7359 Q745.2922,584.9703 746.025,584.5656 Q746.7687,584.15 747.6,584.15 Q748.1031,584.15 748.5406,584.325 Q748.9781,584.5 749.35,584.85 Z " fill="#000000"/><text fill="#000000" font-family="sans-serif" font-size="8.4" lengthAdjust="spacing" textLength="60.2" x="757.75" y="590.7371">count_assigner</text><!--MD5=[2a38fecd9ee8bf218a9bba8e35859ea0]
reverse link engine to unit--><path codeLine="96" d="M432.327,76.825 C428.267,87.864 423.934,99.624 420.175,109.851 " fill="none" id="engine-backto-unit" style="stroke:#A80036;stroke-width:0.6999999999999998;"/><polygon fill="#FFFFFF" points="435.519,68.166,431.4416,71.1417,432.6202,76.05,436.6976,73.0742,435.519,68.166" style="stroke:#A80036;stroke-width:0.6999999999999998;"/><!--MD5=[53ba4a7a3d61ee95579427f733878396]
reverse link engine to invariants--><path codeLine="97" d="M461.601,76.902 C468.3,95.102 475.706,115.234 480.116,127.218 " fill="none" id="engine-backto-invariants" style="stroke:#A80036;stroke-width:0.6999999999999998;"/><polygon fill="#FFFFFF" points="458.381,68.166,457.2024,73.0742,461.2798,76.05,462.4584,71.1417,458.381,68.166" style="stroke:#A80036;stroke-width:0.6999999999999998;"/><!--MD5=[2c298c29dd02b5a60a3f7ebd11e2d366]
reverse link unit to averager--><path codeLine="99" d="M409.85,176.764 C409.85,192.542 409.85,210.182 409.85,223.062 " fill="none" id="unit-backto-averager" style="stroke:#A80036;stroke-width:0.6999999999999998;"/><polygon fill="#A80036" points="409.85,167.496,407.05,171.696,409.85,175.896,412.65,171.696,409.85,167.496" style="stroke:#A80036;stroke-width:0.6999999999999998;"/><!--MD5=[156807881e34b15de829e70d63b2e82c]
reverse link unit to executor--><path codeLine="100" d="M435.281,171.871 C448.553,188.867 464.289,209.02 475.412,223.265 " fill="none" id="unit-backto-executor" style="stroke:#A80036;stroke-width:0.6999999999999998;"/><polygon fill="#A80036" points="429.576,164.563,429.9512,169.5968,434.742,171.1866,434.3669,166.1528,429.576,164.563" style="stroke:#A80036;stroke-width:0.6999999999999998;"/><!--MD5=[84f1a72db9d90b321e4206103b93197e]
reverse link unit to sorting--><path codeLine="101" d="M384.013,168.315 C372.638,181.09 359.226,196.154 347.543,209.279 " fill="none" id="unit-backto-sorting" style="stroke:#A80036;stroke-width:0.6999999999999998;"/><polygon fill="#A80036" points="390.103,161.476,385.2193,162.7527,384.5195,167.7517,389.4031,166.475,390.103,161.476" style="stroke:#A80036;stroke-width:0.6999999999999998;"/><!--MD5=[ecb66277e64221d8f3488b795f17102b]
reverse link sorting to quick_sort--><path codeLine="106" d="M309.05,275.8 C309.05,275.8 79.45,317.1 79.45,317.1 C79.45,317.1 72.562,321.545 64.274,326.893 " fill="none" id="sorting-backto-quick_sort" style="stroke:#A80036;stroke-width:0.6999999999999998;"/><!--MD5=[38875d4a474cd8b7912d590cf1dedf2d]
reverse link sorting to dual_pivot_quick_sort--><path codeLine="107" d="M309.05,275.8 C309.05,275.8 210.35,317.1 210.35,317.1 C210.35,317.1 200.018,321.545 187.579,326.893 " fill="none" id="sorting-backto-dual_pivot_quick_sort" style="stroke:#A80036;stroke-width:0.6999999999999998;"/><!--MD5=[0994713fd4b900e49a430f6deeb78c88]
reverse link sorting to quick_merge_sort--><path codeLine="108" d="M309.05,275.8 C309.05,275.8 291.452,306.362 279.636,326.893 " fill="none" id="sorting-backto-quick_merge_sort" style="stroke:#A80036;stroke-width:0.6999999999999998;"/><!--MD5=[eac7a90925a17bd16818bf3e564cc4d3]
reverse link sorting to intro_sort--><path codeLine="109" d="M309.05,275.8 C309.05,275.8 335.594,306.362 353.43,326.893 " fill="none" id="sorting-backto-intro_sort" style="stroke:#A80036;stroke-width:0.6999999999999998;"/><!--MD5=[2d45d0f7d4b41f58bf51f6f022278773]
reverse link sorting to merge_sort--><path codeLine="110" d="M309.05,275.8 C309.05,275.8 410.55,317.1 410.55,317.1 C410.55,317.1 417.886,321.545 426.706,326.893 " fill="none" id="sorting-backto-merge_sort" style="stroke:#A80036;stroke-width:0.6999999999999998;"/><!--MD5=[53626af8a9d92fd70921a57dc43a1bbd]
reverse link quick_sort to partition--><path codeLine="112" d="M71.309,370.006 C93.394,384.727 121.408,403.403 141.652,416.899 " fill="none" id="quick_sort-backto-partition" style="stroke:#A80036;stroke-width:0.6999999999999998;"/><polygon fill="#FFFFFF" points="63.462,364.777,65.402,369.4371,70.4498,369.4386,68.5098,364.7785,63.462,364.777" style="stroke:#A80036;stroke-width:0.6999999999999998;"/><!--MD5=[571db55d4975e3821ef4e65ed28a3c7c]
reverse link dual_pivot_quick_sort to partition--><path codeLine="113" d="M152.369,373.667 C156.002,387.562 160.335,404.096 163.569,416.451 " fill="none" id="dual_pivot_quick_sort-backto-partition" style="stroke:#A80036;stroke-width:0.6999999999999998;"/><polygon fill="#FFFFFF" points="150.038,364.777,148.3961,369.5503,152.1707,372.9017,153.8126,368.1285,150.038,364.777" style="stroke:#A80036;stroke-width:0.6999999999999998;"/><!--MD5=[5df7674ae420264175e22f5018368eef]
reverse link quick_merge_sort to partition--><path codeLine="114" d="M241.248,370.916 C224.777,385.329 204.274,403.27 189.21,416.451 " fill="none" id="quick_merge_sort-backto-partition" style="stroke:#A80036;stroke-width:0.6999999999999998;"/><polygon fill="#FFFFFF" points="248.262,364.777,243.2577,365.4381,241.9432,370.3117,246.9475,369.6506,248.262,364.777" style="stroke:#A80036;stroke-width:0.6999999999999998;"/><!--MD5=[ab38684108c75bb2023b2b155c3d5387]
reverse link intro_sort to partition--><path codeLine="115" d="M334.362,369.761 C330.12,372.589 327.25,374.5 327.25,374.5 C327.25,374.5 240.408,407.4 195.125,424.557 " fill="none" id="intro_sort-backto-partition" style="stroke:#A80036;stroke-width:0.6999999999999998;"/><polygon fill="#FFFFFF" points="341.943,364.707,336.8952,364.7085,334.9552,369.3686,340.003,369.3671,341.943,364.707" style="stroke:#A80036;stroke-width:0.6999999999999998;"/><!--MD5=[7885b60ff1bcbd860e6297ece956aadd]
reverse link partition to lomuto_partition--><path codeLine="117" d="M138.404,464.051 C126.938,474.747 114.17,486.668 103.922,496.237 " fill="none" id="partition-backto-lomuto_partition" style="stroke:#A80036;stroke-width:0.6999999999999998;stroke-dasharray:7.0,7.0;"/><polygon fill="none" points="135.079,460.453,148.659,454.482,141.764,467.614,135.079,460.453" style="stroke:#A80036;stroke-width:0.6999999999999998;"/><!--MD5=[c82b6fd2248cd4cf82d87dad6b496945]
reverse link partition to hoare_partition--><path codeLine="118" d="M177.814,468.223 C180.628,477.771 183.61,487.893 186.067,496.237 " fill="none" id="partition-backto-hoare_partition" style="stroke:#A80036;stroke-width:0.6999999999999998;stroke-dasharray:7.0,7.0;"/><polygon fill="none" points="173.026,469.294,173.768,454.482,182.42,466.529,173.026,469.294" style="stroke:#A80036;stroke-width:0.6999999999999998;"/><!--MD5=[fb4c5716c51417f1184d9baa2f41622a]
reverse link sorting to operation--><path codeLine="121" d="M364.931,272.342 C367.612,274.057 369.25,275.1 369.25,275.1 C369.25,275.1 502.25,317.1 502.25,317.1 C502.25,317.1 507.675,320.719 514.626,325.346 " fill="none" id="sorting-backto-operation" style="stroke:#A80036;stroke-width:0.6999999999999998;"/><polygon fill="#A80036" points="357.049,267.302,359.081,271.9227,364.1278,271.8243,362.0958,267.2036,357.049,267.302" style="stroke:#A80036;stroke-width:0.6999999999999998;"/><!--MD5=[3a2d2deea1b0392be9175952f2320cba]
reverse link operation to comparator--><path codeLine="122" d="M507.381,376.096 C459.907,414.204 379.771,478.527 348.25,503.825 " fill="none" id="operation-backto-comparator" style="stroke:#A80036;stroke-width:0.6999999999999998;"/><polygon fill="#A80036" points="514.703,370.216,509.6749,370.6611,508.1518,375.4736,513.1799,375.0285,514.703,370.216" style="stroke:#A80036;stroke-width:0.6999999999999998;"/><!--MD5=[00f95100769494c2df9f15052dc6bc0a]
reverse link operation to swapper--><path codeLine="123" d="M544.25,383.74 C544.25,422.324 544.25,480.228 544.25,503.874 " fill="none" id="operation-backto-swapper" style="stroke:#A80036;stroke-width:0.6999999999999998;"/><polygon fill="#A80036" points="544.25,374.619,541.45,378.819,544.25,383.019,547.05,378.819,544.25,374.619" style="stroke:#A80036;stroke-width:0.6999999999999998;"/><!--MD5=[1ecf172383f769767f649106253ba2ab]
reverse link operation to assigner--><path codeLine="124" d="M570.605,382.039 C599.207,420.602 643.174,479.878 660.968,503.874 " fill="none" id="operation-backto-assigner" style="stroke:#A80036;stroke-width:0.6999999999999998;"/><polygon fill="#A80036" points="565.103,374.619,565.3553,379.6605,570.106,381.3666,569.8537,376.3251,565.103,374.619" style="stroke:#A80036;stroke-width:0.6999999999999998;"/><!--MD5=[b71303bbc47bd808e266a0ab12cc7133]
reverse link comparator to simple_comparator--><path codeLine="126" d="M304.738,533.743 C282.135,547.099 251.986,564.9 233.1,576.058 " fill="none" id="comparator-backto-simple_comparator" style="stroke:#A80036;stroke-width:0.6999999999999998;stroke-dasharray:7.0,7.0;"/><polygon fill="none" points="302.484,529.382,317.03,526.484,307.468,537.824,302.484,529.382" style="stroke:#A80036;stroke-width:0.6999999999999998;"/><!--MD5=[f18a9ff7b9125f75e9d0408684f5dfd3]
reverse link comparator to count_comparator--><path codeLine="127" d="M334.95,540.722 C334.95,552.804 334.95,566.692 334.95,575.995 " fill="none" id="comparator-backto-count_comparator" style="stroke:#A80036;stroke-width:0.6999999999999998;stroke-dasharray:7.0,7.0;"/><polygon fill="none" points="330.05,540.638,334.95,526.638,339.85,540.638,330.05,540.638" style="stroke:#A80036;stroke-width:0.6999999999999998;"/><!--MD5=[1c0e2d6f9e5d546a4c94a2b7a3c362bb]
reverse link swapper to simple_swapper--><path codeLine="128" d="M518.665,535.045 C501.095,548.184 478.436,565.138 463.995,575.946 " fill="none" id="swapper-backto-simple_swapper" style="stroke:#A80036;stroke-width:0.6999999999999998;stroke-dasharray:7.0,7.0;"/><polygon fill="none" points="515.956,530.95,530.103,526.484,521.829,538.797,515.956,530.95" style="stroke:#A80036;stroke-width:0.6999999999999998;"/><!--MD5=[611b8d4560018aba4a4a0640c7ea4000]
reverse link swapper to count_swapper--><path codeLine="129" d="M549.367,540.519 C551.887,552.643 554.799,566.636 556.745,575.995 " fill="none" id="swapper-backto-count_swapper" style="stroke:#A80036;stroke-width:0.6999999999999998;stroke-dasharray:7.0,7.0;"/><polygon fill="none" points="544.537,541.345,546.483,526.638,554.127,539.35,544.537,541.345" style="stroke:#A80036;stroke-width:0.6999999999999998;"/><!--MD5=[66216308ddf6a9e8514a2ba56d1eedf4]
reverse link assigner to simple_assigner--><path codeLine="130" d="M668.85,540.722 C668.85,552.804 668.85,566.692 668.85,575.995 " fill="none" id="assigner-backto-simple_assigner" style="stroke:#A80036;stroke-width:0.6999999999999998;stroke-dasharray:7.0,7.0;"/><polygon fill="none" points="663.95,540.638,668.85,526.638,673.75,540.638,663.95,540.638" style="stroke:#A80036;stroke-width:0.6999999999999998;"/><!--MD5=[647334cf68506b483d3b34736c20a485]
reverse link assigner to count_assigner--><path codeLine="131" d="M697.172,534.121 C717.857,547.428 745.185,565.005 762.363,576.058 " fill="none" id="assigner-backto-count_assigner" style="stroke:#A80036;stroke-width:0.6999999999999998;stroke-dasharray:7.0,7.0;"/><polygon fill="none" points="694.428,538.181,685.3,526.484,699.727,529.935,694.428,538.181" style="stroke:#A80036;stroke-width:0.6999999999999998;"/><!--MD5=[fc1efda25ae77226ab6e4e7dc8f66def]
@startuml
'!include styles/card-style.puml

hide unit methods
class unit {
	executor
	sorting
	averager
}

hide invariants members
class invariants

class engine {
	List<unit> units
	invariants
	test()
}

hide sorting fields
interface sorting {
	sort()
}

hide averager fields
class averager {
	average()
}

hide executor fields
class executor {
	execute()
}

hide quick_sort fields
class quick_sort {
	sort()
}

hide dual_pivot_quick_sort fields
class dual_pivot_quick_sort {
	sort()
}

hide quick_merge_sort fields
class quick_merge_sort {
	sort()
}

hide intro_sort fields
class intro_sort {
	sort()
}

hide merge_sort fields
class merge_sort {
	sort()
}

hide partition fields
interface partition {
	partition()
}

hide lomuto_partition fields
class lomuto_partition {
	partition()
}

hide hoare_partition fields
class hoare_partition {
	partition()
}

hide operation methods
class operation {
	comparator
	swapper
	assigner
}

hide comparator members
interface comparator
hide simple_comparator members
hide count_comparator members

hide swapper members
interface swapper
hide simple_swapper members
hide count_swapper members

hide assigner members
interface assigner
hide simple_assigner members
hide count_assigner members

engine o- - unit
engine o- - invariants

unit *- - averager
unit *- - executor
unit *- - sorting

skinparam groupInheritance 3
skinparam linetype polyline

sorting <|.. quick_sort
sorting <|.. dual_pivot_quick_sort
sorting <|.. quick_merge_sort
sorting <|.. intro_sort
sorting <|.. merge_sort

quick_sort o- - partition
dual_pivot_quick_sort o- - partition
quick_merge_sort o- - partition
intro_sort o- - partition

partition <|.. lomuto_partition
partition <|.. hoare_partition


sorting *- - operation
operation *- - - comparator
operation *- - - swapper
operation *- - - assigner

comparator <|.. simple_comparator
comparator <|.. count_comparator
swapper <|.. simple_swapper
swapper <|.. count_swapper
assigner <|.. simple_assigner
assigner <|.. count_assigner

@enduml

@startuml

hide unit methods
class unit {
	executor
	sorting
	averager
}

hide invariants members
class invariants

class engine {
	List<unit> units
	invariants
	test()
}

hide sorting fields
interface sorting {
	sort()
}

hide averager fields
class averager {
	average()
}

hide executor fields
class executor {
	execute()
}

hide quick_sort fields
class quick_sort {
	sort()
}

hide dual_pivot_quick_sort fields
class dual_pivot_quick_sort {
	sort()
}

hide quick_merge_sort fields
class quick_merge_sort {
	sort()
}

hide intro_sort fields
class intro_sort {
	sort()
}

hide merge_sort fields
class merge_sort {
	sort()
}

hide partition fields
interface partition {
	partition()
}

hide lomuto_partition fields
class lomuto_partition {
	partition()
}

hide hoare_partition fields
class hoare_partition {
	partition()
}

hide operation methods
class operation {
	comparator
	swapper
	assigner
}

hide comparator members
interface comparator
hide simple_comparator members
hide count_comparator members

hide swapper members
interface swapper
hide simple_swapper members
hide count_swapper members

hide assigner members
interface assigner
hide simple_assigner members
hide count_assigner members

engine o- - unit
engine o- - invariants

unit *- - averager
unit *- - executor
unit *- - sorting

skinparam groupInheritance 3
skinparam linetype polyline

sorting <|.. quick_sort
sorting <|.. dual_pivot_quick_sort
sorting <|.. quick_merge_sort
sorting <|.. intro_sort
sorting <|.. merge_sort

quick_sort o- - partition
dual_pivot_quick_sort o- - partition
quick_merge_sort o- - partition
intro_sort o- - partition

partition <|.. lomuto_partition
partition <|.. hoare_partition


sorting *- - operation
operation *- - - comparator
operation *- - - swapper
operation *- - - assigner

comparator <|.. simple_comparator
comparator <|.. count_comparator
swapper <|.. simple_swapper
swapper <|.. count_swapper
assigner <|.. simple_assigner
assigner <|.. count_assigner

@enduml

PlantUML version 1.2021.11(Sat Oct 02 15:26:11 CEST 2021)
(GPL source distribution)
Java Runtime: OpenJDK Runtime Environment
JVM: OpenJDK 64-Bit Server VM
Default Encoding: Cp1250
Language: pl
Country: PL
--></g></svg>