<?xml version="1.0" encoding="UTF-8" standalone="no"?><svg xmlns="http://www.w3.org/2000/svg" xmlns:xlink="http://www.w3.org/1999/xlink" contentScriptType="application/ecmascript" contentStyleType="text/css" height="196px" preserveAspectRatio="none" style="width:494px;height:196px;background:#FFFFFF;" version="1.1" viewBox="0 0 494 196" width="494px" zoomAndPan="magnify"><defs><filter height="300%" id="f1pwaz80qyweu4" width="300%" x="-1" y="-1"><feGaussianBlur result="blurOut" stdDeviation="2.0"/><feColorMatrix in="blurOut" result="blurOut2" type="matrix" values="0 0 0 0 0 0 0 0 0 0 0 0 0 0 0 0 0 0 .4 0"/><feOffset dx="4.0" dy="4.0" in="blurOut2" result="blurOut3"/><feBlend in="SourceGraphic" in2="blurOut3" mode="normal"/></filter></defs><g><!--MD5=[dd71179583cce17ecb14726d47c32e81]
class generator--><rect codeLine="4" fill="#FEFECE" filter="url(#f1pwaz80qyweu4)" height="62.0234" id="generator" style="stroke:#A80036;stroke-width:1.5;" width="87" x="204" y="7"/><ellipse cx="219" cy="27.0938" fill="#B4A7E5" rx="11" ry="11" style="stroke:#A80036;stroke-width:1.0;"/><path d="M220,24.0938 L220,30.0938 L222,30.0938 L222.4844,30.0938 L223,30.7188 L223,31.0938 L223,31.4688 L222.4844,32.0938 L222,32.0938 L216,32.0938 L215.5156,32.0938 L215,31.4688 L215,31.0938 L215,30.7188 L215.5156,30.0938 L216,30.0938 L218,30.0938 L218,24.0938 L216,24.0938 L215.5156,24.0938 L215,23.4688 L215,23.0938 L215,22.7188 L215.5156,22.0938 L216,22.0938 L222,22.0938 L222.4844,22.0938 L223,22.7188 L223,23.0938 L223,23.4688 L222.4844,24.0938 L222,24.0938 L220,24.0938 Z " fill="#000000"/><text fill="#000000" font-family="sans-serif" font-size="12" font-style="italic" lengthAdjust="spacing" textLength="59" x="231" y="24.457">«Strategy»</text><text fill="#000000" font-family="sans-serif" font-size="12" font-style="italic" lengthAdjust="spacing" textLength="53" x="234" y="39.5508">generator</text><line style="stroke:#A80036;stroke-width:1.5;" x1="205" x2="290" y1="47.1875" y2="47.1875"/><text fill="#000000" font-family="sans-serif" font-size="11" lengthAdjust="spacing" textLength="51" x="210" y="62.6064">generate()</text><!--MD5=[fb256fdf9858836e70a1c99163fc2220]
class random_generator--><rect codeLine="9" fill="#FEFECE" filter="url(#f1pwaz80qyweu4)" height="53.8359" id="random_generator" style="stroke:#A80036;stroke-width:1.5;" width="135" x="7" y="129"/><ellipse cx="22" cy="145" fill="#ADD1B2" rx="11" ry="11" style="stroke:#A80036;stroke-width:1.0;"/><path d="M24,141.5 Q24.2031,141 24.4375,140.75 Q24.6719,140.5 24.9375,140.5 Q25.4063,140.5 25.7031,140.7813 Q26,141.0625 26,141.7188 L26,143.2813 Q26,143.9375 25.7188,144.2188 Q25.4375,144.5 25,144.5 Q24.6094,144.5 24.3594,144.3281 Q24.1094,144.1563 24,143.7031 Q23.9531,143.3906 23.7813,143.2188 Q23.4688,142.8906 22.9063,142.7031 Q22.3438,142.5 21.7813,142.5 Q21.0781,142.5 20.4844,142.7813 Q19.9063,143.0625 19.4531,143.6875 Q19,144.3125 19,145.1719 L19,146.0938 Q19,147.125 19.8438,147.8125 Q20.6875,148.5 22.1875,148.5 Q23.0781,148.5 23.7031,148.2969 Q24.0625,148.1875 24.4688,147.8281 Q24.7344,147.625 24.875,147.5625 Q25.0156,147.5 25.1875,147.5 Q25.5156,147.5 25.75,147.7656 Q26,148.0156 26,148.375 Q26,148.7188 25.6563,149.125 Q25.1563,149.7188 24.3594,150.0469 Q23.3125,150.5 22.0313,150.5 Q20.5313,150.5 19.3281,149.9063 Q18.3594,149.4375 17.6719,148.4219 Q17,147.4063 17,146.2031 L17,145.1094 Q17,143.8594 17.5938,142.7656 Q18.2031,141.6719 19.25,141.0938 Q20.3125,140.5 21.5,140.5 Q22.2188,140.5 22.8438,140.75 Q23.4688,141 24,141.5 Z " fill="#000000"/><text fill="#000000" font-family="sans-serif" font-size="12" lengthAdjust="spacing" textLength="103" x="36" y="149.9102">random_generator</text><line style="stroke:#A80036;stroke-width:1.5;" x1="8" x2="141" y1="161" y2="161"/><text fill="#000000" font-family="sans-serif" font-size="11" lengthAdjust="spacing" textLength="51" x="13" y="176.4189">generate()</text><!--MD5=[34f79dec2ddc7b2435de62503a616449]
class reversed_generator--><rect codeLine="14" fill="#FEFECE" filter="url(#f1pwaz80qyweu4)" height="53.8359" id="reversed_generator" style="stroke:#A80036;stroke-width:1.5;" width="140" x="177.5" y="129"/><ellipse cx="192.5" cy="145" fill="#ADD1B2" rx="11" ry="11" style="stroke:#A80036;stroke-width:1.0;"/><path d="M194.5,141.5 Q194.7031,141 194.9375,140.75 Q195.1719,140.5 195.4375,140.5 Q195.9063,140.5 196.2031,140.7813 Q196.5,141.0625 196.5,141.7188 L196.5,143.2813 Q196.5,143.9375 196.2188,144.2188 Q195.9375,144.5 195.5,144.5 Q195.1094,144.5 194.8594,144.3281 Q194.6094,144.1563 194.5,143.7031 Q194.4531,143.3906 194.2813,143.2188 Q193.9688,142.8906 193.4063,142.7031 Q192.8438,142.5 192.2813,142.5 Q191.5781,142.5 190.9844,142.7813 Q190.4063,143.0625 189.9531,143.6875 Q189.5,144.3125 189.5,145.1719 L189.5,146.0938 Q189.5,147.125 190.3438,147.8125 Q191.1875,148.5 192.6875,148.5 Q193.5781,148.5 194.2031,148.2969 Q194.5625,148.1875 194.9688,147.8281 Q195.2344,147.625 195.375,147.5625 Q195.5156,147.5 195.6875,147.5 Q196.0156,147.5 196.25,147.7656 Q196.5,148.0156 196.5,148.375 Q196.5,148.7188 196.1563,149.125 Q195.6563,149.7188 194.8594,150.0469 Q193.8125,150.5 192.5313,150.5 Q191.0313,150.5 189.8281,149.9063 Q188.8594,149.4375 188.1719,148.4219 Q187.5,147.4063 187.5,146.2031 L187.5,145.1094 Q187.5,143.8594 188.0938,142.7656 Q188.7031,141.6719 189.75,141.0938 Q190.8125,140.5 192,140.5 Q192.7188,140.5 193.3438,140.75 Q193.9688,141 194.5,141.5 Z " fill="#000000"/><text fill="#000000" font-family="sans-serif" font-size="12" lengthAdjust="spacing" textLength="108" x="206.5" y="149.9102">reversed_generator</text><line style="stroke:#A80036;stroke-width:1.5;" x1="178.5" x2="316.5" y1="161" y2="161"/><text fill="#000000" font-family="sans-serif" font-size="11" lengthAdjust="spacing" textLength="51" x="183.5" y="176.4189">generate()</text><!--MD5=[252cd340d98754b2f6fd073d98a7a592]
class sorted_generator--><rect codeLine="19" fill="#FEFECE" filter="url(#f1pwaz80qyweu4)" height="53.8359" id="sorted_generator" style="stroke:#A80036;stroke-width:1.5;" width="127" x="353" y="129"/><ellipse cx="368" cy="145" fill="#ADD1B2" rx="11" ry="11" style="stroke:#A80036;stroke-width:1.0;"/><path d="M370,141.5 Q370.2031,141 370.4375,140.75 Q370.6719,140.5 370.9375,140.5 Q371.4063,140.5 371.7031,140.7813 Q372,141.0625 372,141.7188 L372,143.2813 Q372,143.9375 371.7188,144.2188 Q371.4375,144.5 371,144.5 Q370.6094,144.5 370.3594,144.3281 Q370.1094,144.1563 370,143.7031 Q369.9531,143.3906 369.7813,143.2188 Q369.4688,142.8906 368.9063,142.7031 Q368.3438,142.5 367.7813,142.5 Q367.0781,142.5 366.4844,142.7813 Q365.9063,143.0625 365.4531,143.6875 Q365,144.3125 365,145.1719 L365,146.0938 Q365,147.125 365.8438,147.8125 Q366.6875,148.5 368.1875,148.5 Q369.0781,148.5 369.7031,148.2969 Q370.0625,148.1875 370.4688,147.8281 Q370.7344,147.625 370.875,147.5625 Q371.0156,147.5 371.1875,147.5 Q371.5156,147.5 371.75,147.7656 Q372,148.0156 372,148.375 Q372,148.7188 371.6563,149.125 Q371.1563,149.7188 370.3594,150.0469 Q369.3125,150.5 368.0313,150.5 Q366.5313,150.5 365.3281,149.9063 Q364.3594,149.4375 363.6719,148.4219 Q363,147.4063 363,146.2031 L363,145.1094 Q363,143.8594 363.5938,142.7656 Q364.2031,141.6719 365.25,141.0938 Q366.3125,140.5 367.5,140.5 Q368.2188,140.5 368.8438,140.75 Q369.4688,141 370,141.5 Z " fill="#000000"/><text fill="#000000" font-family="sans-serif" font-size="12" lengthAdjust="spacing" textLength="95" x="382" y="149.9102">sorted_generator</text><line style="stroke:#A80036;stroke-width:1.5;" x1="354" x2="479" y1="161" y2="161"/><text fill="#000000" font-family="sans-serif" font-size="11" lengthAdjust="spacing" textLength="51" x="359" y="176.4189">generate()</text><!--MD5=[763aacbbe99df1c9e230fef2b6afaf1b]
reverse link generator to random_generator--><path codeLine="23" d="M187.11,79.49 C162.66,95.89 135.14,114.34 113.42,128.9 " fill="none" id="generator-backto-random_generator" style="stroke:#A80036;stroke-width:1.0;stroke-dasharray:7.0,7.0;"/><polygon fill="none" points="183.33,73.6,203.84,68.27,191.13,85.22,183.33,73.6" style="stroke:#A80036;stroke-width:1.0;"/><!--MD5=[a57d4547c40f656ef8256f7e31224de4]
reverse link generator to reversed_generator--><path codeLine="24" d="M247.5,89.61 C247.5,103.17 247.5,117.29 247.5,128.92 " fill="none" id="generator-backto-reversed_generator" style="stroke:#A80036;stroke-width:1.0;stroke-dasharray:7.0,7.0;"/><polygon fill="none" points="240.5,89.17,247.5,69.17,254.5,89.17,240.5,89.17" style="stroke:#A80036;stroke-width:1.0;"/><!--MD5=[b155f48437b20eab67b3c6c2f452d065]
reverse link generator to sorted_generator--><path codeLine="25" d="M307.62,80.27 C331.27,96.5 357.69,114.63 378.58,128.98 " fill="none" id="generator-backto-sorted_generator" style="stroke:#A80036;stroke-width:1.0;stroke-dasharray:7.0,7.0;"/><polygon fill="none" points="303.55,85.96,291.02,68.87,311.47,74.42,303.55,85.96" style="stroke:#A80036;stroke-width:1.0;"/><!--MD5=[3dd2b0f77e8e32384117116fd77d596b]
@startuml
'!include styles/card-style.puml

hide generator fields
interface generator <<Strategy>> {
	generate()
}

hide random_generator fields
class random_generator {
	generate()
}

hide reversed_generator fields
class reversed_generator {
	generate()
}

hide sorted_generator fields
class sorted_generator {
	generate()
}

generator <|.. random_generator
generator <|.. reversed_generator
generator <|.. sorted_generator

@enduml

@startuml

hide generator fields
interface generator <<Strategy>> {
	generate()
}

hide random_generator fields
class random_generator {
	generate()
}

hide reversed_generator fields
class reversed_generator {
	generate()
}

hide sorted_generator fields
class sorted_generator {
	generate()
}

generator <|.. random_generator
generator <|.. reversed_generator
generator <|.. sorted_generator

@enduml

PlantUML version 1.2021.11(Sat Oct 02 15:26:11 CEST 2021)
(GPL source distribution)
Java Runtime: OpenJDK Runtime Environment
JVM: OpenJDK 64-Bit Server VM
Default Encoding: Cp1250
Language: pl
Country: PL
--></g></svg>